<svg xmlns="http://www.w3.org/2000/svg" width="18.111" height="18.111" viewBox="0 0 18.111 18.111">
  <path id="Instagram" d="M12.715,18.111H5.4a5.4,5.4,0,0,1-5.4-5.4V5.4A5.4,5.4,0,0,1,5.4,0h7.32a5.4,5.4,0,0,1,5.4,5.4v7.32A5.4,5.4,0,0,1,12.715,18.111ZM5.4,1.822A3.577,3.577,0,0,0,1.822,5.4v7.32A3.577,3.577,0,0,0,5.4,16.289h7.32a3.577,3.577,0,0,0,3.573-3.573V5.4a3.577,3.577,0,0,0-3.573-3.573Zm3.66,11.917a4.684,4.684,0,1,1,4.684-4.684A4.689,4.689,0,0,1,9.055,13.739Zm0-7.546a2.862,2.862,0,1,0,2.862,2.862A2.865,2.865,0,0,0,9.055,6.193Zm4.693-.664a1.123,1.123,0,1,1,1.123-1.122A1.124,1.124,0,0,1,13.748,5.529Z" fill="#2c3032"/>
</svg>
