<svg xmlns="http://www.w3.org/2000/svg" width="76.231" height="76.23" viewBox="0 0 76.231 76.23">
  <g id="geometry" transform="translate(0.001 0)">
    <path id="Path_148" data-name="Path 148" d="M122.367,153.6l-11.434,11.434v25.41h25.41l11.435-11.435V153.6Zm0,0" transform="translate(-94.417 -130.732)" fill="#955ba5"/>
    <path id="Path_149" data-name="Path 149" d="M110.934,230.4h25.41v25.41h-25.41Zm0,0" transform="translate(-94.418 -196.094)" fill="#ff97af"/>
    <path id="Path_150" data-name="Path 150" d="M147.778,153.6l-11.435,11.434h-25.41L122.367,153.6Zm0,0" transform="translate(-94.417 -130.732)" fill="#ff97af"/>
    <path id="Path_151" data-name="Path 151" d="M293.032,153.6v25.41L281.6,190.446v-25.41Zm0,0" transform="translate(-239.672 -130.732)" fill="#f84871"/>
    <path id="Path_152" data-name="Path 152" d="M289.221,179.2v25.41l-7.623,7.623v-25.41Zm0,0" transform="translate(-239.672 -152.518)" fill="#ff97af"/>
    <path id="Path_153" data-name="Path 153" d="M114.744,165.035,126.179,153.6h-3.812l-11.434,11.434v25.41h3.811Zm0,0" transform="translate(-94.417 -130.731)" fill="#fffdfd"/>
    <path id="Path_154" data-name="Path 154" d="M129.079,249.819H103.67a1.271,1.271,0,0,1-1.271-1.271v-25.41a1.27,1.27,0,0,1,1.271-1.27h25.41a1.27,1.27,0,0,1,1.271,1.27v25.41A1.271,1.271,0,0,1,129.079,249.819Zm-24.14-2.541h22.869V224.408H104.94Zm0,0" transform="translate(-87.154 -188.834)" fill="#c62148"/>
    <path id="Path_155" data-name="Path 155" d="M205.879,173.018a1.271,1.271,0,0,1-1.271-1.271v-24.14h-24.14a1.27,1.27,0,0,1,0-2.541h25.41a1.271,1.271,0,0,1,1.271,1.271v25.41a1.271,1.271,0,0,1-1.271,1.271Zm0,0" transform="translate(-152.519 -123.467)" fill="#c62148"/>
    <path id="Path_156" data-name="Path 156" d="M104.9,159l11.434-11.435,1.8,1.8L106.695,160.8Zm0,0" transform="translate(-89.281 -125.595)" fill="#fff"/>
    <g id="Group_70" data-name="Group 70" transform="translate(-0.001 0.001)">
      <path id="Path_157" data-name="Path 157" d="M158.047,152.548a1.22,1.22,0,0,0,1.715.082l3.267-3.267-1.8-1.8-3.267,3.267A1.22,1.22,0,0,0,158.047,152.548Zm0,0" transform="translate(-134.179 -125.595)" fill="#c62148"/>
      <path id="Path_158" data-name="Path 158" d="M104.9,213.356l1.8,1.8,1.634-1.634a1.276,1.276,0,0,0-1.8-1.8Zm0,0" transform="translate(-89.28 -179.951)" fill="#c62148"/>
      <path id="Path_159" data-name="Path 159" d="M137.776,191.423a1.158,1.158,0,0,0,.319-.84l-.037-.233a1,1,0,0,0-.088-.236.846.846,0,0,0-.113-.211,2.023,2.023,0,0,0-.163-.2,1.405,1.405,0,0,0-.875-.4,1.186,1.186,0,0,0-.458.08,1.1,1.1,0,0,0-.7,1.08,1.332,1.332,0,0,0,.124.468,1.367,1.367,0,0,0,.276.407,1.414,1.414,0,0,0,.875.4A1.161,1.161,0,0,0,137.776,191.423Zm0,0" transform="translate(-115.461 -161.121)" fill="#c62148"/>
      <path id="Path_160" data-name="Path 160" d="M274.336,159.132a1.27,1.27,0,0,1-.9-2.169l11.435-11.435a1.27,1.27,0,0,1,1.8,1.8l-11.434,11.435A1.266,1.266,0,0,1,274.336,159.132Zm0,0" transform="translate(-232.41 -123.557)" fill="#c62148"/>
      <path id="Path_161" data-name="Path 161" d="M274.336,329.8a1.27,1.27,0,0,1-.9-2.169L284.873,316.2a1.27,1.27,0,0,1,1.8,1.8l-11.434,11.435A1.269,1.269,0,0,1,274.336,329.8Zm0,0" transform="translate(-232.41 -268.814)" fill="#c62148"/>
      <path id="Path_162" data-name="Path 162" d="M1.269,410.411a1.27,1.27,0,0,1-.9-2.169L15.617,393a1.271,1.271,0,0,1,1.8,1.8L2.168,410.039a1.267,1.267,0,0,1-.9.372Zm0,0" transform="translate(0.001 -334.181)" fill="#c62148"/>
      <path id="Path_163" data-name="Path 163" d="M372.733,318.276h-21.6a1.27,1.27,0,1,1,0-2.541h21.6a1.27,1.27,0,1,1,0,2.541Zm0,0" transform="translate(-297.773 -268.726)" fill="#c62148"/>
      <path id="Path_164" data-name="Path 164" d="M180.469,24.14a1.27,1.27,0,0,1-1.27-1.27V1.271a1.27,1.27,0,1,1,2.541,0v21.6A1.27,1.27,0,0,1,180.469,24.14Zm0,0" transform="translate(-152.518 -0.001)" fill="#c62148"/>
      <path id="Path_165" data-name="Path 165" d="M225.64,14.83a1.27,1.27,0,0,1-1.057-.566l-2.542-3.811a1.271,1.271,0,1,1,2.115-1.41l1.484,2.226,1.484-2.226a1.271,1.271,0,0,1,2.114,1.41L226.7,14.265a1.272,1.272,0,0,1-1.057.566Zm0,0" transform="translate(-188.796 -7.208)" fill="#c62148"/>
      <path id="Path_166" data-name="Path 166" d="M240.2,39.215a1.27,1.27,0,0,1-1.27-1.27V35.4a1.27,1.27,0,1,1,2.541,0v2.541A1.27,1.27,0,0,1,240.2,39.215Zm0,0" transform="translate(-203.359 -29.051)" fill="#c62148"/>
      <path id="Path_167" data-name="Path 167" d="M91.683,461.159H86.6a1.27,1.27,0,0,1-.992-2.064l3.43-4.289H86.6a1.27,1.27,0,0,1,0-2.541h5.083a1.27,1.27,0,0,1,.992,2.064l-3.43,4.289h2.438a1.271,1.271,0,0,1,0,2.541Zm0,0" transform="translate(-72.625 -384.929)" fill="#c62148"/>
      <path id="Path_168" data-name="Path 168" d="M453.534,358.759a1.271,1.271,0,0,1-.991-2.064l5.082-6.353a1.271,1.271,0,0,1,1.986,1.587l-5.083,6.352A1.269,1.269,0,0,1,453.534,358.759Zm0,0" transform="translate(-384.928 -297.775)" fill="#c62148"/>
      <path id="Path_169" data-name="Path 169" d="M458.617,358.759a1.269,1.269,0,0,1-.994-.478l-5.082-6.352a1.271,1.271,0,1,1,1.985-1.587l5.082,6.353a1.271,1.271,0,0,1-.991,2.064Zm0,0" transform="translate(-384.926 -297.775)" fill="#c62148"/>
      <path id="Path_170" data-name="Path 170" d="M137.8,322.446a1.271,1.271,0,0,1-1.271-1.271v-12.7a1.27,1.27,0,1,1,2.541,0v12.7A1.27,1.27,0,0,1,137.8,322.446Zm0,0" transform="translate(-116.203 -261.461)" fill="#c62148"/>
      <path id="Path_171" data-name="Path 171" d="M171.935,351.5a1.271,1.271,0,0,1-1.271-1.271V342.6a1.27,1.27,0,1,1,2.541,0v7.623A1.27,1.27,0,0,1,171.935,351.5Zm0,0" transform="translate(-145.254 -290.512)" fill="#c62148"/>
      <path id="Path_172" data-name="Path 172" d="M206.068,373.287a1.271,1.271,0,0,1-1.271-1.271V368.2a1.27,1.27,0,0,1,2.541,0v3.812A1.27,1.27,0,0,1,206.068,373.287Zm0,0" transform="translate(-174.305 -312.302)" fill="#c62148"/>
    </g>
  </g>
</svg>
