<svg xmlns="http://www.w3.org/2000/svg" width="67.575" height="67.582" viewBox="0 0 67.575 67.582">
  <g id="mathematic" transform="translate(-0.001 0)">
    <g id="_049---Maths-Textbook" data-name="049---Maths-Textbook" transform="translate(0.001 0)">
      <path id="Shape" d="M59.654,56.409H37.126L36,51.9H56.466L53.628,43.85a42.506,42.506,0,0,1,4.765,1.307,1.043,1.043,0,0,0,.484.056L61.771,53.4a2.253,2.253,0,0,1-2.118,3.007Z" transform="translate(4.548 5.541)" fill="#ffee7c"/>
      <path id="Shape-2" data-name="Shape" d="M59.794,53.4,56.9,45.213a1.043,1.043,0,0,1-.484-.056A42.507,42.507,0,0,0,51.65,43.85l.349.991c.347.113.676.2,1.036.315a1.043,1.043,0,0,0,.484.056L56.415,53.4A2.253,2.253,0,0,1,54.3,56.409h3.379A2.253,2.253,0,0,0,59.794,53.4Z" transform="translate(6.526 5.541)" fill="#f3d407"/>
      <path id="Shape-3" data-name="Shape" d="M38.769,55.505c0,2.489-3.526,4.505-7.885,4.505S23,57.995,23,55.505L24.126,51h5.621a12.953,12.953,0,0,1,1.138,2.253A12.953,12.953,0,0,1,32.022,51h5.621Z" transform="translate(2.905 6.445)" fill="#f3d407"/>
      <g id="Group_63" data-name="Group 63" transform="translate(1.13 48.653)">
        <path id="Shape-4" data-name="Shape" d="M26.906,51.9,25.78,56.409H3.252A2.253,2.253,0,0,1,1.135,53.4l2.884-8.189a1.089,1.089,0,0,0,.5-.056A42.506,42.506,0,0,1,9.278,43.85L6.44,51.9Z" transform="translate(-1.004 -43.112)" fill="#f3d407"/>
        <path id="Shape-5" data-name="Shape" d="M57.1,51.986H31.01a17.417,17.417,0,0,1,1.622-2.253c3.233-3.83,9.721-8.335,21.626-5.8Z" transform="translate(2.788 -43.195)" fill="#f3d407"/>
        <path id="Shape-6" data-name="Shape" d="M31.917,51.986H5.83l2.838-8.054c11.895-2.534,18.382,1.971,21.626,5.8a17.416,17.416,0,0,1,1.622,2.253Z" transform="translate(-0.395 -43.195)" fill="#f3d407"/>
      </g>
      <path id="Shape-7" data-name="Shape" d="M63.073,47.987a1.043,1.043,0,0,1-.484-.056,42.506,42.506,0,0,0-4.765-1.307C45.918,44.09,39.43,48.6,36.2,52.425a17.416,17.416,0,0,0-1.622,2.253,12.953,12.953,0,0,0-1.138,2.253A12.953,12.953,0,0,0,32.3,54.678a17.417,17.417,0,0,0-1.622-2.253c-3.244-3.83-9.732-8.335-21.626-5.8a42.506,42.506,0,0,0-4.765,1.307,1.089,1.089,0,0,1-.5.056A1.126,1.126,0,0,1,2.857,46.5l8.166-23.136a1.2,1.2,0,0,1,.687-.7c.113-.045.225-.079.327-.113V40.035a1.126,1.126,0,0,0,1.126,1.126H49.872a1.126,1.126,0,0,0,.788-1.926L36.468,25.043a10.072,10.072,0,0,1,4.2-3.143l7.468,7.468a1.115,1.115,0,0,0,1.6,0l4.776-4.776a1.126,1.126,0,0,0,0-1.588l-.834-.834c.484.146.969.315,1.476.5a1.2,1.2,0,0,1,.687.7L64.008,46.5a1.126,1.126,0,0,1-.935,1.487Z" transform="translate(0.352 2.767)" fill="#fff191"/>
      <path id="Shape-8" data-name="Shape" d="M58.339,46.47,50.173,23.334a1.2,1.2,0,0,0-.687-.7c-.507-.18-.991-.349-1.476-.5l.834.834a1.126,1.126,0,0,1,0,1.588l-1.2,1.2L54.96,46.47a1.07,1.07,0,0,1-.035.822c.653.187,1.311.378,1.995.608a1.043,1.043,0,0,0,.484.056,1.126,1.126,0,0,0,.935-1.487Z" transform="translate(6.02 2.797)" fill="#f3d407"/>
      <path id="Shape-9" data-name="Shape" d="M49.623,41.445,35.431,27.252l-22.5-22.5A1.126,1.126,0,0,0,11,5.536V42.244a1.126,1.126,0,0,0,1.126,1.126H48.835a1.126,1.126,0,0,0,.788-1.926ZM17.758,36.613V19.142l17.47,17.47Z" transform="translate(1.389 0.557)" fill="#ffee7c"/>
      <path id="Shape-10" data-name="Shape" d="M34.47,34.96H17V17.49Z" transform="translate(2.147 2.21)" fill="#ffee7c"/>
      <path id="Shape-11" data-name="Shape" d="M52.19,27.233l-4.776,4.776a1.115,1.115,0,0,1-1.6,0l-7.468-7.468L21.508,7.7a1.115,1.115,0,0,1,0-1.6l4.776-4.776a1.126,1.126,0,0,1,1.588,0L51.357,24.812l.834.834a1.126,1.126,0,0,1,0,1.588Z" transform="translate(2.674 0.126)" fill="#ffee7c"/>
      <path id="Shape-12" data-name="Shape" d="M4.514,58.385,7.4,50.2a1.126,1.126,0,0,1-.935-1.487l8.166-23.136a1.323,1.323,0,0,1,1.014-.811V6.2L14.189,4.747a1.126,1.126,0,0,0-1.926.788V24.763a1.323,1.323,0,0,0-1.014.811L3.083,48.71A1.126,1.126,0,0,0,4.018,50.2L1.135,58.385a2.253,2.253,0,0,0,2.118,3.007H6.631a2.253,2.253,0,0,1-2.118-3.007Z" transform="translate(0.125 0.557)" fill="#fff9cc"/>
      <path id="Rectangle-path" d="M0,0H9.011V2.253H0Z" transform="translate(2.148 48.899) rotate(-70.55)" fill="#fff9cc"/>
      <path id="Shape-13" data-name="Shape" d="M64.813,51.285c.028-.026.063-.042.09-.069a2.219,2.219,0,0,0,.52-2.324L57.256,25.754a2.359,2.359,0,0,0-1.371-1.382c-.428-.153-.837-.288-1.246-.419L31.345.66a2.253,2.253,0,0,0-3.185,0L23.381,5.438a2.253,2.253,0,0,0,0,3.185L39.118,24.361a11.142,11.142,0,0,0-2.343,1.81L15.109,4.505A2.253,2.253,0,0,0,11.264,6.1V24.588a2.3,2.3,0,0,0-.948,1.164v.006L5.148,40.4a1.126,1.126,0,1,0,2.124.75l3.991-11.314V42.8a2.253,2.253,0,0,0,2.253,2.253h36.7a2.253,2.253,0,0,0,1.593-3.845L38.368,27.764a9.031,9.031,0,0,1,2.421-1.733L47.7,32.937a2.253,2.253,0,0,0,3.185,0l4.778-4.778c.015-.015.025-.033.039-.048l7.6,21.514c-15.983-5.322-24.158.747-27.606,4.836-.288.338-.544.676-.788,1V48.434a1.126,1.126,0,0,0-2.253,0v7c-.234-.317-.483-.64-.763-.971-6.338-7.494-15.544-7.6-22.527-6.2a1.106,1.106,0,0,0-.237.052A43.411,43.411,0,0,0,4.28,49.635,1.131,1.131,0,1,0,2.14,48.9a2.236,2.236,0,0,0,.536,2.324c.025.025.056.038.082.062L.195,58.571a3.379,3.379,0,0,0,3.184,4.506H24.948c.813,2.6,4.405,4.505,8.839,4.505s8.025-1.9,8.839-4.505H64.2a3.379,3.379,0,0,0,3.18-4.506ZM50.22,42.8H46.181V41.676a1.126,1.126,0,1,0-2.253,0V42.8H41.676V41.676a1.126,1.126,0,1,0-2.253,0V42.8H37.17V41.676a1.126,1.126,0,1,0-2.253,0V42.8H32.665V41.676a1.126,1.126,0,1,0-2.253,0V42.8H28.159V41.676a1.126,1.126,0,1,0-2.253,0V42.8H23.654V41.676a1.126,1.126,0,1,0-2.253,0V42.8H19.148V41.676a1.126,1.126,0,1,0-2.253,0V42.8H13.516V39.423h1.126a1.126,1.126,0,0,0,0-2.253H13.516V34.918h1.126a1.126,1.126,0,0,0,0-2.253H13.516V30.412h1.126a1.126,1.126,0,0,0,0-2.253H13.516V25.907h1.126a1.126,1.126,0,0,0,0-2.253H13.516V21.4h1.126a1.126,1.126,0,1,0,0-2.253H13.516V16.9h1.126a1.126,1.126,0,0,0,0-2.253H13.516V12.39h1.126a1.126,1.126,0,0,0,0-2.253H13.516V6.1l36.72,36.7Zm-.933-11.457L47.42,29.474l1.524-1.525a1.127,1.127,0,0,0-1.6-1.592l-1.524,1.524L44.23,26.288l1.524-1.524a1.126,1.126,0,1,0-1.593-1.593L42.638,24.7l-.813-.813-.021-.021-.759-.758,1.525-1.525a1.126,1.126,0,1,0-1.593-1.593l-1.525,1.528L37.858,19.92,39.382,18.4A1.126,1.126,0,1,0,37.79,16.8l-1.521,1.519L34.676,16.73,36.2,15.206A1.126,1.126,0,1,0,34.6,13.613L33.08,15.137l-1.594-1.594,1.525-1.524a1.126,1.126,0,1,0-1.593-1.593l-1.525,1.524L28.3,10.363l1.525-1.524a1.127,1.127,0,0,0-1.594-1.593L26.707,8.765,24.974,7.031l4.777-4.778L54.066,26.567Zm8.036,19.023,2.1,5.951H37.094c.107-.134.2-.265.319-.4C40.673,52.051,46.69,48.283,57.323,50.368ZM30.171,55.92c.113.135.212.266.318.4H8.154l2.1-5.947C20.876,48.29,26.9,52.054,30.171,55.92ZM2.462,60.353a1.117,1.117,0,0,1-.142-1.036l2.66-7.547H5c.912-.3,1.794-.563,2.653-.8l-2.15,6.1a1.126,1.126,0,0,0,1.062,1.5H25.587l-.563,2.253H3.379a1.1,1.1,0,0,1-.917-.471ZM33.791,65.33c-3.9,0-6.646-1.711-6.748-3.283l.864-3.475H32a12.447,12.447,0,0,1,.724,1.5,1.126,1.126,0,0,0,2.124,0,11.94,11.94,0,0,1,.721-1.5h4.092l.868,3.475C40.428,63.619,37.691,65.33,33.791,65.33Zm31.326-4.976a1.1,1.1,0,0,1-.913.471H42.55l-.563-2.253H61.011a1.126,1.126,0,0,0,1.062-1.5l-2.15-6.1c.857.225,1.738.49,2.65.788h.02L65.254,59.3a1.126,1.126,0,0,1-.142,1.05Z" transform="translate(-0.001 0)" fill="#ff9f00"/>
      <path id="Shape-14" data-name="Shape" d="M4.327,41.221a1.126,1.126,0,0,1-.011-2.253h.011a1.126,1.126,0,0,1,0,2.253Z" transform="translate(0.402 4.924)" fill="#ff9f00"/>
      <path id="Shape-15" data-name="Shape" d="M17.126,36.213H34.6a1.126,1.126,0,0,0,.8-1.923L17.923,16.815a1.126,1.126,0,0,0-1.923.8V35.087a1.126,1.126,0,0,0,1.126,1.126Zm1.126-15.882L31.882,33.961H18.253Z" transform="translate(2.02 2.083)" fill="#ff9f00"/>
    </g>
  </g>
</svg>
