<svg id="Component_1_1" data-name="Component 1 – 1" xmlns="http://www.w3.org/2000/svg" width="99" height="93.696" viewBox="0 0 99 93.696">
  <g id="translate" transform="translate(36.678 12.407)">
    <g id="Group_75" data-name="Group 75" transform="translate(1.355 4.064)">
      <path id="Path_173" data-name="Path 173" d="M275.322,210.333H255v43.354h28.451a1.359,1.359,0,0,0,1.355-1.355V219.817Z" transform="translate(-225.194 -180.527)" fill="#e3e7f2"/>
      <g id="Group_73" data-name="Group 73" transform="translate(1.355)">
        <path id="Path_174" data-name="Path 174" d="M383,210.333l9.484,9.484v32.516a1.359,1.359,0,0,1-1.355,1.355h-4.064a1.359,1.359,0,0,0,1.355-1.355V219.817Z" transform="translate(-334.226 -180.527)" fill="#a4c2f7"/>
        <path id="Path_175" data-name="Path 175" d="M104.25,22.6V65.954H77.092A1.329,1.329,0,0,1,75.8,64.6V32.084L84.851,22.6Z" transform="translate(-75.798 -22.6)" fill="#a4c2f7"/>
      </g>
      <path id="Path_176" data-name="Path 176" d="M93.009,22.6V65.954H71.331V32.084H67.267L76.751,22.6Z" transform="translate(-67.267 -22.6)" fill="#e3e7f2"/>
      <g id="Group_74" data-name="Group 74" transform="translate(0)">
        <path id="Path_177" data-name="Path 177" d="M76.751,22.6v8.129A1.359,1.359,0,0,1,75.4,32.084H67.267Z" transform="translate(-67.267 -22.6)" fill="#a4c2f7"/>
        <path id="Path_178" data-name="Path 178" d="M392.484,219.818h-8.129A1.359,1.359,0,0,1,383,218.463v-8.129Z" transform="translate(-332.872 -180.528)" fill="#a4c2f7"/>
      </g>
      <rect id="Rectangle_67" data-name="Rectangle 67" width="4.064" height="33.87" transform="translate(0 9.484)" fill="#fff"/>
    </g>
    <g id="Group_76" data-name="Group 76">
      <path id="Path_179" data-name="Path 179" d="M62.443,48.774h27.1V79.934a1.355,1.355,0,0,0,2.71,0V78.58h27.1a2.713,2.713,0,0,0,2.71-2.71V43.354c0-.029-.015-.055-.017-.083a1.329,1.329,0,0,0-.07-.352,1.271,1.271,0,0,0-.045-.126,1.336,1.336,0,0,0-.266-.4l-9.484-9.484a1.336,1.336,0,0,0-.4-.266,1.312,1.312,0,0,0-.124-.044,1.33,1.33,0,0,0-.352-.07c-.029,0-.055-.017-.084-.017H92.249V1.355a1.355,1.355,0,0,0-2.71,0V2.71H70.572c-.028,0-.053.014-.08.016a1.318,1.318,0,0,0-.36.072,1.243,1.243,0,0,0-.119.043,1.336,1.336,0,0,0-.4.267L60.13,12.59a1.337,1.337,0,0,0-.265.4,1.3,1.3,0,0,0-.045.128,1.33,1.33,0,0,0-.069.348c0,.029-.017.056-.017.085v5.419a1.355,1.355,0,0,0,2.71,0V14.9h6.774a2.712,2.712,0,0,0,2.71-2.71V5.419H89.539V46.064h-27.1V29.806a1.355,1.355,0,1,0-2.71,0V46.064A2.712,2.712,0,0,0,62.443,48.774Zm6.774-36.58H64.359l4.858-4.858ZM117.429,42h-4.858V37.141Zm-7.568-6.774V42a2.712,2.712,0,0,0,2.71,2.71h6.774V75.87h-27.1V35.226h17.613Z" transform="translate(-59.733)" fill="#428dff"/>
      <path id="Path_180" data-name="Path 180" d="M120.829,134.388a1.355,1.355,0,0,0,1.238-.805l1.449-3.26h5.465l1.449,3.26a1.355,1.355,0,0,0,2.475-1.1l-1.787-4.022-.018-.04-3.614-8.131a1.294,1.294,0,0,0-.115-.163.912.912,0,0,0-.429-.423,1.294,1.294,0,0,0-.143-.1c-.009,0-.019,0-.029-.006a1.334,1.334,0,0,0-.342-.076,1.387,1.387,0,0,0-.175-.031,1.372,1.372,0,0,0-.239.042,1.33,1.33,0,0,0-.283.064c-.011,0-.022,0-.033.007a1.255,1.255,0,0,0-.156.111.889.889,0,0,0-.416.415,1.278,1.278,0,0,0-.115.162L121.4,128.42l-.018.04-1.787,4.022a1.357,1.357,0,0,0,1.236,1.906Zm3.892-6.775,1.528-3.439,1.528,3.439Z" transform="translate(-109.991 -100.517)" fill="#428dff"/>
      <path id="Path_181" data-name="Path 181" d="M317.089,330.636h4.742a4.722,4.722,0,0,0,3.494-7.92,4.057,4.057,0,0,0-2.817-6.983h-5.419a1.355,1.355,0,0,0-1.355,1.355v12.193a1.355,1.355,0,0,0,1.355,1.355Zm4.742-2.71h-3.387v-4.064h3.387a2.032,2.032,0,0,1,0,4.064Zm-3.387-9.484h4.064a1.355,1.355,0,1,1,0,2.71h-4.064Z" transform="translate(-275.089 -265.605)" fill="#428dff"/>
      <circle id="Ellipse_19" data-name="Ellipse 19" cx="1.355" cy="1.355" r="1.355" transform="translate(0 23.032)" fill="#428dff"/>
    </g>
  </g>
  <rect id="Rectangle_75" data-name="Rectangle 75" width="44" height="19" rx="9.5" fill="red"/>
  <text id="NEW" transform="translate(9 14)" fill="#fff" font-size="11" font-family="SegoeUI-Bold, Segoe UI" font-weight="700"><tspan x="0" y="0">NEW</tspan></text>
</svg>
