<svg xmlns="http://www.w3.org/2000/svg" width="76.203" height="81.186" viewBox="0 0 76.203 81.186">
  <g id="physics" transform="translate(-15.712)">
    <g id="Group_66" data-name="Group 66" transform="translate(17.071 1.353)">
      <g id="Group_64" data-name="Group 64" transform="translate(0 14.117)">
        <path id="Path_138" data-name="Path 138" d="M94.2,105.166c2.273,9.35-8.728,23.544-26.21,33.137-19.011,10.405-38.5,11.407-43.516,2.233s6.305-25.046,25.3-35.465C65.49,96.465,81.538,94.3,89.454,98.982" transform="translate(-23.284 -96.564)" fill="#e3e7f2"/>
        <circle id="Ellipse_15" data-name="Ellipse 15" cx="4.059" cy="4.059" r="4.059" transform="translate(65.372 0.767)" fill="#a6ddff"/>
      </g>
      <path id="Path_139" data-name="Path 139" d="M94.211,30.252l-4.749-6.184c-3.758-2.222-9.36-2.883-15.876-2.063C70.112,13.175,64.821,7.534,58.9,7.534S47.684,13.17,44.209,21.993a38.6,38.6,0,0,0-7.032-.292l-7.889,1.84a10.624,10.624,0,0,0-4.8,4.384c-2.724,4.964-.647,11.888,4.835,18.849-5.482,6.961-7.559,13.885-4.835,18.849,2.842,5.194,10.321,7.123,19.725,5.935,3.474,8.822,8.762,14.457,14.685,14.457a10.731,10.731,0,0,0,6.657-2.5l5.209-6.184a39.155,39.155,0,0,0,2.808-5.771c9.408,1.191,16.892-.738,19.735-5.933,2.723-4.962.648-11.884-4.831-18.843C93.152,40.847,95.351,34.941,94.211,30.252Z" transform="translate(-23.291 -7.534)" fill="#a6ddff"/>
      <g id="Group_65" data-name="Group 65" transform="translate(5.835 10.825)">
        <circle id="Ellipse_16" data-name="Ellipse 16" cx="9.472" cy="9.472" r="9.472" transform="translate(20.297 20.297)" fill="#a6ddff"/>
        <circle id="Ellipse_17" data-name="Ellipse 17" cx="4.059" cy="4.059" r="4.059" transform="translate(35.181 58.183)" fill="#a6ddff"/>
        <circle id="Ellipse_18" data-name="Ellipse 18" cx="4.059" cy="4.059" r="4.059" fill="#a6ddff"/>
      </g>
    </g>
    <g id="Group_67" data-name="Group 67" transform="translate(17.074 17.36)">
      <path id="Path_140" data-name="Path 140" d="M30.221,99.664a9.478,9.478,0,0,0-1.67,2.2c-2.72,4.966-.649,11.894,4.831,18.849-5.48,6.955-7.55,13.883-4.831,18.849,2.07,3.789,6.6,5.845,12.57,6.211-7.929.433-14.113-1.6-16.63-6.211-2.72-4.966-.649-11.894,4.831-18.849-5.48-6.955-7.55-13.883-4.831-18.849a10.625,10.625,0,0,1,4.8-4.384h.013" transform="translate(-23.299 -97.483)" fill="#fff"/>
      <path id="Path_141" data-name="Path 141" d="M172.647,414.552a9.221,9.221,0,0,1-2.016.23c-5.859,0-11.1-5.494-14.546-14.14,1.258-.041,2.571-.149,3.924-.311C163.067,408.125,167.559,413.429,172.647,414.552Z" transform="translate(-135.03 -352.309)" fill="#fff"/>
      <path id="Path_142" data-name="Path 142" d="M138.789,400.331a3.086,3.086,0,0,0,.135.311,31.871,31.871,0,0,1-3.234-.041C136.691,400.561,137.733,400.466,138.789,400.331Z" transform="translate(-117.869 -352.309)" fill="#fff"/>
    </g>
    <g id="Group_69" data-name="Group 69" transform="translate(15.712)">
      <path id="Path_143" data-name="Path 143" d="M19.463,134.328a10.271,10.271,0,0,0-.562,7.563,24.823,24.823,0,0,0,3.58,7.482,51.462,51.462,0,0,0,9.765,10.475,76.4,76.4,0,0,0,11.984,8.108l-1.3,2.373a79.117,79.117,0,0,1-12.413-8.4,54.112,54.112,0,0,1-10.277-11.041,27.464,27.464,0,0,1-3.957-8.317,12.957,12.957,0,0,1,.809-9.544Z" transform="translate(-15.724 -111.933)" fill="#0065a8"/>
      <g id="Group_68" data-name="Group 68" transform="translate(0)">
        <path id="Path_144" data-name="Path 144" d="M24.164,197.516a1.323,1.323,0,0,0,.516-.107,1.466,1.466,0,0,0,.723-.732,1.361,1.361,0,0,0,.032-.993,1.432,1.432,0,0,0-.667-.728l-.241-.087a1.092,1.092,0,0,0-.269-.041.906.906,0,0,0-.258,0,2.043,2.043,0,0,0-.267.052,1.332,1.332,0,0,0-.794.667,1.434,1.434,0,0,0,.694,1.882A1.378,1.378,0,0,0,24.164,197.516Z" transform="translate(-21.688 -163.926)" fill="#0065a8"/>
        <path id="Path_145" data-name="Path 145" d="M191.377,196.267A10.825,10.825,0,1,0,202.2,207.092,10.825,10.825,0,0,0,191.377,196.267Zm0,18.943a8.119,8.119,0,1,1,8.119-8.119A8.119,8.119,0,0,1,191.377,215.21Z" transform="translate(-154.414 -165.146)" fill="#0065a8"/>
        <path id="Path_146" data-name="Path 146" d="M220.1,230.4a5.419,5.419,0,0,0-5.412,5.412,1.353,1.353,0,0,0,2.706,0,2.709,2.709,0,0,1,2.706-2.706,1.353,1.353,0,1,0,0-2.706Z" transform="translate(-183.135 -193.866)" fill="#0065a8"/>
        <path id="Path_147" data-name="Path 147" d="M86.5,14.884a5.366,5.366,0,0,0-3.537,1.349c-3.8-1.894-8.895-2.5-14.7-1.906C64.566,5.518,59,0,52.675,0S40.775,5.526,37.08,14.346a40.119,40.119,0,0,0-5.127-.211,5.412,5.412,0,0,0-10.4,2.1c0,.141.031.274.042.413a11.613,11.613,0,0,0-4.517,4.444l0,.005A11.606,11.606,0,0,0,15.734,27a1.3,1.3,0,0,0,1.456,1.313,1.431,1.431,0,0,0,1.25-1.383A8.9,8.9,0,0,1,19.452,22.4h0a8.747,8.747,0,0,1,3.024-3.139,5.391,5.391,0,0,0,9.842-2.426,36.931,36.931,0,0,1,3.761.124,63.6,63.6,0,0,0-2.9,12.108,62.342,62.342,0,0,0-10.011,9.323c-.23-.318-.483-.62-.7-.944-.253-.355-.476-.726-.708-1.092a1.387,1.387,0,0,0-1.84-.45,1.331,1.331,0,0,0-.459,1.877c.25.4.494.8.764,1.179.38.56.8,1.081,1.206,1.62-.2.272-.433.542-.628.815-5.1,7.145-6.423,13.787-3.726,18.7,2.482,4.535,8.041,6.98,15.767,6.98q.977,0,2-.053c.728-.037,1.479-.12,2.226-.2,3.695,8.83,9.265,14.364,15.6,14.364a11.666,11.666,0,0,0,6.643-2.172,5.36,5.36,0,0,0,2.828.819,5.419,5.419,0,0,0,5.412-5.412,5.364,5.364,0,0,0-1.327-3.511,40.57,40.57,0,0,0,1.991-4.093c.766.079,1.535.163,2.28.2q1.024.053,2,.053c7.726,0,13.286-2.445,15.767-6.979,2.7-4.916,1.374-11.558-3.726-18.7-.18-.252-.392-.5-.58-.752,4.176-5.559,6.242-11.118,5.541-15.843a5.409,5.409,0,0,0-3-9.91ZM26.966,18.943a2.706,2.706,0,1,1,2.706-2.706A2.706,2.706,0,0,1,26.966,18.943ZM86.5,17.59A2.706,2.706,0,1,1,83.8,20.3,2.706,2.706,0,0,1,86.5,17.59ZM52.675,2.706c4.94,0,9.479,4.664,12.71,12.008a64.5,64.5,0,0,0-12.715,3.544,64.686,64.686,0,0,0-12.709-3.537C43.193,7.373,47.733,2.706,52.675,2.706Zm17.59,37.887a78.406,78.406,0,0,1-.642,10.048,79.1,79.1,0,0,1-8.492,5.382A78.763,78.763,0,0,1,52.675,60a78.742,78.742,0,0,1-8.456-3.982h0a79,79,0,0,1-8.476-5.4,76.726,76.726,0,0,1,0-20.076,77.989,77.989,0,0,1,16.932-9.389,79.5,79.5,0,0,1,8.454,4,78.481,78.481,0,0,1,8.475,5.388A76.519,76.519,0,0,1,70.265,40.593Zm2.349-7.726a56.686,56.686,0,0,1,7.923,7.754A57.572,57.572,0,0,1,72.6,48.356c.241-2.532.373-5.127.373-7.763S72.846,35.363,72.614,32.867Zm-3.574,21.5a57.759,57.759,0,0,1-2.56,9.508,58.333,58.333,0,0,1-10.1-2.495c2.026-.9,4.05-1.884,6.055-2.982C64.752,57.122,66.958,55.771,69.04,54.363ZM42.918,58.4h0c2,1.1,4.029,2.079,6.054,2.981a58.371,58.371,0,0,1-10.058,2.488,59.209,59.209,0,0,1-2.573-9.495Q39.535,56.535,42.918,58.4ZM62.431,22.79c-2-1.094-4.017-2.09-6.035-2.989a59.437,59.437,0,0,1,10.031-2.5,59.163,59.163,0,0,1,2.58,9.508C66.918,25.393,64.721,24.046,62.431,22.79ZM38.924,17.3a58.16,58.16,0,0,1,10.049,2.489c-2.016.9-4.04,1.9-6.055,3.005-2.29,1.256-4.486,2.6-6.575,4.016A59.123,59.123,0,0,1,38.924,17.3Zm-6.188,15.57c-.232,2.5-.357,5.076-.357,7.726s.125,5.223.356,7.716c-.164-.134-.337-.258-.5-.394a56.237,56.237,0,0,1-7.39-7.335A56.783,56.783,0,0,1,32.735,32.867Zm1.972,31.45c-7.669.4-13.09-1.568-15.255-5.525s-.908-9.577,3.555-15.829c.048-.067.106-.133.155-.2A59.679,59.679,0,0,0,30.5,50c.874.726,1.77,1.425,2.676,2.108A63.653,63.653,0,0,0,36.066,64.2c-.452.038-.915.1-1.359.121Zm27.439,12.81a2.706,2.706,0,1,1,2.706-2.706A2.706,2.706,0,0,1,62.147,77.127ZM64,69.357a5.353,5.353,0,0,0-1.856-.349,5.419,5.419,0,0,0-5.412,5.412A5.344,5.344,0,0,0,57.418,77a8.887,8.887,0,0,1-4.743,1.481c-4.948,0-9.493-4.678-12.726-12.042a64.313,64.313,0,0,0,12.726-3.521,64.261,64.261,0,0,0,12.764,3.527Q64.763,67.971,64,69.357ZM82.343,42.962c4.462,6.252,5.725,11.873,3.554,15.83s-7.588,5.915-15.255,5.524c-.46-.024-.938-.085-1.406-.125a63.758,63.758,0,0,0,2.909-12.043A62.529,62.529,0,0,0,82.226,42.81C82.262,42.861,82.307,42.911,82.343,42.962Zm-.11-4.515a62.266,62.266,0,0,0-10.067-9.386,63.628,63.628,0,0,0-2.892-12.1,24.374,24.374,0,0,1,12.15,1.523,5.348,5.348,0,0,0-.334,1.81A5.419,5.419,0,0,0,86.5,25.709c.13,0,.253-.029.381-.039.38,3.757-1.332,8.216-4.651,12.777Z" transform="translate(-15.712)" fill="#0065a8"/>
      </g>
    </g>
  </g>
</svg>
