<svg xmlns="http://www.w3.org/2000/svg" width="54.717" height="77.212" viewBox="0 0 54.717 77.212">
  <g id="russian" transform="translate(-0.739 0.002)">
    <g id="Layer_4" transform="translate(2.009 1.285)">
      <path id="Shape" d="M41.728,73.063c-5.237,2.316-11.054,2.574-16.806,2.574A35.2,35.2,0,0,1,11.9,73.063C.795,68.018-4.983,50.62,8.8,29.208c2.947-4.594,2.574-8.261,2.574-12.251A15.789,15.789,0,0,1,26.531,1,15.442,15.442,0,0,1,42.256,16.442c0,6.048-.386,8.2,3.114,13.64,13.087,21.1,7.283,38.013-3.642,42.98Z" transform="translate(-0.726 -0.998)" fill="#ff9e9a"/>
      <path id="Shape-2" data-name="Shape" d="M37.865,73.033c-8.7,3.86-22.712,3.384-29.751-2.316C2.825,66.406.7,59.509.74,52.882c0-8.467,3.5-16.6,8.068-23.69,2.947-4.594,2.574-8.261,2.574-12.251A15.854,15.854,0,0,1,24.894,1.1a15.442,15.442,0,0,1,13.5,15.313c0,6.048-.386,8.2,3.114,13.64C54.594,51.157,48.79,68.066,37.865,73.033Z" transform="translate(-0.722 -0.969)" fill="#fcc"/>
      <path id="Shape-3" data-name="Shape" d="M52.788,43c-.515,7.721-3.989,14.773-11.08,18.016-5.237,2.316-11.054,2.574-16.806,2.574A35.194,35.194,0,0,1,11.88,61.016C6.05,58.378,1.443,52.432.8,43h.257S4.686,47.98,24.8,48.147c6.794,0,16.857-.116,23.883-2.87A9.175,9.175,0,0,0,52.53,43Z" transform="translate(-0.705 11.049)" fill="#fcc"/>
      <path id="Shape-4" data-name="Shape" d="M47.175,43a9.175,9.175,0,0,1-3.86,2.265,20.808,20.808,0,0,1-7.052,13.422C31.733,62.3,25.3,63.4,19.47,63.589c5.726,0,11.311-.077,16.883-2.574C43.469,57.8,46.918,50.721,47.433,43Z" transform="translate(4.65 11.049)" fill="#ff9e9a"/>
      <path id="Shape-5" data-name="Shape" d="M52.809,47.122h-.257s-3.86,5.147-25.736,5.147S1.079,47.122,1.079,47.122H.821C.4,42.412,1.349,35.9,4.682,28.63l.206.09a30.408,30.408,0,0,0,12.868,1.441l.051.232a26.174,26.174,0,0,0-1.287,6.434,8.416,8.416,0,0,0,10.295-3.86,8.416,8.416,0,0,0,10.295,3.86,26.174,26.174,0,0,0-1.287-6.434v-.219a30.408,30.408,0,0,0,12.868-1.441l.206-.09A37.228,37.228,0,0,1,52.809,47.122Z" transform="translate(-0.726 6.928)" fill="#fcc"/>
      <path id="Shape-6" data-name="Shape" d="M33.589,37.868a8.416,8.416,0,0,1-10.295-3.86A8.416,8.416,0,0,1,13,37.868a26.174,26.174,0,0,1,1.287-6.434v-.219A11.208,11.208,0,0,0,23.295,25,11.234,11.234,0,0,0,32.3,31.215v.219A26.174,26.174,0,0,1,33.589,37.868Z" transform="translate(2.794 5.886)" fill="#ffa0a0"/>
      <path id="Shape-7" data-name="Shape" d="M23.295,25.589a10.295,10.295,0,0,1-9.986-12.8c1.724.335,9.986,1.441,9.986-7.785,0,9.227,8.261,8.12,9.986,7.785a10.295,10.295,0,0,1-9.986,12.8Z" transform="translate(2.794 0.15)" fill="#fff"/>
      <path id="Shape-8" data-name="Shape" d="M23.226,5c0,9.227-8.261,8.12-9.986,7.785A10.3,10.3,0,0,1,23.226,5Z" transform="translate(2.863 0.15)" fill="#ff9e9a"/>
      <path id="Shape-9" data-name="Shape" d="M30.986,12.785C29.261,13.12,21,14.227,21,5A10.3,10.3,0,0,1,30.986,12.785Z" transform="translate(5.089 0.15)" fill="#ff9e9a"/>
      <path id="Shape-10" data-name="Shape" d="M11.443,36.51c1.441,2.857,1.158,5.907-.618,6.807s-4.414-.669-5.855-3.526Z" transform="translate(0.491 9.188)" fill="#e8edfc"/>
      <path id="Shape-11" data-name="Shape" d="M32.205,36.51c-1.441,2.857-1.158,5.907.618,6.807s4.414-.669,5.855-3.526Z" transform="translate(8.038 9.188)" fill="#e8edfc"/>
      <path id="Shape-12" data-name="Shape" d="M42.835,47.119h-.257a9.317,9.317,0,0,1-3.86,2.265A35.941,35.941,0,0,0,35.5,29.618a28.142,28.142,0,0,0,3.423-.978A37.228,37.228,0,0,1,42.835,47.119Z" transform="translate(9.248 6.93)" fill="#ff9e9a"/>
    </g>
    <path id="Shape-13" data-name="Shape" d="M10.872,72.548c3.963,2.123,9.342,2.934,13.975,3.063l3.256.026a32.376,32.376,0,0,1-13.37-3.088C7.848,68.854,4.7,61.314,4.605,53.541,4.4,45.035,8.067,36.362,12.674,29.207c5.147-7.991,0-12.675,4.954-20.718a16.124,16.124,0,0,1,3.86-4.311,14.914,14.914,0,0,1,7.271-3.05,14.863,14.863,0,0,0-11.144,3.05,16.124,16.124,0,0,0-3.86,4.311C8.8,16.532,13.948,21.216,8.8,29.207,4.193,36.362.526,45.035.732,53.541c.1,7.772,3.256,15.313,10.14,19.006Z" transform="translate(1.282 0.287)" fill="#fff"/>
    <g id="Layer_2" transform="translate(0.739 -0.002)">
      <path id="Shape-14" data-name="Shape" d="M9.525,16.31H12.1V17.6a10.05,10.05,0,0,1-.064,1.39,16.729,16.729,0,0,1-.476,2.754A17.771,17.771,0,0,1,9.332,26.8L7.17,25.408a15.442,15.442,0,0,0,1.9-4.349,15.558,15.558,0,0,0,.4-2.316V17.571Z" transform="translate(1.105 3.394)" fill="#fff"/>
      <g id="Group_62" data-name="Group 62">
        <path id="Shape-15" data-name="Shape" d="M19.287,14a1.287,1.287,0,1,0,1.287,1.287A1.287,1.287,0,0,0,19.287,14Z" transform="translate(4.211 2.732)" fill="red"/>
        <path id="Shape-16" data-name="Shape" d="M9.927,21.854a1.287,1.287,0,1,1,1.287-1.287A1.287,1.287,0,0,1,9.927,21.854Z" transform="translate(1.527 4.246)" fill="red"/>
        <path id="Shape-17" data-name="Shape" d="M8.59,73.063a18.183,18.183,0,0,0,4.066,2.445c4.131,1.84,9.008,2.7,15.442,2.7s11.311-.862,15.442-2.7a17.771,17.771,0,0,0,4.066-2.445c5.031-4.092,7.9-10.964,7.85-18.826,0-7.5-2.574-15.185-7.721-23.5l-.695-1.094a14.039,14.039,0,0,1-2.213-7.657V17.729A16.58,16.58,0,0,0,15.23,7.306a17.166,17.166,0,0,0-3.243,6.434,16.587,16.587,0,0,0-.618,3.539c-.09,1.287,0,2.278,0,3.423a1.287,1.287,0,0,0,2.574,0,22.326,22.326,0,0,1,.528-6.318A14.593,14.593,0,0,1,17.224,8.9a14.056,14.056,0,0,1,25.029,8.828v4.259A16.587,16.587,0,0,0,44.827,31l.669,1.068c1.068,1.711,1.982,3.384,2.818,5.044-3.719,1.055-15.262,3.577-19.122-4.478a1.287,1.287,0,0,0-2.316,0c-3.86,8.03-15.442,5.52-19.122,4.478.309-.618.618-1.287.965-1.866.708-1.287,1.518-2.677,2.393-4.041a1.285,1.285,0,0,0-2.162-1.39c-.914,1.428-1.763,2.831-2.5,4.2A42.993,42.993,0,0,0,.74,54.172C.689,62.047,3.558,68.919,8.59,73.063Zm37.4-2.046a15.648,15.648,0,0,1-3.5,2.149C38.7,74.851,34.133,75.636,28.1,75.636s-10.6-.785-14.387-2.471a16.1,16.1,0,0,1-3.5-2.136,18.015,18.015,0,0,1-5.147-7.258,1.03,1.03,0,0,0,.283-.335A1.287,1.287,0,0,0,4.832,61.7l-.579-.347a24.681,24.681,0,0,1-.6-2.445c3.1,1.673,9.947,3.86,24.45,3.86s21.3-2.213,24.45-3.86a24.683,24.683,0,0,1-.528,2.471l-.579.347a1.287,1.287,0,0,0-.515,1.737,1.03,1.03,0,0,0,.283.335,17.745,17.745,0,0,1-5.225,7.219ZM28.1,35.745a12.482,12.482,0,0,0,7.94,4.8,27.873,27.873,0,0,1,1.068,4.542,7.013,7.013,0,0,1-7.85-3.564,1.287,1.287,0,0,0-2.213,0,7.013,7.013,0,0,1-7.953,3.564,27.577,27.577,0,0,1,1.029-4.62A12.521,12.521,0,0,0,28.1,35.745ZM6.711,39.464a35.117,35.117,0,0,0,8.519,1.428h2.188a22.069,22.069,0,0,0-.9,5.147,1.287,1.287,0,0,0,.811,1.2A9.574,9.574,0,0,0,28.1,44.392a9.368,9.368,0,0,0,7.348,3.462,9.574,9.574,0,0,0,3.423-.618,1.287,1.287,0,0,0,.811-1.2,22.288,22.288,0,0,0-.862-5.147c.45,0,.9.064,1.377.064h.772a34.6,34.6,0,0,0,8.48-1.416,36.945,36.945,0,0,1,3.4,14.734v1.287c-.051.013-4.156,4.633-24.746,4.633S3.4,55.575,3.391,55.562V54.275a36.945,36.945,0,0,1,3.32-14.811Z" transform="translate(-0.739 -0.998)" fill="red"/>
        <path id="Shape-18" data-name="Shape" d="M24.581,28.146A11.581,11.581,0,0,0,36.163,16.565a11.8,11.8,0,0,0-.335-2.715v-.077a11.581,11.581,0,0,0-22.442,0v.077A11.8,11.8,0,0,0,13,16.565,11.581,11.581,0,0,0,24.581,28.146Zm0-2.574a9.008,9.008,0,0,1-9.008-9.008,9.715,9.715,0,0,1,.064-1.068,10.05,10.05,0,0,0,7.309-1.827,7.1,7.1,0,0,0,1.634-1.917,7.1,7.1,0,0,0,1.634,1.917,9.342,9.342,0,0,0,6,1.892A7.879,7.879,0,0,0,33.5,15.5a9.714,9.714,0,0,1,.09,1.068A9.008,9.008,0,0,1,24.581,25.573ZM32.83,12.962a7.283,7.283,0,0,1-4.98-1.287A5.816,5.816,0,0,1,25.971,7.66a9.008,9.008,0,0,1,6.859,5.3ZM23.192,7.673a5.816,5.816,0,0,1-1.879,4.015,7.283,7.283,0,0,1-4.98,1.287,9.008,9.008,0,0,1,6.859-5.3Z" transform="translate(2.777 0.167)" fill="red"/>
        <path id="Shape-19" data-name="Shape" d="M37.517,49.46c-.682.193-1.441.386-2.291.566a1.289,1.289,0,0,0,.3,2.548h.27c.9-.18,1.711-.386,2.445-.592a1.312,1.312,0,0,0-.721-2.522Z" transform="translate(8.86 12.89)" fill="red"/>
        <path id="Shape-20" data-name="Shape" d="M26.583,50.93H24.177a1.287,1.287,0,1,0,0,2.574h2.471a1.288,1.288,0,1,0-.064-2.574Z" transform="translate(5.614 13.324)" fill="red"/>
        <path id="Shape-21" data-name="Shape" d="M9.9,50.031c-.836-.18-1.609-.36-2.291-.553a1.287,1.287,0,1,0-.695,2.471c.733.206,1.544.412,2.445.6h.27a1.294,1.294,0,0,0,.27-2.574Z" transform="translate(0.735 12.885)" fill="red"/>
        <path id="Shape-22" data-name="Shape" d="M15.387,50.749c-.836-.077-1.634-.154-2.393-.257a1.3,1.3,0,0,0-.309,2.574c.772.09,1.6.18,2.458.257h.129a1.288,1.288,0,1,0,.116-2.574Z" transform="translate(2.359 13.196)" fill="red"/>
        <path id="Shape-23" data-name="Shape" d="M32.158,50.492l-2.393.257a1.288,1.288,0,1,0,.116,2.574h.129c.862-.077,1.686-.167,2.458-.257a1.3,1.3,0,0,0-.309-2.574Z" transform="translate(7.233 13.196)" fill="red"/>
        <path id="Shape-24" data-name="Shape" d="M20.953,51H18.547a1.287,1.287,0,0,0,0,2.574h2.471a1.287,1.287,0,0,0,0-2.574Z" transform="translate(3.999 13.344)" fill="red"/>
        <path id="Shape-25" data-name="Shape" d="M8.432,45.35a5.147,5.147,0,0,0,2.574.8,3.564,3.564,0,0,0,1.673-.4c2.458-1.287,2.973-4.993,1.184-8.532a1.292,1.292,0,1,0-2.3,1.171c1.171,2.291.939,4.568,0,5.07a1.969,1.969,0,0,1-1.8-.309A6.653,6.653,0,0,1,7.442,40.5a1.287,1.287,0,1,0-2.291,1.158A9.008,9.008,0,0,0,8.432,45.35Z" transform="translate(0.473 9.188)" fill="red"/>
        <path id="Shape-26" data-name="Shape" d="M33.5,45.749a3.564,3.564,0,0,0,1.673.4,5.147,5.147,0,0,0,2.574-.8,9.008,9.008,0,0,0,3.281-3.693A1.287,1.287,0,0,0,38.738,40.5a6.653,6.653,0,0,1-2.316,2.651,1.969,1.969,0,0,1-1.8.309c-.991-.5-1.222-2.78,0-5.07a1.292,1.292,0,1,0-2.3-1.171c-1.789,3.539-1.274,7.3,1.184,8.532Z" transform="translate(8.013 9.188)" fill="red"/>
        <path id="Shape-27" data-name="Shape" d="M25.287,14a1.287,1.287,0,1,0,1.287,1.287A1.287,1.287,0,0,0,25.287,14Z" transform="translate(5.932 2.732)" fill="red"/>
      </g>
    </g>
  </g>
</svg>
