<svg xmlns="http://www.w3.org/2000/svg" xmlns:xlink="http://www.w3.org/1999/xlink" width="1237" height="451" viewBox="0 0 1237 451">
  <defs>
    <linearGradient id="linear-gradient" x1="1" x2="0" y2="1" gradientUnits="objectBoundingBox">
      <stop offset="0" stop-color="#a100ff"/>
      <stop offset="1" stop-color="#6700c3"/>
    </linearGradient>
    <clipPath id="clip-path">
      <rect id="Rectangle_268" data-name="Rectangle 268" width="1088" height="450" transform="translate(139 238)" fill="none" stroke="#707070" stroke-width="1"/>
    </clipPath>
    <clipPath id="clip-path-2">
      <circle id="Ellipse_67" data-name="Ellipse 67" cx="36" cy="36" r="36" transform="translate(462 301)" fill="none" stroke="#707070" stroke-width="1"/>
    </clipPath>
    <clipPath id="clip-path-3">
      <path id="Path_1841" data-name="Path 1841" d="M0,420.037,297.131,7.984H465V455H0Z" transform="translate(911 200)" fill="none" stroke="#707070" stroke-width="1"/>
    </clipPath>
    <clipPath id="clip-path-4">
      <rect id="Rectangle_335" data-name="Rectangle 335" width="1237" height="449" transform="translate(-2965 2017)" fill="none" stroke="#707070" stroke-width="1"/>
    </clipPath>
  </defs>
  <g id="Group_644" data-name="Group 644" transform="translate(2965 -2016)">
    <rect id="Rectangle_265" data-name="Rectangle 265" width="1237" height="450" transform="translate(-2965 2016)" fill="url(#linear-gradient)"/>
    <g id="Mask_Group_38" data-name="Mask Group 38" transform="translate(-3104 1779)" clip-path="url(#clip-path)">
      <g id="Ellipse_65" data-name="Ellipse 65" transform="translate(628 -30)" fill="none" stroke="#fff" stroke-width="122" opacity="0.13">
        <circle cx="506.5" cy="506.5" r="506.5" stroke="none"/>
        <circle cx="506.5" cy="506.5" r="445.5" fill="none"/>
      </g>
    </g>
    <path id="Path_1843" data-name="Path 1843" d="M0,0,21.689,19.044,43.4,0,65.651,19.044,87.632,0l22.679,19.044L132.275,0" transform="translate(-2391 2383)" fill="none" stroke="#fff" stroke-linecap="round" stroke-width="6" opacity="0.21"/>
    <path id="Path_1842" data-name="Path 1842" d="M0,0,10.248,9l10.26-9L31.02,9,41.406,0,52.122,9,62.5,0" transform="translate(-2781 2118.045)" fill="none" stroke="#fff" stroke-linecap="round" stroke-width="6" opacity="0.21"/>
    <g id="Ellipse_66" data-name="Ellipse 66" transform="translate(-2229 2127)" fill="none" stroke="#fff" stroke-width="23" opacity="0.39">
      <circle cx="51" cy="51" r="51" stroke="none"/>
      <circle cx="51" cy="51" r="39.5" fill="none"/>
    </g>
    <g id="Mask_Group_39" data-name="Mask Group 39" transform="translate(-2429.787 1697.417) rotate(48)" opacity="0.54" clip-path="url(#clip-path-2)">
      <g id="Group_600" data-name="Group 600">
        <line id="Line_114" data-name="Line 114" y2="78" transform="translate(457.5 297.5)" fill="none" stroke="#fff" stroke-width="1"/>
        <line id="Line_115" data-name="Line 115" y2="78" transform="translate(461.5 297.5)" fill="none" stroke="#fff" stroke-width="1"/>
        <line id="Line_116" data-name="Line 116" y2="78" transform="translate(465.5 297.5)" fill="none" stroke="#fff" stroke-width="1"/>
        <line id="Line_117" data-name="Line 117" y2="78" transform="translate(469.5 297.5)" fill="none" stroke="#fff" stroke-width="1"/>
        <line id="Line_118" data-name="Line 118" y2="78" transform="translate(473.5 297.5)" fill="none" stroke="#fff" stroke-width="1"/>
        <line id="Line_119" data-name="Line 119" y2="78" transform="translate(477.5 297.5)" fill="none" stroke="#fff" stroke-width="1"/>
        <line id="Line_120" data-name="Line 120" y2="78" transform="translate(481.5 297.5)" fill="none" stroke="#fff" stroke-width="1"/>
        <line id="Line_121" data-name="Line 121" y2="78" transform="translate(485.5 297.5)" fill="none" stroke="#fff" stroke-width="1"/>
        <line id="Line_122" data-name="Line 122" y2="78" transform="translate(489.5 297.5)" fill="none" stroke="#fff" stroke-width="1"/>
        <line id="Line_123" data-name="Line 123" y2="78" transform="translate(493.5 297.5)" fill="none" stroke="#fff" stroke-width="1"/>
        <line id="Line_124" data-name="Line 124" y2="78" transform="translate(497.5 297.5)" fill="none" stroke="#fff" stroke-width="1"/>
        <line id="Line_125" data-name="Line 125" y2="78" transform="translate(501.5 297.5)" fill="none" stroke="#fff" stroke-width="1"/>
        <line id="Line_126" data-name="Line 126" y2="78" transform="translate(505.5 297.5)" fill="none" stroke="#fff" stroke-width="1"/>
        <line id="Line_127" data-name="Line 127" y2="78" transform="translate(509.5 297.5)" fill="none" stroke="#fff" stroke-width="1"/>
        <line id="Line_128" data-name="Line 128" y2="78" transform="translate(513.5 297.5)" fill="none" stroke="#fff" stroke-width="1"/>
        <line id="Line_129" data-name="Line 129" y2="78" transform="translate(517.5 297.5)" fill="none" stroke="#fff" stroke-width="1"/>
        <line id="Line_130" data-name="Line 130" y2="78" transform="translate(521.5 297.5)" fill="none" stroke="#fff" stroke-width="1"/>
        <line id="Line_131" data-name="Line 131" y2="78" transform="translate(525.5 297.5)" fill="none" stroke="#fff" stroke-width="1"/>
        <line id="Line_132" data-name="Line 132" y2="78" transform="translate(529.5 297.5)" fill="none" stroke="#fff" stroke-width="1"/>
        <line id="Line_133" data-name="Line 133" y2="78" transform="translate(533.5 297.5)" fill="none" stroke="#fff" stroke-width="1"/>
        <line id="Line_134" data-name="Line 134" y2="78" transform="translate(537.5 297.5)" fill="none" stroke="#fff" stroke-width="1"/>
      </g>
    </g>
    <g id="Mask_Group_37" data-name="Mask Group 37" transform="translate(-3104 1811)" clip-path="url(#clip-path-3)">
      <g id="Group_599" data-name="Group 599" transform="translate(697.81 -25.629)" opacity="0.15">
        <g id="Group_556" data-name="Group 556" transform="translate(503.176 486.369)">
          <path id="Path_1720" data-name="Path 1720" d="M654.9,649.47" transform="translate(-642.565 -624.797)" fill="none" stroke="#fff" stroke-linecap="round" stroke-linejoin="round" stroke-width="3.873"/>
          <path id="Path_1721" data-name="Path 1721" d="M639.047,633.615" transform="translate(-639.047 -621.279)" fill="none" stroke="#fff" stroke-linecap="round" stroke-linejoin="round" stroke-width="3.873"/>
          <path id="Path_1722" data-name="Path 1722" d="M654.9,617.761" transform="translate(-642.565 -617.761)" fill="none" stroke="#fff" stroke-linecap="round" stroke-linejoin="round" stroke-width="3.873"/>
          <path id="Path_1723" data-name="Path 1723" d="M651.383,617.761A12.336,12.336,0,0,1,639.047,630.1a12.336,12.336,0,0,1,12.336,12.337A12.337,12.337,0,0,1,663.72,630.1,12.337,12.337,0,0,1,651.383,617.761Z" transform="translate(-639.047 -617.761)" fill="none" stroke="#fff" stroke-linecap="round" stroke-linejoin="round" stroke-width="3.873"/>
          <path id="Path_1724" data-name="Path 1724" d="M670.756,633.615" transform="translate(-646.083 -621.279)" fill="none" stroke="#fff" stroke-linecap="round" stroke-linejoin="round" stroke-width="3.873"/>
        </g>
        <path id="Path_1725" data-name="Path 1725" d="M510.987,208.893l20.5-36.264,23.748,12.433,20.739-39.62,28.94,14.374,11.2-23.624-8.665-.356,17.929-16.005-1.048,24.01-5.759-6.484-12.388,26.124L577.15,149.06l-20.767,39.67-23.824-12.473-19.2,33.974Z" transform="translate(-107.455 -20.903)" fill="#fff"/>
        <g id="Group_559" data-name="Group 559" transform="translate(465.215 532.997)">
          <path id="Path_1726" data-name="Path 1726" d="M629.726,778.987c.928-5.61,1.95-11.777,2.639-15.936" transform="translate(-599.018 -696.629)" fill="none" stroke="#fff" stroke-linecap="round" stroke-linejoin="round" stroke-width="3.873"/>
          <path id="Path_1727" data-name="Path 1727" d="M642.513,764.408c-.679,4.1-1.7,10.281-2.639,15.936" transform="translate(-601.27 -696.93)" fill="none" stroke="#fff" stroke-linecap="round" stroke-linejoin="round" stroke-width="3.873"/>
          <path id="Path_1728" data-name="Path 1728" d="M617.544,791.483l9.425-7.546,7.858,1.3,6.033,10.106Z" transform="translate(-596.315 -701.264)" fill="none" stroke="#fff" stroke-linecap="round" stroke-linejoin="round" stroke-width="3.873"/>
          <g id="Group_557" data-name="Group 557" transform="translate(55.439 22.842)">
            <path id="Path_1729" data-name="Path 1729" d="M675.369,707.043l20.795,3.444-.77,2.931a69.731,69.731,0,0,1-7.632,17.356c-7.083,11.283-16.147,16.51-26.252,15.157m5.382-5.49c12.821-1.876,19.877-18.654,22.247-25.52l-14.524-2.406" transform="translate(-661.509 -707.043)" fill="none" stroke="#fff" stroke-linecap="round" stroke-linejoin="round" stroke-width="3.873"/>
          </g>
          <g id="Group_558" data-name="Group 558" transform="translate(0 11.415)">
            <path id="Path_1730" data-name="Path 1730" d="M610.367,701.232l-14.575-2.414c.03,7.4,1.345,26.084,13.467,31.64m1.565,6.373c-9.4-2.33-15.89-10.088-18.841-22.562a69.744,69.744,0,0,1-1.63-18.89l.217-3.023,20.4,3.38" transform="translate(-590.26 -692.357)" fill="none" stroke="#fff" stroke-linecap="round" stroke-linejoin="round" stroke-width="3.873"/>
          </g>
          <path id="Path_1731" data-name="Path 1731" d="M618.112,688.145c-1.439,8.41-4.764,28.956-4.065,35.686,1.435,13.823,8.77,20.918,17.914,22.433l.942.156.942.156c9.142,1.515,18.373-2.839,24.19-15.459,2.908-6.314,6.621-27.553,7.919-35.742" transform="translate(-595.517 -680.008)" fill="none" stroke="#fff" stroke-linecap="round" stroke-linejoin="round" stroke-width="3.873"/>
          <path id="Path_1732" data-name="Path 1732" d="M639.24,797.547l-23.772-3.937a6.33,6.33,0,0,0-7.279,5.211l36.261,6.005A6.331,6.331,0,0,0,639.24,797.547Z" transform="translate(-594.239 -703.391)" fill="none" stroke="#fff" stroke-linecap="round" stroke-linejoin="round" stroke-width="3.873"/>
          <rect id="Rectangle_266" data-name="Rectangle 266" width="21.947" height="42.979" transform="matrix(0.163, -0.987, 0.987, 0.163, 7.295, 116.572)" stroke-width="3.873" stroke="#fff" stroke-linecap="round" stroke-linejoin="round" fill="none"/>
          <rect id="Rectangle_267" data-name="Rectangle 267" width="6.534" height="50.226" transform="translate(2.652 122.427) rotate(-80.595)" stroke-width="3.873" stroke="#fff" stroke-linecap="round" stroke-linejoin="round" fill="none"/>
          <path id="Path_1733" data-name="Path 1733" d="M671.228,689.871A3.677,3.677,0,0,1,667,692.9l-47.743-7.908a3.676,3.676,0,0,1-3.024-4.227h0a3.676,3.676,0,0,1,4.227-3.026l47.743,7.907a3.676,3.676,0,0,1,3.025,4.227Z" transform="translate(-596.013 -677.687)" fill="none" stroke="#fff" stroke-linecap="round" stroke-linejoin="round" stroke-width="3.873"/>
        </g>
        <g id="Group_560" data-name="Group 560" transform="translate(26.733 39.67)">
          <path id="Path_1734" data-name="Path 1734" d="M68.658,43.674,26.733,116.865l128.34,73.517ZM47.415,111.248l21.427-37.4,44.164,74.977Z" transform="translate(-26.733 -43.674)" fill="none" stroke="#fff" stroke-linecap="round" stroke-linejoin="round" stroke-width="3.873"/>
          <line id="Line_101" data-name="Line 101" x1="3.723" y2="6.239" transform="translate(11.754 72.983)" fill="none" stroke="#fff" stroke-linecap="round" stroke-linejoin="round" stroke-width="3.873"/>
          <line id="Line_102" data-name="Line 102" x1="3.723" y2="6.239" transform="translate(22.756 79.019)" fill="none" stroke="#fff" stroke-linecap="round" stroke-linejoin="round" stroke-width="3.873"/>
          <line id="Line_103" data-name="Line 103" x1="3.723" y2="6.239" transform="translate(33.337 85.048)" fill="none" stroke="#fff" stroke-linecap="round" stroke-linejoin="round" stroke-width="3.873"/>
          <line id="Line_104" data-name="Line 104" x1="3.723" y2="6.239" transform="translate(44.339 91.085)" fill="none" stroke="#fff" stroke-linecap="round" stroke-linejoin="round" stroke-width="3.873"/>
          <line id="Line_105" data-name="Line 105" x1="3.723" y2="6.239" transform="translate(55.503 98.206)" fill="none" stroke="#fff" stroke-linecap="round" stroke-linejoin="round" stroke-width="3.873"/>
          <line id="Line_106" data-name="Line 106" x1="3.723" y2="6.239" transform="translate(66.505 104.242)" fill="none" stroke="#fff" stroke-linecap="round" stroke-linejoin="round" stroke-width="3.873"/>
          <line id="Line_107" data-name="Line 107" x1="3.723" y2="6.239" transform="translate(77.086 110.27)" fill="none" stroke="#fff" stroke-linecap="round" stroke-linejoin="round" stroke-width="3.873"/>
          <line id="Line_108" data-name="Line 108" x1="3.723" y2="6.239" transform="translate(88.088 116.307)" fill="none" stroke="#fff" stroke-linecap="round" stroke-linejoin="round" stroke-width="3.873"/>
          <line id="Line_109" data-name="Line 109" x1="3.723" y2="6.239" transform="translate(99.762 123.148)" fill="none" stroke="#fff" stroke-linecap="round" stroke-linejoin="round" stroke-width="3.873"/>
        </g>
        <g id="Group_562" data-name="Group 562" transform="translate(149.314 428.791)">
          <g id="Group_561" data-name="Group 561" transform="translate(0 0)">
            <path id="Path_1735" data-name="Path 1735" d="M195.917,549.063l-.808,34.989a10.2,10.2,0,0,0-7.616,1.663c-4.981,3.675-3.48,8.621-.248,9.879,4.722,1.836,10.847-1.5,10.979-7.26.2-8.58.792-34.324.792-34.324l23.462-3.78-.223,28.911a10.825,10.825,0,0,0-7.562,1.264c-6.38,3.632-3.6,11.77,2.293,11.021,2.933-.374,6.563-2.839,7.233-7.922,1.3-9.859,1.289-39.741,1.289-39.741Z" transform="translate(-184.272 -543.763)" fill="#fff"/>
          </g>
        </g>
        <g id="Group_566" data-name="Group 566" transform="translate(49.297 510.432)">
          <g id="Group_564" data-name="Group 564" transform="translate(0)">
            <g id="Group_563" data-name="Group 563" transform="translate(0)">
              <path id="Path_1736" data-name="Path 1736" d="M209.248,820.977c-.056-2.88,1.007-5.848,3.78-7.145l.573-.268c3.118-1.46,6.732.362,8.877,2.849" transform="translate(-89.796 -685.157)" fill="none" stroke="#fff" stroke-linecap="round" stroke-linejoin="round" stroke-width="3.873"/>
              <path id="Path_1737" data-name="Path 1737" d="M59.4,737.661c.139-2.623.438-8.277.438-8.277s9.185-2.857,14.163-6.577c15.464-11.553,30.381-25.365,50.124-27.816,8.267-1.025,12.8,2.707,14.852,5.19" transform="translate(-56.546 -658.923)" fill="none" stroke="#fff" stroke-linecap="round" stroke-linejoin="round" stroke-width="3.873"/>
              <path id="Path_1738" data-name="Path 1738" d="M242.445,653.415l-6.322-4.728s-7.609,7.411-13.655,8.852C203.692,662.02,182.527,661.3,168,674.894c-5.779,5.411-6.1,10.984-5.607,14.241" transform="translate(-79.364 -648.687)" fill="none" stroke="#fff" stroke-linecap="round" stroke-linejoin="round" stroke-width="3.873"/>
              <path id="Path_1739" data-name="Path 1739" d="M225.7,656.459l-3.745-3.066-69.5,38.444c-3.5-3.509-11.738-1.611-13.709-.806l-.573.269c-2.519,1.423-7.362,5.521-6.91,10.46l-75.4,28.051-.129,4.837" transform="translate(-55.732 -649.731)" fill="none" stroke="#fff" stroke-linecap="round" stroke-linejoin="round" stroke-width="3.873"/>
              <path id="Path_1740" data-name="Path 1740" d="M159.68,717.276A7.521,7.521,0,0,1,164,710.312l.572-.269a7.529,7.529,0,0,1,8.879,1.9" transform="translate(-78.797 -662.145)" fill="none" stroke="#fff" stroke-linecap="round" stroke-linejoin="round" stroke-width="3.873"/>
            </g>
            <path id="Path_1741" data-name="Path 1741" d="M216.279,783.271l69.568-40.3-33.086-85.64-75.079,42.879Z" transform="translate(-82.793 -650.606)" fill="none" stroke="#fff" stroke-linecap="round" stroke-linejoin="round" stroke-width="3.873"/>
            <path id="Path_1742" data-name="Path 1742" d="M100.33,829.781,176.367,803.3l-39.085-82.83-81.55,29.063Z" transform="translate(-55.732 -664.615)" fill="none" stroke="#fff" stroke-linecap="round" stroke-linejoin="round" stroke-width="3.873"/>
          </g>
          <g id="Group_565" data-name="Group 565" transform="translate(114.641 33.672)">
            <path id="Path_1743" data-name="Path 1743" d="M203.066,722.541l5.5,11.738,53.884-30.216-5.666-12.1Z" transform="translate(-203.066 -691.961)" fill="none" stroke="#fff" stroke-linecap="round" stroke-linejoin="round" stroke-width="3.873"/>
            <line id="Line_110" data-name="Line 110" y1="30.218" x2="53.883" transform="translate(9.738 19.983)" fill="none" stroke="#fff" stroke-linecap="round" stroke-linejoin="round" stroke-width="3.873"/>
            <line id="Line_111" data-name="Line 111" y1="14.223" x2="24.63" transform="translate(30.337 41.909)" fill="none" stroke="#fff" stroke-linecap="round" stroke-linejoin="round" stroke-width="3.873"/>
          </g>
        </g>
        <path id="Path_1744" data-name="Path 1744" d="M394.734,77.92l-20.249-6.363a1.888,1.888,0,1,0-1.131,3.6l1.654.52L355.047,139.2a8.878,8.878,0,1,0,16.94,5.324L391.947,81l1.655.521a1.889,1.889,0,0,0,1.132-3.6Zm-17.3,37.646-8.771,27.916a5.394,5.394,0,0,1-10.293-3.233l8.772-27.918L378.46,76.315l10.292,3.233Z" transform="translate(-72.761 -10.172)" fill="#fff"/>
        <g id="Group_567" data-name="Group 567" transform="translate(51.325 338.762)">
          <path id="Path_1745" data-name="Path 1745" d="M98.54,447.091l-27.5-13.2.8-1.659a2.913,2.913,0,1,0-5.252-2.521l-7.963,16.6a2.913,2.913,0,0,0,5.252,2.52l.8-1.661,27.5,13.194a25.772,25.772,0,1,0,6.37-13.275Z" transform="translate(-58.338 -428.06)" fill="none" stroke="#fff" stroke-linecap="round" stroke-linejoin="round" stroke-width="3.873"/>
          <path id="Path_1746" data-name="Path 1746" d="M137.381,449.418c-4.113-3.982-11.374-2.207-13.517,2.258a9.7,9.7,0,0,0-.909,5.118,5.526,5.526,0,0,0-4.722,7.351,7.654,7.654,0,0,0-1.014,13.123c-2.993,2.94-.061,7.925,2.848,9.322,0,0-2.528,4.171-1.255,4.782a25.772,25.772,0,0,0,22.3-46.471C139.838,444.29,137.381,449.418,137.381,449.418Z" transform="translate(-70.683 -431.786)" fill="none" stroke="#fff" stroke-linecap="round" stroke-linejoin="round" stroke-width="3.873"/>
        </g>
        <g id="Group_569" data-name="Group 569" transform="translate(351.557 25.629)">
          <g id="Group_568" data-name="Group 568">
            <path id="Path_1747" data-name="Path 1747" d="M485.653,82.157a35.676,35.676,0,0,0,60.284,16.53q.743-.767,1.433-1.565" transform="translate(-453.39 -38.172)" fill="none" stroke="#fff" stroke-linecap="round" stroke-linejoin="round" stroke-width="3.873"/>
            <path id="Path_1748" data-name="Path 1748" d="M553.721,73.267A35.673,35.673,0,1,0,484.6,57.92" transform="translate(-453.157 -25.629)" fill="none" stroke="#fff" stroke-linecap="round" stroke-linejoin="round" stroke-width="3.873"/>
            <path id="Path_1749" data-name="Path 1749" d="M481.825,45.212a35.348,35.348,0,0,0-4.674,9.512c-6.341-.217-10.294.387-10.623,1.91s3.079,3.752,9.049,6.216c.959.4,1.976.8,3.063,1.2A244.859,244.859,0,0,0,510.8,73.089c9.754,2.12,18.883,3.645,26.462,4.513q3.905.447,7.208.654c7.973.51,13.061-.03,13.438-1.762s-3.954-4.3-11.31-7.114a35.842,35.842,0,0,0-.419-10.535c21.441,7.46,35.343,16.19,33.975,22.483-1.383,6.36-18,8.5-40.993,6.277-1.853-.178-3.738-.381-5.668-.619-7.771-.952-16.128-2.359-24.789-4.241a264.468,264.468,0,0,1-30.783-8.582c-.508-.178-1-.354-1.5-.535-20.389-7.313-33.462-15.721-32.133-21.83C445.594,45.759,460.634,43.517,481.825,45.212Z" transform="translate(-444.19 -29.853)" fill="none" stroke="#fff" stroke-linecap="round" stroke-linejoin="round" stroke-width="3.873"/>
          </g>
        </g>
        <g id="Group_572" data-name="Group 572" transform="translate(554.808 426.372)">
          <path id="Path_1750" data-name="Path 1750" d="M727.315,612.341c-1.6-3.718-8.2-4.417-11.932-5.841-2.506-.962-6.478-2.067-9.423-3.932a53.379,53.379,0,0,0,17.2,47.385c.49-4.515-.747-10.167-.775-13.687C722.3,628.163,730.9,620.6,727.315,612.341Z" transform="translate(-705.403 -554.393)" fill="none" stroke="#fff" stroke-linecap="round" stroke-linejoin="round" stroke-width="3.873"/>
          <path id="Path_1751" data-name="Path 1751" d="M833.451,622.433c-.937.56-.447,1.233-.863,2.024-.912,1.743-1.286,3.873-2.217,5.557-2.553,4.665-5.069,3.094-10.232,4.427-5.461,1.413-5.294,4.813-3.29,9.2a36.739,36.739,0,0,1,3.133,12.353c.05.576.2,1.44.367,2.4a55.534,55.534,0,0,0,23.064-35.232C839.928,622.373,835.159,621.4,833.451,622.433Z" transform="translate(-729.848 -558.702)" fill="none" stroke="#fff" stroke-linecap="round" stroke-linejoin="round" stroke-width="3.873"/>
          <g id="Group_571" data-name="Group 571" transform="translate(0.557 0)">
            <g id="Group_570" data-name="Group 570" transform="translate(9.399 2.912)">
              <path id="Path_1752" data-name="Path 1752" d="M806.548,553.6a114.287,114.287,0,0,1-12.422,2.036c-7.734.589-23.688-2.474-24.112,8.645-.179,4.52,2.415,9.084,1.622,13.508-.45,2.494-1.162,2.752-3.585,3.447a33.394,33.394,0,0,1-7.047.982c-.9.058-3.485-.057-5.461.191a4.1,4.1,0,0,0-2.158.693c-1.593,1.52-.414,4.9.471,6.418,2.445,4.224,7.862,6.033,12.568,7.623.694.234,1.365.46,2.015.694,6.793,2.4,10.892,4.062,9.624,11.524-.16.952-.287,1.909-.533,2.813a5.246,5.246,0,0,1-1.584,2.683c-1.867,1.612-4.925,1.026-6.791,2.408-4.96,3.681-.388,11.7,3.834,14.009,2.817,1.534,6.1,1.685,8.062,4.393,1.878,2.606,1.5,5.687,2.253,8.563a13.906,13.906,0,0,0,4.974,7.439,60.061,60.061,0,0,0,14.071-5.89c1.382-.8,2.718-1.639,4.028-2.555-.171-.962-.318-1.826-.367-2.4a36.738,36.738,0,0,0-3.132-12.352c-2-4.388-2.171-7.787,3.29-9.2,5.163-1.334,7.679.238,10.232-4.427.931-1.685,1.3-3.814,2.217-5.557.416-.792-.074-1.464.863-2.024,1.708-1.035,6.477-.06,9.962.732.034-.183.092-.353.125-.522C833.419,585.935,823.758,565.359,806.548,553.6Z" transform="translate(-725.832 -546.44)" fill="none" stroke="#fff" stroke-linecap="round" stroke-linejoin="round" stroke-width="3.873"/>
              <path id="Path_1753" data-name="Path 1753" d="M750.649,554.039c.508-2.121-.385-5.262-1.361-7.138a28.414,28.414,0,0,0-1.514-2.5,58.758,58.758,0,0,0-18.838,10.28,57.006,57.006,0,0,0-10.739,11.4c3.172-1.067,6.666-1.311,9.655-3.122a23.068,23.068,0,0,1,5.549-2.234c1.293-.363,2.61-.688,3.838-.925C741.669,558.918,749.32,559.555,750.649,554.039Z" transform="translate(-718.198 -544.398)" fill="none" stroke="#fff" stroke-linecap="round" stroke-linejoin="round" stroke-width="3.873"/>
            </g>
            <path id="Path_1754" data-name="Path 1754" d="M772.544,541.36a59.269,59.269,0,0,0-27.45,2.207,28.491,28.491,0,0,1,1.513,2.5c.976,1.876,1.869,5.017,1.361,7.138-1.329,5.517-8.98,4.879-13.409,5.754-1.228.237-2.545.562-3.838.925a23.073,23.073,0,0,0-5.549,2.234c-2.989,1.811-6.482,2.055-9.655,3.122a54.44,54.44,0,0,0-9.175,21.8c-.108.6-.138,1.2-.224,1.785,2.944,1.865,6.917,2.97,9.423,3.932,3.735,1.424,10.328,2.123,11.931,5.841,3.582,8.263-5.011,15.822-4.925,23.924.028,3.519,1.265,9.172.775,13.687a57.136,57.136,0,0,0,29.73,14.054,59.254,59.254,0,0,0,24.911-1.472,13.908,13.908,0,0,1-4.974-7.439c-.748-2.877-.374-5.957-2.253-8.563-1.962-2.709-5.245-2.859-8.062-4.393-4.222-2.312-8.795-10.328-3.834-14.009,1.867-1.383,4.925-.8,6.791-2.408a5.247,5.247,0,0,0,1.584-2.683c.246-.9.373-1.861.533-2.813,1.268-7.462-2.832-9.128-9.625-11.525-.65-.234-1.32-.46-2.014-.694-4.706-1.59-10.122-3.4-12.568-7.623-.885-1.519-2.063-4.9-.471-6.418a4.1,4.1,0,0,1,2.158-.693c1.976-.249,4.564-.134,5.461-.192a33.4,33.4,0,0,0,7.047-.982c2.423-.695,3.135-.953,3.585-3.447.793-4.424-1.8-8.988-1.622-13.508.423-11.118,16.378-8.056,24.112-8.645a114.3,114.3,0,0,0,12.422-2.036A57.478,57.478,0,0,0,772.544,541.36Z" transform="translate(-706.119 -540.655)" fill="none" stroke="#fff" stroke-linecap="round" stroke-linejoin="round" stroke-width="3.873"/>
          </g>
        </g>
        <g id="Group_573" data-name="Group 573" transform="translate(156.072 92.067)">
          <path id="Path_1755" data-name="Path 1755" d="M213.27,117.09a42.054,42.054,0,0,0,38.655,74.5l4.673-2.821,4.678-2.828A42.055,42.055,0,0,0,213.27,117.09Zm39.053,64.6a33.411,33.411,0,1,1,11.307-45.874A33.415,33.415,0,0,1,252.323,181.692Z" transform="translate(-192.956 -111.014)" fill="none" stroke="#fff" stroke-linecap="round" stroke-linejoin="round" stroke-width="3.873"/>
          <path id="Path_1756" data-name="Path 1756" d="M287.789,211.238l-1.727-2.867a5.93,5.93,0,0,0-8.144-2.008l-.9.547-4.678,2.828-4.673,2.821-.9.547a5.941,5.941,0,0,0-2.015,8.148l1.741,2.873a5.938,5.938,0,0,0,8.146,2,5.934,5.934,0,0,0-2.016,8.147l22.417,37.084a5.942,5.942,0,0,0,8.152,2l5.57-3.368,5.581-3.378a5.914,5.914,0,0,0,2-8.136l-22.417-37.088a5.919,5.919,0,0,0-8.136-2.006A5.919,5.919,0,0,0,287.789,211.238Z" transform="translate(-208.698 -131.982)" fill="none" stroke="#fff" stroke-linecap="round" stroke-linejoin="round" stroke-width="3.873"/>
        </g>
        <g id="Group_574" data-name="Group 574" transform="translate(502.18 103.619)">
          <path id="Path_1757" data-name="Path 1757" d="M666.45,190.614c-.219,9.928-1.006,45.413-1.405,63.4" transform="translate(-643.82 -140.229)" fill="none" stroke="#fff" stroke-linecap="round" stroke-linejoin="round" stroke-width="3.873"/>
          <path id="Path_1758" data-name="Path 1758" d="M672.8,256.845c.359-16.222,1.131-51.059,1.408-63.558" transform="translate(-645.541 -140.822)" fill="none" stroke="#fff" stroke-linecap="round" stroke-linejoin="round" stroke-width="3.873"/>
          <path id="Path_1759" data-name="Path 1759" d="M747.249,136.89c-13.608,5.763-50.062,21.195-61.75,26.143" transform="translate(-648.359 -128.308)" fill="none" stroke="#fff" stroke-linecap="round" stroke-linejoin="round" stroke-width="3.873"/>
          <path id="Path_1760" data-name="Path 1760" d="M688.126,170.356l62.192-26.329" transform="translate(-648.942 -129.891)" fill="none" stroke="#fff" stroke-linecap="round" stroke-linejoin="round" stroke-width="3.873"/>
          <path id="Path_1761" data-name="Path 1761" d="M662.253,172.8a10.347,10.347,0,1,0,13.35-5.99A10.348,10.348,0,0,0,662.253,172.8Zm5.443,2.071a4.522,4.522,0,1,1,2.619,5.835A4.523,4.523,0,0,1,667.7,174.875Z" transform="translate(-643.05 -134.797)" fill="none" stroke="#fff" stroke-linecap="round" stroke-linejoin="round" stroke-width="3.873"/>
          <path id="Path_1762" data-name="Path 1762" d="M637.767,277.359l1.906-5.009a8.074,8.074,0,0,1,10.418-4.675l25.855,9.838a8.074,8.074,0,0,1,4.676,10.419l-1.906,5.009Z" transform="translate(-637.767 -157.211)" fill="none" stroke="#fff" stroke-linecap="round" stroke-linejoin="round" stroke-width="3.873"/>
          <path id="Path_1763" data-name="Path 1763" d="M774.534,142.968c-2.106-4.837-7.476-17.108-7.476-17.108l-5.169,2.25s5.426,12.4,7.514,17.2" transform="translate(-665.309 -125.86)" fill="none" stroke="#fff" stroke-linecap="round" stroke-linejoin="round" stroke-width="3.873"/>
          <path id="Path_1764" data-name="Path 1764" d="M769.964,184.848l31.165-12.422L781.952,146.1,765.4,153.324Z" transform="translate(-666.089 -130.352)" fill="none" stroke="#fff" stroke-linecap="round" stroke-linejoin="round" stroke-width="3.873"/>
        </g>
        <g id="Group_575" data-name="Group 575" transform="translate(613.695 361.422)">
          <path id="Path_1765" data-name="Path 1765" d="M858.49,466.913l-4.123-8.674-12.235,1.827,7.213,15.18Z" transform="translate(-794.63 -457.417)" fill="none" stroke="#fff" stroke-linecap="round" stroke-linejoin="round" stroke-width="3.873"/>
          <path id="Path_1766" data-name="Path 1766" d="M871.632,457.183l-13.7.95,4,8.409Z" transform="translate(-798.137 -457.183)" fill="none" stroke="#fff" stroke-linecap="round" stroke-linejoin="round" stroke-width="3.873"/>
          <path id="Path_1767" data-name="Path 1767" d="M783.52,488.3v0l2.341,4.928,2.436,5.128,47.5-22.584-2.44-5.126-2.342-4.927,0,0-2.436-5.125-47.5,22.585Z" transform="translate(-781.084 -457.938)" fill="none" stroke="#fff" stroke-linecap="round" stroke-linejoin="round" stroke-width="3.873"/>
          <line id="Line_112" data-name="Line 112" x1="45.394" y2="21.715" transform="translate(4.66 11.081)" fill="none" stroke="#fff" stroke-linecap="round" stroke-linejoin="round" stroke-width="3.873"/>
        </g>
        <g id="Group_578" data-name="Group 578" transform="translate(46.23 196.928)">
          <path id="Path_1768" data-name="Path 1768" d="M116.787,255.628l7.05-2.408a7.229,7.229,0,0,1,9.177,4.5l20.052,58.707a7.23,7.23,0,0,1-4.5,9.177L81.408,348.543a7.228,7.228,0,0,1-9.176-4.5L52.181,285.332a7.227,7.227,0,0,1,4.5-9.176l6.709-2.291" transform="translate(-51.791 -247.344)" fill="none" stroke="#fff" stroke-linecap="round" stroke-linejoin="round" stroke-width="3.873"/>
          <path id="Path_1769" data-name="Path 1769" d="M80.244,272.023l33-11.272" transform="translate(-58.104 -249.101)" fill="none" stroke="#fff" stroke-linecap="round" stroke-linejoin="round" stroke-width="3.873"/>
          <g id="Group_576" data-name="Group 576" transform="translate(10.004)">
            <path id="Path_1770" data-name="Path 1770" d="M77.459,276.742a5.1,5.1,0,0,1-3.178,6.475h0a5.1,5.1,0,0,1-6.473-3.178l-2.885-8.445a5.1,5.1,0,0,1,3.178-6.474h0a5.1,5.1,0,0,1,6.475,3.177Z" transform="translate(-64.648 -250.009)" fill="none" stroke="#fff" stroke-linecap="round" stroke-linejoin="round" stroke-width="3.873"/>
            <path id="Path_1771" data-name="Path 1771" d="M133.278,257.676a5.1,5.1,0,0,1-3.177,6.475h0a5.1,5.1,0,0,1-6.475-3.177l-2.884-8.445a5.1,5.1,0,0,1,3.177-6.475h0a5.1,5.1,0,0,1,6.475,3.178Z" transform="translate(-77.034 -245.779)" fill="none" stroke="#fff" stroke-linecap="round" stroke-linejoin="round" stroke-width="3.873"/>
          </g>
          <g id="Group_577" data-name="Group 577" transform="translate(26.224 34.696)">
            <path id="Path_1772" data-name="Path 1772" d="M91.645,305.968a12.97,12.97,0,0,1,4.965-1.7l8.567,25.081c.416,1.216.711,2.246,1.109,3.412.76-.26,2.313-.847,2.972-1.072l3.5-1.194a11.337,11.337,0,0,1,.964,2.16,11.168,11.168,0,0,1,.542,2.249l-19.1,6.525a11.465,11.465,0,0,1-.946-2.11,11.33,11.33,0,0,1-.559-2.3l4.662-1.591c.658-.226,2.2-.693,2.905-.937-.4-1.165-.794-2.16-1.21-3.377l-3.946-11.552c-.433-1.267-1.215-4.056-1.841-6.218a21.541,21.541,0,0,1-5.427,7.964,4.913,4.913,0,0,1-3.3-2.38C89.369,314.215,91.333,309.526,91.645,305.968Z" transform="translate(-85.493 -293.455)" fill="#fff"/>
            <path id="Path_1773" data-name="Path 1773" d="M136.615,292.428a2.2,2.2,0,0,1-1.535,3.126l-8.765,2.995-1.926.657.865,2.534,1.009,3.616.3,1.37a12.312,12.312,0,0,1,4.147-2.434c6.181-2.112,11.653.489,13.885,7.026,2.805,8.208-1.742,13.948-7.52,15.921a15.462,15.462,0,0,1-10.632.011,6.975,6.975,0,0,1,1.034-4.258,12.419,12.419,0,0,0,7.773.062c3.395-1.16,5.708-4.5,3.976-9.562-1.748-5.118-5.56-5.514-8.5-4.509a9.6,9.6,0,0,0-4.981,4.134,4.431,4.431,0,0,1-3.14-.908l-4.5-15.494.234-.475,17.177-5.867A7.839,7.839,0,0,1,136.615,292.428Z" transform="translate(-92.73 -290.37)" fill="#fff"/>
          </g>
        </g>
        <g id="Group_581" data-name="Group 581" transform="translate(589.459 559.903)">
          <path id="Path_1774" data-name="Path 1774" d="M780.007,745.155a5.929,5.929,0,0,1-3.212,7.744l-13.205,5.459a5.93,5.93,0,0,1-7.745-3.214l-5.458-13.2A5.929,5.929,0,0,1,753.6,734.2l13.2-5.459a5.928,5.928,0,0,1,7.744,3.214Z" transform="translate(-749.936 -715.82)" fill="none" stroke="#fff" stroke-linecap="round" stroke-linejoin="round" stroke-width="2.665"/>
          <path id="Path_1775" data-name="Path 1775" d="M763.532,740.022a7.5,7.5,0,0,1,1.358-.7,7.378,7.378,0,0,1,1.457-.461l1.523,3.684c.186.447.379,1,.577,1.479.449-.185.976-.438,1.454-.636l3.415-1.412a6.691,6.691,0,0,1,.664,1.268,6.554,6.554,0,0,1,.437,1.4L771,746.05c-.479.2-1.031.391-1.479.577.2.479.45,1.007.623,1.426l1.535,3.712a7.216,7.216,0,0,1-1.328.689,7.628,7.628,0,0,1-1.487.475l-1.535-3.713c-.174-.419-.367-.971-.564-1.45-.479.2-1.005.451-1.455.637l-3.414,1.411a8.129,8.129,0,0,1-1.1-2.664l3.415-1.412c.449-.187,1-.379,1.479-.576-.2-.479-.451-1.008-.637-1.457Z" transform="translate(-752.346 -718.166)" fill="#fff"/>
          <path id="Path_1776" data-name="Path 1776" d="M818.76,729.133a5.929,5.929,0,0,1-3.214,7.744l-13.2,5.46a5.93,5.93,0,0,1-7.744-3.215l-5.459-13.2a5.931,5.931,0,0,1,3.214-7.744l13.2-5.458a5.931,5.931,0,0,1,7.745,3.213Z" transform="translate(-758.535 -712.265)" fill="none" stroke="#fff" stroke-linecap="round" stroke-linejoin="round" stroke-width="2.665"/>
          <path id="Path_1777" data-name="Path 1777" d="M803.923,733.929a5.507,5.507,0,0,1-.693-1.257,5.613,5.613,0,0,1-.409-1.409l7.428-3.071a5.561,5.561,0,0,1,.707,1.287,5.5,5.5,0,0,1,.4,1.379Z" transform="translate(-761.671 -715.799)" fill="#fff"/>
          <path id="Path_1778" data-name="Path 1778" d="M795.376,782.329a5.932,5.932,0,0,1-3.214,7.746l-13.2,5.458a5.928,5.928,0,0,1-7.744-3.214l-5.458-13.2a5.929,5.929,0,0,1,3.214-7.744l13.2-5.459a5.931,5.931,0,0,1,7.746,3.214Z" transform="translate(-753.346 -724.069)" fill="none" stroke="#fff" stroke-linecap="round" stroke-linejoin="round" stroke-width="2.665"/>
          <path id="Path_1779" data-name="Path 1779" d="M834.13,766.308a5.93,5.93,0,0,1-3.214,7.745l-13.2,5.458a5.93,5.93,0,0,1-7.745-3.214l-5.458-13.2a5.928,5.928,0,0,1,3.213-7.744l13.2-5.458a5.928,5.928,0,0,1,7.744,3.214Z" transform="translate(-761.945 -720.514)" fill="none" stroke="#fff" stroke-linecap="round" stroke-linejoin="round" stroke-width="2.665"/>
          <g id="Group_579" data-name="Group 579" transform="translate(50.003 36.807)">
            <path id="Path_1780" data-name="Path 1780" d="M820.1,774.341A4.95,4.95,0,0,1,818.63,774a3.81,3.81,0,0,1-1.249-.816l1.752-4.161c.146-.411.351-.847.527-1.271l-1.282-.556-4.178-1.71a3.956,3.956,0,0,1,1.112-2.738l4.19,1.738c.394.188.843.424,1.266.6.205-.436.386-.933.544-1.314l1.7-4.207a3.964,3.964,0,0,1,1.46.308,4.363,4.363,0,0,1,1.292.834l-1.75,4.161c-.147.411-.4.9-.576,1.324.412.146.937.314,1.318.472l4.19,1.74a4.161,4.161,0,0,1-.308,1.459,3.591,3.591,0,0,1-.846,1.262l-4.161-1.751-1.3-.516-.5,1.259Z" transform="translate(-814.199 -759.569)" fill="#fff"/>
          </g>
          <g id="Group_580" data-name="Group 580" transform="translate(20.392 49.372)">
            <path id="Path_1781" data-name="Path 1781" d="M777.245,786.875a6.807,6.807,0,0,1-.665-1.269,7.647,7.647,0,0,1-.437-1.4l12.517-5.175a7.581,7.581,0,0,1,.678,1.3,6.781,6.781,0,0,1,.424,1.367Zm1.433-9.851a3.836,3.836,0,0,1,3.114-1.288,3.812,3.812,0,0,1,.8,1.177,3.487,3.487,0,0,1,.25,1.369,3.578,3.578,0,0,1-1.409,1,3.22,3.22,0,0,1-1.706.285,3.5,3.5,0,0,1-.789-1.145A3.817,3.817,0,0,1,778.678,777.024Zm4.419,10.69a3.856,3.856,0,0,1,3.115-1.287,3.4,3.4,0,0,1,1.052,2.546,3.844,3.844,0,0,1-3.114,1.288,3.7,3.7,0,0,1-.8-1.176A3.531,3.531,0,0,1,783.1,787.714Z" transform="translate(-776.143 -775.716)" fill="#fff"/>
          </g>
        </g>
        <g id="Group_584" data-name="Group 584" transform="translate(111.594 315.459)">
          <path id="Path_1782" data-name="Path 1782" d="M264.978,395.116A39.587,39.587,0,1,1,216.336,367.4,39.588,39.588,0,0,1,264.978,395.116Z" transform="translate(-187.202 -365.982)" fill="none" stroke="#fff" stroke-linecap="round" stroke-linejoin="round" stroke-width="3.873"/>
          <g id="Group_582" data-name="Group 582" transform="translate(10.749 30.019)">
            <path id="Path_1783" data-name="Path 1783" d="M205.538,424.955a2.3,2.3,0,1,1-2.828-1.611A2.3,2.3,0,0,1,205.538,424.955Z" transform="translate(-201.016 -408.711)" fill="#fff"/>
            <path id="Path_1784" data-name="Path 1784" d="M273.768,406.257a2.3,2.3,0,1,1-2.828-1.612A2.3,2.3,0,0,1,273.768,406.257Z" transform="translate(-216.156 -404.562)" fill="#fff"/>
          </g>
          <g id="Group_583" data-name="Group 583" transform="translate(30.019 10.749)">
            <path id="Path_1785" data-name="Path 1785" d="M228.692,384.319a2.3,2.3,0,1,1,1.612-2.828A2.3,2.3,0,0,1,228.692,384.319Z" transform="translate(-225.782 -379.796)" fill="#fff"/>
            <path id="Path_1786" data-name="Path 1786" d="M247.391,452.548A2.3,2.3,0,1,1,249,449.72,2.3,2.3,0,0,1,247.391,452.548Z" transform="translate(-229.931 -394.936)" fill="#fff"/>
          </g>
          <path id="Path_1787" data-name="Path 1787" d="M249.652,386.639a1.939,1.939,0,0,0-3.534-.6l-13.774,21.979-15.052-5.374a1.923,1.923,0,0,0-.653-.114,1.945,1.945,0,0,0-1.827,1.29,1.94,1.94,0,0,0,1.176,2.479l16.365,5.843a1.917,1.917,0,0,0,.791.19,1.778,1.778,0,0,0,.281-.036l.075-.009a2.088,2.088,0,0,0,.556-.184c.027-.014.051-.031.078-.047a1.935,1.935,0,0,0,.782-.832L249.407,388.1A1.924,1.924,0,0,0,249.652,386.639Z" transform="translate(-193.303 -370.232)" fill="#fff"/>
        </g>
        <g id="Group_586" data-name="Group 586" transform="translate(34.454 427.756)">
          <g id="Group_585" data-name="Group 585" transform="translate(0)">
            <path id="Path_1788" data-name="Path 1788" d="M37.034,629.529l1.393,3.344a4.405,4.405,0,0,0,5.76,2.372l2.3-.959a24.112,24.112,0,0,0,4.557,4.54l-.948,2.3a4.4,4.4,0,0,0,2.4,5.75l3.351,1.378a4.4,4.4,0,0,0,5.749-2.4l.946-2.3a24.056,24.056,0,0,0,6.432-.017l.959,2.3a4.405,4.405,0,0,0,5.76,2.372l3.343-1.394a4.406,4.406,0,0,0,2.372-5.76l-.959-2.3a24.109,24.109,0,0,0,4.54-4.555l2.3.945a4.4,4.4,0,0,0,5.751-2.4l1.377-3.35a4.4,4.4,0,0,0-2.4-5.75l-2.3-.946a24.051,24.051,0,0,0-.017-6.43l2.3-.959a4.405,4.405,0,0,0,2.371-5.761l-1.394-3.343a4.406,4.406,0,0,0-5.76-2.372l-2.3.958a24.183,24.183,0,0,0-4.557-4.54l.946-2.3a4.4,4.4,0,0,0-2.4-5.75l-3.349-1.379a4.406,4.406,0,0,0-5.75,2.4l-.946,2.3a24.02,24.02,0,0,0-6.431.018l-.959-2.3a4.405,4.405,0,0,0-5.76-2.371l-3.344,1.394a4.4,4.4,0,0,0-2.37,5.76l.957,2.3a24.014,24.014,0,0,0-4.539,4.555l-2.3-.947a4.407,4.407,0,0,0-5.751,2.4l-1.378,3.35a4.4,4.4,0,0,0,2.4,5.75l2.3.948a24.049,24.049,0,0,0,.018,6.43l-2.3.959A4.4,4.4,0,0,0,37.034,629.529Zm13.483-3.656a16.45,16.45,0,1,1,21.512,8.854A16.449,16.449,0,0,1,50.517,625.873Z" transform="translate(-36.656 -553.099)" fill="none" stroke="#fff" stroke-linecap="round" stroke-linejoin="round" stroke-width="3.873"/>
            <path id="Path_1789" data-name="Path 1789" d="M104.239,564.489l-.069,2.876a3.494,3.494,0,0,0,3.408,3.575l1.976.047a19.1,19.1,0,0,0,1.837,4.763l-1.429,1.361a3.493,3.493,0,0,0-.12,4.941l1.984,2.081a3.494,3.494,0,0,0,4.941.118l1.427-1.36a19.245,19.245,0,0,0,4.666,2.063l-.046,1.976a3.5,3.5,0,0,0,3.41,3.578l2.872.069a3.5,3.5,0,0,0,3.577-3.408l.048-1.977a19.125,19.125,0,0,0,4.763-1.836l1.359,1.428a3.494,3.494,0,0,0,4.941.12l2.081-1.984a3.494,3.494,0,0,0,.12-4.939l-1.36-1.427a19.116,19.116,0,0,0,2.061-4.667l1.976.046a3.5,3.5,0,0,0,3.579-3.409l.07-2.873a3.5,3.5,0,0,0-3.411-3.578l-1.975-.049a19.118,19.118,0,0,0-1.836-4.76l1.428-1.363a3.493,3.493,0,0,0,.12-4.94l-1.983-2.081a3.5,3.5,0,0,0-4.941-.119l-1.429,1.362a19.072,19.072,0,0,0-4.665-2.063l.047-1.976a3.494,3.494,0,0,0-3.41-3.577l-2.873-.069a3.494,3.494,0,0,0-3.578,3.41l-.048,1.976a19.007,19.007,0,0,0-4.76,1.836l-1.362-1.429a3.5,3.5,0,0,0-4.941-.121l-2.081,1.985a3.5,3.5,0,0,0-.12,4.942l1.362,1.427a19.118,19.118,0,0,0-2.063,4.667l-1.977-.047A3.493,3.493,0,0,0,104.239,564.489Zm10.952,1.7a13.052,13.052,0,1,1,12.734,13.362A13.054,13.054,0,0,1,115.191,566.19Z" transform="translate(-51.637 -542.434)" fill="none" stroke="#fff" stroke-linecap="round" stroke-linejoin="round" stroke-width="3.873"/>
          </g>
        </g>
        <g id="Group_587" data-name="Group 587" transform="translate(229.563 27.789)">
          <path id="Path_1790" data-name="Path 1790" d="M322.047,80.652a18.854,18.854,0,0,1,.3-6.328c1.659-5.275,11.925-12.492,11.662-22.5-.262-9.936-6.467-26.035-26.119-23.051-18.424,2.8-22.836,19.922-19.42,29.337,4.321,11.91,14.115,11.558,18.348,17.319.758,1.033,2.086,7.223,2.086,7.223Z" transform="translate(-287.405 -28.406)" fill="none" stroke="#fff" stroke-linecap="round" stroke-linejoin="round" stroke-width="3.873"/>
          <path id="Path_1791" data-name="Path 1791" d="M330.569,98.216a3.1,3.1,0,0,1-2.6,3.536l-12.9,1.958a3.1,3.1,0,0,1-3.537-2.6h0a3.1,3.1,0,0,1,2.6-3.536l12.9-1.958a3.106,3.106,0,0,1,3.536,2.6Z" transform="translate(-292.751 -43.311)" fill="none" stroke="#fff" stroke-linecap="round" stroke-linejoin="round" stroke-width="3.873"/>
          <path id="Path_1792" data-name="Path 1792" d="M331.767,106.109a3.106,3.106,0,0,1-2.605,3.536l-12.9,1.958a3.107,3.107,0,0,1-3.537-2.6h0a3.107,3.107,0,0,1,2.605-3.537l12.9-1.958a3.106,3.106,0,0,1,3.537,2.605Z" transform="translate(-293.016 -45.062)" fill="none" stroke="#fff" stroke-linecap="round" stroke-linejoin="round" stroke-width="3.873"/>
          <path id="Path_1793" data-name="Path 1793" d="M324.566,117.313c3.392-.515,5.809-3.133,5.4-5.846l-12.284,1.864C318.09,116.045,321.174,117.828,324.566,117.313Z" transform="translate(-294.123 -46.837)" fill="none" stroke="#fff" stroke-linecap="round" stroke-linejoin="round" stroke-width="3.873"/>
          <path id="Path_1794" data-name="Path 1794" d="M317.908,86.29,304.883,55.527l7.435,3.057,1.874-7.461,3.416,6.219,6.543-5.712-3.1,34.626" transform="translate(-291.283 -33.447)" fill="none" stroke="#fff" stroke-linecap="round" stroke-linejoin="round" stroke-width="3.873"/>
        </g>
        <g id="Group_589" data-name="Group 589" transform="translate(583.337 193.157)">
          <path id="Path_1795" data-name="Path 1795" d="M751.275,240.932H802.7a9.208,9.208,0,0,1,9.207,9.207v33.014a9.207,9.207,0,0,1-9.207,9.207H771.031L755.873,307.52V292.361h-4.6a9.207,9.207,0,0,1-9.207-9.207V250.139A9.208,9.208,0,0,1,751.275,240.932Z" transform="translate(-742.068 -240.932)" fill="none" stroke="#fff" stroke-linecap="round" stroke-linejoin="round" stroke-width="3.873"/>
          <g id="Group_588" data-name="Group 588" transform="translate(10.78 20.572)">
            <path id="Path_1796" data-name="Path 1796" d="M803.294,273.079A5.708,5.708,0,1,0,809,267.371,5.709,5.709,0,0,0,803.294,273.079Z" transform="translate(-766.434 -267.371)" fill="none" stroke="#fff" stroke-linecap="round" stroke-linejoin="round" stroke-width="3.873"/>
            <path id="Path_1797" data-name="Path 1797" d="M779.608,273.079a5.708,5.708,0,1,0,5.708-5.708A5.708,5.708,0,0,0,779.608,273.079Z" transform="translate(-761.178 -267.371)" fill="none" stroke="#fff" stroke-linecap="round" stroke-linejoin="round" stroke-width="3.873"/>
            <path id="Path_1798" data-name="Path 1798" d="M755.922,273.079a5.708,5.708,0,1,0,5.707-5.708A5.708,5.708,0,0,0,755.922,273.079Z" transform="translate(-755.922 -267.371)" fill="none" stroke="#fff" stroke-linecap="round" stroke-linejoin="round" stroke-width="3.873"/>
          </g>
        </g>
        <path id="Path_1799" data-name="Path 1799" d="M699.549,32.275,712.3,51.484l21.158-3.356-12.7,18.89,6.957,20.5-20.5-6.947L689.864,93.52l.272-21.646L672.215,57.842l21.157-3.356Z" transform="translate(-143.231 -1.475)" fill="none" stroke="#fff" stroke-linecap="round" stroke-linejoin="round" stroke-width="3.873"/>
        <path id="Path_1800" data-name="Path 1800" d="M388.282,776.013l-11.738,19.841,12.237,17.584-22.535-3.2-15.421,15.192-2.677-21.481-19.214-9.973,19.6-9.184,4.825-22.244L365.6,780.128Z" transform="translate(-67.057 -163.52)" fill="none" stroke="#fff" stroke-linecap="round" stroke-linejoin="round" stroke-width="3.873"/>
        <path id="Path_1801" data-name="Path 1801" d="M824.673,357.413l-15.534,17.034,8.4,19.708-21.41-7.727-18.193,11.732,1.756-21.577L762.911,362.9l21.063-5,9.256-20.794,8.4,19.707Z" transform="translate(-163.356 -69.117)" fill="none" stroke="#fff" stroke-linecap="round" stroke-linejoin="round" stroke-width="3.873"/>
        <g id="Group_590" data-name="Group 590" transform="translate(362.34 600.332)">
          <path id="Path_1802" data-name="Path 1802" d="M558.615,802.622a5.051,5.051,0,1,1-.136,7.142A5.05,5.05,0,0,1,558.615,802.622Z" transform="translate(-480.019 -772.431)" fill="none" stroke="#fff" stroke-linecap="round" stroke-linejoin="round" stroke-width="3.873"/>
          <path id="Path_1803" data-name="Path 1803" d="M537.147,823.288a5.051,5.051,0,1,1-.136,7.142A5.052,5.052,0,0,1,537.147,823.288Z" transform="translate(-475.256 -777.016)" fill="none" stroke="#fff" stroke-linecap="round" stroke-linejoin="round" stroke-width="3.873"/>
          <path id="Path_1804" data-name="Path 1804" d="M495.2,863.666a5.051,5.051,0,1,1-.136,7.142A5.05,5.05,0,0,1,495.2,863.666Z" transform="translate(-465.948 -785.976)" fill="none" stroke="#fff" stroke-linecap="round" stroke-linejoin="round" stroke-width="3.873"/>
          <path id="Path_1805" data-name="Path 1805" d="M523.011,765.635a5.051,5.051,0,1,1-.136,7.142A5.051,5.051,0,0,1,523.011,765.635Z" transform="translate(-472.119 -764.224)" fill="none" stroke="#fff" stroke-linecap="round" stroke-linejoin="round" stroke-width="3.873"/>
          <path id="Path_1806" data-name="Path 1806" d="M551.6,773.065a5.051,5.051,0,1,1-.135,7.141A5.051,5.051,0,0,1,551.6,773.065Z" transform="translate(-478.463 -765.872)" fill="none" stroke="#fff" stroke-linecap="round" stroke-linejoin="round" stroke-width="3.873"/>
          <path id="Path_1807" data-name="Path 1807" d="M507.1,815.9a5.051,5.051,0,1,1-.136,7.142A5.052,5.052,0,0,1,507.1,815.9Z" transform="translate(-468.589 -775.377)" fill="none" stroke="#fff" stroke-linecap="round" stroke-linejoin="round" stroke-width="3.873"/>
          <path id="Path_1808" data-name="Path 1808" d="M486.41,835.815a5.051,5.051,0,1,1-.135,7.141A5.051,5.051,0,0,1,486.41,835.815Z" transform="translate(-463.997 -779.796)" fill="none" stroke="#fff" stroke-linecap="round" stroke-linejoin="round" stroke-width="3.873"/>
          <path id="Path_1809" data-name="Path 1809" d="M501.544,786.3a5.05,5.05,0,1,1-.136,7.141A5.05,5.05,0,0,1,501.544,786.3Z" transform="translate(-467.356 -768.809)" fill="none" stroke="#fff" stroke-linecap="round" stroke-linejoin="round" stroke-width="3.873"/>
          <path id="Path_1810" data-name="Path 1810" d="M459.6,826.679a5.051,5.051,0,1,1-.136,7.142A5.052,5.052,0,0,1,459.6,826.679Z" transform="translate(-458.047 -777.769)" fill="none" stroke="#fff" stroke-linecap="round" stroke-linejoin="round" stroke-width="3.873"/>
          <path id="Path_1811" data-name="Path 1811" d="M481.319,837.895l-10.96-3.276" transform="translate(-460.779 -779.844)" fill="none" stroke="#fff" stroke-linecap="round" stroke-linejoin="round" stroke-width="3.873"/>
          <path id="Path_1812" data-name="Path 1812" d="M497.211,859.2s-2.159-6.745-3.744-11.7" transform="translate(-465.907 -782.703)" fill="none" stroke="#fff" stroke-linecap="round" stroke-linejoin="round" stroke-width="3.873"/>
          <path id="Path_1813" data-name="Path 1813" d="M508.13,797.807c1,3.912,2.379,9.292,3.326,13" transform="translate(-469.161 -771.676)" fill="none" stroke="#fff" stroke-linecap="round" stroke-linejoin="round" stroke-width="3.873"/>
          <path id="Path_1814" data-name="Path 1814" d="M520.692,775.217c-2.82,2.714-6.187,5.957-9.063,8.724" transform="translate(-469.937 -766.663)" fill="none" stroke="#fff" stroke-linecap="round" stroke-linejoin="round" stroke-width="3.873"/>
          <path id="Path_1815" data-name="Path 1815" d="M546.5,775.535l-11.9-3.093" transform="translate(-475.035 -766.047)" fill="none" stroke="#fff" stroke-linecap="round" stroke-linejoin="round" stroke-width="3.873"/>
          <path id="Path_1816" data-name="Path 1816" d="M561.055,797.161c-.907-3.817-2.111-8.894-2.994-12.614" transform="translate(-480.24 -768.733)" fill="none" stroke="#fff" stroke-linecap="round" stroke-linejoin="round" stroke-width="3.873"/>
          <path id="Path_1817" data-name="Path 1817" d="M547.369,820.845l8.89-8.558" transform="translate(-477.868 -774.889)" fill="none" stroke="#fff" stroke-linecap="round" stroke-linejoin="round" stroke-width="3.873"/>
          <path id="Path_1818" data-name="Path 1818" d="M519.066,821.531l12.83,3.809" transform="translate(-471.587 -776.94)" fill="none" stroke="#fff" stroke-linecap="round" stroke-linejoin="round" stroke-width="3.873"/>
          <line id="Line_113" data-name="Line 113" y1="8.491" x2="8.821" transform="translate(29.554 47.664)" fill="none" stroke="#fff" stroke-linecap="round" stroke-linejoin="round" stroke-width="3.873"/>
        </g>
        <g id="Group_595" data-name="Group 595" transform="translate(321.916 93.977)">
          <g id="Group_594" data-name="Group 594" transform="translate(0 11.518)">
            <g id="Group_593" data-name="Group 593" transform="translate(0 19.077)">
              <g id="Group_592" data-name="Group 592">
                <g id="Group_591" data-name="Group 591">
                  <path id="Path_1819" data-name="Path 1819" d="M444.725,155.958l0,.012Z" transform="translate(-414.667 -153.492)" fill="none" stroke="#fff" stroke-linecap="round" stroke-linejoin="round" stroke-width="3.873"/>
                  <path id="Path_1820" data-name="Path 1820" d="M443.628,156.037v-.014A.037.037,0,0,1,443.628,156.037Z" transform="translate(-414.423 -153.507)" fill="none" stroke="#fff" stroke-linecap="round" stroke-linejoin="round" stroke-width="3.873"/>
                  <path id="Path_1821" data-name="Path 1821" d="M445.12,153.321a65.941,65.941,0,0,1-9.807,2.2c-1.073.072-3.524-.068-9.143-1.054-8.75-1.538-20.972,6.81-20.022,23.083.732,12.565,13.785,32.718,23.7,32.116,2.3-.137,7.1-2.94,8.954-3.053s7.033,2.085,9.333,1.946c9.914-.6,20.434-22.182,19.649-34.744C466.761,157.549,453.62,150.739,445.12,153.321Z" transform="translate(-406.095 -152.789)" fill="none" stroke="#fff" stroke-linecap="round" stroke-linejoin="round" stroke-width="3.873"/>
                </g>
              </g>
            </g>
            <path id="Path_1822" data-name="Path 1822" d="M442.857,149.814s3.057-12.44-6.549-21.543" transform="translate(-412.799 -128.271)" fill="none" stroke="#fff" stroke-linecap="round" stroke-linejoin="round" stroke-width="3.873"/>
          </g>
          <path id="Path_1823" data-name="Path 1823" d="M444.727,135.758l7.213-6.04a11.346,11.346,0,0,1,1.135-9.675c4.36-6.78,16.472-6.574,16.472-6.574s1.164,12.194-7.323,15.965a14.765,14.765,0,0,1-10.283.284" transform="translate(-414.667 -113.468)" fill="none" stroke="#fff" stroke-linecap="round" stroke-linejoin="round" stroke-width="3.873"/>
        </g>
        <path id="Path_1824" data-name="Path 1824" d="M817.05,99.973l-4.717,6.481a15.025,15.025,0,0,1-3.453-.887,14.18,14.18,0,0,1-3.7-1.93l-.107-.489,22.876-29.622a37.946,37.946,0,0,1,4.752,1.348,29.757,29.757,0,0,1,4.471,1.979l-1.114,37.395a11.765,11.765,0,0,1-4.932-.68c-2.548-.9-3.478-2.246-3.254-6.047l.22-3.633c-.668-.181-1.467-.464-1.966-.64l-7.093-2.516C818.431,100.518,817.682,100.253,817.05,99.973Zm4.063-5.589c.649.231,1.466.464,2.015.659l3.647,1.292c.5.177,1.181.475,1.781.689l.249-3.4c.21-3.131.582-7.666.9-11.265l-.3-.106c-1.492,2.62-4.058,6.208-5.781,8.691Z" transform="translate(-172.711 -10.628)" fill="none" stroke="#fff" stroke-linecap="round" stroke-linejoin="round" stroke-width="3.873"/>
        <path id="Path_1825" data-name="Path 1825" d="M171.107,34.876c8.165-2.535,14.767-.977,17.065,6.424a9.355,9.355,0,0,1-2.73,9.67,11.457,11.457,0,0,1,10.28,8.015c2.552,8.224-2.074,13.652-11.061,16.441-4.523,1.4-9.435,2.8-14.523,4.251l-.539-.283-12.27-39.533.283-.538C162.274,37.746,166.878,36.188,171.107,34.876Zm.3,17.553,4.171-1.294c3.995-1.24,4.345-4.054,3.634-6.345s-2.556-4.294-6.492-3.073c-1.057.328-2.761.857-4.248,1.254Zm2.079,6.7,3.555,11.454c1.861-.642,3.683-1.207,4.915-1.59,4.817-1.5,4.949-5.013,4.183-7.481-.8-2.584-3.079-5.355-7.779-3.9Z" transform="translate(-28.979 -1.801)" fill="none" stroke="#fff" stroke-linecap="round" stroke-linejoin="round" stroke-width="3.873"/>
        <path id="Path_1826" data-name="Path 1826" d="M718.049,799.425c-4.752,1.154-5.489,6.073-3.448,14.472,1.906,7.846,5.622,11.1,10.43,9.931,3.812-.927,6.368-3.654,8.467-6.095a10.591,10.591,0,0,1,5.416,4.711,23.26,23.26,0,0,1-13.607,9.509c-11.658,2.832-17.694-6.352-20-15.856-3.382-13.925,2.517-21.679,11.3-23.813,8.564-2.081,15.422,1.578,16.993,8.043.846,3.482-.684,5.375-3.834,6.14a12.73,12.73,0,0,1-3.491.322C725.271,802.176,722.912,798.244,718.049,799.425Z" transform="translate(-150.358 -169.989)" fill="none" stroke="#fff" stroke-linecap="round" stroke-linejoin="round" stroke-width="3.873"/>
        <g id="Group_596" data-name="Group 596" transform="translate(217.886 645.845)">
          <path id="Path_1827" data-name="Path 1827" d="M295.257,868.434" transform="translate(-277.47 -832.862)" fill="none" stroke="#fff" stroke-linecap="round" stroke-linejoin="round" stroke-width="3.873"/>
          <path id="Path_1828" data-name="Path 1828" d="M272.4,845.576" transform="translate(-272.398 -827.789)" fill="none" stroke="#fff" stroke-linecap="round" stroke-linejoin="round" stroke-width="3.873"/>
          <path id="Path_1829" data-name="Path 1829" d="M295.257,822.717" transform="translate(-277.47 -822.717)" fill="none" stroke="#fff" stroke-linecap="round" stroke-linejoin="round" stroke-width="3.873"/>
          <path id="Path_1830" data-name="Path 1830" d="M290.185,822.717A17.787,17.787,0,0,1,272.4,840.5a17.787,17.787,0,0,1,17.787,17.786A17.786,17.786,0,0,1,307.971,840.5,17.787,17.787,0,0,1,290.185,822.717Z" transform="translate(-272.398 -822.717)" fill="none" stroke="#fff" stroke-linecap="round" stroke-linejoin="round" stroke-width="3.873"/>
          <path id="Path_1831" data-name="Path 1831" d="M318.115,845.576" transform="translate(-282.542 -827.789)" fill="none" stroke="#fff" stroke-linecap="round" stroke-linejoin="round" stroke-width="3.873"/>
        </g>
        <g id="Group_597" data-name="Group 597" transform="translate(259.122 151.516)">
          <path id="Path_1832" data-name="Path 1832" d="M343.7,224.026" transform="translate(-329.456 -195.54)" fill="none" stroke="#fff" stroke-linecap="round" stroke-linejoin="round" stroke-width="3.873"/>
          <path id="Path_1833" data-name="Path 1833" d="M325.394,205.721" transform="translate(-325.394 -191.478)" fill="none" stroke="#fff" stroke-linecap="round" stroke-linejoin="round" stroke-width="3.873"/>
          <path id="Path_1834" data-name="Path 1834" d="M343.7,187.416" transform="translate(-329.456 -187.416)" fill="none" stroke="#fff" stroke-linecap="round" stroke-linejoin="round" stroke-width="3.873"/>
          <path id="Path_1835" data-name="Path 1835" d="M339.637,187.416a14.244,14.244,0,0,1-14.243,14.243A14.244,14.244,0,0,1,339.637,215.9a14.244,14.244,0,0,1,14.243-14.243A14.244,14.244,0,0,1,339.637,187.416Z" transform="translate(-325.394 -187.416)" fill="none" stroke="#fff" stroke-linecap="round" stroke-linejoin="round" stroke-width="3.873"/>
          <path id="Path_1836" data-name="Path 1836" d="M362,205.721" transform="translate(-333.518 -191.478)" fill="none" stroke="#fff" stroke-linecap="round" stroke-linejoin="round" stroke-width="3.873"/>
        </g>
        <g id="Group_598" data-name="Group 598" transform="translate(634.167 650.886)">
          <path id="Path_1837" data-name="Path 1837" d="M825.7,865.806" transform="translate(-811.454 -837.319)" fill="none" stroke="#fff" stroke-linecap="round" stroke-linejoin="round" stroke-width="3.873"/>
          <path id="Path_1838" data-name="Path 1838" d="M807.393,847.5" transform="translate(-807.393 -833.257)" fill="none" stroke="#fff" stroke-linecap="round" stroke-linejoin="round" stroke-width="3.873"/>
          <path id="Path_1839" data-name="Path 1839" d="M825.7,829.2" transform="translate(-811.454 -829.195)" fill="none" stroke="#fff" stroke-linecap="round" stroke-linejoin="round" stroke-width="3.873"/>
          <circle id="Ellipse_64" data-name="Ellipse 64" cx="14.243" cy="14.243" r="14.243" transform="translate(0 0)" stroke-width="3.873" stroke="#fff" stroke-linecap="round" stroke-linejoin="round" fill="none"/>
          <path id="Path_1840" data-name="Path 1840" d="M844,847.5" transform="translate(-815.516 -833.257)" fill="none" stroke="#fff" stroke-linecap="round" stroke-linejoin="round" stroke-width="3.873"/>
        </g>
      </g>
    </g>
    <g id="Mask_Group_64" data-name="Mask Group 64" clip-path="url(#clip-path-4)">
      <g id="Ellipse_68" data-name="Ellipse 68" transform="translate(-2813 2393)" fill="none" stroke="#fff" stroke-width="40" opacity="0.06">
        <circle cx="75" cy="75" r="75" stroke="none"/>
        <circle cx="75" cy="75" r="55" fill="none"/>
      </g>
    </g>
  </g>
</svg>
