<svg xmlns="http://www.w3.org/2000/svg" width="65.198" height="65.187" viewBox="0 0 65.198 65.187">
  <g id="step1" transform="translate(0 -0.039)">
    <path id="Path_1536" data-name="Path 1536" d="M231.07,98.434a3.261,3.261,0,0,0-5.975-.782l-.543.945a1.086,1.086,0,0,0-1.477.391l-2.76,4.7-.945-.543a1.085,1.085,0,1,0-1.086,1.88l.945.543-9.235,16-2.282,6.1-1.086,2.031a3.26,3.26,0,0,0,.174,3.52l-2.445,3-.684-1.716a2.173,2.173,0,0,0-3.879-.3l-.391.663-.369-4.346a2.173,2.173,0,0,0-4.226-.51l-2.673,8.018a1.086,1.086,0,0,0,.684,1.369.941.941,0,0,0,.337.086,1.086,1.086,0,0,0,1.032-.738l2.662-8.018.38,4.411a2.173,2.173,0,0,0,4.031.935l.4-.663.674,1.706a2.173,2.173,0,0,0,3.716.554l2.531-3.2a3.346,3.346,0,0,0,.858.109,3.26,3.26,0,0,0,2.836-1.608l1.086-1.814,4.139-5.03,9.332-16.2.945.543a1.089,1.089,0,0,1,.4,1.489l-4.346,7.529a1.079,1.079,0,1,0,1.836,1.13l4.346-7.529a3.258,3.258,0,0,0-1.2-4.455l-.945-.543,2.716-4.7a1.087,1.087,0,0,0-.391-1.477l.543-.945a3.258,3.258,0,0,0,.326-2.52Zm-4.1.3a1.086,1.086,0,0,1,.663-.51,1.141,1.141,0,0,1,.825.109,1.088,1.088,0,0,1,.511.663,1.141,1.141,0,0,1-.109.825l-.543.945-1.891-1.086Zm-14.808,30.334-.543-.315-1.608-.935,1.543-4.128,3.422,1.977Zm-3.259,3.139a1.086,1.086,0,0,1-.326-1.423l.543-.945,1.89,1.086-.543.934a1.086,1.086,0,0,1-1.564.347Zm7.312-8.322-3.759-2.173,8.692-15.059,3.759,2.173ZM226,106.952l-3.759-2.173,2.173-3.759,3.759,2.173Zm0,0" transform="translate(-165.991 -82.946)" fill="#09f"/>
    <path id="Path_1537" data-name="Path 1537" d="M75.315,356.858l-3.846,3.835-2.3-2.3a1.087,1.087,0,1,0-1.532,1.543l2.3,2.3a2.19,2.19,0,0,0,3.075,0l3.835-3.846a1.087,1.087,0,0,0-1.532-1.532Zm0,0" transform="translate(-58.171 -308.135)" fill="#09f"/>
    <path id="Path_1538" data-name="Path 1538" d="M32,321.276a9.235,9.235,0,1,0,18.47,0,1.086,1.086,0,0,0-2.173,0,7.063,7.063,0,1,1-2.825-5.649,1.087,1.087,0,0,0,1.3-1.738A9.235,9.235,0,0,0,32,321.276Zm0,0" transform="translate(-27.654 -269.63)" fill="#09f"/>
    <path id="Path_1539" data-name="Path 1539" d="M101.334,50.212a1.086,1.086,0,0,0,0-2.173H73.086A1.086,1.086,0,0,0,72,49.126v4.346a1.086,1.086,0,0,0,1.086,1.086h28.248a1.086,1.086,0,0,0,0-2.173H74.173V50.212Zm0,0" transform="translate(-62.222 -41.481)" fill="#09f"/>
    <path id="Path_1540" data-name="Path 1540" d="M97.086,112.039a1.086,1.086,0,1,0,0,2.173h21.729a1.086,1.086,0,0,0,0-2.173Zm0,0" transform="translate(-82.963 -96.79)" fill="#09f"/>
    <path id="Path_1541" data-name="Path 1541" d="M152.988,168.039h-23.9a1.086,1.086,0,0,0,0,2.173h23.9a1.086,1.086,0,0,0,0-2.173Zm0,0" transform="translate(-110.617 -145.185)" fill="#09f"/>
    <path id="Path_1542" data-name="Path 1542" d="M79.9,217.125a1.086,1.086,0,0,0-1.086-1.086H57.086a1.086,1.086,0,0,0,0,2.173H78.815A1.086,1.086,0,0,0,79.9,217.125Zm0,0" transform="translate(-48.395 -186.666)" fill="#09f"/>
    <path id="Path_1543" data-name="Path 1543" d="M256.692,216.039h-7.605a1.086,1.086,0,0,0,0,2.173h7.605a1.086,1.086,0,1,0,0-2.173Zm0,0" transform="translate(-214.32 -186.666)" fill="#09f"/>
    <path id="Path_1544" data-name="Path 1544" d="M67.951,258.212a1.086,1.086,0,0,0,0-2.173H57.086a1.086,1.086,0,0,0,0,2.173Zm0,0" transform="translate(-48.395 -221.234)" fill="#09f"/>
    <path id="Path_1545" data-name="Path 1545" d="M169.086,258.212h7.605a1.086,1.086,0,1,0,0-2.173h-7.605a1.086,1.086,0,1,0,0,2.173Zm0,0" transform="translate(-145.185 -221.234)" fill="#09f"/>
    <path id="Path_1546" data-name="Path 1546" d="M48.89,50.016A1.087,1.087,0,0,0,47.8,51.1V61.967a1.086,1.086,0,0,1-1.086,1.086H3.259a1.086,1.086,0,0,1-1.086-1.086V3.3A1.087,1.087,0,0,1,3.259,2.212H46.717A1.087,1.087,0,0,1,47.8,3.3V23.7a1.086,1.086,0,0,0,2.173,0V3.3A3.26,3.26,0,0,0,46.717.039H3.259A3.26,3.26,0,0,0,0,3.3V61.967a3.259,3.259,0,0,0,3.259,3.259H46.717a3.259,3.259,0,0,0,3.259-3.259V51.1A1.087,1.087,0,0,0,48.89,50.016Zm0,0" transform="translate(0)" fill="#09f"/>
  </g>
</svg>
