<svg xmlns="http://www.w3.org/2000/svg" width="46.729" height="56.428" viewBox="0 0 46.729 56.428">
  <g id="step3" transform="translate(-44.001)">
    <g id="Group_481" data-name="Group 481" transform="translate(66.264 16.752)">
      <g id="Group_480" data-name="Group 480">
        <path id="Path_1560" data-name="Path 1560" d="M262.974,152H247.1a1.1,1.1,0,1,0,0,2.2h15.871a1.1,1.1,0,0,0,0-2.2Z" transform="translate(-246.001 -152)" fill="#09f"/>
      </g>
    </g>
    <g id="Group_483" data-name="Group 483" transform="translate(77.499 22.042)">
      <g id="Group_482" data-name="Group 482" transform="translate(0)">
        <path id="Path_1561" data-name="Path 1561" d="M349.822,200.324a1.1,1.1,0,1,0,.323.779A1.11,1.11,0,0,0,349.822,200.324Z" transform="translate(-347.941 -200.001)" fill="#09f"/>
      </g>
    </g>
    <g id="Group_485" data-name="Group 485" transform="translate(66.263 4.739)">
      <g id="Group_484" data-name="Group 484">
        <path id="Path_1562" data-name="Path 1562" d="M247.872,43.324a1.1,1.1,0,1,0,.323.779A1.11,1.11,0,0,0,247.872,43.324Z" transform="translate(-245.991 -43.001)" fill="#09f"/>
      </g>
    </g>
    <g id="Group_487" data-name="Group 487" transform="translate(66.264 22.042)">
      <g id="Group_486" data-name="Group 486" transform="translate(0)">
        <path id="Path_1563" data-name="Path 1563" d="M253.7,200h-6.6a1.1,1.1,0,0,0,0,2.2h6.6a1.1,1.1,0,0,0,0-2.2Z" transform="translate(-246.001 -200)" fill="#09f"/>
      </g>
    </g>
    <g id="Group_489" data-name="Group 489" transform="translate(66.264 28.655)">
      <g id="Group_488" data-name="Group 488">
        <path id="Path_1564" data-name="Path 1564" d="M262.974,260H247.1a1.1,1.1,0,1,0,0,2.2h15.871a1.1,1.1,0,1,0,0-2.2Z" transform="translate(-246.001 -260)" fill="#09f"/>
      </g>
    </g>
    <g id="Group_491" data-name="Group 491" transform="translate(77.499 33.945)">
      <g id="Group_490" data-name="Group 490" transform="translate(0)">
        <path id="Path_1565" data-name="Path 1565" d="M349.822,308.324a1.1,1.1,0,1,0,.323.779A1.11,1.11,0,0,0,349.822,308.324Z" transform="translate(-347.941 -308.001)" fill="#09f"/>
      </g>
    </g>
    <g id="Group_493" data-name="Group 493" transform="translate(66.264 33.945)">
      <g id="Group_492" data-name="Group 492" transform="translate(0)">
        <path id="Path_1566" data-name="Path 1566" d="M253.7,308h-6.6a1.1,1.1,0,0,0,0,2.2h6.6a1.1,1.1,0,0,0,0-2.2Z" transform="translate(-246.001 -308)" fill="#09f"/>
      </g>
    </g>
    <g id="Group_495" data-name="Group 495" transform="translate(66.264 40.558)">
      <g id="Group_494" data-name="Group 494">
        <path id="Path_1567" data-name="Path 1567" d="M262.974,368H247.1a1.1,1.1,0,1,0,0,2.2h15.871a1.1,1.1,0,1,0,0-2.2Z" transform="translate(-246.001 -368)" fill="#09f"/>
      </g>
    </g>
    <g id="Group_497" data-name="Group 497" transform="translate(77.499 45.848)">
      <g id="Group_496" data-name="Group 496" transform="translate(0)">
        <path id="Path_1568" data-name="Path 1568" d="M349.822,416.324a1.1,1.1,0,1,0,.323.779A1.11,1.11,0,0,0,349.822,416.324Z" transform="translate(-347.941 -416.001)" fill="#09f"/>
      </g>
    </g>
    <g id="Group_499" data-name="Group 499" transform="translate(66.264 45.848)">
      <g id="Group_498" data-name="Group 498" transform="translate(0)">
        <path id="Path_1569" data-name="Path 1569" d="M253.7,416h-6.6a1.1,1.1,0,0,0,0,2.2h6.6a1.1,1.1,0,0,0,0-2.2Z" transform="translate(-246.001 -416)" fill="#09f"/>
      </g>
    </g>
    <g id="Group_501" data-name="Group 501" transform="translate(44.001)">
      <g id="Group_500" data-name="Group 500" transform="translate(0)">
        <path id="Path_1570" data-name="Path 1570" d="M85.357,4.3H76.939a6.752,6.752,0,0,0-4.671-1.874H71.3a4.408,4.408,0,0,0-7.873,0h-.968A6.752,6.752,0,0,0,57.79,4.3H49.375A5.38,5.38,0,0,0,44,9.672V51.055a5.38,5.38,0,0,0,5.374,5.374H85.357a5.38,5.38,0,0,0,5.374-5.374V9.672A5.38,5.38,0,0,0,85.357,4.3Zm-22.9.331h1.718a1.1,1.1,0,0,0,1.062-.809,2.2,2.2,0,0,1,4.249,0,1.1,1.1,0,0,0,1.062.809h1.715a4.58,4.58,0,0,1,4.558,4.188H57.9A4.58,4.58,0,0,1,62.461,4.629ZM88.526,51.055a3.173,3.173,0,0,1-3.169,3.169H49.375a3.173,3.173,0,0,1-3.169-3.169V9.672A3.173,3.173,0,0,1,49.375,6.5h6.871a6.738,6.738,0,0,0-.563,2.7v.716a1.1,1.1,0,0,0,1.1,1.1H77.944a1.1,1.1,0,0,0,1.1-1.1V9.2a6.738,6.738,0,0,0-.563-2.7h6.874a3.173,3.173,0,0,1,3.169,3.169Z" transform="translate(-44.001)" fill="#09f"/>
      </g>
    </g>
    <g id="Group_503" data-name="Group 503" transform="translate(50.753 16.164)">
      <g id="Group_502" data-name="Group 502" transform="translate(0)">
        <path id="Path_1571" data-name="Path 1571" d="M114.866,146.99a1.1,1.1,0,0,0-1.559,0l-4.713,4.713-1.452-1.452a1.1,1.1,0,1,0-1.559,1.559l2.231,2.231a1.1,1.1,0,0,0,1.559,0l5.492-5.492A1.1,1.1,0,0,0,114.866,146.99Z" transform="translate(-105.261 -146.667)" fill="#09f"/>
      </g>
    </g>
    <g id="Group_505" data-name="Group 505" transform="translate(51.275 40.558)">
      <g id="Group_504" data-name="Group 504" transform="translate(0)">
        <path id="Path_1572" data-name="Path 1572" d="M116.393,368H111.1a1.1,1.1,0,0,0-1.1,1.1v5.29a1.1,1.1,0,0,0,1.1,1.1h5.29a1.1,1.1,0,0,0,1.1-1.1V369.1A1.1,1.1,0,0,0,116.393,368Zm-1.1,5.29h-3.086V370.2h3.086Z" transform="translate(-110.001 -368)" fill="#09f"/>
      </g>
    </g>
    <g id="Group_507" data-name="Group 507" transform="translate(51.275 28.655)">
      <g id="Group_506" data-name="Group 506" transform="translate(0)">
        <path id="Path_1573" data-name="Path 1573" d="M116.393,260H111.1a1.1,1.1,0,0,0-1.1,1.1v5.29a1.1,1.1,0,0,0,1.1,1.1h5.29a1.1,1.1,0,0,0,1.1-1.1V261.1A1.1,1.1,0,0,0,116.393,260Zm-1.1,5.29h-3.086V262.2h3.086Z" transform="translate(-110.001 -260)" fill="#09f"/>
      </g>
    </g>
  </g>
</svg>
