<svg id="step2" xmlns="http://www.w3.org/2000/svg" width="64.964" height="64.964" viewBox="0 0 64.964 64.964">
  <path id="Path_1547" data-name="Path 1547" d="M0,0V54.137H36.536a7.569,7.569,0,0,1,.277,1.994V56.3H34.647v8.662h23.82V56.3H56.287l.007-.866a3.258,3.258,0,0,1,.285-1.3h8.385V0ZM56.3,62.8H36.813V58.468H56.3ZM38.978,56.3v-.171a9.771,9.771,0,0,0-1.126-4.547l-1.13-2.143L33,39.263a1.1,1.1,0,0,0-.079-.169,1.083,1.083,0,0,1,1.215-1.585,1.068,1.068,0,0,1,.656.5L37.1,42.019a2.165,2.165,0,0,0,4.041-1.083V25.986a1.083,1.083,0,0,1,2.165,0V35.73a1.083,1.083,0,0,0,.993,1.083l9.021.751A3.267,3.267,0,0,1,56.3,40.8v8.779a3.237,3.237,0,0,1-.541,1.8l-.72,1.083a5.4,5.4,0,0,0-.908,2.964l-.011.876ZM62.8,51.971H57.9a5.4,5.4,0,0,0,.565-2.394V40.8A5.446,5.446,0,0,0,53.5,35.406l-8.029-.671V25.986a3.248,3.248,0,0,0-6.5,0V40.936l-2.31-4.006a3.248,3.248,0,0,0-5.674,3.157l3.719,10.164a1.069,1.069,0,0,0,.06.133l.836,1.587H2.166V10.827H62.8ZM2.165,8.662v-6.5H62.8v6.5Zm0,0" fill="#09f"/>
  <path id="Path_1548" data-name="Path 1548" d="M32,32h2.165v2.165H32Zm0,0" transform="translate(-27.669 -27.669)" fill="#09f"/>
  <path id="Path_1549" data-name="Path 1549" d="M64,32h2.165v2.165H64Zm0,0" transform="translate(-55.338 -27.669)" fill="#09f"/>
  <path id="Path_1550" data-name="Path 1550" d="M96,32h2.165v2.165H96Zm0,0" transform="translate(-83.007 -27.669)" fill="#09f"/>
  <path id="Path_1551" data-name="Path 1551" d="M60.993,116.465l2.912-2.49L62.5,112.329l-1.505,1.285V112H48v12.993H60.993Zm-10.827,6.362v-8.662h8.662v1.3l-4.322,3.7L52,116.688l-1.516,1.541,3.924,3.877,4.422-3.786v4.508Zm0,0" transform="translate(-41.504 -96.842)" fill="#09f"/>
  <path id="Path_1552" data-name="Path 1552" d="M60.993,244.465l2.912-2.49L62.5,240.329l-1.505,1.285V240H48v12.993H60.993Zm-10.827,6.362v-8.662h8.662v1.3l-4.322,3.7L52,244.688l-1.516,1.541,3.924,3.877,4.422-3.786v4.508Zm0,0" transform="translate(-41.504 -207.518)" fill="#09f"/>
  <path id="Path_1553" data-name="Path 1553" d="M240,112h4.331v2.165H240Zm0,0" transform="translate(-207.518 -96.842)" fill="#09f"/>
  <path id="Path_1554" data-name="Path 1554" d="M288,112h19.489v2.165H288Zm0,0" transform="translate(-249.022 -96.842)" fill="#09f"/>
  <path id="Path_1555" data-name="Path 1555" d="M240,144h25.986v2.165H240Zm0,0" transform="translate(-207.518 -124.511)" fill="#09f"/>
  <path id="Path_1556" data-name="Path 1556" d="M240,184h4.331v2.165H240Zm0,0" transform="translate(-207.518 -159.097)" fill="#09f"/>
  <path id="Path_1557" data-name="Path 1557" d="M352,184h10.827v2.165H352Zm0,0" transform="translate(-304.36 -159.097)" fill="#09f"/>
  <path id="Path_1558" data-name="Path 1558" d="M352,216h10.827v2.165H352Zm0,0" transform="translate(-304.36 -186.766)" fill="#09f"/>
  <path id="Path_1559" data-name="Path 1559" d="M240,216h4.331v2.165H240Zm0,0" transform="translate(-207.518 -186.766)" fill="#09f"/>
</svg>
