<svg xmlns="http://www.w3.org/2000/svg" width="63" height="63" viewBox="0 0 63 63">
  <g id="step5" transform="translate(0 0.001)">
    <path id="Path_1574" data-name="Path 1574" d="M57.487,45.677,49.79,43.9v-2a8.155,8.155,0,0,0,2.466-3.333,4.977,4.977,0,0,0,4.619-5.035H56.9V25.567A5.468,5.468,0,0,0,53.4,20.459l-.747-.747a11.882,11.882,0,0,0-1.842-1.5V0H0V42.677H39.629V43.9l-7.7,1.776a7.08,7.08,0,0,0-5.513,6.931V63H63V52.607a7.08,7.08,0,0,0-5.513-6.931Zm-17.072.129,2.477,1.858-2.548,1.529L39.7,45.97Zm3.172,8.049h2.245l.79,7.113H42.8Zm2.422-2.032h-2.6l-.583-1.75,1.884-1.13,1.883,1.13Zm.519-4.159,2.477-1.858.716.166-.645,3.221ZM47.758,44.2,44.71,46.487,41.661,44.2V43.095a8.064,8.064,0,0,0,6.1,0Zm-3.048-2.54a6.1,6.1,0,0,1-6.1-6.1V30.483h3.45a13.065,13.065,0,0,0,6.295-1.61l.8,1.61h1.644v5.081a6.1,6.1,0,0,1-6.1,6.1ZM36.624,36.4a3,3,0,0,1-.044-5.7v4.861a8.24,8.24,0,0,0,.044.839Zm17.455-.821A3.041,3.041,0,0,1,52.8,36.4c.027-.276.043-.556.043-.839V30.7a3.069,3.069,0,0,1,2.018,2.527,3.033,3.033,0,0,1-.777,2.353ZM52.29,22.226l.228.075a3.44,3.44,0,0,1,2.353,3.266v3.986a5.336,5.336,0,0,0-3.223-1.1H50.419l-1.25-2.5-.958.638a11.055,11.055,0,0,1-6.148,1.862H37.772a5.336,5.336,0,0,0-3.223,1.1v-1.5a9.762,9.762,0,0,1,16.663-6.9ZM2.032,2.032H48.774v15.1a11.8,11.8,0,0,0-16.258,10.92v5.481h.028a4.977,4.977,0,0,0,4.619,5.035,8.128,8.128,0,0,0,1.211,2.078H2.032ZM28.452,52.608a5.057,5.057,0,0,1,3.938-4.951l5.329-1.229,1.2,5.991,2.126-1.276.6,1.8-.89,8.021H35.565V52.838H33.532v8.129H28.452Zm32.516,8.36H55.887V52.838H53.855v8.129H48.668l-.891-8.02.6-1.8L50.5,52.419l1.2-5.991,5.329,1.229a5.057,5.057,0,0,1,3.938,4.95Zm0,0" fill="#09f"/>
    <path id="Path_1575" data-name="Path 1575" d="M50.161,144a10.161,10.161,0,1,0,10.161,10.161A10.173,10.173,0,0,0,50.161,144Zm6.465,5.254-1.77,1.022a6.2,6.2,0,0,0-.811-.811l1.022-1.77a8.191,8.191,0,0,1,1.558,1.558Zm-.46,3.891a6.017,6.017,0,0,0-.3-1.105l1.784-1.031a8.069,8.069,0,0,1,.566,2.136Zm-6.005,5.081a4.065,4.065,0,1,1,4.065-4.065A4.069,4.069,0,0,1,50.161,158.226Zm1.016-10.07V146.1a8.059,8.059,0,0,1,2.136.566l-1.031,1.784A6.1,6.1,0,0,0,51.177,148.156ZM49.145,146.1v2.054a6.105,6.105,0,0,0-4.989,4.989H42.1a8.138,8.138,0,0,1,7.043-7.043ZM42.1,155.177h2.054a6.106,6.106,0,0,0,4.989,4.989v2.054a8.138,8.138,0,0,1-7.043-7.043Zm9.075,7.043v-2.054a6.106,6.106,0,0,0,4.989-4.989H58.22a8.138,8.138,0,0,1-7.043,7.043Zm0,0" transform="translate(-34.919 -125.71)" fill="#09f"/>
    <path id="Path_1576" data-name="Path 1576" d="M66.548,32H54.743L49.662,42.161h-1.4V32H46.226V42.161H44.194V34.032H42.161v8.129H40.129V37.081H38.1v5.081H36.065V39.113H34.032v3.048H32v2.032H50.918L56,34.032H66.548Zm0,0" transform="translate(-27.935 -27.936)" fill="#09f"/>
    <path id="Path_1577" data-name="Path 1577" d="M320,32h2.032v2.032H320Zm0,0" transform="translate(-279.355 -27.936)" fill="#09f"/>
    <path id="Path_1578" data-name="Path 1578" d="M352,32h2.032v2.032H352Zm0,0" transform="translate(-307.29 -27.936)" fill="#09f"/>
    <path id="Path_1579" data-name="Path 1579" d="M224,64h18.29v2.032H224Zm0,0" transform="translate(-195.548 -55.872)" fill="#09f"/>
    <path id="Path_1580" data-name="Path 1580" d="M224,96h18.29v2.032H224Zm0,0" transform="translate(-195.548 -83.807)" fill="#09f"/>
  </g>
</svg>
