<svg xmlns="http://www.w3.org/2000/svg" width="57.797" height="57.886" viewBox="0 0 57.797 57.886">
  <g id="step6" transform="translate(0.001 0.001)">
    <path id="Path_1581" data-name="Path 1581" d="M57.622,20.546a2.2,2.2,0,0,0-1.2-1.192l-3.862-1.58a2.213,2.213,0,0,0-2.885,1.21l-4.4,10.745V12.17a.86.86,0,0,0-.252-.608L33.714.251A.859.859,0,0,0,33.106,0H.859A.86.86,0,0,0,0,.859V7.494a.86.86,0,1,0,1.719,0V1.719H32.246V12.17a.86.86,0,0,0,.86.859H43.558v20.9l-3.79,9.263a.855.855,0,0,0-.063.368l.4,8.092a.86.86,0,0,0,1.441.59L43.557,50.4v5.771H1.719V10.933a.86.86,0,1,0-1.719,0V57.026a.86.86,0,0,0,.86.86H44.417a.86.86,0,0,0,.86-.86V48.813l2.234-2.057a.868.868,0,0,0,.213-.307l3.9-9.526a.86.86,0,0,0-1.591-.651L46.458,45l-4.774-1.953L49.02,25.12l4.774,1.953-2.531,6.186a.86.86,0,0,0,1.591.651L57.63,22.239a2.2,2.2,0,0,0-.008-1.693ZM33.965,2.934l8.377,8.377H33.965ZM41.49,44.827l3.862,1.58-3.617,3.33ZM56.039,21.588l-1.593,3.893-4.774-1.953,1.593-3.893a.495.495,0,0,1,.643-.269l3.862,1.58a.494.494,0,0,1,.269.643Zm0,0" fill="#09f"/>
    <path id="Path_1582" data-name="Path 1582" d="M162.68,83.016H152.02a.86.86,0,1,0,0,1.719h10.66a.86.86,0,1,0,0-1.719Zm0,0" transform="translate(-134.071 -73.63)" fill="#09f"/>
    <path id="Path_1583" data-name="Path 1583" d="M52.063,171.559h6.8a.86.86,0,0,0,.859-.86V164.61L61,162.977a.86.86,0,0,0-1.352-1.062l-.886,1.128h-6.7a.86.86,0,0,0-.86.859v6.8a.86.86,0,0,0,.86.86Zm.859-6.8h4.491L56.045,166.5l-.957-.957a.86.86,0,0,0-1.216,1.216l1.642,1.642a.86.86,0,0,0,.608.252h.052a.859.859,0,0,0,.624-.327L58,166.8v3.041H52.922Zm0,0" transform="translate(-45.415 -143.318)" fill="#09f"/>
    <path id="Path_1584" data-name="Path 1584" d="M183.088,186.273h-18.4a.86.86,0,0,0,0,1.72h18.4a.86.86,0,1,0,0-1.72Zm0,0" transform="translate(-145.309 -165.214)" fill="#09f"/>
    <path id="Path_1585" data-name="Path 1585" d="M164.692,224.492h14.786a.86.86,0,0,0,0-1.719H164.692a.86.86,0,1,0,0,1.719Zm0,0" transform="translate(-145.31 -197.587)" fill="#09f"/>
    <path id="Path_1586" data-name="Path 1586" d="M51.2,270.558a.86.86,0,0,0,.86.86h6.8a.86.86,0,0,0,.859-.86V264.47L61,262.837a.86.86,0,0,0-1.352-1.062l-.886,1.128h-6.7a.86.86,0,0,0-.86.859Zm1.719-5.937h4.491l-1.368,1.741-.957-.957a.86.86,0,0,0-1.216,1.216l1.642,1.642a.86.86,0,0,0,.608.252h.052a.859.859,0,0,0,.624-.327l1.2-1.529V269.7H52.922Zm0,0" transform="translate(-45.415 -231.887)" fill="#09f"/>
    <path id="Path_1587" data-name="Path 1587" d="M183.088,286.133h-18.4a.86.86,0,1,0,0,1.719h18.4a.86.86,0,1,0,0-1.719Zm0,0" transform="translate(-145.309 -253.783)" fill="#09f"/>
    <path id="Path_1588" data-name="Path 1588" d="M164.692,324.352h5.5a.86.86,0,0,0,0-1.719h-5.5a.86.86,0,1,0,0,1.719Zm0,0" transform="translate(-145.31 -286.157)" fill="#09f"/>
    <path id="Path_1589" data-name="Path 1589" d="M51.2,381.84a.86.86,0,0,0,.86.86h6.8a.86.86,0,0,0,.859-.86v-6.8a.86.86,0,0,0-.859-.86h-6.8a.86.86,0,0,0-.86.86Zm1.719-5.937H58v5.077H52.922Zm0,0" transform="translate(-45.415 -331.879)" fill="#09f"/>
    <path id="Path_1590" data-name="Path 1590" d="M183.948,386.852a.86.86,0,0,0-.86-.86h-18.4a.86.86,0,1,0,0,1.719h18.4A.859.859,0,0,0,183.948,386.852Zm0,0" transform="translate(-145.31 -342.353)" fill="#09f"/>
    <path id="Path_1591" data-name="Path 1591" d="M164.692,422.488a.86.86,0,1,0,0,1.72h15.646a.86.86,0,1,0,0-1.72Zm0,0" transform="translate(-145.31 -374.722)" fill="#09f"/>
  </g>
</svg>
