<svg xmlns="http://www.w3.org/2000/svg" width="71.357" height="60.655" viewBox="0 0 71.357 60.655">
  <g id="step7" transform="translate(0 -0.5)">
    <path id="Path_1592" data-name="Path 1592" d="M65.411.5H5.947A5.953,5.953,0,0,0,0,6.447V44.5A5.953,5.953,0,0,0,5.947,50.45h35.4c.091.119.186.222.281.328v9.186a1.189,1.189,0,0,0,1.632,1.1l5.5-2.2,5.5,2.2a1.189,1.189,0,0,0,1.632-1.1V50.778c.1-.108.191-.216.281-.328h9.233A5.953,5.953,0,0,0,71.357,44.5V6.447A5.953,5.953,0,0,0,65.411.5Zm-10.8,48.088a6.47,6.47,0,0,1-.754.9,7.11,7.11,0,0,1-10.054.131c-.049-.048-.1-.1-.144-.145a6.339,6.339,0,0,1-.747-.9,7.136,7.136,0,1,1,11.7.009ZM58.2,43.314c-.019-.151-.051-.3-.077-.446-.02-.119-.036-.238-.059-.345-.043-.2-.1-.4-.154-.6-.026-.094-.046-.19-.076-.283a8.814,8.814,0,0,0-.307-.832c-.008-.02-.019-.039-.027-.059q-.164-.382-.357-.746c-.051-.094-.111-.184-.164-.277-.095-.162-.189-.324-.292-.476-.068-.1-.144-.2-.215-.3-.1-.138-.2-.276-.307-.409-.082-.1-.169-.2-.255-.294-.107-.119-.216-.246-.33-.364-.091-.1-.188-.186-.284-.277-.119-.111-.238-.22-.357-.325-.1-.087-.206-.171-.312-.253q-.189-.15-.385-.289-.163-.116-.333-.225c-.136-.088-.275-.171-.415-.252-.119-.068-.237-.133-.351-.195-.146-.076-.3-.146-.445-.215-.119-.054-.238-.111-.357-.161-.158-.064-.32-.119-.482-.176-.119-.041-.238-.085-.365-.119-.172-.052-.348-.094-.524-.136-.119-.029-.238-.061-.357-.085-.2-.039-.4-.065-.6-.093-.1-.013-.2-.033-.307-.043a9.269,9.269,0,0,0-1.872,0c-.1.01-.2.03-.307.043-.2.027-.406.053-.6.093-.119.024-.238.056-.357.085-.176.041-.357.083-.524.136-.119.036-.238.081-.365.119-.162.056-.323.112-.481.176-.119.05-.238.106-.357.161-.15.068-.3.138-.445.215-.119.062-.238.127-.351.195-.14.081-.279.164-.415.252-.113.072-.224.148-.333.225q-.2.139-.385.289c-.106.082-.21.167-.311.253-.119.1-.238.214-.357.325-.1.091-.192.182-.284.277-.119.119-.223.237-.33.364-.085.1-.173.193-.255.294-.107.133-.207.271-.307.409-.071.1-.148.2-.216.3-.1.156-.2.319-.292.476-.053.093-.113.183-.164.277a7.894,7.894,0,0,0-.357.746c-.008.02-.019.039-.027.059a8.427,8.427,0,0,0-.307.832c-.029.093-.05.189-.076.283-.056.2-.111.393-.154.6-.024.113-.039.23-.059.345-.026.149-.058.3-.077.446H7.136V7.636H64.222V43.314ZM53.518,58.208,49.2,56.481a1.2,1.2,0,0,0-.885,0L44,58.208V52.737c.026.016.056.025.083.041a9.44,9.44,0,0,0,9.363-.007c.022-.014.047-.02.068-.034ZM68.979,44.5a3.568,3.568,0,0,1-3.568,3.568H57.582c.077-.193.14-.391.206-.589.02-.062.045-.119.064-.182a9.6,9.6,0,0,0,.284-1.223c.015-.094.028-.188.04-.282a.847.847,0,0,1,.015-.1h6.03A2.378,2.378,0,0,0,66.6,43.314V7.636a2.378,2.378,0,0,0-2.379-2.379H7.136A2.378,2.378,0,0,0,4.757,7.636V43.314a2.378,2.378,0,0,0,2.379,2.379H39.33a.723.723,0,0,0,.014.1c.013.1.026.189.041.285a9.54,9.54,0,0,0,.283,1.218c.02.065.046.128.068.193.064.195.126.391.2.581H5.947A3.568,3.568,0,0,1,2.379,44.5V6.447A3.568,3.568,0,0,1,5.947,2.879H65.411a3.568,3.568,0,0,1,3.568,3.568Zm0,0" fill="#09f"/>
    <path id="Path_1593" data-name="Path 1593" d="M313.146,273.566a5.946,5.946,0,1,0,5.946,5.947A5.946,5.946,0,0,0,313.146,273.566Zm0,9.514a3.568,3.568,0,1,1,3.568-3.568A3.568,3.568,0,0,1,313.146,283.08Zm0,0" transform="translate(-264.385 -235.009)" fill="#09f"/>
    <path id="Path_1594" data-name="Path 1594" d="M170.668,102.9h23.785v2.379H170.668Zm0,0" transform="translate(-146.882 -88.13)" fill="#09f"/>
    <path id="Path_1595" data-name="Path 1595" d="M119.469,171.168h38.057v2.379H119.469Zm0,0" transform="translate(-102.819 -146.882)" fill="#09f"/>
  </g>
</svg>
