<svg xmlns="http://www.w3.org/2000/svg" width="58.06" height="64.352" viewBox="0 0 58.06 64.352">
  <g id="step8" transform="translate(-25.032 -1)">
    <g id="Group_604" data-name="Group 604" transform="translate(25.032 1)">
      <g id="Group_603" data-name="Group 603" transform="translate(0 0)">
        <path id="Path_1845" data-name="Path 1845" d="M81.963,16.635a17.779,17.779,0,0,0-6.412-9.222C69.5,2.667,63.843.7,57.226,1.037A71.877,71.877,0,0,0,46.851,2.52c-4.839.974-8.353,2.675-10.745,5.2a20.339,20.339,0,0,0-4.3,7.013,28.287,28.287,0,0,0-.97,3.492l-.09.388a13.577,13.577,0,0,1-.909,2.42c-.223.5-.445,1-.636,1.5a3.655,3.655,0,0,0-.289,1.805,4.092,4.092,0,0,0,1.565,2.39c.526.482.871.82.875,1.128a1.838,1.838,0,0,1-.188.458,41.5,41.5,0,0,1-4.694,7.636c-.77.94-1.577,2.037-1.414,3.153a3.322,3.322,0,0,0,1.554,2,7.907,7.907,0,0,0,1.119.649c.463.236,1.238.631,1.291.913a1.823,1.823,0,0,1-.117,1.076c-.159.336-.325.626-.467.878-.394.7-1.054,1.862-.059,2.7.232.2.627.516.99.793a2.7,2.7,0,0,0-.346,1.553,1.539,1.539,0,0,0,.632,1.043c.24.17.5.318.751.464.631.359.877.527.961.861a3.025,3.025,0,0,1-.116,1.3c-.062.281-.123.562-.16.843a6.261,6.261,0,0,0,.359,2.882,3.972,3.972,0,0,0,4.672,2.835,87.562,87.562,0,0,0,9.048-2.706c2.411,1.424,3.934,5.733,4.331,7.349a1.075,1.075,0,0,0,1.042.817H77.656a1.073,1.073,0,0,0,1.025-1.386,7.421,7.421,0,0,0-1.208-2.084A8.3,8.3,0,0,1,76.7,60.7a21.153,21.153,0,0,1-1.212-3.068,35.554,35.554,0,0,1-1.264-6.342,18.135,18.135,0,0,1,1.4-9.415,24.088,24.088,0,0,1,2.912-4.6c.648-.872,1.318-1.774,1.921-2.725a16.493,16.493,0,0,0,2.625-8.815A32.088,32.088,0,0,0,81.963,16.635ZM80.94,25.712a14.389,14.389,0,0,1-2.293,7.7c-.56.883-1.205,1.752-1.83,2.593a26.151,26.151,0,0,0-3.156,5.016A20.276,20.276,0,0,0,72.1,51.55a37.625,37.625,0,0,0,1.344,6.718,23.366,23.366,0,0,0,1.33,3.369,10.04,10.04,0,0,0,.973,1.511c.015.019.029.039.043.059H51.351a17.119,17.119,0,0,0-3.781-6.853l.794-.278c.8-.281,1.409-.494,1.713-.59,4.6-1.443,6.9-3.533,6.835-6.211a1.073,1.073,0,0,0-2.145.05c.026,1.105-.878,2.716-5.334,4.115-.316.1-.946.319-1.778.612-.769.269-1.716.6-2.752.955l-.006,0a89.162,89.162,0,0,1-9.214,2.782,1.9,1.9,0,0,1-2.212-1.439,4.154,4.154,0,0,1-.259-1.893c.029-.222.08-.444.129-.666a4.746,4.746,0,0,0,.1-2.291,3.54,3.54,0,0,0-1.976-2.2c-.076-.043-.154-.087-.229-.132a3.931,3.931,0,0,1,.411-.665,1.072,1.072,0,0,0-.206-1.524c-.258-.19-.87-.649-1.311-1,.054-.1.116-.21.173-.308.164-.291.353-.627.536-1.012a3.966,3.966,0,0,0,.288-2.4c-.25-1.315-1.507-1.955-2.425-2.424a6.217,6.217,0,0,1-.891-.516,5.5,5.5,0,0,1-.632-.512c0-.161.171-.554,1-1.561a43.255,43.255,0,0,0,4.9-7.968,3.1,3.1,0,0,0,.42-1.454,3.74,3.74,0,0,0-1.571-2.684c-.434-.4-.843-.772-.889-1.1a1.869,1.869,0,0,1,.172-.754c.176-.468.382-.925.587-1.384a15.362,15.362,0,0,0,1.04-2.81l.091-.391a26.178,26.178,0,0,1,.892-3.232,18.223,18.223,0,0,1,3.847-6.281C39.741,7,42.885,5.506,47.275,4.622A70.012,70.012,0,0,1,57.336,3.179C63.407,2.874,68.614,4.7,74.23,9.1A15.48,15.48,0,0,1,79.9,17.221,29.967,29.967,0,0,1,80.94,25.712Z" transform="translate(-25.032 -1)" fill="#09f"/>
        <path id="Path_1846" data-name="Path 1846" d="M226.071,55.665h-2.224a12.271,12.271,0,0,0-1-2.417l1.573-1.573a1.073,1.073,0,0,0,.122-1.372,15.271,15.271,0,0,0-3.8-3.8,1.07,1.07,0,0,0-1.372.121L217.8,48.2a12.265,12.265,0,0,0-2.418-1V44.975a1.073,1.073,0,0,0-.884-1.056,15.456,15.456,0,0,0-5.369,0,1.073,1.073,0,0,0-.884,1.056V47.2a12.265,12.265,0,0,0-2.418,1l-1.573-1.573a1.071,1.071,0,0,0-1.372-.121,15.268,15.268,0,0,0-3.8,3.8,1.072,1.072,0,0,0,.122,1.372l1.573,1.573a12.271,12.271,0,0,0-1,2.417h-2.224a1.072,1.072,0,0,0-1.056.884,15.347,15.347,0,0,0,0,5.37,1.072,1.072,0,0,0,1.056.884h2.224a12.271,12.271,0,0,0,1,2.417l-1.573,1.573a1.073,1.073,0,0,0-.122,1.372,15.268,15.268,0,0,0,3.8,3.8,1.074,1.074,0,0,0,1.372-.121l1.573-1.573a12.265,12.265,0,0,0,2.418,1v2.224a1.073,1.073,0,0,0,.884,1.056,15.371,15.371,0,0,0,5.369,0,1.073,1.073,0,0,0,.884-1.056V71.27a12.265,12.265,0,0,0,2.418-1l1.573,1.573a1.074,1.074,0,0,0,1.372.121,15.269,15.269,0,0,0,3.8-3.8,1.072,1.072,0,0,0-.122-1.372l-1.573-1.573a12.274,12.274,0,0,0,1-2.417h2.224a1.072,1.072,0,0,0,1.056-.884,15.346,15.346,0,0,0,0-5.37A1.073,1.073,0,0,0,226.071,55.665Zm-.929,4.993h-2.126a1.072,1.072,0,0,0-1.047.842,10.138,10.138,0,0,1-1.372,3.31,1.071,1.071,0,0,0,.144,1.338l1.505,1.505a13.159,13.159,0,0,1-2.013,2.013l-1.505-1.5a1.072,1.072,0,0,0-1.338-.145,10.128,10.128,0,0,1-3.312,1.373,1.072,1.072,0,0,0-.842,1.047v2.126a13.337,13.337,0,0,1-2.847,0V70.438a1.072,1.072,0,0,0-.842-1.047,10.129,10.129,0,0,1-3.312-1.373,1.07,1.07,0,0,0-1.338.145l-1.505,1.5a13.158,13.158,0,0,1-2.013-2.013l1.505-1.505a1.071,1.071,0,0,0,.144-1.338,10.137,10.137,0,0,1-1.372-3.31,1.072,1.072,0,0,0-1.047-.842h-2.126a13.3,13.3,0,0,1,0-2.848h2.126a1.072,1.072,0,0,0,1.047-.842,10.138,10.138,0,0,1,1.372-3.31,1.071,1.071,0,0,0-.144-1.338l-1.505-1.505a13.161,13.161,0,0,1,2.013-2.013l1.505,1.5a1.07,1.07,0,0,0,1.338.145,10.128,10.128,0,0,1,3.312-1.373,1.072,1.072,0,0,0,.842-1.047V45.9a13.339,13.339,0,0,1,2.847,0V48.03a1.072,1.072,0,0,0,.842,1.047,10.128,10.128,0,0,1,3.312,1.373,1.073,1.073,0,0,0,1.338-.145l1.505-1.5a13.158,13.158,0,0,1,2.013,2.013L220.74,52.32a1.071,1.071,0,0,0-.144,1.338,10.137,10.137,0,0,1,1.372,3.31,1.072,1.072,0,0,0,1.047.842h2.126A13.3,13.3,0,0,1,225.142,60.658Z" transform="translate(-174.74 -38.319)" fill="#09f"/>
        <path id="Path_1847" data-name="Path 1847" d="M122.726,211.17H121.5a4.234,4.234,0,0,0-.456-1.093l.868-.868a1.072,1.072,0,1,0-1.517-1.517l-.868.868a4.248,4.248,0,0,0-1.093-.455v-1.225a1.072,1.072,0,0,0-2.145,0V208.1a4.244,4.244,0,0,0-1.093.455l-.868-.868a1.072,1.072,0,0,0-1.517,1.517l.868.868a4.234,4.234,0,0,0-.456,1.093H112a1.072,1.072,0,0,0,0,2.145h1.225a4.234,4.234,0,0,0,.456,1.093l-.868.868a1.072,1.072,0,0,0,1.517,1.517l.868-.868a4.247,4.247,0,0,0,1.093.456V217.6a1.072,1.072,0,0,0,2.145,0V216.38a4.244,4.244,0,0,0,1.093-.456l.868.868a1.072,1.072,0,1,0,1.517-1.517l-.868-.868a4.234,4.234,0,0,0,.456-1.093h1.225a1.072,1.072,0,0,0,0-2.145Zm-5.363,3.218a2.145,2.145,0,1,1,2.145-2.145A2.145,2.145,0,0,1,117.363,214.387Z" transform="translate(-100.132 -180.066)" fill="#09f"/>
        <path id="Path_1848" data-name="Path 1848" d="M104.286,118.378a3.576,3.576,0,0,0,.258.623l-.58.58a1.072,1.072,0,0,0,1.517,1.517l.582-.582a3.61,3.61,0,0,0,.621.257v.823a1.072,1.072,0,0,0,2.145,0v-.823a3.592,3.592,0,0,0,.621-.257l.582.582a1.072,1.072,0,0,0,1.517-1.517l-.58-.58a3.565,3.565,0,0,0,.258-.623h.821a1.072,1.072,0,1,0,0-2.145h-.821a3.565,3.565,0,0,0-.258-.623l.58-.58a1.072,1.072,0,0,0-1.517-1.517l-.582.582a3.6,3.6,0,0,0-.621-.257v-.823a1.072,1.072,0,0,0-2.145,0v.823a3.6,3.6,0,0,0-.621.257l-.582-.582a1.072,1.072,0,0,0-1.517,1.517l.58.58a3.565,3.565,0,0,0-.258.623h-.821a1.072,1.072,0,0,0,0,2.145h.821Zm3.08-2.524a1.5,1.5,0,1,1-1.113,1.451A1.5,1.5,0,0,1,107.367,115.854Z" transform="translate(-92.67 -97.999)" fill="#09f"/>
        <path id="Path_1849" data-name="Path 1849" d="M271.5,111.941a6.971,6.971,0,1,0,6.971,6.971A6.971,6.971,0,0,0,271.5,111.941Zm0,11.8a4.826,4.826,0,1,1,4.826-4.826A4.826,4.826,0,0,1,271.5,123.739Z" transform="translate(-234.426 -97.997)" fill="#09f"/>
      </g>
    </g>
  </g>
</svg>
