<svg xmlns="http://www.w3.org/2000/svg" width="58.001" height="53.469" viewBox="0 0 58.001 53.469">
  <g id="step4" transform="translate(0 -20)">
    <g id="XMLID_41_" transform="translate(0 20)">
      <path id="XMLID_4218_" d="M310.169,128.125a1.133,1.133,0,0,0,1.6-1.6l-.015-.015a1.133,1.133,0,1,0-1.6,1.6Z" transform="translate(-274.725 -114.148)" fill="#09f"/>
      <path id="XMLID_4221_" d="M53.72,44.7l3.948-3.948a1.133,1.133,0,0,0-.8-1.934H48.683A24.7,24.7,0,1,0,7.233,62.158a24.873,24.873,0,0,0,4.54,3.591L8.36,71.778a1.133,1.133,0,0,0,.986,1.691H15.18a1.133,1.133,0,0,0,.986-.575l2.413-4.263a24.994,24.994,0,0,0,12.233,0l2.413,4.263a1.133,1.133,0,0,0,.986.575h5.834a1.133,1.133,0,0,0,.986-1.691l-3.413-6.029a24.877,24.877,0,0,0,4.54-3.591,24.612,24.612,0,0,0,6.525-11.58h8.185a1.133,1.133,0,0,0,.8-1.934Zm-2.071-1.133H43.743l2.484-2.484h7.906ZM14.519,71.2H11.289l2.466-4.356a24.357,24.357,0,0,0,2.6,1.107Zm23.583,0H34.872l-1.839-3.249a24.357,24.357,0,0,0,2.6-1.107Zm2.453-10.648a22.531,22.531,0,0,1-4.967,3.757c-.022.011-.045.021-.066.033l-.039.025a22.137,22.137,0,0,1-4.343,1.819,1.122,1.122,0,0,0-.176.051,22.65,22.65,0,0,1-12.536,0,1.124,1.124,0,0,0-.176-.051,22.135,22.135,0,0,1-4.343-1.819l-.039-.025c-.022-.012-.044-.023-.066-.033a22.528,22.528,0,0,1-4.967-3.757A22.43,22.43,0,1,1,46.344,38.813h-.587a1.133,1.133,0,0,0-.8.332L41.95,42.152a17.453,17.453,0,0,0-1.975-5.883,1.133,1.133,0,0,0-1.983,1.1,15.043,15.043,0,0,1,1.83,6.2H34.827a10.2,10.2,0,1,0,0,2.266h4.99A15.165,15.165,0,1,1,32.028,31.4a1.133,1.133,0,0,0,1.1-1.983,17.571,17.571,0,0,0-10.759-2.01,17.446,17.446,0,1,0,19.59,19.838l3,3a1.133,1.133,0,0,0,.8.332h.586A22.357,22.357,0,0,1,40.556,60.556Zm-12.161-18a1.133,1.133,0,0,0-1.547-.415l-2.719,1.57a1.133,1.133,0,0,0,0,1.962l2.719,1.57a1.132,1.132,0,0,0,1.61-1.418h4.086A7.869,7.869,0,0,1,30.3,50.3h0a7.928,7.928,0,1,1,2.242-6.74H28.458A1.13,1.13,0,0,0,28.4,42.559Zm17.832,5.753-2.484-2.484h7.906l2.484,2.484Z" transform="translate(0 -20)" fill="#09f"/>
    </g>
  </g>
</svg>
