<svg xmlns="http://www.w3.org/2000/svg" width="67.747" height="67.748" viewBox="0 0 67.747 67.748">
  <g id="_1" data-name="1" transform="translate(-0.002 0)">
    <g id="Group_461" data-name="Group 461" transform="translate(0.002 0)">
      <g id="Group_460" data-name="Group 460" transform="translate(0 0)">
        <path id="Path_1512" data-name="Path 1512" d="M290.253,202.425a1.131,1.131,0,0,0,1.52.493,96.8,96.8,0,0,1,9.99-4.445,1.13,1.13,0,0,0-.682-2.154,96.845,96.845,0,0,0-10.334,4.588A1.13,1.13,0,0,0,290.253,202.425Z" transform="translate(-251.741 -170.297)" fill="#09f"/>
        <path id="Path_1513" data-name="Path 1513" d="M291.261,100.642a1.127,1.127,0,0,0,.512-.123,96.806,96.806,0,0,1,9.99-4.445,1.13,1.13,0,0,0-.682-2.154,96.847,96.847,0,0,0-10.334,4.588,1.129,1.129,0,0,0,.514,2.135Z" transform="translate(-251.741 -81.447)" fill="#09f"/>
        <path id="Path_1514" data-name="Path 1514" d="M66.62,16.937a1.129,1.129,0,0,0-1.129,1.129V62.1A3.391,3.391,0,0,1,62.1,65.489H35v-2.6a33.274,33.274,0,0,1,10.162-1.918,58.24,58.24,0,0,1,16.581,2.2A1.129,1.129,0,0,0,63.233,62.1V12.421a1.127,1.127,0,0,0-.884-1.1s-.885-.2-2.4-.475a1.129,1.129,0,0,0-.409,2.221c.577.106,1.06.2,1.433.274V60.6a63.766,63.766,0,0,0-15.808-1.887,35.472,35.472,0,0,0-11.247,2.163,26.451,26.451,0,0,0-10.206-2.163A76.089,76.089,0,0,0,6.777,60.649V13.295a74.322,74.322,0,0,1,16.937-2,24.481,24.481,0,0,1,9.033,1.861V57.585a1.129,1.129,0,0,0,1.711.968c.112-.067,11.3-6.749,21.228-10.058a1.129,1.129,0,0,0,.772-1.072V1.13A1.131,1.131,0,0,0,54.931.072,120.112,120.112,0,0,0,36.664,9.205a1.129,1.129,0,0,0,1.2,1.915A120.682,120.682,0,0,1,54.2,2.78V46.615A126.536,126.536,0,0,0,35,55.624v-43.2a1.13,1.13,0,0,0-.624-1.011A26.145,26.145,0,0,0,23.713,9.033a73.283,73.283,0,0,0-18.376,2.3,1.128,1.128,0,0,0-.819,1.085V62.1a1.129,1.129,0,0,0,1.129,1.129,1.112,1.112,0,0,0,.309-.044,72.532,72.532,0,0,1,17.756-2.214,24.427,24.427,0,0,1,9.033,1.862v2.655H5.647A3.392,3.392,0,0,1,2.26,62.1V18.066a1.129,1.129,0,1,0-2.258,0V62.1a5.652,5.652,0,0,0,5.646,5.646H62.1A5.652,5.652,0,0,0,67.749,62.1V18.066A1.129,1.129,0,0,0,66.62,16.937Z" transform="translate(-0.002 0)" fill="#09f"/>
        <path id="Path_1515" data-name="Path 1515" d="M290.253,151.225a1.131,1.131,0,0,0,1.52.493,96.784,96.784,0,0,1,9.99-4.445,1.13,1.13,0,0,0-.682-2.154,96.832,96.832,0,0,0-10.334,4.588A1.13,1.13,0,0,0,290.253,151.225Z" transform="translate(-251.741 -125.871)" fill="#09f"/>
        <path id="Path_1516" data-name="Path 1516" d="M290.253,253.625a1.131,1.131,0,0,0,1.52.493,96.789,96.789,0,0,1,9.99-4.445,1.13,1.13,0,0,0-.682-2.154,96.839,96.839,0,0,0-10.334,4.588A1.13,1.13,0,0,0,290.253,253.625Z" transform="translate(-251.741 -214.722)" fill="#09f"/>
        <path id="Path_1517" data-name="Path 1517" d="M101.4,154.269c-6.972-1.636-14.9.448-15.228.537a1.129,1.129,0,0,0,.291,2.22,1.149,1.149,0,0,0,.294-.038c.076-.021,7.7-2.028,14.129-.521a1.129,1.129,0,1,0,.515-2.2Z" transform="translate(-74.042 -133.314)" fill="#09f"/>
        <path id="Path_1518" data-name="Path 1518" d="M101.4,205.473c-6.972-1.635-14.9.448-15.228.537a1.129,1.129,0,0,0,.291,2.22,1.149,1.149,0,0,0,.294-.038c.076-.021,7.7-2.028,14.129-.521a1.129,1.129,0,1,0,.515-2.2Z" transform="translate(-74.042 -177.743)" fill="#09f"/>
        <path id="Path_1519" data-name="Path 1519" d="M290.253,304.825a1.131,1.131,0,0,0,1.52.493,96.8,96.8,0,0,1,9.99-4.445,1.13,1.13,0,0,0-.682-2.154,96.86,96.86,0,0,0-10.334,4.588A1.13,1.13,0,0,0,290.253,304.825Z" transform="translate(-251.741 -259.147)" fill="#09f"/>
        <path id="Path_1520" data-name="Path 1520" d="M101.4,256.671c-6.972-1.635-14.9.447-15.228.537a1.13,1.13,0,0,0,.291,2.221,1.143,1.143,0,0,0,.294-.04c.076-.021,7.7-2.028,14.129-.521a1.129,1.129,0,1,0,.515-2.2Z" transform="translate(-74.042 -222.167)" fill="#09f"/>
        <path id="Path_1521" data-name="Path 1521" d="M101.4,359.069c-6.972-1.636-14.9.448-15.228.537a1.13,1.13,0,0,0,.291,2.221,1.142,1.142,0,0,0,.294-.04c.076-.021,7.7-2.028,14.129-.521a1.129,1.129,0,1,0,.515-2.2Z" transform="translate(-74.042 -311.016)" fill="#09f"/>
        <path id="Path_1522" data-name="Path 1522" d="M101.4,307.868c-6.972-1.636-14.9.447-15.228.537a1.13,1.13,0,0,0,.291,2.221,1.144,1.144,0,0,0,.294-.04c.076-.021,7.7-2.028,14.129-.521a1.129,1.129,0,1,0,.515-2.2Z" transform="translate(-74.042 -266.589)" fill="#09f"/>
      </g>
    </g>
  </g>
</svg>
