<svg xmlns="http://www.w3.org/2000/svg" width="50.723" height="71.559" viewBox="0 0 50.723 71.559">
  <g id="_2" data-name="2" transform="translate(-72.296)">
    <g id="Group_462" data-name="Group 462" transform="translate(72.296)">
      <path id="Path_1523" data-name="Path 1523" d="M119.561,47.265V39.815l-3.144,1.223-.009-.021-.075-.136a8.092,8.092,0,0,0-5.347-3.578l-7.565-1.376v-.6a11.548,11.548,0,0,0,5.546-7.758,4.619,4.619,0,0,0,3.676-4.516V11.67a7.229,7.229,0,0,0-5.165-6.936l-.576-.576A14.2,14.2,0,0,0,82.671,14.194v8.862a4.619,4.619,0,0,0,3.676,4.516,11.55,11.55,0,0,0,5.546,7.758v.6L84.33,37.3a8.1,8.1,0,0,0-5.344,3.575l-.069.168-3.162-1.23v7.449A3.463,3.463,0,0,0,72.3,50.723v4.611a3.463,3.463,0,0,0,3.458,3.458v4.247l21.9,8.519,21.9-8.519V58.793a3.463,3.463,0,0,0,3.458-3.458V50.723A3.463,3.463,0,0,0,119.561,47.265Zm-13.979-8.6,4.992.907a5.775,5.775,0,0,1,3.639,2.324L103.06,46.232ZM94.3,36.387a11.485,11.485,0,0,0,6.721,0l-3.36,2.52ZM95.9,40.472,93.55,42.824l-1.526-4.578.734-.133Zm6.654-2.357.734.133-1.526,4.578-2.353-2.352Zm6.629-13.074v-3.97a2.286,2.286,0,0,1,0,3.97Zm-23.056,0a2.286,2.286,0,0,1,0-3.97Zm0-7.749v1.316a4.572,4.572,0,0,0-1.153.477V14.194a11.889,11.889,0,0,1,20.3-8.406l1.017,1.018.31.076a4.927,4.927,0,0,1,3.739,4.788v7.416a4.531,4.531,0,0,0-1.153-.477V17.292H105.53a10.027,10.027,0,0,1-7.983-3.99l-.916-1.224L94.34,14.37a9.918,9.918,0,0,1-7.057,2.922Zm2.306,8.07V19.545A12.2,12.2,0,0,0,95.97,16l.448-.448A12.349,12.349,0,0,0,105.53,19.6h1.35v5.764a9.222,9.222,0,0,1-18.445,0ZM84.742,39.571l4.992-.907,2.522,7.568L81.1,41.894A5.774,5.774,0,0,1,84.742,39.571ZM74.6,55.334V50.723a1.154,1.154,0,0,1,1.153-1.153,3.458,3.458,0,0,1,0,6.917A1.154,1.154,0,0,1,74.6,55.334Zm21.9,13.3L78.06,61.464V58.3a5.752,5.752,0,0,0,0-10.55V43.186L96.5,50.359ZM93.082,46.555l4.575-4.577,4.575,4.575-4.575,1.78Zm24.173,14.908L98.81,68.634V50.359l18.445-7.173v4.567a5.752,5.752,0,0,0,0,10.55Zm3.458-6.128a1.154,1.154,0,0,1-1.153,1.153,3.458,3.458,0,0,1,0-6.917,1.154,1.154,0,0,1,1.153,1.153Z" transform="translate(-72.296)" fill="#09f"/>
    </g>
  </g>
</svg>
