<svg xmlns="http://www.w3.org/2000/svg" width="69.196" height="61.681" viewBox="0 0 69.196 61.681">
  <g id="_3" data-name="3" transform="translate(0 -33.234)">
    <g id="Group_463" data-name="Group 463" transform="translate(0 33.234)">
      <path id="Path_1524" data-name="Path 1524" d="M218.894,42.275l-42.38-8.969a3.342,3.342,0,0,0-3.95,2.57l-.805,5.174,48.9,10.348.805-5.174A3.342,3.342,0,0,0,218.894,42.275Z" transform="translate(-152.34 -33.234)" fill="#09f"/>
      <path id="Path_1525" data-name="Path 1525" d="M48.733,171.253a3.374,3.374,0,0,0-4.14-2.342l-8.045,2.233L17.581,167.13,15.5,176.986,2.463,180.6a3.373,3.373,0,0,0-2.341,4.139l7.345,26.466a3.373,3.373,0,0,0,4.14,2.341l42.13-11.691a3.374,3.374,0,0,0,2.341-4.14l-1.261-4.543,4.725,1a3.341,3.341,0,0,0,3.95-2.57l2.989-14.126-17.02-3.6ZM53.6,184.7l1.042-4.924a1.376,1.376,0,0,1,1.625-1.057l4.924,1.043a1.375,1.375,0,0,1,1.058,1.625L61.2,186.314a1.375,1.375,0,0,1-1.625,1.057l-4.924-1.042A1.375,1.375,0,0,1,53.6,184.7Zm-50.4-1.46,11.659-3.234,27.509-7.634,2.96-.822a.617.617,0,0,1,.161-.021.636.636,0,0,1,.6.454l.348,1.252,1.089,3.924L4.2,189.184,2.763,184.01A.631.631,0,0,1,3.2,183.244Zm50.239,15.207a.632.632,0,0,1-.433.766L10.874,210.908a.614.614,0,0,1-.161.022.636.636,0,0,1-.6-.455L5.825,195.038l43.326-12.024,2.642,9.521Z" transform="translate(0 -151.991)" fill="#09f"/>
      <path id="Path_1526" data-name="Path 1526" d="M96.669,445.606a1.375,1.375,0,0,0-1.688-.955l-4.92,1.366a1.375,1.375,0,0,0-.954,1.688l1.365,4.919a1.374,1.374,0,0,0,1.688.954l4.92-1.365a1.375,1.375,0,0,0,.955-1.688Z" transform="translate(-78.988 -398.089)" fill="#09f"/>
    </g>
  </g>
</svg>
