<svg xmlns="http://www.w3.org/2000/svg" width="71.142" height="75.103" viewBox="0 0 71.142 75.103">
  <g id="_4" data-name="4" transform="translate(-13.5)">
    <g id="Group_465" data-name="Group 465" transform="translate(36.97)">
      <g id="Group_464" data-name="Group 464">
        <path id="Path_1527" data-name="Path 1527" d="M203.248.323A1.107,1.107,0,0,0,202.47,0H174.6a1.1,1.1,0,0,0-1.1,1.1V6.064a1.1,1.1,0,1,0,2.2,0V2.2h25.67V23.471H187.8a1.1,1.1,0,0,0-.408.079l-5.826,2.328V24.571a1.1,1.1,0,0,0-1.1-1.1H175.7V10.464a1.1,1.1,0,0,0-2.2,0V24.571a1.1,1.1,0,0,0,1.1,1.1h4.767V27.5a1.1,1.1,0,0,0,1.1,1.1,1.077,1.077,0,0,0,.408-.079l7.138-2.853H202.47a1.1,1.1,0,0,0,1.1-1.1V1.1A1.1,1.1,0,0,0,203.248.323Z" transform="translate(-173.5)" fill="#09f"/>
      </g>
    </g>
    <g id="Group_467" data-name="Group 467" transform="translate(50.171 28.888)">
      <g id="Group_466" data-name="Group 466">
        <path id="Path_1528" data-name="Path 1528" d="M292.47,230.686h-3.3V228.25a12.8,12.8,0,0,0,4.4-9.662v-4.221c.86-4.324.465-7.53-1.174-9.53a5.494,5.494,0,0,0-3.227-1.92v-4.869a1.1,1.1,0,0,0-1.1-1.1c-.417,0-.845,0-1.281,0-.455,0-.919,0-1.388,0-5.307,0-11.266.336-14.805,4.345-2.546,2.884-3.428,7.143-2.7,13.02v4.284a12.8,12.8,0,0,0,4.4,9.663v2.434H269a5.507,5.507,0,0,0-5.5,5.5v5.867a1.1,1.1,0,0,0,1.1,1.1h32.27a1.1,1.1,0,0,0,1.1-1.1v-5.861s0,0,0-.006A5.507,5.507,0,0,0,292.47,230.686ZM272.246,202.74c2.933-3.323,8.329-3.6,13.156-3.6.465,0,.925,0,1.376,0h.192v4.771a1.091,1.091,0,0,0,1.158,1.1,3.376,3.376,0,0,1,2.567,1.219,6.435,6.435,0,0,1,1.117,4.144l-.478-.956a1.1,1.1,0,0,0-1.318-.556c-.065.021-6.584,2.084-10.344,2.084a15.185,15.185,0,0,1-6.9-1.974,1.1,1.1,0,0,0-1.454.279l-1.452,1.936C269.777,207.468,270.574,204.634,272.246,202.74ZM270.1,218.588v-4.047l2.409-3.211a16.811,16.811,0,0,0,7.163,1.818c3.258,0,8.11-1.323,10.109-1.913l1.588,3.177v4.176a10.635,10.635,0,0,1-21.269,0ZM286.97,229.8v1.4l-3.378,2.253-1.756-.877v-1.2A12.744,12.744,0,0,0,286.97,229.8Zm-7.335,1.572v1.136l-2.379.952-2.754-2.2V229.8A12.742,12.742,0,0,0,279.635,231.372Zm-4.4,9.582H270.1v-2.2h5.134Zm20.536-4.767v4.767H277.435v-3.3a1.1,1.1,0,0,0-1.1-1.1H269a1.1,1.1,0,0,0-1.1,1.1v3.3h-2.2v-4.767a3.3,3.3,0,0,1,3.3-3.3h4.015l3.367,2.692c.01.008.021.013.031.02a1.147,1.147,0,0,0,.1.064c.02.012.04.023.06.034s.064.03.1.043.043.018.066.025a1.093,1.093,0,0,0,.111.028c.019,0,.037.01.056.013a1.088,1.088,0,0,0,.172.014,1.121,1.121,0,0,0,.115-.007l.02,0c.03,0,.06-.009.09-.015l.037-.009.071-.02.046-.016.029-.01,3.207-1.283,2.494,1.246c.017.009.034.015.051.022s.039.018.06.026.055.018.083.026l.04.012a1.107,1.107,0,0,0,.117.021l.01,0a1.112,1.112,0,0,0,.13.008,1.1,1.1,0,0,0,.154-.011c.022,0,.044-.009.066-.014s.056-.011.084-.018.044-.016.066-.023.055-.019.081-.031.038-.02.057-.029.057-.03.084-.048l.018-.01,4.122-2.748h4.068a3.3,3.3,0,0,1,3.3,3.3S295.771,236.185,295.771,236.186Z" transform="translate(-263.5 -196.939)" fill="#09f"/>
      </g>
    </g>
    <g id="Group_469" data-name="Group 469" transform="translate(13.5 29.232)">
      <g id="Group_468" data-name="Group 468" transform="translate(0)">
        <path id="Path_1529" data-name="Path 1529" d="M42.47,232.688H37.7V231.36a12.83,12.83,0,0,0,5.866-10.77v-2.424l1.463.523a1.1,1.1,0,0,0,1.47-1.036c0-6.6-1.271-11.505-3.778-14.571a10.339,10.339,0,0,0-8.415-3.8,21.942,21.942,0,0,0-9.325,2.466l-2.578-1.227a1.1,1.1,0,0,0-1.024.041c-.441.255-4.282,2.78-3.483,12.728v7.3a12.83,12.83,0,0,0,5.867,10.771v1.327H19a5.507,5.507,0,0,0-5.5,5.5v5.867a1.1,1.1,0,0,0,1.1,1.1H46.87a1.1,1.1,0,0,0,1.1-1.1v-5.861s0,0,0-.006A5.507,5.507,0,0,0,42.47,232.688ZM22.113,202.821l2.428,1.156a1.1,1.1,0,0,0,1.021-.039,20.373,20.373,0,0,1,8.748-2.453c6.3,0,9.648,4.909,9.968,14.6l-19.041-6.8a1.1,1.1,0,0,0-.862.052l-4.371,2.185C19.845,206.008,21.369,203.641,22.113,202.821ZM20.1,220.59v-6.659l4.839-2.42,16.43,5.868v3.21a10.635,10.635,0,0,1-21.269,0ZM35.5,232.5v1.285h0a4.767,4.767,0,1,1-9.535,0V232.5a12.834,12.834,0,0,0,9.535,0Zm10.267,5.686v4.767H15.7v-4.767a3.3,3.3,0,0,1,3.3-3.3h4.855a6.967,6.967,0,0,0,13.76,0H42.47a3.3,3.3,0,0,1,3.3,3.3S45.77,238.187,45.77,238.188Z" transform="translate(-13.5 -199.285)" fill="#09f"/>
      </g>
    </g>
    <g id="Group_471" data-name="Group 471" transform="translate(47.237 4.399)">
      <g id="Group_470" data-name="Group 470">
        <path id="Path_1530" data-name="Path 1530" d="M251.638,31.386a4.767,4.767,0,0,0-8.138,3.371,1.1,1.1,0,1,0,2.2,0v0a2.564,2.564,0,1,1,2.581,2.569h-.014a1.1,1.1,0,0,0-1.1,1.1v2.934a1.1,1.1,0,1,0,2.2,0V39.4h0a4.767,4.767,0,0,0,2.271-8.01Z" transform="translate(-243.5 -29.99)" fill="#09f"/>
      </g>
    </g>
    <g id="Group_473" data-name="Group 473" transform="translate(50.905 17.602)">
      <g id="Group_472" data-name="Group 472">
        <path id="Path_1531" data-name="Path 1531" d="M269.6,120a1.1,1.1,0,0,0-1.1,1.1v1.465a1.1,1.1,0,1,0,2.2,0V121.1A1.1,1.1,0,0,0,269.6,120Z" transform="translate(-268.5 -120)" fill="#09f"/>
      </g>
    </g>
  </g>
</svg>
