<svg xmlns="http://www.w3.org/2000/svg" width="61.584" height="61.558" viewBox="0 0 61.584 61.558">
  <g id="_5" data-name="5" transform="translate(-0.995 -0.003)">
    <path id="Shape" d="M52.417,7.411l-5.449,7.266L45.752,13.46A1.027,1.027,0,0,0,44.3,14.912c2.238,2.238,2.226,2.354,2.779,2.354a1.027,1.027,0,0,0,.821-.411L54.06,8.642a1.027,1.027,0,0,0-1.643-1.232Z" transform="translate(1.143 0.186)" fill="#09f"/>
    <path id="Shape-2" data-name="Shape" d="M43.148,2.29C36.087-1.051,29.913-.19,21.833,1.459c-4.62.924-7.971,2.547-10.257,4.973a19.69,19.69,0,0,0-4.118,6.717,27.792,27.792,0,0,0-.942,3.457c-.536,2.361-2.038,4.145-1.81,5.736.256,1.786,2.324,2.611,2.32,3.374A39.1,39.1,0,0,1,2.38,33.442c-2.053,2.5-1.662,3.62.12,4.944.725.54,2.228,1.077,2.306,1.492a2.6,2.6,0,0,1-.563,1.886c-1.048,1.866-.535,2.221.9,3.323a1.848,1.848,0,0,0,.276,2.489c.725.518,1.507.757,1.634,1.265.242.959-.866,2.111.077,4.819a3.792,3.792,0,0,0,4.462,2.711,82.413,82.413,0,0,0,8.644-2.593c2.247,1.326,3.578,5.176,3.945,6.371a2.022,2.022,0,0,0,1.959,1.413H49.351a2.077,2.077,0,0,0,1.713-3.208c-1.905-2.9-2.682-6.775-3.1-10.215A17.451,17.451,0,0,1,49.3,39.126c2.181-4.948,7.238-7.508,7.136-16.152A12.305,12.305,0,1,0,43.148,2.29ZM47.424,38.3A19.521,19.521,0,0,0,45.93,48.384c.95,7.821,2.881,9.972,3.422,11.143H26.137a15.966,15.966,0,0,0-3.609-6.545c.277-.1,2.1-.736,2.393-.829,4.384-1.39,6.576-3.388,6.516-5.954a1.027,1.027,0,0,0-2.053.048c.025,1.057-.837,2.6-5.084,3.946-1.773.562-9.207,3.355-13.133,4.164a1.815,1.815,0,0,1-2.105-1.376c-.791-2.272.447-2.772-.025-4.646-.3-1.2-1.146-1.66-2.113-2.228.3-.635.684-.8.6-1.4-.076-.576-.392-.644-1.656-1.652a4.873,4.873,0,0,0,.95-3.557c-.316-1.683-2.309-2.172-3.16-2.806a4.842,4.842,0,0,1-.61-.5c0-.156.166-.535.948-1.491A40.447,40.447,0,0,0,8.68,27.073a2.946,2.946,0,0,0,.4-1.4,3.613,3.613,0,0,0-1.492-2.558c-1.037-.959-.951-1.08-.687-1.784a30.614,30.614,0,0,0,1.558-4.013,29.247,29.247,0,0,1,.924-3.463A17.626,17.626,0,0,1,13.068,7.84c1.956-2.076,5.039-3.546,9.168-4.369,7.13-1.454,12.909-2.383,19.2.289A12.377,12.377,0,0,0,39.2,6.95c-13.19-5.729-26.912,3.4-26.912,13.068,0,8.651,9.891,9.752,18.468,9.752a3.088,3.088,0,0,1,3.09,3.08,4.62,4.62,0,1,0,9.239-.1V31.238a4.127,4.127,0,0,1,2.361-3.7,8.74,8.74,0,0,0,3.6-2.96,12.124,12.124,0,0,0,5.313-.652c-.259,7.069-4.708,9.3-6.943,14.381Zm-.64-14.181a7.543,7.543,0,0,1-2.22,1.554,6.187,6.187,0,0,0-3.528,5.56v1.509a2.615,2.615,0,0,1-2.027,2.608A2.559,2.559,0,0,1,35.9,32.85a5.144,5.144,0,0,0-5.143-5.133c-7.216,0-16.415-.6-16.415-7.7,0-8.3,12.255-16.358,24.113-11.153A12.308,12.308,0,0,0,46.785,24.124Zm3.49-1.54A10.266,10.266,0,1,1,60.541,12.319,10.266,10.266,0,0,1,50.275,22.584Z" transform="translate(0 0)" fill="#09f"/>
    <path id="Shape-3" data-name="Shape" d="M33.319,14.106H31.266V12.053A2.053,2.053,0,0,0,29.212,10H27.159a2.053,2.053,0,0,0-2.053,2.053v2.053H23.053A2.053,2.053,0,0,0,21,16.159v2.053a2.053,2.053,0,0,0,2.053,2.053h2.053v2.053a2.053,2.053,0,0,0,2.053,2.053h2.053a2.053,2.053,0,0,0,2.053-2.053V20.266h2.053a2.053,2.053,0,0,0,2.053-2.053V16.159A2.053,2.053,0,0,0,33.319,14.106Zm0,4.106H30.752a1.54,1.54,0,0,0-1.54,1.54v2.566H27.159V19.752a1.54,1.54,0,0,0-1.54-1.54H23.053V16.159H25.62a1.54,1.54,0,0,0,1.54-1.54V12.053h2.053V14.62a1.54,1.54,0,0,0,1.54,1.54h2.566Z" transform="translate(0.531 0.266)" fill="#09f"/>
  </g>
</svg>
