<svg xmlns="http://www.w3.org/2000/svg" width="69.707" height="59.252" viewBox="0 0 69.707 59.252">
  <g id="_6" data-name="6" transform="translate(0 -0.5)">
    <path id="Path_1532" data-name="Path 1532" d="M63.9.5H5.809A5.816,5.816,0,0,0,0,6.309V43.486a5.816,5.816,0,0,0,5.809,5.809H40.388c.089.116.181.216.274.321v8.974a1.161,1.161,0,0,0,1.594,1.079l5.377-2.152,5.377,2.152A1.162,1.162,0,0,0,54.6,58.589V49.615c.094-.105.186-.211.274-.321H63.9a5.816,5.816,0,0,0,5.809-5.809V6.309A5.816,5.816,0,0,0,63.9.5ZM53.344,47.476a6.32,6.32,0,0,1-.737.883,6.945,6.945,0,0,1-9.821.128c-.048-.047-.095-.094-.141-.142a6.192,6.192,0,0,1-.73-.877,6.971,6.971,0,1,1,11.428.008Zm3.511-5.152c-.019-.147-.05-.29-.076-.436-.02-.116-.035-.232-.058-.337-.042-.2-.1-.389-.15-.581-.026-.091-.045-.186-.074-.277a8.609,8.609,0,0,0-.3-.813c-.008-.02-.019-.038-.027-.058q-.16-.373-.348-.729c-.05-.091-.108-.18-.161-.271-.093-.158-.185-.317-.286-.465-.066-.1-.14-.2-.21-.292-.1-.135-.2-.27-.3-.4-.08-.1-.165-.192-.249-.287-.1-.116-.211-.24-.323-.355-.089-.093-.183-.181-.278-.271-.116-.108-.232-.215-.348-.317-.1-.085-.2-.167-.3-.247q-.184-.147-.377-.282-.16-.113-.325-.22c-.132-.086-.269-.167-.406-.246-.116-.066-.232-.13-.342-.19-.143-.074-.288-.143-.435-.21-.116-.053-.232-.108-.348-.157-.155-.063-.313-.116-.471-.172-.116-.04-.232-.083-.357-.116-.168-.051-.34-.092-.512-.132-.116-.028-.232-.06-.348-.083-.193-.038-.392-.064-.589-.09-.1-.013-.2-.032-.3-.042a9.055,9.055,0,0,0-1.828,0c-.1.01-.2.029-.3.042-.2.027-.4.052-.589.09-.116.023-.232.055-.349.083-.172.04-.348.081-.512.132-.116.036-.232.079-.357.116-.158.055-.316.109-.47.172-.116.049-.232.1-.349.157-.146.066-.291.135-.434.21-.116.06-.232.124-.342.19-.137.079-.273.16-.405.246-.111.071-.219.144-.325.22q-.191.136-.377.282c-.1.08-.205.163-.3.247-.116.1-.232.209-.349.317-.094.089-.188.178-.278.271-.116.116-.218.232-.323.355-.083.1-.169.188-.249.287-.1.13-.2.265-.3.4-.07.1-.144.193-.211.292-.1.153-.193.312-.286.465-.052.091-.11.179-.16.271a7.712,7.712,0,0,0-.349.729c-.008.02-.019.038-.027.058a8.23,8.23,0,0,0-.3.813c-.029.091-.048.185-.074.277-.055.192-.108.383-.15.581-.023.11-.038.225-.058.337-.026.145-.057.288-.076.436H6.971V7.471H62.736V42.324ZM52.28,56.873l-4.215-1.687a1.173,1.173,0,0,0-.865,0l-4.215,1.687V51.529c.026.015.055.024.081.04a9.222,9.222,0,0,0,9.146-.007c.021-.013.046-.02.066-.033Zm15.1-13.387A3.485,3.485,0,0,1,63.9,46.971H56.25c.076-.188.137-.382.2-.575.02-.061.044-.116.063-.178a9.374,9.374,0,0,0,.278-1.194c.015-.092.028-.183.039-.275a.826.826,0,0,1,.015-.1h5.89a2.323,2.323,0,0,0,2.324-2.324V7.471a2.323,2.323,0,0,0-2.324-2.324H6.971A2.323,2.323,0,0,0,4.647,7.471V42.324a2.323,2.323,0,0,0,2.324,2.324H38.42a.707.707,0,0,0,.014.1c.013.093.026.185.04.278a9.321,9.321,0,0,0,.277,1.19c.02.064.045.126.066.188.063.19.123.382.2.568H5.809a3.485,3.485,0,0,1-3.486-3.486V6.309A3.485,3.485,0,0,1,5.809,2.824H63.9a3.485,3.485,0,0,1,3.486,3.486Zm0,0" fill="#09f"/>
    <path id="Path_1533" data-name="Path 1533" d="M313.008,273.566a5.809,5.809,0,1,0,5.809,5.809A5.809,5.809,0,0,0,313.008,273.566Zm0,9.294a3.485,3.485,0,1,1,3.485-3.485A3.485,3.485,0,0,1,313.008,282.86Zm0,0" transform="translate(-265.375 -235.889)" fill="#09f"/>
    <path id="Path_1534" data-name="Path 1534" d="M170.668,102.9H193.9v2.324H170.668Zm0,0" transform="translate(-147.432 -88.46)" fill="#09f"/>
    <path id="Path_1535" data-name="Path 1535" d="M119.469,171.168h37.177v2.324H119.469Zm0,0" transform="translate(-103.204 -147.432)" fill="#09f"/>
  </g>
</svg>
