<svg id="kazak-bg" xmlns="http://www.w3.org/2000/svg" xmlns:xlink="http://www.w3.org/1999/xlink" width="299.504" height="302.996" viewBox="0 0 299.504 302.996">
  <defs>
    <linearGradient id="linear-gradient" x1="0.5" y1="1" x2="0.5" gradientUnits="objectBoundingBox">
      <stop offset="0" stop-color="#4acee9"/>
      <stop offset="1" stop-color="#4acee9" stop-opacity="0"/>
    </linearGradient>
  </defs>
  <g id="astana" transform="translate(79.922 0) rotate(20)" opacity="0.16">
    <path id="Path_182" data-name="Path 182" d="M232,0h7.789V19.473H232Zm0,0" transform="translate(-119.058)" fill="#fff"/>
    <g id="Group_77" data-name="Group 77" transform="translate(51.409 38.946)">
      <path id="Path_184" data-name="Path 184" d="M232,80h7.789V270.834H232Zm0,0" transform="translate(-170.467 -80)" fill="#fff"/>
      <path id="Path_185" data-name="Path 185" d="M303.789,272.065H296v-107.1A121.415,121.415,0,0,1,322.482,89.41l5.454-7.011,6.23,4.674-5.452,7.009a113.193,113.193,0,0,0-24.925,70.882Zm0,0" transform="translate(-203.31 -81.231)" fill="#fff"/>
      <path id="Path_186" data-name="Path 186" d="M143.768,272.476h-7.789v-107.1a110.551,110.551,0,0,0-24.925-70.492L105.6,87.873l6.23-4.674,5.454,7.011a120.6,120.6,0,0,1,26.482,75.554Zm0,0" transform="translate(-105.602 -81.642)" fill="#fff"/>
      <path id="Path_187" data-name="Path 187" d="M179.873,272.476h-7.789v-107.1c0-44.788-8.957-55.691-23.757-74l-2.725-3.5,6.23-4.674,2.727,3.117c15.189,19.083,25.315,31.545,25.315,79.059Zm0,0" transform="translate(-126.129 -81.642)" fill="#fff"/>
      <path id="Path_188" data-name="Path 188" d="M271.789,272.476H264v-107.1c0-47.515,10.126-59.976,25.315-79.059l2.727-3.117,6.23,4.674-2.725,3.5c-14.8,18.305-23.757,29.6-23.757,74Zm0,0" transform="translate(-186.888 -81.642)" fill="#fff"/>
      <path id="Path_189" data-name="Path 189" d="M176,240h62.313v7.789H176Zm0,0" transform="translate(-141.729 -162.109)" fill="#fff"/>
      <path id="Path_190" data-name="Path 190" d="M136,112H237.259v7.789H136Zm0,0" transform="translate(-121.201 -96.422)" fill="#fff"/>
    </g>
    <path id="Path_193" data-name="Path 193" d="M72,304h7.789v35.051H72Zm0,0" transform="translate(-36.949 -156.006)" fill="#fff"/>
    <path id="Path_194" data-name="Path 194" d="M72,224h7.789v15.578H72Zm0,0" transform="translate(-36.949 -114.952)" fill="#fff"/>
    <path id="Path_197" data-name="Path 197" d="M392,304h7.789v35.051H392Zm0,0" transform="translate(-201.166 -156.006)" fill="#fff"/>
    <path id="Path_198" data-name="Path 198" d="M392,224h7.789v15.578H392Zm0,0" transform="translate(-201.166 -114.952)" fill="#fff"/>
    <path id="Path_199" data-name="Path 199" d="M0,464H233.674v7.789H0Zm0,0" transform="translate(0 -238.115)" fill="#fff"/>
    <path id="Path_200" data-name="Path 200" d="M225.5,266.939l-11.684-81.786h-4.284l-7.789-23.367h-3.115V150.1h-7.789v11.684h-2.727l-7.789,23.367h-4.283l-11.684,81.786H151.888V163.733a110.55,110.55,0,0,1,24.925-70.492l5.452-7.009-6.23-4.674-5.454,7.011a78.605,78.605,0,0,0-5.062,7.009H155.393l4.674-5.842,2.725-3.5-6.23-4.674-2.727,3.117c-3.115,3.895-5.842,7.4-8.569,10.9H120.731V80h-7.789V95.578H88.017c-2.727-3.5-5.452-7.009-8.569-10.9l-2.725-3.117-6.232,4.674,2.725,3.5q2.339,2.921,4.674,5.842H67.765c-1.557-2.337-3.5-4.674-5.062-7.009l-5.452-7.011-6.232,4.674,5.452,7.009A115.141,115.141,0,0,1,81.4,163.733V266.939H69.322L57.638,185.153H53.356l-7.789-23.367H42.84V150.1H35.051v11.684H32.324l-7.789,23.367H19.862L8.179,266.939H0v7.789H233.674v-7.789Zm-31.934-97.364H195.9l5.064,15.578H188.5Zm-10.906,23.367h8.179V224.1h7.789V192.942H206.8l10.514,74H172.141ZM112.942,165.68V266.939h-7.789V165.68Zm7.789,0h7.789V266.939h-7.789Zm15.578,0H144.1V266.939H136.31Zm24.147-62.313a118,118,0,0,0-15.968,54.524H136.7c.39-28.819,5.452-42.45,13.241-54.524Zm-19.863,0c-7.011,12.074-11.294,26.872-11.684,54.524h-7.789V103.367Zm-27.652,0v54.524h-7.789c-.39-27.652-5.062-42.45-11.684-54.524Zm-39.725,0H84.123c7.789,12.074,12.851,25.7,13.241,54.524H89.575a123.316,123.316,0,0,0-16.358-54.524ZM89.575,165.68h7.789V266.939H89.575Zm-51.8,3.895h2.335l5.064,15.578H32.714ZM26.872,192.942h8.179V224.1H42.84V192.942h8.179l10.514,74H16.358Zm0,0" transform="translate(0 -41.054)" fill="#fff"/>
    <path id="Path_201" data-name="Path 201" d="M211.262,19.473a19.285,19.285,0,0,1,19.473,19.473h7.789a27.249,27.249,0,0,0-23.367-26.872V0h-7.789V12.074A27.249,27.249,0,0,0,184,38.946h7.789A19.285,19.285,0,0,1,211.262,19.473Zm0,0" transform="translate(-94.425)" fill="#fff"/>
  </g>
  <rect id="Rectangle_71" data-name="Rectangle 71" width="270" height="175" transform="translate(13.446 127.996)" fill="url(#linear-gradient)"/>
</svg>
