<svg xmlns="http://www.w3.org/2000/svg" width="90.568" height="82.268" viewBox="0 0 90.568 82.268">
  <g id="adaptive-physical-education" transform="translate(0 -23.462)">
    <g id="Group_347" data-name="Group 347" transform="translate(82.711 77.465)">
      <g id="Group_346" data-name="Group 346">
        <path id="Path_1352" data-name="Path 1352" d="M474.92,333.547l-4.318-4.283a1.769,1.769,0,1,0-2.492,2.512l4.318,4.283a1.769,1.769,0,0,0,2.492-2.512Z" transform="translate(-467.587 -328.751)" fill="#fff"/>
      </g>
    </g>
    <g id="Group_349" data-name="Group 349" transform="translate(78.305 73.078)">
      <g id="Group_348" data-name="Group 348" transform="translate(0 0)">
        <path id="Path_1353" data-name="Path 1353" d="M445.7,304.47a1.769,1.769,0,0,0-2.5,0l0,0a1.769,1.769,0,1,0,2.505,0Z" transform="translate(-442.675 -303.952)" fill="#fff"/>
      </g>
    </g>
    <g id="Group_351" data-name="Group 351" transform="translate(0 23.462)">
      <g id="Group_350" data-name="Group 350" transform="translate(0 0)">
        <path id="Path_1354" data-name="Path 1354" d="M66.244,81.754,83.407,64.591a6.662,6.662,0,0,0-3.216-11.208A6.669,6.669,0,0,0,75.277,44a6.656,6.656,0,0,0-5.193-8.654A6.67,6.67,0,0,0,60.569,27.4l-.171-.183a11.807,11.807,0,0,0-8.615-3.751H37.89a1.769,1.769,0,0,0-1.769,1.769v2.32a8.037,8.037,0,0,0,.457,2.682,6.668,6.668,0,0,0-8.886,8.252,6.667,6.667,0,0,0-5.2,8.655,6.667,6.667,0,0,0-4.91,9.376,6.668,6.668,0,0,0-3.216,11.211l3.53,3.529L.518,88.634a1.769,1.769,0,1,0,2.5,2.5L20.564,73.592a6.663,6.663,0,0,0,9.953-6.066c.09,0,.179.006.269.006a6.661,6.661,0,0,0,6.667-6.664c0-.09,0-.18-.007-.269.089,0,.177.006.266.006a6.661,6.661,0,0,0,6.667-6.664c0-.09,0-.18-.007-.269.089,0,.177.006.266.006A6.664,6.664,0,0,0,49.8,42.789L61.54,31.045a3.129,3.129,0,1,1,4.424,4.424L64.232,37.2,57.95,43.483a1.769,1.769,0,1,0,2.5,2.5L66.734,39.7a3.129,3.129,0,1,1,4.425,4.425l-1.732,1.732L64.876,50.41a1.769,1.769,0,1,0,2.5,2.5l4.551-4.551a3.129,3.129,0,1,1,4.424,4.424l-2.377,2.377L71.8,57.337a1.769,1.769,0,1,0,2.5,2.5l2.176-2.176A3.129,3.129,0,0,1,80.9,62.09L63.74,79.253a23.968,23.968,0,0,1-16.129,7.026,1.769,1.769,0,0,0-1.189.52L30.567,102.712a1.769,1.769,0,1,0,2.507,2.5L44.735,93.5a16.445,16.445,0,0,0,9.988,2.57l9.127,9.127a1.769,1.769,0,1,0,2.5-2.5l-9.7-9.705a1.77,1.77,0,0,0-1.4-.512l-.561.046a12.915,12.915,0,0,1-7.383-1.607l1.137-1.141A27.491,27.491,0,0,0,66.244,81.754ZM26.071,70.007a3.128,3.128,0,0,1-4.424,0l-4.781-4.78A3.129,3.129,0,1,1,21.291,60.8l4.781,4.78A3.133,3.133,0,0,1,26.071,70.007ZM33,63.08a3.132,3.132,0,0,1-4.425,0L23.793,58.3l-2.377-2.377A3.129,3.129,0,1,1,25.84,51.5L33,58.655h0a3.129,3.129,0,0,1,0,4.425Zm6.926-6.927a3.133,3.133,0,0,1-4.425,0l-8.889-8.889a3.129,3.129,0,0,1,4.423-4.426l4.051,4.051,4.839,4.839h0a3.129,3.129,0,0,1,0,4.425Zm6.927-6.927a3.132,3.132,0,0,1-4.425,0l-8.889-8.889,0,0-1.729-1.729a3.129,3.129,0,0,1,4.425-4.425L46.851,44.8a3.129,3.129,0,0,1,0,4.425Zm.465-8.963-4.86-4.86a8.1,8.1,0,0,0,1.694.18h.039l4.855-.023a1.769,1.769,0,0,0-.008-3.539h-.008l-4.855.023h-.022a4.494,4.494,0,0,1-4.494-4.494V27H51.782a8.257,8.257,0,0,1,6.025,2.623l.072.077Z" transform="translate(0 -23.462)" fill="#fff"/>
      </g>
    </g>
  </g>
</svg>
