<svg xmlns="http://www.w3.org/2000/svg" width="67.891" height="94.173" viewBox="0 0 67.891 94.173">
  <g id="assistant" transform="translate(-71.445 -0.001)">
    <g id="Group_400" data-name="Group 400" transform="translate(71.445 0.001)">
      <path id="Path_1428" data-name="Path 1428" d="M135.222,67.468a9.309,9.309,0,0,0-7.093-7.285h0c-.063-.018.535.132-14.225-3.527v-.5H124.77a4.066,4.066,0,0,0,4.062-4.062V31.371a5.076,5.076,0,0,0,0-2.344V21.464a1.38,1.38,0,0,0-2.759,0v3.959a7.163,7.163,0,0,0-2.457-.9,3.6,3.6,0,0,0-3.032-2.773,4.5,4.5,0,0,1-3.556-2.735A2.365,2.365,0,0,0,113,18.646,25.245,25.245,0,0,1,92.646,29.112c-.866,0-1.453-.041-1.658-.05A3.649,3.649,0,0,0,87.127,32.7v3.17A18.714,18.714,0,0,0,92.894,49.35a18.477,18.477,0,0,0,3.986,2.9V53.4H86.063a1.3,1.3,0,0,1-1.3-1.3v-31A18.323,18.323,0,0,1,102.854,2.76h.1a23.512,23.512,0,0,1,10.432,2.566c1.768.976,2.861.2,4.607.2,4.263,0,7.679,4.383,8.088,8.325,0,.058.009.289.009,1.175a1.407,1.407,0,0,0,1.381,1.379,1.38,1.38,0,0,0,1.379-1.381c0-.245,0-1.206-.021-1.429-.555-5.488-5.236-10.829-10.835-10.829-2.187,0-2.528.554-3.274.143A26.479,26.479,0,0,0,102.965,0,21.076,21.076,0,0,0,82,21.092v31a4.066,4.066,0,0,0,4.062,4.062H96.879v.5L82.71,60.168l-.056.015-1.035.305c-.031.009-.062.019-.092.031a9.155,9.155,0,0,0-5.966,6.949c-4.2,21.094-4.022,20.193-4.033,20.265-.506,3.578,1.285,6.439,5.593,6.439h14.92a1.38,1.38,0,0,0,0-2.759H86.85V78.4a1.38,1.38,0,1,0-2.759,0V91.414H77.122c-1.833,0-2.9-.59-2.915-2.515-.008-.939-.045-.024,4.06-20.891a6.466,6.466,0,0,1,4.181-4.887l.957-.282,8.137-2.017c9.052,10.664,8.516,10.1,9.039,10.609a6.685,6.685,0,0,0,10.17-.593l8.521-10.008,8.106,2.009a6.688,6.688,0,0,1,5.138,5.169c4.069,20.686,4.068,19.948,4.06,20.89-.014,1.886-1.034,2.517-2.915,2.517h-6.919V78.4a1.38,1.38,0,0,0-2.759,0V91.414H98.48a1.38,1.38,0,0,0,0,2.759h35.182c3.409,0,5.642-1.876,5.674-5.254C139.347,87.342,139.253,88.1,135.222,67.468Zm-11.516-40.1a3.462,3.462,0,0,1,2.367,2.04v1.581a3.461,3.461,0,0,1-2.367,2.04Zm0,8.745v-.255a7.148,7.148,0,0,0,2.367-.885V52.094a1.3,1.3,0,0,1-1.3,1.3H113.9V52.33A18.265,18.265,0,0,0,123.706,36.114ZM94.8,47.354a15.943,15.943,0,0,1-4.912-11.48c.082-3-.2-3.368.281-3.819a.87.87,0,0,1,.655-.238,27.713,27.713,0,0,0,24.019-11.035,7.079,7.079,0,0,0,5.383,3.7.829.829,0,0,1,.722.818V36.114C120.946,49.842,104.512,56.624,94.8,47.354ZM108.65,69.049a3.992,3.992,0,0,1-6.531-.011l-2.879-3.4h12.312ZM113.9,62.88h-17l-2.371-2.8,4.06-1.006a1.4,1.4,0,0,0,1.048-1.353V53.454a18.274,18.274,0,0,0,11.505.039c.026,4.41-.059,4.309.077,4.7a1.38,1.38,0,0,0,.971.884l4.087,1.013Z" transform="translate(-71.445 -0.001)" fill="#fff"/>
    </g>
  </g>
</svg>
