<svg xmlns="http://www.w3.org/2000/svg" width="102.002" height="101.996" viewBox="0 0 102.002 101.996">
  <path id="biology" d="M93.814,26.735a15.326,15.326,0,0,1-3.065,2.4L73.363,11.749a15.342,15.342,0,0,1,2.4-3.065A4.8,4.8,0,0,0,68.982,1.9c-7.782,7.782-7.9,17.189-6.534,25.682-9.887-2.038-20.817-2.905-29.542,5.819a23.6,23.6,0,0,0-6.932,14.164,1.5,1.5,0,1,0,2.967.383,20.708,20.708,0,0,1,6.081-12.431c8.039-8.039,18.194-6.882,28-4.755.293,1.465.552,2.615.837,3.878-9.745-2.216-19.183-3.783-26.3,3.437-15.91,15.932,11.124,43.113-6.66,60.9a1.8,1.8,0,1,1-2.549-2.549c11.277-11.278,1.2-27.479.411-42.989a1.5,1.5,0,0,0-2.989.153,62.652,62.652,0,0,0,1.312,9.355C18.592,61.586,9.186,61.7,1.4,69.481a4.8,4.8,0,0,0,6.782,6.781,15.34,15.34,0,0,1,3.064-2.4L28.638,91.248a15.355,15.355,0,0,1-2.4,3.065,4.8,4.8,0,0,0,6.781,6.781c7.782-7.782,7.9-17.189,6.534-25.682,11.286,2.326,21.37,2.353,29.542-5.819,8.725-8.725,7.857-19.657,5.819-29.544a45.381,45.381,0,0,0,8.561.634,1.5,1.5,0,0,0-.094-2.991,44.4,44.4,0,0,1-9.154-.792c-.288-1.263-.568-2.453-.883-3.821,8.3,1.671,16.2,2.162,22.588-4.227A1.8,1.8,0,0,1,98.479,31.4a20.458,20.458,0,0,1-9.665,5.557,1.5,1.5,0,0,0,.735,2.9A23.37,23.37,0,0,0,100.6,33.516a4.8,4.8,0,1,0-6.781-6.781ZM6.07,74.146A1.8,1.8,0,0,1,3.52,71.6c4.846-4.846,10.527-6.3,16.177-6.3a46.572,46.572,0,0,1,8.079.8c.286,1.256.577,2.491.883,3.822-8.3-1.672-16.2-2.163-22.588,4.226Zm8.119-1.578c4.06-1.247,8.916-.77,15.184.557,1.328,6.268,1.805,11.124.557,15.184Zm23.2-7.458c-1.141-4.927-2.15-9.521-2.106-13.679L51.066,67.216c-4.157.044-8.752-.964-13.678-2.105ZM54.9,66.823,35.676,47.594a14.285,14.285,0,0,1,3-6.3L61.2,63.819a14.266,14.266,0,0,1-6.3,3ZM63.321,61.7,40.8,39.179a14.278,14.278,0,0,1,6.3-3L66.324,55.4a14.284,14.284,0,0,1-3,6.3Zm1.291-23.817c1.141,4.927,2.149,9.521,2.106,13.679L50.934,35.782c4.156-.044,8.752.964,13.678,2.105Zm2.366,29.59c-8.039,8.039-18.194,6.882-28,4.755-.211-1.052-.44-2.136-.837-3.878,9.87,2.245,19.114,3.749,26.29-3.427C80.232,49.123,53.416,21.7,71.1,4.019a1.8,1.8,0,0,1,2.549,2.549C57.754,22.462,84.756,49.7,66.977,67.476Zm5.65-37.6C71.3,23.6,70.822,18.748,72.07,14.688L87.811,30.429c-4.06,1.248-8.916.771-15.184-.557Zm0,0" transform="translate(0.002 -0.501)" fill="#fff"/>
</svg>
