<svg xmlns="http://www.w3.org/2000/svg" width="93.139" height="93.349" viewBox="0 0 93.139 93.349">
  <g id="chemistry" transform="translate(-2.136 -2)">
    <path id="Path_1355" data-name="Path 1355" d="M76.6,32.116V23.781a4.667,4.667,0,0,0,0-9.335H54.822a4.667,4.667,0,1,0,0,9.335v8.333a29.7,29.7,0,0,0-9.436,6.03l-1.455-3.764V11.335h1.556a4.667,4.667,0,1,0,0-9.335H20.594a4.667,4.667,0,0,0,0,9.335H22.15V34.381L2.8,84.429a7.779,7.779,0,0,0,7.118,10.92H56.165A7.779,7.779,0,0,0,63.8,89.061c.622.042,1.26.065,1.912.065A29.542,29.542,0,0,0,76.6,32.116Zm-23.337-13a1.556,1.556,0,0,1,1.556-1.556H76.6a1.556,1.556,0,0,1,0,3.112H54.822A1.556,1.556,0,0,1,53.266,19.114ZM56.9,34.661a1.556,1.556,0,0,0,1.038-1.467V23.781H73.492v9.413a1.556,1.556,0,0,0,1.038,1.467,26.432,26.432,0,0,1,13.587,10.9H48.255l-1.643-4.25A26.5,26.5,0,0,1,56.9,34.661ZM19.038,6.667a1.556,1.556,0,0,1,1.556-1.556H45.487a1.556,1.556,0,1,1,0,3.112H20.594A1.556,1.556,0,0,1,19.038,6.667Zm6.119,28.566a1.57,1.57,0,0,0,.1-.562V11.335H40.82V34.672a1.57,1.57,0,0,0,.1.562l7.83,20.254c-.495-.156-.976-.324-1.458-.5a21.861,21.861,0,0,0-8.557-1.539,21.781,21.781,0,0,0-8.557,1.539,18.981,18.981,0,0,1-7.518,1.355,19.029,19.029,0,0,1-5.414-.663ZM60.075,90.118a4.593,4.593,0,0,1-3.91,2.119H9.917a4.667,4.667,0,0,1-4.243-6.618L16.123,58.6a21.794,21.794,0,0,0,6.534.859,21.844,21.844,0,0,0,8.571-1.54,18.951,18.951,0,0,1,7.5-1.354,18.981,18.981,0,0,1,7.51,1.354,24.6,24.6,0,0,0,3.89,1.126l10.3,26.643A4.588,4.588,0,0,1,60.075,90.118Zm5.638-4.1c-.672,0-1.318-.033-1.949-.079a7.424,7.424,0,0,0-.453-1.439L49.458,48.675H89.78a26.384,26.384,0,0,1-24.067,37.34Z" transform="translate(0 0)" fill="#fff"/>
    <path id="Path_1356" data-name="Path 1356" d="M41.667,11.335A4.667,4.667,0,1,0,37,6.667,4.667,4.667,0,0,0,41.667,11.335Zm0-6.223a1.556,1.556,0,1,1-1.556,1.556A1.556,1.556,0,0,1,41.667,5.112Z" transform="translate(19.378 0)" fill="#fff"/>
    <path id="Path_1357" data-name="Path 1357" d="M51.667,43a4.667,4.667,0,1,0,4.667,4.667A4.667,4.667,0,0,0,51.667,43Zm0,6.223a1.556,1.556,0,1,1,1.556-1.556A1.556,1.556,0,0,1,51.667,49.223Z" transform="translate(24.936 22.789)" fill="#fff"/>
    <path id="Path_1358" data-name="Path 1358" d="M41.667,34a4.667,4.667,0,1,0,4.667,4.667A4.667,4.667,0,0,0,41.667,34Zm0,6.223a1.556,1.556,0,1,1,1.556-1.556A1.556,1.556,0,0,1,41.667,40.223Z" transform="translate(19.378 17.786)" fill="#fff"/>
    <path id="Path_1359" data-name="Path 1359" d="M16.667,44a4.667,4.667,0,1,0,4.667,4.667A4.667,4.667,0,0,0,16.667,44Zm0,6.223a1.556,1.556,0,1,1,1.556-1.556A1.556,1.556,0,0,1,16.667,50.223Z" transform="translate(5.482 23.344)" fill="#fff"/>
    <path id="Path_1360" data-name="Path 1360" d="M22.667,22.335A4.667,4.667,0,1,0,18,17.667,4.667,4.667,0,0,0,22.667,22.335Zm0-6.223a1.556,1.556,0,1,1-1.556,1.556A1.556,1.556,0,0,1,22.667,16.112Z" transform="translate(8.817 6.114)" fill="#fff"/>
    <path id="Path_1361" data-name="Path 1361" d="M30.667,47a4.667,4.667,0,1,0,4.667,4.667A4.667,4.667,0,0,0,30.667,47Zm0,6.223a1.556,1.556,0,1,1,1.556-1.556A1.556,1.556,0,0,1,30.667,53.223Z" transform="translate(13.264 25.012)" fill="#fff"/>
    <rect id="Rectangle_216" data-name="Rectangle 216" width="3.112" height="3.112" transform="translate(28.373 42.451)" fill="#fff"/>
    <rect id="Rectangle_217" data-name="Rectangle 217" width="3.112" height="3.112" transform="translate(34.596 36.228)" fill="#fff"/>
    <rect id="Rectangle_218" data-name="Rectangle 218" width="3.112" height="3.112" transform="translate(61.045 28.449)" fill="#fff"/>
    <rect id="Rectangle_219" data-name="Rectangle 219" width="3.112" height="3.112" transform="translate(67.269 36.228)" fill="#fff"/>
    <rect id="Rectangle_220" data-name="Rectangle 220" width="3.112" height="3.112" transform="translate(68.824 8.223)" fill="#fff"/>
    <rect id="Rectangle_221" data-name="Rectangle 221" width="3.112" height="3.112" transform="translate(81.271 54.898)" fill="#fff"/>
    <rect id="Rectangle_222" data-name="Rectangle 222" width="3.112" height="3.112" transform="translate(39.264 61.121)" fill="#fff"/>
    <rect id="Rectangle_223" data-name="Rectangle 223" width="3.112" height="3.112" transform="translate(26.817 82.903)" fill="#fff"/>
  </g>
</svg>
