<svg xmlns="http://www.w3.org/2000/svg" width="92.269" height="90.168" viewBox="0 0 92.269 90.168">
  <path id="dance" d="M88.995.453l-25.806,14.9a7.858,7.858,0,1,0-12.624,7.288L46.136,25.2,41.71,22.65a7.863,7.863,0,1,0-12.643-7.294L3.273.456a1.611,1.611,0,0,0-2.2.591,8.049,8.049,0,0,0,2.946,11l18.875,10.9-.9,11.608a16.685,16.685,0,0,1-1.012,4.559l-2.638,7.036a12.523,12.523,0,0,0-.267,7.95L19.3,58.18H15.348a4.83,4.83,0,1,0,0,9.66H23.4a1.671,1.671,0,0,0,.178-.009l6.1-.678L28.46,85.345v.226a4.817,4.817,0,0,0,9.624.322L39.5,64.738h-.038a1.6,1.6,0,0,0,0-.467L36.328,50.683a21.138,21.138,0,0,1-.174-8.558l9.981-5.758L51.61,39.53l.145,2.255L43.431,59.771a9.875,9.875,0,0,0-.594,6.383l4.928,19.717a5.053,5.053,0,0,0,4.878,3.787,5,5,0,0,0,4.894-5.985L53.785,64.827a5.141,5.141,0,0,0,7.147-1.237l5.439-7.624a7.971,7.971,0,0,0,1.51-4.677l-.017-9.048L69.8,22.7l18.442-10.65a8.088,8.088,0,0,0,2.959-11,1.61,1.61,0,0,0-2.2-.594ZM55.425,11.835a4.659,4.659,0,1,1-4.658,4.657,4.658,4.658,0,0,1,4.658-4.657ZM32.171,16.5a4.669,4.669,0,1,1,9.322,0,4.625,4.625,0,0,1-2.961,4.317l-6.309-3.644a4.55,4.55,0,0,1-.052-.678ZM14.2,64.128a1.551,1.551,0,0,1-.462-1.118,1.61,1.61,0,0,1,1.61-1.61h4.919l.966,3.22H15.348a1.566,1.566,0,0,1-1.148-.492ZM33.274,87.159a1.6,1.6,0,0,1-1.594-1.593v-.118l1.247-18.656,3.237-.361L34.876,85.667a1.61,1.61,0,0,1-1.6,1.492Zm2.641-23.94L24.556,64.481,21.162,53.168a9.278,9.278,0,0,1,.2-5.894L24,40.237a19.866,19.866,0,0,0,1.206-5.44l.981-12.619a1.611,1.611,0,0,0-.8-1.52L5.629,9.254A4.829,4.829,0,0,1,3.3,4.189l58.187,33.6a4.838,4.838,0,0,1-5.555.509L39.751,28.956a1.611,1.611,0,0,0-2.278.744l-2.847,6.449a24.42,24.42,0,0,0-1.449,15.246Zm1.6-25.613c.023-.052.039-.106.061-.161L39.7,32.637l3.21,1.854ZM64.653,51.291a4.756,4.756,0,0,1-.908,2.8L58.3,61.722a1.932,1.932,0,0,1-3.381-1.847v-.024l4.745-10.672-2.942-1.307L51.945,58.626,50.288,62.36a1.611,1.611,0,0,0-.106.966L54.368,84.3a1.79,1.79,0,0,1-3.493.776l-4.911-19.7a6.542,6.542,0,0,1,.4-4.274l8.485-18.353a1.589,1.589,0,0,0,.145-.778l-.039-.607A7.9,7.9,0,0,0,65,38.582l-.345,3.5ZM86.628,9.26,67.469,20.321a1.609,1.609,0,0,0-.8,1.237L65.215,36.378a1.607,1.607,0,0,0-.483-.441L49.358,27.062l4.869-2.813a7.609,7.609,0,0,0,8.532-4.925L88.97,4.19a4.86,4.86,0,0,1-2.342,5.07Zm0,0" transform="translate(0.007 -0.238)" fill="#fff"/>
</svg>
