<svg xmlns="http://www.w3.org/2000/svg" width="82.217" height="94.643" viewBox="0 0 82.217 94.643">
  <g id="defectologia" transform="translate(-27.675 0)">
    <path id="Path_1332" data-name="Path 1332" d="M184.941,316.7a8.8,8.8,0,0,1-12.429,0,1.8,1.8,0,1,0-2.54,2.54,12.4,12.4,0,0,0,17.509,0,1.8,1.8,0,1,0-2.54-2.54Z" transform="translate(-109.941 -245.19)" fill="#fff"/>
    <path id="Path_1333" data-name="Path 1333" d="M109.429,89.328c-4.207-4.659-4.385-16.531-3.887-28.814a9.405,9.405,0,0,0,.638-13.08c.612-12.528.937-20.907-3.037-28.643A32.277,32.277,0,0,0,90.1,5.683,42.674,42.674,0,0,0,67.264.028,24.551,24.551,0,0,0,49.141,9.067,17.382,17.382,0,0,0,35.133,17.5c-.245.422-.483.855-.705,1.289-3.976,7.74-3.652,16.118-3.04,28.645a9.405,9.405,0,0,0,.639,13.076c.5,12.284.32,24.157-3.887,28.816a1.8,1.8,0,0,0,.7,2.884A37.9,37.9,0,0,0,42.3,94.641a42.806,42.806,0,0,0,11.114-1.5,43.269,43.269,0,0,0,10.134-4.114,32.137,32.137,0,0,0,10.477,0A43.268,43.268,0,0,0,84.156,93.14a42.238,42.238,0,0,0,11.057,1.5,38.259,38.259,0,0,0,13.519-2.432,1.8,1.8,0,0,0,.7-2.884Zm-8.54-31.977V48.435c0-.024,0-.047,0-.071v-.273a5.837,5.837,0,0,1-.055,11.125C100.869,58.6,100.889,57.978,100.889,57.351ZM37.622,20.433c.194-.378.4-.756.615-1.123a13.814,13.814,0,0,1,11.808-6.682h.025a1.8,1.8,0,0,0,1.388-.7A21,21,0,0,1,67.392,3.618,39.091,39.091,0,0,1,88.312,8.8,28.756,28.756,0,0,1,99.947,20.433c3.181,6.192,3.275,12.927,2.754,24.5a9.367,9.367,0,0,0-1.812-.545V42.562a1.8,1.8,0,1,0-3.592,0v4.079C72.557,46.905,59.163,34.988,55.59,31.26a1.8,1.8,0,0,0-2.958.56c-2.61,6.349-7.17,9.67-14.35,10.453a1.8,1.8,0,0,0-1.6,1.786v.33a9.35,9.35,0,0,0-1.814.546C34.345,33.363,34.44,26.628,37.622,20.433Zm-.887,38.783a5.837,5.837,0,0,1-.055-11.125v9.26C36.68,57.978,36.7,58.6,36.736,59.216ZM32.348,89.611c3.2-5.467,3.758-14.555,3.351-26.956a9.344,9.344,0,0,0,1.476.326A32.213,32.213,0,0,0,58.21,87.664C53.013,89.9,43.178,92.864,32.348,89.611Zm36.437-3.747A28.545,28.545,0,0,1,40.272,57.351V45.626C47.008,44.517,51.8,41.2,54.844,35.543a52.824,52.824,0,0,0,12.668,8.436A66.4,66.4,0,0,0,97.3,50.234v7.118A28.545,28.545,0,0,1,68.785,85.864ZM85.211,89.7a42.5,42.5,0,0,1-5.859-2.037,32.212,32.212,0,0,0,21.042-24.685,9.35,9.35,0,0,0,1.474-.326c-.407,12.4.148,21.49,3.352,26.957A36.037,36.037,0,0,1,85.211,89.7Z" transform="translate(0 0)" fill="#fff"/>
    <path id="Path_1334" data-name="Path 1334" d="M113.346,225.133a1.8,1.8,0,0,0,2.54,2.54,2.956,2.956,0,0,1,4.175,0,1.8,1.8,0,0,0,2.54-2.54A6.552,6.552,0,0,0,113.346,225.133Z" transform="translate(-66.029 -173.105)" fill="#fff"/>
    <path id="Path_1335" data-name="Path 1335" d="M272.618,227.673a1.8,1.8,0,0,0,0-2.54,6.552,6.552,0,0,0-9.255,0,1.8,1.8,0,1,0,2.54,2.54,2.956,2.956,0,0,1,4.175,0,1.8,1.8,0,0,0,2.54,0Z" transform="translate(-182.365 -173.105)" fill="#fff"/>
  </g>
</svg>
