<svg xmlns="http://www.w3.org/2000/svg" width="78.141" height="123.385" viewBox="0 0 78.141 123.385">
  <g id="educator" transform="translate(0 0.002)">
    <path id="Path_1476" data-name="Path 1476" d="M115.042,189.8a2.056,2.056,0,1,1-2.057-2.056A2.057,2.057,0,0,1,115.042,189.8Zm0,0" transform="translate(-84.197 -142.503)" fill="#fff"/>
    <path id="Path_1477" data-name="Path 1477" d="M128.677,276.616a12.254,12.254,0,0,0,15.245,0,2.041,2.041,0,0,0,.012-2.879,2.07,2.07,0,0,0-2.895-.062,8.333,8.333,0,0,1-9.455.033,2.056,2.056,0,0,0-2.908,2.908Zm0,0" transform="translate(-97.229 -207.3)" fill="#fff"/>
    <path id="Path_1478" data-name="Path 1478" d="M0,98.708v24.676H4.113V108.989h6.169a17.768,17.768,0,0,0,4.113,11.063v3.331h4.113v-4.113a2.053,2.053,0,0,0-.6-1.453,13.588,13.588,0,0,1-3.51-8.828,13.809,13.809,0,0,1,3.51-8.828,2.055,2.055,0,0,0,.6-1.454V94.6H14.394v3.33a18.574,18.574,0,0,0-3.566,6.951H4.113v-6.17a22.706,22.706,0,0,1,18.712-22.28L22.62,90.451a2.056,2.056,0,0,0,1.764,2.066l12.63,1.806v12.609h4.113V94.323l12.63-1.806a2.055,2.055,0,0,0,1.764-2.068l-.205-14.024A22.71,22.71,0,0,1,74.028,98.708v6.169H67.312a18.574,18.574,0,0,0-3.566-6.951V94.6H59.634v4.113a2.059,2.059,0,0,0,.6,1.453,13.586,13.586,0,0,1,3.51,8.828,13.813,13.813,0,0,1-3.51,8.828,2.057,2.057,0,0,0-.6,1.453v4.113h4.113v-3.331a17.768,17.768,0,0,0,4.113-11.063h6.169v14.394h4.113V98.708A26.845,26.845,0,0,0,58.2,72.861a28.694,28.694,0,0,0,9.55-19.393h.1a8.226,8.226,0,1,0,0-16.451A28.768,28.768,0,0,0,54.2,12.573a15.4,15.4,0,0,0-30.269,0A28.768,28.768,0,0,0,10.281,37.017a8.226,8.226,0,1,0,0,16.451h.105a28.681,28.681,0,0,0,9.559,19.393A26.846,26.846,0,0,0,0,98.708Zm26.891-18.67,7.481,9.751L26.764,88.7Zm4.479-.915a28.057,28.057,0,0,0,15.4,0L39.071,89.158Zm12.4,10.666,7.477-9.75L51.38,88.7Zm28.2-44.547a4.113,4.113,0,0,1-4.113,4.113V41.13a4.113,4.113,0,0,1,4.113,4.113ZM29.146,10.007a11.31,11.31,0,0,1,19.848,0c-.144-.054-.295-.088-.441-.139-.54-.189-1.083-.366-1.645-.524-.325-.093-.65-.171-.979-.253-.512-.125-1.028-.251-1.549-.35-.448-.084-.9-.141-1.349-.205-.411-.057-.833-.13-1.259-.169-.894-.087-1.8-.137-2.7-.137s-1.81.051-2.71.137c-.426.039-.84.111-1.259.169-.451.064-.9.121-1.349.205-.522.1-1.029.225-1.549.35-.329.082-.654.16-.979.253-.555.158-1.1.335-1.645.524-.139.051-.29.086-.434.139ZM14.394,37.017a24.676,24.676,0,0,1,49.352,0V48.708L41.227,42.45A14.213,14.213,0,0,1,30.845,28.792a2.056,2.056,0,0,0-4.113,0A10.294,10.294,0,0,1,16.451,39.073H14.394ZM6.169,45.243a4.113,4.113,0,0,1,4.113-4.113v8.226a4.113,4.113,0,0,1-4.113-4.113Zm8.226,6.169V43.186h2.057a14.394,14.394,0,0,0,12.062-6.547,18.318,18.318,0,0,0,10.931,9.543,1.992,1.992,0,0,0-.374,1.116v4.113H37.014a2.056,2.056,0,0,0,0,4.113h2.057a4.113,4.113,0,0,0,4.113-4.113V47.26l20.493,5.693a24.662,24.662,0,0,1-49.283-1.542Zm0,0" transform="translate(0 0)" fill="#fff"/>
    <path id="Path_1479" data-name="Path 1479" d="M187.727,409.605h4.113v4.112h-4.113Zm0,0" transform="translate(-142.487 -310.897)" fill="#fff"/>
  </g>
</svg>
