<svg xmlns="http://www.w3.org/2000/svg" width="49" height="49" viewBox="0 0 49 49">
  <g id="Group_630" data-name="Group 630" transform="translate(-656.988 -654.988)">
    <rect id="beka-tasmagambet-wFcvG2LUbd8-unsplash" width="49" height="49" rx="24.5" transform="translate(656.988 654.988)" fill="#721e6f"/>
    <g id="Outline" transform="translate(665.306 662.971)">
      <path id="Path_1486" data-name="Path 1486" d="M63.845,28.106a3.632,3.632,0,0,0,3.623,3.442.518.518,0,0,0,.518-.518v-8.81a3.631,3.631,0,0,0-3.514-3.625A5.722,5.722,0,0,0,59.694,16H58.657a5.707,5.707,0,0,0-5.7,5.7v1.315a2.072,2.072,0,0,0,1.037,3.867h.1a5.142,5.142,0,0,0,2.488,3.45v2.294h-.008l-1.6.149-.056,0a.517.517,0,0,0-.405-.2H51.4a.518.518,0,0,0-.518.518v.888q-.073.072-.141.149h-.9v-.518a.518.518,0,0,0-.518-.518H45.7a.518.518,0,0,0-.5.393l-.161.644h-.891V33.1a.518.518,0,0,0-.518-.518h-3.11A.518.518,0,0,0,40,33.1v5.183a.518.518,0,0,0,.518.518h3.11a.518.518,0,0,0,.518-.518V37.249h1.1l.455,1.136v6.378a2.332,2.332,0,0,0,4.544.739l2.315-3.366a4.442,4.442,0,0,0,.871,2.034l.044,2.934,1.037-.016L54.472,44.5H63.84V47.1h1.037V44.167a4.544,4.544,0,0,0,.078-5.438c-.033-.049-.068-.1-.107-.147l-.05-.31L64.1,34.1l1.112.186a2.076,2.076,0,0,1,1.735,2.049V47.1h1.037V36.336a3.11,3.11,0,0,0-2.6-3.071l-1.831-.306-1.7-.279-.077-.014-.013,0V30.334a5.154,5.154,0,0,0,2.078-2.227ZM43.11,37.767H41.037V33.621H43.11Zm1.037-1.555V35.176h.632l-.1.393a.518.518,0,0,0,.022.318l.13.326Zm17.1-2.65v2.65a2.073,2.073,0,0,1-4.146,0V33.525a1.037,1.037,0,0,0,.518-.894V30.79a5.163,5.163,0,0,0,3.11,0v1.872A1.034,1.034,0,0,0,61.249,33.562Zm3.11-7.715V23.774a1.037,1.037,0,0,1,0,2.073Zm2.591-3.628v8.24a2.6,2.6,0,0,1-2.073-2.539v-1.1a2.072,2.072,0,0,0,.518-3.8V21.7a5.688,5.688,0,0,0-.358-1.982A2.6,2.6,0,0,1,66.949,22.219ZM53.993,21.7a4.67,4.67,0,0,1,4.664-4.664h1.037A4.682,4.682,0,0,1,63.71,19.33a.443.443,0,0,0,.023.044,4.654,4.654,0,0,1,.625,2.327v1.037h-.2l-1.93-3.86a.518.518,0,0,0-.787-.173c-.041.032-4.1,3.255-7.047,3.916q-.209.048-.4.076Zm-1.037,3.11a1.038,1.038,0,0,1,1.037-1.037v2.073a1.038,1.038,0,0,1-1.037-1.037Zm2.073,1.037V23.528A23.591,23.591,0,0,0,61.584,19.9l1.737,3.474v2.469a4.146,4.146,0,1,1-8.292,0Zm-3.11,7.774h2.073v4.146H51.92Zm-1.037,1.555v1.037H49.847V35.176Zm-1.555,9.588a1.3,1.3,0,0,1-2.591,0V38.285a.518.518,0,0,0-.037-.192l-.974-2.436.379-1.518h2.7v4.146a.506.506,0,0,0,0,.052l.516,5.157ZM50.365,43.5v-.03a.507.507,0,0,0,0-.052l-.516-5.157v-.188l.394-.823h.643v1.037a.518.518,0,0,0,.518.518h1.94a4.654,4.654,0,0,0-.628,1.283l-.386.559Zm14.409-2.346a3.478,3.478,0,0,1-.668,2.316H54.2a3.449,3.449,0,0,1-.6-2.657l.008-.037c.016-.075.032-.152.049-.221.006-.021.012-.042.017-.064l0-.008.006-.022a3.627,3.627,0,0,1,.707-1.323.517.517,0,0,0,.115-.251l.013-.082a.518.518,0,0,0,.512-.518V35.7l.316-1.916.721-.066v2.494a3.11,3.11,0,1,0,6.219,0V33.8l.737.121.752,4.519.073.446a.518.518,0,0,0,.118.254,1.8,1.8,0,0,1,.133.173l.013.018A3.486,3.486,0,0,1,64.774,41.152Z" transform="translate(-40 -16)" fill="#721e6f"/>
      <path id="Path_1487" data-name="Path 1487" d="M289.555,128.777a.777.777,0,1,0-.777.777A.777.777,0,0,0,289.555,128.777Z" transform="translate(-271.934 -120.744)" fill="#721e6f"/>
      <path id="Path_1488" data-name="Path 1488" d="M360.777,129.555a.777.777,0,1,0-.777-.777A.777.777,0,0,0,360.777,129.555Z" transform="translate(-339.27 -120.744)" fill="#721e6f"/>
      <path id="Path_1489" data-name="Path 1489" d="M312,170.574h.965a4.847,4.847,0,0,0,2.406-.589l-.522-.9a3.859,3.859,0,0,1-1.884.448H312Z" transform="translate(-294.379 -159.172)" fill="#721e6f"/>
    </g>
  </g>
</svg>
