<svg xmlns="http://www.w3.org/2000/svg" width="105" height="106.455" viewBox="0 0 105 106.455">
  <g id="english" transform="translate(-3.5)">
    <g id="Group_293" data-name="Group 293" transform="translate(46.124 44.391)">
      <g id="Group_292" data-name="Group 292">
        <path id="Path_1312" data-name="Path 1312" d="M218.376,213.5a9.876,9.876,0,1,0,9.876,9.876A9.888,9.888,0,0,0,218.376,213.5Zm0,16.634a6.757,6.757,0,0,1-1.559-13.331v8.133h5.718v-3.119h-2.6V216.8a6.757,6.757,0,0,1-1.559,13.331Z" transform="translate(-208.5 -213.5)" fill="#fff"/>
      </g>
    </g>
    <g id="Group_295" data-name="Group 295" transform="translate(38.847)">
      <g id="Group_294" data-name="Group 294">
        <path id="Path_1313" data-name="Path 1313" d="M204.688,38.153V32.96l-4.782-6.446V13.986l-7.693-9.149V0h-3.119V4.837L181.4,13.986V26.514l-4.782,6.446v5.193H173.5V70.381h3.119v36.074h3.119v-2.807h21.832v2.807h3.119V70.381h3.119V38.153ZM190.653,7.829,195,13h-8.689Zm-6.134,8.285h12.267V25.47H184.52Zm-4.782,17.877h0l4.008-5.4h13.817l4.007,5.4v4.163H179.737V33.991Zm21.832,66.539H179.738V87.015h21.832Zm0-16.634H179.738V70.381h21.832Zm3.119-39.5h-3.015V47.51h3.015V61.025h-3.015v3.119h3.015v3.119H176.619V64.144h3.015V61.025h-3.015V47.51h3.015V44.391h-3.015V41.272h28.069Z" transform="translate(-173.5)" fill="#fff"/>
      </g>
    </g>
    <g id="Group_297" data-name="Group 297" transform="translate(70.035 8.421)">
      <g id="Group_296" data-name="Group 296">
        <path id="Path_1314" data-name="Path 1314" d="M354.22,45.8q-.149,0-.3.006a10.4,10.4,0,0,0-16.675-2,7.722,7.722,0,0,0-1.406-.129,7.8,7.8,0,0,0-7.485,5.761,5.978,5.978,0,0,0,1.122,11.85H354.22a7.745,7.745,0,1,0,0-15.49Zm0,12.371H329.478a2.859,2.859,0,1,1,0-5.718c.044,0,.088,0,.131,0l1.5.066.126-1.493a4.625,4.625,0,0,1,6.081-3.991l1.062.357.677-.893a7.278,7.278,0,0,1,12.516,1.58l.493,1.175,1.25-.249a4.626,4.626,0,1,1,.91,9.162Z" transform="translate(-323.5 -40.5)" fill="#fff"/>
      </g>
    </g>
    <g id="Group_299" data-name="Group 299" transform="translate(3.5 25.678)">
      <g id="Group_298" data-name="Group 298" transform="translate(0)">
        <path id="Path_1315" data-name="Path 1315" d="M24.353,128.6a7.8,7.8,0,0,0-13.131-2.5A6.44,6.44,0,0,0,10.05,126a6.549,6.549,0,1,0,0,13.1H23.273a5.3,5.3,0,0,0,1.08-10.494Zm-1.08,7.375H10.05a3.431,3.431,0,1,1,1.214-6.635l1.171.444.687-1.047a4.678,4.678,0,0,1,8.5,1.627l.261,1.295,1.321-.045.1-.005a2.183,2.183,0,0,1-.027,4.366Z" transform="translate(-3.5 -123.5)" fill="#fff"/>
      </g>
    </g>
    <g id="Group_301" data-name="Group 301" transform="translate(19.302 6.757)">
      <g id="Group_300" data-name="Group 300">
        <path id="Path_1316" data-name="Path 1316" d="M95.2,34.579a5.618,5.618,0,0,0-.88.069,6.758,6.758,0,0,0-11.232,2.139,4.678,4.678,0,0,0,1.093,9.228H95.2a5.718,5.718,0,1,0,0-11.436Zm0,8.317H84.178a1.559,1.559,0,0,1-.029-3.119l.082,0,1.318.042.261-1.292a3.639,3.639,0,0,1,6.611-1.265l.687,1.047,1.171-.444A2.6,2.6,0,1,1,95.2,42.9Z" transform="translate(-79.5 -32.5)" fill="#fff"/>
      </g>
    </g>
    <g id="Group_303" data-name="Group 303" transform="translate(49.762 31.916)">
      <g id="Group_302" data-name="Group 302">
        <rect id="Rectangle_203" data-name="Rectangle 203" width="3.119" height="3.119" fill="#fff"/>
      </g>
    </g>
    <g id="Group_305" data-name="Group 305" transform="translate(56 31.916)">
      <g id="Group_304" data-name="Group 304">
        <rect id="Rectangle_204" data-name="Rectangle 204" width="6.238" height="3.119" fill="#fff"/>
      </g>
    </g>
    <g id="Group_307" data-name="Group 307" transform="translate(48.203 89.406)">
      <g id="Group_306" data-name="Group 306">
        <rect id="Rectangle_205" data-name="Rectangle 205" width="3" height="9" transform="translate(0.297 -0.178)" fill="#fff"/>
      </g>
    </g>
    <g id="Group_309" data-name="Group 309" transform="translate(54.441 89.406)">
      <g id="Group_308" data-name="Group 308">
        <rect id="Rectangle_206" data-name="Rectangle 206" width="3" height="9" transform="translate(0.059 -0.178)" fill="#fff"/>
      </g>
    </g>
    <g id="Group_311" data-name="Group 311" transform="translate(60.678 89.406)">
      <g id="Group_310" data-name="Group 310">
        <rect id="Rectangle_207" data-name="Rectangle 207" width="3" height="9" transform="translate(-0.178 -0.178)" fill="#fff"/>
      </g>
    </g>
    <g id="Group_313" data-name="Group 313" transform="translate(48.203 72.772)">
      <g id="Group_312" data-name="Group 312">
        <rect id="Rectangle_208" data-name="Rectangle 208" width="3" height="8" transform="translate(0.297 0.455)" fill="#fff"/>
      </g>
    </g>
    <g id="Group_315" data-name="Group 315" transform="translate(54.441 72.772)">
      <g id="Group_314" data-name="Group 314">
        <rect id="Rectangle_209" data-name="Rectangle 209" width="3" height="8" transform="translate(0.059 0.455)" fill="#fff"/>
      </g>
    </g>
    <g id="Group_317" data-name="Group 317" transform="translate(60.678 72.772)">
      <g id="Group_316" data-name="Group 316">
        <rect id="Rectangle_210" data-name="Rectangle 210" width="3" height="8" transform="translate(-0.178 0.455)" fill="#fff"/>
      </g>
    </g>
    <g id="Group_319" data-name="Group 319" transform="translate(87.396 19.856)">
      <g id="Group_318" data-name="Group 318">
        <rect id="Rectangle_211" data-name="Rectangle 211" width="3.119" height="3.119" fill="#fff"/>
      </g>
    </g>
    <g id="Group_321" data-name="Group 321" transform="translate(93.634 19.856)">
      <g id="Group_320" data-name="Group 320">
        <rect id="Rectangle_212" data-name="Rectangle 212" width="7.485" height="3.119" fill="#fff"/>
      </g>
    </g>
    <g id="Group_323" data-name="Group 323" transform="translate(81.158 19.856)">
      <g id="Group_322" data-name="Group 322">
        <rect id="Rectangle_213" data-name="Rectangle 213" width="3.119" height="3.119" fill="#fff"/>
      </g>
    </g>
    <g id="Group_325" data-name="Group 325" transform="translate(15.559 31.916)">
      <g id="Group_324" data-name="Group 324">
        <rect id="Rectangle_214" data-name="Rectangle 214" width="3.119" height="3.119" fill="#fff"/>
      </g>
    </g>
    <g id="Group_327" data-name="Group 327" transform="translate(52.881 19.233)">
      <g id="Group_326" data-name="Group 326">
        <rect id="Rectangle_215" data-name="Rectangle 215" width="6.238" height="3.119" fill="#fff"/>
      </g>
    </g>
  </g>
</svg>
