<svg xmlns="http://www.w3.org/2000/svg" width="89.542" height="89.501" viewBox="0 0 89.542 89.501">
  <g id="general-subjects" transform="translate(0.002 -0.434)">
    <path id="Path_1412" data-name="Path 1412" d="M87.793,240.633a5.906,5.906,0,0,0-8.393,0L62,258.01l-.034.033a5.934,5.934,0,0,0-5.355-8.488H25.455a1.482,1.482,0,0,0-1.049.435l-5.15,5.149-3.644-6.311a1.483,1.483,0,0,0-2.026-.543L.74,255.7A1.483,1.483,0,0,0,.2,257.729l14.835,25.7a1.484,1.484,0,0,0,2.027.543l12.847-7.418a1.483,1.483,0,0,0,.543-2.026l-2.424-4.2H63.418a7.471,7.471,0,0,0,5.247-2.171l19.121-19.137a5.888,5.888,0,0,0,0-8.385ZM16.86,280.655,3.508,257.53,13.786,251.6l13.352,23.125Zm68.826-33.737L66.564,266.056a4.485,4.485,0,0,1-3.145,1.3H26.312L25.7,266.3,20.8,257.8l5.273-5.273h30.54a2.967,2.967,0,1,1,0,5.934H40.29v2.967h20.65a4.428,4.428,0,0,0,3.155-1.31L81.5,242.73a3.007,3.007,0,0,1,4.19,0,2.924,2.924,0,0,1,0,4.191Zm0,0" transform="translate(0 -194.231)" fill="#fff"/>
    <path id="Path_1413" data-name="Path 1413" d="M128.7,50.874h32.637a1.484,1.484,0,0,0,1.484-1.484V1.918A1.484,1.484,0,0,0,161.336.434H128.7a7.425,7.425,0,0,0-7.418,7.418v35.6a7.411,7.411,0,0,0,7.418,7.418Zm0-2.967a4.451,4.451,0,1,1,0-8.9h31.154v2.967H128.7V44.94h31.154v2.967Zm31.154-11.868h-29.67V3.4h29.67Zm-35.6-28.187a4.449,4.449,0,0,1,2.967-4.177V36.186c-.106.022-.2.067-.306.094a7.483,7.483,0,0,0-.89.275c-.148.058-.288.12-.43.187a7.484,7.484,0,0,0-.786.427c-.125.078-.251.148-.369.236-.061.041-.128.072-.185.117Zm0,0" transform="translate(-98.793)" fill="#fff"/>
    <path id="Path_1414" data-name="Path 1414" d="M194.765,60.3h17.8a1.484,1.484,0,0,0,1.484-1.484v-8.9a1.484,1.484,0,0,0-1.484-1.484h-17.8a1.484,1.484,0,0,0-1.484,1.484v8.9A1.484,1.484,0,0,0,194.765,60.3Zm1.484-8.9h14.835v5.934H196.248Zm0,0" transform="translate(-157.441 -39.099)" fill="#fff"/>
  </g>
</svg>
