<svg xmlns="http://www.w3.org/2000/svg" width="84.509" height="84.469" viewBox="0 0 84.509 84.469">
  <g id="general-education-disciplines" transform="translate(0.002 -0.434)">
    <path id="Path_1490" data-name="Path 1490" d="M166.146,248.114a4.175,4.175,0,0,0-5.936,0l-16.423,16.409a2.811,2.811,0,0,1-1.988.827H137.71a4.2,4.2,0,0,0,0-8.4h-29.4l-6.147,6.146,6.147,10.655h35.829a5.606,5.606,0,0,0,3.962-1.638l18.047-18.062a4.157,4.157,0,0,0,0-5.936Zm0,0" transform="translate(-84.283 -203.31)" fill="none"/>
    <path id="Path_1491" data-name="Path 1491" d="M8,303.513l14,24.251,12.125-7-14-24.251Zm0,0" transform="translate(-6.602 -244.26)" fill="none"/>
    <path id="Path_1492" data-name="Path 1492" d="M134.882,200.434a5.6,5.6,0,1,0,0,11.2h30.8v-11.2Zm0,0" transform="translate(-106.657 -164.997)" fill="none"/>
    <path id="Path_1494" data-name="Path 1494" d="M161.281,8.434h30.8v33.6h-30.8Zm0,0" transform="translate(-133.056 -6.6)" fill="none"/>
    <path id="Path_1496" data-name="Path 1496" d="M129.281,14.034v33.6a5.6,5.6,0,0,1,5.6-5.6V8.434a5.6,5.6,0,0,0-5.6,5.6Zm0,0" transform="translate(-106.657 -6.6)" fill="none"/>
    <path id="Path_1497" data-name="Path 1497" d="M201.281,56.434h16.8v8.4h-16.8Zm0,0" transform="translate(-166.056 -46.199)" fill="none"/>
    <path id="Path_1498" data-name="Path 1498" d="M82.858,240.534a5.574,5.574,0,0,0-7.921,0l-16.423,16.4-.032.031a5.6,5.6,0,0,0-5.054-8.011h-29.4a1.4,1.4,0,0,0-.99.41l-4.86,4.859-3.439-5.956a1.4,1.4,0,0,0-1.912-.512l-12.125,7a1.4,1.4,0,0,0-.513,1.912l14,24.251a1.4,1.4,0,0,0,1.913.512l12.125-7a1.4,1.4,0,0,0,.512-1.912l-2.288-3.962h33.4a7.051,7.051,0,0,0,4.952-2.049l18.046-18.061a5.557,5.557,0,0,0,0-7.913ZM15.912,278.307l-12.6-21.825,9.7-5.6,12.6,21.825Zm64.957-31.841L62.822,264.528a4.233,4.233,0,0,1-2.968,1.228H24.833l-.576-1-4.63-8.025,4.977-4.977H53.427a2.8,2.8,0,1,1,0,5.6h-15.4v2.8h19.49a4.179,4.179,0,0,0,2.978-1.237l16.428-16.4a2.838,2.838,0,0,1,3.954,0,2.76,2.76,0,0,1,0,3.955Zm0,0" transform="translate(0 -196.716)" fill="#fff"/>
    <path id="Path_1499" data-name="Path 1499" d="M128.282,48.038h30.8a1.4,1.4,0,0,0,1.4-1.4V1.834a1.4,1.4,0,0,0-1.4-1.4h-30.8a7.008,7.008,0,0,0-7,7v33.6a6.994,6.994,0,0,0,7,7Zm0-2.8a4.2,4.2,0,0,1,0-8.4h29.4v2.8h-29.4v2.8h29.4v2.8Zm29.4-11.2h-28V3.234h28Zm-33.6-26.6a4.2,4.2,0,0,1,2.8-3.943V34.176c-.1.021-.191.064-.289.089a7.064,7.064,0,0,0-.84.26c-.14.055-.271.113-.406.176a7.067,7.067,0,0,0-.742.4c-.118.073-.237.14-.349.223-.057.039-.121.068-.175.111Zm0,0" transform="translate(-100.057)" fill="#fff"/>
    <path id="Path_1500" data-name="Path 1500" d="M194.681,59.635h16.8a1.4,1.4,0,0,0,1.4-1.4v-8.4a1.4,1.4,0,0,0-1.4-1.4h-16.8a1.4,1.4,0,0,0-1.4,1.4v8.4A1.4,1.4,0,0,0,194.681,59.635Zm1.4-8.4h14v5.6h-14Zm0,0" transform="translate(-159.456 -39.599)" fill="#fff"/>
  </g>
</svg>
