<svg xmlns="http://www.w3.org/2000/svg" width="90.285" height="90.285" viewBox="0 0 90.285 90.285">
  <g id="geofraphy" transform="translate(0 -0.001)">
    <g id="Group_353" data-name="Group 353" transform="translate(65.004 80.946)">
      <g id="Group_352" data-name="Group 352">
        <path id="Path_1362" data-name="Path 1362" d="M371.986,459.914a1.764,1.764,0,0,0-2.41-.64l-.068.039a1.763,1.763,0,1,0,1.77,3.05l.068-.039A1.764,1.764,0,0,0,371.986,459.914Z" transform="translate(-368.63 -459.036)" fill="#fff"/>
      </g>
    </g>
    <g id="Group_355" data-name="Group 355" transform="translate(0 0.001)">
      <g id="Group_354" data-name="Group 354" transform="translate(0)">
        <path id="Path_1363" data-name="Path 1363" d="M84.236,22.586A45.131,45.131,0,0,0,1.558,33.471,45.139,45.139,0,0,0,61.3,87.3a1.763,1.763,0,1,0-1.265-3.292,41.338,41.338,0,0,1-39.779-5.467l1.58-8.246.761-.247a5.492,5.492,0,0,0,3.522-6.912l-.559-1.719a1.947,1.947,0,0,1,0-1.216A5.486,5.486,0,0,0,21.4,53.11l-3.98-.778L9.738,46.494a1.764,1.764,0,0,0-1.612-.273l-4.5,1.46a41.57,41.57,0,0,1-.006-4.815c.177.165.293.278.364.351A1.848,1.848,0,0,0,5.71,44.1a25.613,25.613,0,0,0,3.16-.36c1.488-.22,2.967-.468,2.982-.47a1.763,1.763,0,0,0,1.165-2.732l-2.162-3.171,3.1-2.214a1.765,1.765,0,0,0,.5-.558l4.8-8.38,1.935-2.073a7.448,7.448,0,0,0,1.437-7.9,8.11,8.11,0,0,0-3.212-3.783,41.552,41.552,0,0,1,25.251-8.9L41.52,7.51,29.844,11.6a1.762,1.762,0,0,0-1.047.991l-3.261,7.9a1.764,1.764,0,0,0,.195,1.7l4.763,6.671a16.759,16.759,0,0,0-2.139,2.654c-.348.494-.676.96-.9,1.221-.2.227-.395.45-.591.67a16.5,16.5,0,0,0-2.836,3.936A10.508,10.508,0,0,0,24.9,47.971a9.9,9.9,0,0,0,9.344,4.01,13.728,13.728,0,0,0,1.722-.347c1.512-.374,1.991-.411,2.476.042.236.221.258.263.253,1.012a6.854,6.854,0,0,0,.157,1.747,5.572,5.572,0,0,0,1.49,2.434,3.951,3.951,0,0,1,.639.816c.55,1.318.311,2.048-.214,3.647q-.067.205-.137.42c-.8,2.468.314,4.916,1.294,7.075.318.7.619,1.363.816,1.948,1.585,4.7,2.774,5.782,3.728,6.216a3.675,3.675,0,0,0,1.539.327c2.542,0,5.194-2.36,6.413-3.857a5.419,5.419,0,0,0,1.091-2.567,2.811,2.811,0,0,1,.226-.788,4.62,4.62,0,0,1,.578-.744,6.117,6.117,0,0,0,1.442-2.4,3.88,3.88,0,0,1,1.2-1.878c.121-.129.251-.267.389-.418,2.349-2.556,1.744-4.508,1.1-6.575-.539-1.739.4-2.852,2.684-4.974a19.046,19.046,0,0,0,2.8-3.015c.346-.5,1.4-2.023.746-3.532-.638-1.479-2.259-1.728-3.561-1.928a5.843,5.843,0,0,1-1.539-.36c-1.091-.713-1.758-2.2-2.4-3.642-.129-.287-.255-.569-.384-.844-.229-.49-.458-1.083-.7-1.71a14.793,14.793,0,0,0-2.606-4.854c-1.113-1.179-3.21-1.747-5.06-2.248-.622-.168-1.21-.327-1.6-.47a1.761,1.761,0,0,0-1.013-.063,4.576,4.576,0,0,0-1.88.778,2.19,2.19,0,0,0-.628.845,20.169,20.169,0,0,1-2.08-1.266l-.034-.023a2.5,2.5,0,0,0-.157-1.7c-.985-2.084-4.255-1.92-4.9-1.866-.366.031-.83.047-1.32.064-.77.027-1.622.058-2.464.153l.043-.121a4.509,4.509,0,0,1,4.234-2.979h1a1.763,1.763,0,0,0,0-3.526h-1A8.049,8.049,0,0,0,31.8,24.626l-2.63-3.684,2.588-6.272,11.41-4a1.764,1.764,0,0,0,.8-.565l5.072-6.362A41.583,41.583,0,0,1,81.182,24.349a41.149,41.149,0,0,1,4.155,10.093l-.748.667a4.71,4.71,0,0,0-1.569,3.426c0,.014,0,.028,0,.042L81.8,35.228a4.4,4.4,0,0,0-.794-1.362l-2.172-2.543a4.419,4.419,0,0,0-3.365-1.551H72.812a2.554,2.554,0,0,0-2.125,3.971l.269.4A19.542,19.542,0,0,1,65.134,37.6l-3.645-6.982V29.064a1.762,1.762,0,0,0-.546-1.275l-3.282-3.133a1.766,1.766,0,0,0-.633-.388l-2.955-1.038A1.763,1.763,0,1,0,52.9,26.556l2.6.913,2.462,2.35v1.236a1.764,1.764,0,0,0,.2.816l4.563,8.741a1.762,1.762,0,0,0,2.173.838l1.329-.49a23.077,23.077,0,0,0,8.274-5.3,1.763,1.763,0,0,0,.22-2.225l-.094-.141h.842a.9.9,0,0,1,.683.315l2.172,2.543a.9.9,0,0,1,.161.276l2.4,6.592a1.763,1.763,0,0,0,2.9.644l1.141-1.141a5.5,5.5,0,0,0,1.458-2.651,41.755,41.755,0,0,1-15.5,37.974,1.763,1.763,0,1,0,2.177,2.774A45.14,45.14,0,0,0,84.236,22.586ZM8.338,49.86l7.271,5.528a1.762,1.762,0,0,0,.729.327l4.382.856A1.959,1.959,0,0,1,22.206,59.1a5.451,5.451,0,0,0,0,3.4l.559,1.719A1.962,1.962,0,0,1,21.5,66.7l-1.752.569a1.763,1.763,0,0,0-1.187,1.345l-1.41,7.362A42.07,42.07,0,0,1,9.12,65.954,41.386,41.386,0,0,1,4,51.27ZM18.614,21.736,16.54,23.958a1.77,1.77,0,0,0-.241.327l-4.71,8.224L7.4,35.5a1.763,1.763,0,0,0-.431,2.428l1.566,2.3c-.9.134-1.712.245-2.251.3-.1-.1-.212-.2-.324-.3-.419-.389-1-.909-1.87-1.669A41.678,41.678,0,0,1,16.512,14.97a4.585,4.585,0,0,1,2.857,2.616A3.913,3.913,0,0,1,18.614,21.736Zm14.377,9.636a11.307,11.307,0,0,1,3.945-.555c.534-.019,1.039-.037,1.49-.075a4.8,4.8,0,0,1,.751,0,1.763,1.763,0,0,0,.811,2.194c.331.177.791.484,1.279.809,1.378.919,2.94,1.96,4.408,2.053a2.926,2.926,0,0,0,2.4-1c.025-.026.049-.051.075-.075a1.889,1.889,0,0,0,.472-.578c.282.081.578.161.882.243a11.741,11.741,0,0,1,3.417,1.264A12.516,12.516,0,0,1,54.8,39.363c.265.686.515,1.334.8,1.934.121.258.239.523.36.792.814,1.815,1.736,3.872,3.692,5.151a7.289,7.289,0,0,0,2.934.894l.384.06a17.05,17.05,0,0,1-2.237,2.348c-2.183,2.033-4.9,4.563-3.648,8.6.591,1.906.618,2.112-.332,3.145-.129.141-.25.269-.363.39A7.246,7.246,0,0,0,54.4,65.9a2.752,2.752,0,0,1-.718,1.121,7.873,7.873,0,0,0-.986,1.306,5.714,5.714,0,0,0-.638,1.873,2.159,2.159,0,0,1-.368,1.034A10.279,10.279,0,0,1,49.458,73.2a2.909,2.909,0,0,1-1.478.588c-.188-.2-.87-1.085-1.9-4.141-.254-.754-.606-1.53-.947-2.28-.751-1.654-1.527-3.365-1.15-4.533q.067-.207.132-.4c.6-1.839,1.173-3.576.118-6.1A6.359,6.359,0,0,0,42.951,54.5a3.278,3.278,0,0,1-.673-.895,3.812,3.812,0,0,1-.058-.892,4.373,4.373,0,0,0-1.369-3.61c-1.951-1.827-4.227-1.264-5.733-.891a11.061,11.061,0,0,1-1.287.268,6.335,6.335,0,0,1-6.07-2.566,6.981,6.981,0,0,1-.547-7.058,13.389,13.389,0,0,1,2.283-3.1c.2-.23.411-.463.618-.7.344-.4.722-.933,1.122-1.5A12.747,12.747,0,0,1,32.991,31.371Z" transform="translate(0 -0.001)" fill="#fff"/>
      </g>
    </g>
    <g id="Group_357" data-name="Group 357" transform="translate(61.745 56.202)">
      <g id="Group_356" data-name="Group 356">
        <path id="Path_1364" data-name="Path 1364" d="M360.708,323.22l-.848-3.2a1.763,1.763,0,0,0-3.254-.388c-.193.356-.367.734-.536,1.1a7.574,7.574,0,0,1-.88,1.6,3.893,3.893,0,0,1-1.035.614,4.848,4.848,0,0,0-2.937,2.854,5.166,5.166,0,0,0-.117,2.488,1.6,1.6,0,0,1-.045,1.039l-.018.041c-.561,1.317-1.606,3.769-.141,5.854a3.673,3.673,0,0,0,3,1.87,2.856,2.856,0,0,0,.47-.038c1.8-.294,3.151-2.165,4.256-5.888l2.074-6.99A1.763,1.763,0,0,0,360.708,323.22Zm-5.469,6.941a10.7,10.7,0,0,1-1.349,3.178c-.033-.042-.069-.09-.108-.145-.337-.48.167-1.662.5-2.445l.018-.041a4.962,4.962,0,0,0,.289-2.938,1.848,1.848,0,0,1-.007-.915c.069-.22.482-.433,1.1-.734.276-.133.58-.28.886-.457Z" transform="translate(-350.15 -318.711)" fill="#fff"/>
      </g>
    </g>
    <g id="Group_359" data-name="Group 359" transform="translate(45.15 20.819)">
      <g id="Group_358" data-name="Group 358">
        <path id="Path_1365" data-name="Path 1365" d="M258.51,118.2l-.119-.042a1.763,1.763,0,1,0-1.167,3.328l.119.042a1.763,1.763,0,1,0,1.167-3.328Z" transform="translate(-256.044 -118.059)" fill="#fff"/>
      </g>
    </g>
  </g>
</svg>
