<svg xmlns="http://www.w3.org/2000/svg" width="97.872" height="83.333" viewBox="0 0 97.872 83.333">
  <path id="history" d="M12.28,38.188C5.2,38.751-.611,44.952.051,52.236c.568,6.252,6.1,11.382,12.564,10.7,5.424-.575,9.874-5.433,9.154-11.088-.585-4.595-4.782-8.371-9.63-7.6-3.763.6-6.875,4.157-6.017,8.2a5.95,5.95,0,0,0,2.352,3.6,5.106,5.106,0,0,0,4.5.768,4.384,4.384,0,0,0,2.5-2,3.664,3.664,0,0,0-.007-3.718,2.56,2.56,0,0,0-2.089-1.322,2.329,2.329,0,0,0-1.741.33,2.512,2.512,0,0,0-1.02,1.964,1.811,1.811,0,0,0,.521,1.295,1.68,1.68,0,0,1-.541-.258,2.521,2.521,0,0,1-.925-1.414,3.492,3.492,0,0,1,3.042-3.873c2.662-.424,5.125,1.794,5.467,4.478.446,3.5-2.443,6.657-5.942,7.028-4.339.461-8.18-3.105-8.572-7.42-.47-5.169,3.774-9.7,8.907-10.107l.137-.008H85.168l.137.008c5.133.408,9.378,4.937,8.907,10.107-.392,4.316-4.234,7.881-8.572,7.42-3.5-.371-6.388-3.524-5.942-7.028a5.021,5.021,0,0,1,5.467-4.478A3.492,3.492,0,0,1,88.205,51.7a2.52,2.52,0,0,1-.925,1.414,1.684,1.684,0,0,1-.54.258,1.812,1.812,0,0,0,.52-1.295,2.512,2.512,0,0,0-1.019-1.964,2.328,2.328,0,0,0-1.741-.33,2.563,2.563,0,0,0-2.09,1.322,3.664,3.664,0,0,0-.007,3.718,4.381,4.381,0,0,0,2.5,2,5.105,5.105,0,0,0,4.5-.768,5.95,5.95,0,0,0,2.352-3.6c.859-4.047-2.253-7.6-6.016-8.2-4.847-.771-9.045,3.005-9.63,7.6-.72,5.656,3.73,10.513,9.154,11.088,6.468.686,11.995-4.443,12.563-10.7.662-7.283-5.15-13.484-12.228-14.047a3.11,3.11,0,0,0-.424-.016H12.7a3.286,3.286,0,0,0-.425.017ZM5.457,20.063a1.812,1.812,0,0,0-1.812,1.812V25.5a1.81,1.81,0,0,0,.531,1.281l7.246,7.246a1.811,1.811,0,0,0,1.281.531H85.168a1.81,1.81,0,0,0,1.281-.531l7.246-7.246a1.811,1.811,0,0,0,.531-1.281V21.875a1.812,1.812,0,0,0-1.812-1.812Zm1.812,3.623H90.6v1.061l-6.186,6.186H13.454L7.269,24.747ZM27.2,49.049a1.812,1.812,0,0,0-1.812,1.812v50.725a1.812,1.812,0,0,0,2.817,1.507l10.3-6.871a1.812,1.812,0,0,0,.807-1.476l.564-32.985v-.03c0-1.188,3.644-1.222,3.623-.033V90.715a1.812,1.812,0,0,0,2.817,1.507l10.87-7.246a1.812,1.812,0,0,0,.807-1.507V61.73c0-1.21,3.623-1.21,3.623,0V79.846a1.812,1.812,0,0,0,2.622,1.62l7.246-3.623a1.812,1.812,0,0,0,1-1.62V50.86a1.812,1.812,0,0,0-1.812-1.812H27.2Zm1.812,3.623H68.863V75.1L65.24,76.914V61.73c0-6.039-10.87-6.039-10.87,0V82.5l-7.246,4.831V61.762c.108-6.059-10.869-6.092-10.869-.032V61.7l-.548,32.036-6.7,4.466V52.672Z" transform="translate(0 -20.063)" fill="#fff"/>
</svg>
