<svg xmlns="http://www.w3.org/2000/svg" width="92.029" height="92.029" viewBox="0 0 92.029 92.029">
  <g id="informatics" transform="translate(-2 -2)">
    <path id="Path_1369" data-name="Path 1369" d="M61.819,2H6.6A4.6,4.6,0,0,0,2,6.6V43.413a4.6,4.6,0,0,0,4.6,4.6H28.661l-4.6,9.2h-.586a4.6,4.6,0,1,0,0,9.2H44.947a4.6,4.6,0,1,0,0-9.2h-.586l-4.6-9.2H61.819a4.6,4.6,0,0,0,4.6-4.6V6.6A4.6,4.6,0,0,0,61.819,2ZM46.481,61.819a1.534,1.534,0,0,1-1.534,1.534H23.474a1.534,1.534,0,0,1,0-3.068H44.947A1.534,1.534,0,0,1,46.481,61.819Zm-5.549-4.6H27.489l4.6-9.2H36.33Zm22.421-13.8a1.534,1.534,0,0,1-1.534,1.534H6.6a1.534,1.534,0,0,1-1.534-1.534V6.6A1.534,1.534,0,0,1,6.6,5.068H61.819A1.534,1.534,0,0,1,63.353,6.6Z" transform="translate(0)" fill="#fff"/>
    <path id="Path_1370" data-name="Path 1370" d="M40.6,6H36V9.068h3.068v3.068h3.068v-4.6A1.534,1.534,0,0,0,40.6,6Z" transform="translate(18.15 2.135)" fill="#fff"/>
    <path id="Path_1371" data-name="Path 1371" d="M38,11h3.068v3.068H38Z" transform="translate(19.218 4.804)" fill="#fff"/>
    <path id="Path_1372" data-name="Path 1372" d="M62.819,46H4.534A1.534,1.534,0,0,0,3,47.534V69.007a1.534,1.534,0,0,0,1.534,1.534H62.819a1.534,1.534,0,0,0,1.534-1.534V47.534A1.534,1.534,0,0,0,62.819,46ZM61.285,67.474H6.068V49.068H61.285Z" transform="translate(0.534 23.488)" fill="#fff"/>
    <path id="Path_1373" data-name="Path 1373" d="M69.007,2H47.534A1.534,1.534,0,0,0,46,3.534V64.887a1.534,1.534,0,0,0,1.534,1.534H69.007a1.534,1.534,0,0,0,1.534-1.534V3.534A1.534,1.534,0,0,0,69.007,2ZM67.474,63.353H49.068V5.068H67.474Z" transform="translate(23.488)" fill="#fff"/>
    <path id="Path_1374" data-name="Path 1374" d="M62.737,50H56.6A4.6,4.6,0,0,0,52,54.6v9.2a4.6,4.6,0,0,0,4.6,4.6h6.135a4.6,4.6,0,0,0,4.6-4.6V54.6a4.6,4.6,0,0,0-4.6-4.6Zm1.534,4.6v1.534H61.2V53.068h1.534A1.534,1.534,0,0,1,64.271,54.6ZM56.6,53.068h1.534v3.068H55.068V54.6A1.534,1.534,0,0,1,56.6,53.068Zm6.135,12.271H56.6A1.534,1.534,0,0,1,55.068,63.8V59.2h9.2v4.6A1.534,1.534,0,0,1,62.737,65.338Z" transform="translate(26.691 25.623)" fill="#fff"/>
    <path id="Path_1375" data-name="Path 1375" d="M7,50h6.135v3.068H7Z" transform="translate(2.669 25.623)" fill="#fff"/>
    <path id="Path_1376" data-name="Path 1376" d="M7,56h6.135v3.068H7Z" transform="translate(2.669 28.826)" fill="#fff"/>
    <path id="Path_1377" data-name="Path 1377" d="M13,50h6.135v3.068H13Z" transform="translate(5.872 25.623)" fill="#fff"/>
    <path id="Path_1378" data-name="Path 1378" d="M13,56h6.135v3.068H13Z" transform="translate(5.872 28.826)" fill="#fff"/>
    <path id="Path_1379" data-name="Path 1379" d="M19,50h6.135v3.068H19Z" transform="translate(9.075 25.623)" fill="#fff"/>
    <path id="Path_1380" data-name="Path 1380" d="M19,56h6.135v3.068H19Z" transform="translate(9.075 28.826)" fill="#fff"/>
    <path id="Path_1381" data-name="Path 1381" d="M25,50h6.135v3.068H25Z" transform="translate(12.278 25.623)" fill="#fff"/>
    <path id="Path_1382" data-name="Path 1382" d="M25,56h6.135v3.068H25Z" transform="translate(12.278 28.826)" fill="#fff"/>
    <path id="Path_1383" data-name="Path 1383" d="M32.534,62.271h9.2a1.534,1.534,0,0,0,1.534-1.534v-9.2A1.534,1.534,0,0,0,41.737,50h-9.2A1.534,1.534,0,0,0,31,51.534v9.2A1.534,1.534,0,0,0,32.534,62.271Zm1.534-9.2H40.2V59.2H34.068Z" transform="translate(15.481 25.623)" fill="#fff"/>
    <path id="Path_1384" data-name="Path 1384" d="M51.534,15.2h9.2a1.534,1.534,0,0,0,1.534-1.534V7.534A1.534,1.534,0,0,0,60.737,6h-9.2A1.534,1.534,0,0,0,50,7.534v6.135A1.534,1.534,0,0,0,51.534,15.2Zm1.534-6.135H59.2v3.068H53.068Z" transform="translate(25.623 2.135)" fill="#fff"/>
    <path id="Path_1385" data-name="Path 1385" d="M51.534,23.2h9.2a1.534,1.534,0,0,0,1.534-1.534V15.534A1.534,1.534,0,0,0,60.737,14h-9.2A1.534,1.534,0,0,0,50,15.534v6.135A1.534,1.534,0,0,0,51.534,23.2Zm1.534-6.135H59.2v3.068H53.068Z" transform="translate(25.623 6.406)" fill="#fff"/>
    <path id="Path_1386" data-name="Path 1386" d="M56.135,35.271A6.135,6.135,0,1,0,50,29.135,6.135,6.135,0,0,0,56.135,35.271Zm0-9.2a3.068,3.068,0,1,1-3.068,3.068A3.068,3.068,0,0,1,56.135,26.068Z" transform="translate(25.623 11.21)" fill="#fff"/>
    <path id="Path_1387" data-name="Path 1387" d="M50,38H62.271v3.068H50Z" transform="translate(25.623 19.218)" fill="#fff"/>
    <path id="Path_1388" data-name="Path 1388" d="M50,34H62.271v3.068H50Z" transform="translate(25.623 17.082)" fill="#fff"/>
  </g>
</svg>
