<svg id="kazakh" xmlns="http://www.w3.org/2000/svg" width="93.571" height="93.571" viewBox="0 0 93.571 93.571">
  <g id="Group_449" data-name="Group 449">
    <g id="Group_448" data-name="Group 448">
      <path id="Path_1505" data-name="Path 1505" d="M84.671,23.851,73.3,35.223V10.917a7.806,7.806,0,0,1,7.8-7.8h1.17a8.091,8.091,0,0,1,8.187,7.971,6.16,6.16,0,0,1-6.238,6.065,4.616,4.616,0,0,1-4.679-4.54,3.381,3.381,0,0,1,3.431-3.32A2.392,2.392,0,0,1,85.4,11.639h3.119a5.514,5.514,0,0,0-5.552-5.463,6.5,6.5,0,0,0-6.55,6.439,7.738,7.738,0,0,0,7.8,7.659,9.282,9.282,0,0,0,9.357-9.184A11.212,11.212,0,0,0,82.265,0H18.714A10.93,10.93,0,0,0,7.8,10.917V73.581a10.131,10.131,0,0,0,2.339,19.99H62.381A10.93,10.93,0,0,0,73.3,82.655v-21.2L87.035,47.347a16.794,16.794,0,0,0-.159-23.5A1.558,1.558,0,0,0,84.671,23.851Zm-74.534,66.6a7.018,7.018,0,0,1,0-14.036H52.253A9.043,9.043,0,0,0,49.9,82.482a10.947,10.947,0,0,0,3.464,7.971Zm60.042-7.8a7.806,7.806,0,0,1-7.8,7.8h-1.17a8.091,8.091,0,0,1-8.187-7.971,6.16,6.16,0,0,1,6.238-6.065,4.616,4.616,0,0,1,4.679,4.54,3.381,3.381,0,0,1-3.431,3.32,2.392,2.392,0,0,1-2.433-2.344H54.958A5.514,5.514,0,0,0,60.509,87.4a6.5,6.5,0,0,0,6.55-6.439,7.738,7.738,0,0,0-7.8-7.659H10.917V10.917a7.806,7.806,0,0,1,7.8-7.8H73.471a10.875,10.875,0,0,0-3.292,7.8V38.342L59.719,48.8a1.555,1.555,0,0,0-.457,1.1V60.176l-5.781,5.781,2.205,2.205,5.781-5.781h8.711ZM84.8,45.17,71.08,59.262H64.586L82.2,41.65l-2.205-2.205L62.381,57.057V50.55L85.71,27.221A13.669,13.669,0,0,1,84.8,45.17Z" fill="#fff"/>
    </g>
  </g>
  <g id="Group_451" data-name="Group 451" transform="translate(16.052 15.595)">
    <g id="Group_450" data-name="Group 450">
      <path id="Path_1506" data-name="Path 1506" d="M126.656,80.455a1.558,1.558,0,0,0-2.205,0l-3.576,3.576L117.3,80.455a1.558,1.558,0,0,0-2.205,0l-3.576,3.576-3.576-3.576a1.558,1.558,0,0,0-2.205,0l-3.576,3.576-3.576-3.576a1.558,1.558,0,0,0-2.205,0L92.8,84.031l-3.576-3.576a1.558,1.558,0,0,0-2.205,0l-4.679,4.679,2.205,2.205,3.576-3.576L91.7,87.339a1.558,1.558,0,0,0,2.205,0l3.576-3.576,3.576,3.576a1.558,1.558,0,0,0,2.205,0l3.576-3.576,3.576,3.576a1.558,1.558,0,0,0,2.205,0l3.576-3.576,3.576,3.576a1.559,1.559,0,0,0,2.205,0l3.576-3.576,3.576,3.576,2.205-2.205Z" transform="translate(-82.344 -79.998)" fill="#fff"/>
    </g>
  </g>
  <g id="Group_453" data-name="Group 453" transform="translate(16.052 26.511)">
    <g id="Group_452" data-name="Group 452">
      <path id="Path_1507" data-name="Path 1507" d="M126.656,136.455a1.558,1.558,0,0,0-2.205,0l-3.576,3.576-3.576-3.576a1.558,1.558,0,0,0-2.205,0l-3.576,3.576-3.576-3.576a1.558,1.558,0,0,0-2.205,0l-3.576,3.576-3.576-3.576a1.558,1.558,0,0,0-2.205,0L92.8,140.031l-3.576-3.576a1.558,1.558,0,0,0-2.205,0l-4.679,4.679,2.205,2.205,3.576-3.576,3.576,3.576a1.558,1.558,0,0,0,2.205,0l3.576-3.576,3.576,3.576a1.558,1.558,0,0,0,2.205,0l3.576-3.576,3.576,3.576a1.558,1.558,0,0,0,2.205,0l3.576-3.576,3.576,3.576a1.559,1.559,0,0,0,2.205,0l3.576-3.576,3.576,3.576,2.205-2.205Z" transform="translate(-82.344 -135.998)" fill="#fff"/>
    </g>
  </g>
  <g id="Group_455" data-name="Group 455" transform="translate(16.052 37.428)">
    <g id="Group_454" data-name="Group 454">
      <path id="Path_1508" data-name="Path 1508" d="M124.451,192.455l-3.576,3.576-3.576-3.576a1.558,1.558,0,0,0-2.205,0l-3.576,3.576-3.576-3.576a1.558,1.558,0,0,0-2.205,0l-3.576,3.576-3.576-3.576a1.558,1.558,0,0,0-2.205,0L92.8,196.031l-3.576-3.576a1.558,1.558,0,0,0-2.205,0l-4.679,4.679,2.205,2.205,3.576-3.576,3.576,3.576a1.558,1.558,0,0,0,2.205,0l3.576-3.576,3.576,3.576a1.558,1.558,0,0,0,2.205,0l3.576-3.576,3.576,3.576a1.558,1.558,0,0,0,2.205,0l3.576-3.576,3.576,3.576a1.559,1.559,0,0,0,2.205,0l4.679-4.679Z" transform="translate(-82.344 -191.998)" fill="#fff"/>
    </g>
  </g>
  <g id="Group_457" data-name="Group 457" transform="translate(16.052 48.345)">
    <g id="Group_456" data-name="Group 456">
      <path id="Path_1509" data-name="Path 1509" d="M117.3,248.455a1.558,1.558,0,0,0-2.205,0l-3.576,3.576-3.576-3.576a1.558,1.558,0,0,0-2.205,0l-3.576,3.576-3.576-3.576a1.558,1.558,0,0,0-2.205,0L92.8,252.031l-3.576-3.576a1.558,1.558,0,0,0-2.205,0l-4.679,4.679,2.205,2.205,3.576-3.576,3.576,3.576a1.558,1.558,0,0,0,2.205,0l3.576-3.576,3.576,3.576a1.558,1.558,0,0,0,2.205,0l3.576-3.576,3.576,3.576a1.559,1.559,0,0,0,2.205,0l3.576-3.576,3.576,3.576,2.205-2.205Z" transform="translate(-82.344 -247.998)" fill="#fff"/>
    </g>
  </g>
  <g id="Group_459" data-name="Group 459" transform="translate(16.052 59.261)">
    <g id="Group_458" data-name="Group 458">
      <path id="Path_1510" data-name="Path 1510" d="M115.094,304.455l-3.576,3.576-3.576-3.576a1.558,1.558,0,0,0-2.205,0l-3.576,3.576-3.576-3.576a1.558,1.558,0,0,0-2.205,0L92.8,308.031l-3.576-3.576a1.558,1.558,0,0,0-2.205,0l-4.679,4.679,2.205,2.205,3.576-3.576,3.576,3.576a1.558,1.558,0,0,0,2.205,0l3.576-3.576,3.576,3.576a1.558,1.558,0,0,0,2.205,0l3.576-3.576,3.576,3.576a1.559,1.559,0,0,0,2.205,0l4.679-4.679Z" transform="translate(-82.344 -303.998)" fill="#fff"/>
    </g>
  </g>
</svg>
