<svg xmlns="http://www.w3.org/2000/svg" width="70" height="80.37" viewBox="0 0 70 80.37">
  <g id="learning-process" transform="translate(-5 -1)">
    <path id="Path_1501" data-name="Path 1501" d="M62.2,61,48.9,55.562a3.873,3.873,0,0,1-2.416-3.6v-.931a24,24,0,0,0,8.762-11.143h.312a6.489,6.489,0,0,0,6.481-6.481V22.263A21.259,21.259,0,0,0,40.774,1H36.339A22.857,22.857,0,0,0,16.965,11.635l-3.37,5.3,1.356.9a6.754,6.754,0,0,1,3.013,5.631v9.944a6.489,6.489,0,0,0,6.481,6.481h.312a23.988,23.988,0,0,0,8.762,11.143v.931a3.871,3.871,0,0,1-2.416,3.6L17.8,61A20.534,20.534,0,0,0,5,80.074v1.3H75v-1.3A20.531,20.531,0,0,0,62.2,61ZM51.555,65.25,46.286,69.2l3.492-10.478.738.3ZM29.483,59.026l.738-.3L33.713,69.2,28.444,65.25ZM33.846,69.6l3.059,9.175h-.258l-5.35-5.35ZM32.611,57.7c.191-.1.377-.2.555-.319L40,65.191l6.834-7.81c.178.115.364.219.555.319L40.363,78.778h-.726ZM46.154,69.6,48.7,73.428l-5.35,5.35h-.258Zm.328-43.973a5.168,5.168,0,0,0-4.464,2.593H37.983a5.168,5.168,0,0,0-4.464-2.593H25.741V19.173a28.583,28.583,0,0,1,10.492,2.458,31.213,31.213,0,0,0,12.744,2.7h5.282v1.3Zm5.185,2.593v2.593a2.6,2.6,0,0,1-2.593,2.593H46.481a2.593,2.593,0,0,1,0-5.185ZM36.111,30.815a2.6,2.6,0,0,1-2.593,2.593H30.926a2.6,2.6,0,0,1-2.593-2.593V28.222h5.185A2.6,2.6,0,0,1,36.111,30.815Zm19.981,6.427a24.075,24.075,0,0,0,.76-5.972V29.758a3.867,3.867,0,0,1-.76,7.484ZM17.122,16.217l2.03-3.19A20.277,20.277,0,0,1,36.339,3.593h4.435A18.671,18.671,0,0,1,59.444,22.263v5.991a6.419,6.419,0,0,0-2.593-1.2V21.741H48.977A28.61,28.61,0,0,1,37.286,19.26a31.31,31.31,0,0,0-12.841-2.7h-1.3v10.5a6.436,6.436,0,0,0-2.593,1.2V23.464a9.344,9.344,0,0,0-3.434-7.246Zm3.434,17.19a3.884,3.884,0,0,1,2.593-3.65v1.511a24.086,24.086,0,0,0,.76,5.973A3.882,3.882,0,0,1,20.556,33.407Zm5.185-2.138v-.455A5.19,5.19,0,0,0,30.926,36h2.593A5.19,5.19,0,0,0,38.7,30.815H41.3A5.19,5.19,0,0,0,46.481,36h2.593a5.19,5.19,0,0,0,5.185-5.185v.455A21.425,21.425,0,0,1,40,51.482,21.425,21.425,0,0,1,25.741,31.27ZM39.59,54.081l.41.137.41-.136a24.228,24.228,0,0,0,3.525-1.493,6.442,6.442,0,0,0,1.042,2.978L40,61.253l-4.978-5.688a6.457,6.457,0,0,0,1.042-2.978,24.1,24.1,0,0,0,3.526,1.493ZM18.786,63.4l7.876-3.223-1.033,6.2,4.834,3.626-2.5,3.753,5.022,5.019H20.556V71H17.963v7.778H7.638A17.939,17.939,0,0,1,18.786,63.4ZM62.037,78.778V71H59.444v7.778H47.018l5.021-5.021L49.536,70l4.834-3.626-1.033-6.2L61.213,63.4A17.941,17.941,0,0,1,72.361,78.776H62.037Z" transform="translate(0)" fill="#fff"/>
    <path id="Path_1502" data-name="Path 1502" d="M38.37,32H35.778a2.593,2.593,0,0,1-5.185,0H28a5.185,5.185,0,0,0,10.37,0Z" transform="translate(6.815 9.185)" fill="#fff"/>
    <path id="Path_1503" data-name="Path 1503" d="M41.494,10.546a13.6,13.6,0,0,1,2.743,2.961l2.144-1.458A16.114,16.114,0,0,0,33.07,5H31V7.593h2.07A13.547,13.547,0,0,1,41.494,10.546Z" transform="translate(7.704 1.185)" fill="#fff"/>
    <path id="Path_1504" data-name="Path 1504" d="M42.939,15.979l2.534-.544a16.136,16.136,0,0,0-.881-2.819l-2.393,1A13.618,13.618,0,0,1,42.939,15.979Z" transform="translate(11.022 3.441)" fill="#fff"/>
  </g>
</svg>
