<svg xmlns="http://www.w3.org/2000/svg" width="60.828" height="79.341" viewBox="0 0 60.828 79.341">
  <g id="library-science" transform="translate(-56)">
    <g id="Group_329" data-name="Group 329" transform="translate(56)">
      <path id="Path_1344" data-name="Path 1344" d="M115.506,0H62.612A6.62,6.62,0,0,0,56,6.612V72.729a6.62,6.62,0,0,0,6.612,6.612h52.894a1.322,1.322,0,0,0,1.322-1.322V1.322A1.322,1.322,0,0,0,115.506,0ZM99.637,2.645h7.934V15.051L104.2,13.362a1.322,1.322,0,0,0-1.182,0l-3.376,1.689ZM58.645,6.612a3.967,3.967,0,0,1,3.967-3.967h1.322V63.473H62.612a6.543,6.543,0,0,0-3.967,1.357Zm55.539,63.473H63.934v2.645h50.249V76.7H62.612a3.967,3.967,0,0,1-3.967-3.967V70.084a3.967,3.967,0,0,1,3.967-3.967h51.572Zm0-6.612h-47.6V2.645H96.993V17.191a1.322,1.322,0,0,0,1.913,1.183l4.7-2.35,4.7,2.356a1.322,1.322,0,0,0,1.913-1.19V2.645h3.967Z" transform="translate(-56)" fill="#fff"/>
    </g>
  </g>
</svg>
