<svg xmlns="http://www.w3.org/2000/svg" width="85.779" height="106.058" viewBox="0 0 85.779 106.058">
  <g id="librarian" transform="translate(-48.951)">
    <g id="Group_383" data-name="Group 383" transform="translate(48.951)">
      <g id="Group_382" data-name="Group 382" transform="translate(0)">
        <path id="Path_1419" data-name="Path 1419" d="M134.478,99.123l-2.353-7.4A21.553,21.553,0,0,0,119.1,78.91a1.725,1.725,0,0,0-.179-.064,21.316,21.316,0,0,0-3.782-.923c-4.172-6.117-1.23-12.168,2.186-19.141,2.859-5.836,6.1-12.451,5.2-19.874a20.736,20.736,0,0,0-7.718-14.044C114.691,11.133,104.439,0,91.841,0S68.993,11.131,68.873,24.859A20.734,20.734,0,0,0,61.15,38.905c-.9,7.425,2.341,14.039,5.2,19.876,3.416,6.974,6.358,13.026,2.185,19.142a21.311,21.311,0,0,0-3.777.922,1.706,1.706,0,0,0-.179.064,21.542,21.542,0,0,0-13.05,12.9L49.2,99.122a5.318,5.318,0,0,0,5.053,6.936h75.168a5.317,5.317,0,0,0,5.052-6.935Zm-70.919,3.4h-9.3a1.747,1.747,0,0,1-1.422-.723,1.782,1.782,0,0,1-.262-1.607l2.3-7.231a18.065,18.065,0,0,1,8.689-9.78v19.342Zm50.9-73.168a17.339,17.339,0,0,1,4.558,9.975c.773,6.385-2.093,12.237-4.865,17.9-3.241,6.617-6.568,13.432-3.249,20.431h-3.128l-.026-.005-.026.005H107.3L106.275,74.2q-.068-.726-.088-1.526c0-.012.006-.022.006-.034-.02-.706,0-1.472.035-2.266.009-.2.02-.395.033-.6q.067-1.086.2-2.263c.009-.081.014-.155.023-.236a56.4,56.4,0,0,1,.945-5.6A14.948,14.948,0,0,0,111.273,53a3.015,3.015,0,0,0,.685.114,2.978,2.978,0,0,0,.949-.157c.911-.3,3.681-1.227,3.681-12.306,0-1.191,0-4.814-2.439-5.909a3.067,3.067,0,0,0-1.033-.248A26.35,26.35,0,0,0,114.459,29.355ZM80.985,70.22c-.008-.188-.018-.376-.029-.568-.05-.811-.12-1.652-.222-2.539-.011-.092-.012-.173-.023-.266-.018-.163-.052-.338-.072-.5,1.067.99,2.2,1.994,3.473,3.025a12.269,12.269,0,0,0,15.453.005c1.275-1.033,2.408-2.037,3.477-3.029-.02.161-.052.332-.07.492-.011.092-.013.174-.023.266-.1.891-.172,1.734-.222,2.547-.011.193-.021.381-.029.57a30.408,30.408,0,0,0,.078,4.5,1.71,1.71,0,0,0,.063.323l1.449,4.889a1.767,1.767,0,0,0,1.7,1.265v9.964c-.84,2.943-6.4,6.064-14.141,6.064S78.54,94.1,77.7,91.156V81.192a1.768,1.768,0,0,0,1.7-1.265l1.449-4.889a1.712,1.712,0,0,0,.063-.323A30.348,30.348,0,0,0,80.985,70.22Zm16.35-3.589a8.726,8.726,0,0,1-10.993-.005c-6.713-5.436-10.41-10.316-10.41-13.739,0-.392.016-.785.043-1.127.073-.7.11-1.421.149-2.177.008-.158.006-.312.012-.469a14.251,14.251,0,0,0,7.95,2.147A9.74,9.74,0,0,0,91.841,47.5,9.738,9.738,0,0,0,99.6,51.261a14.249,14.249,0,0,0,7.951-2.148c.007.177,0,.345.014.525.036.7.073,1.421.143,2.087.031.376.047.77.047,1.162C107.75,56.311,104.053,61.191,97.335,66.632Zm12.072-32.288h0l-.015.027-.139.29v.257c-.035.195-.085.4-.13.6-1.082-.335-2.449-.732-3.9-1.084a24.91,24.91,0,0,0-5.631-.846,9.736,9.736,0,0,0-7.755,3.744,9.736,9.736,0,0,0-7.755-3.744,24.963,24.963,0,0,0-5.633.846c-1.445.352-2.812.749-3.89,1.083-.056-.242-.116-.482-.157-.734l-.033,0a1.689,1.689,0,0,0-.088-.416c-.117-.27-.2-.551-.307-.825,18.348-.432,23.226-8.171,24.469-12.852a1.723,1.723,0,0,1,1.688-1.248h.545a1.769,1.769,0,0,1,1.768,1.768,10.994,10.994,0,0,0,7.912,10.409A22.588,22.588,0,0,1,109.407,34.344Zm.5,5.141c-.049.221-.11.466-.182.729-.066.247-.139.5-.237.778-.015.041-.028.085-.039.128a9.536,9.536,0,0,1-9.85,6.606,5.787,5.787,0,0,1-5.945-4.662,4.907,4.907,0,0,1-.042-.64,5.683,5.683,0,0,1,5.987-5.3,21.968,21.968,0,0,1,4.8.746C106.844,38.463,109.086,39.2,109.9,39.485ZM79.287,37.866a22.011,22.011,0,0,1,4.8-.746,5.683,5.683,0,0,1,5.987,5.3,4.71,4.71,0,0,1-.041.637,5.788,5.788,0,0,1-5.946,4.666,9.533,9.533,0,0,1-9.847-6.6c-.012-.045-.026-.088-.041-.133-.1-.278-.172-.532-.244-.8-.07-.252-.128-.487-.175-.7C74.568,39.214,76.823,38.467,79.287,37.866Zm33.571,4.19c.074-.218.125-.406.18-.6-.073,4.952-.779,7.252-1.2,7.978a5.559,5.559,0,0,1-.775-.836c-.03-.994-.031-1.976.017-2.967a15.1,15.1,0,0,0,1.733-3.44Q112.84,42.126,112.858,42.056ZM91.841,3.535c10.721,0,19.444,9.674,19.444,21.566a24.116,24.116,0,0,1-.211,3.021,7.383,7.383,0,0,1-5.092-6.91,5.309,5.309,0,0,0-5.3-5.3h-.545a5.261,5.261,0,0,0-5.105,3.877C93.3,26.313,85.445,29.942,72.915,30.041A23.806,23.806,0,0,1,72.4,25.1C72.4,13.209,81.119,3.535,91.841,3.535ZM70.821,42.047h0c.013.048.028.1.044.143a15.092,15.092,0,0,0,1.733,3.44c.047.981.047,1.961.016,2.969a5.57,5.57,0,0,1-.774.834c-.418-.727-1.124-3.027-1.2-7.98C70.7,41.648,70.749,41.838,70.821,42.047Zm-1.3,15.179c-2.771-5.659-5.638-11.51-4.865-17.9a17.337,17.337,0,0,1,4.563-9.978A26.377,26.377,0,0,0,70.566,34.5a3.067,3.067,0,0,0-1.033.248c-2.439,1.095-2.439,4.718-2.439,5.909,0,11.079,2.771,12,3.681,12.306a2.978,2.978,0,0,0,.949.157A3.014,3.014,0,0,0,72.409,53a14.948,14.948,0,0,0,3.845,8.669,56.35,56.35,0,0,1,.945,5.61c.01.081.014.154.023.235q.133,1.175.2,2.259c.013.2.023.4.032.591.036.793.055,1.56.035,2.266,0,.012.006.022.006.034q-.021.8-.088,1.526L76.38,77.657h-.422l-.026-.005-.026.005h-3.13C76.095,70.657,72.765,63.843,69.524,57.226Zm47.064,45.3H67.094v-20.7a18.023,18.023,0,0,1,4.672-.631h2.4V91.422a1.216,1.216,0,0,1,.047.4c1.217,5.175,8.632,8.93,17.63,8.93s16.413-3.755,17.63-8.93a1.227,1.227,0,0,1,.047-.4V81.192h2.4a18.023,18.023,0,0,1,4.672.631v20.7Zm14.259-.723a1.747,1.747,0,0,1-1.422.723h-9.3V83.181a18.079,18.079,0,0,1,8.66,9.7h0l2.324,7.314A1.782,1.782,0,0,1,130.847,101.8Z" transform="translate(-48.951)" fill="#fff"/>
      </g>
    </g>
    <g id="Group_385" data-name="Group 385" transform="translate(77.7 38.888)">
      <g id="Group_384" data-name="Group 384">
        <path id="Path_1420" data-name="Path 1420" d="M194.807,187.733h-5.3a1.768,1.768,0,0,0,0,3.535h1.768v1.768a1.768,1.768,0,0,0,3.535,0v-1.767a1.768,1.768,0,0,0,0-3.535Z" transform="translate(-187.737 -187.733)" fill="#fff"/>
      </g>
    </g>
    <g id="Group_387" data-name="Group 387" transform="translate(97.144 38.888)">
      <g id="Group_386" data-name="Group 386" transform="translate(0)">
        <path id="Path_1421" data-name="Path 1421" d="M288.674,187.733h-5.3a1.768,1.768,0,0,0,0,3.535v1.768a1.768,1.768,0,0,0,3.535,0v-1.767h1.768a1.768,1.768,0,0,0,0-3.535Z" transform="translate(-281.604 -187.733)" fill="#fff"/>
      </g>
    </g>
    <g id="Group_389" data-name="Group 389" transform="translate(88.306 51.262)">
      <g id="Group_388" data-name="Group 388">
        <path id="Path_1422" data-name="Path 1422" d="M244.24,247.467H240.7a1.768,1.768,0,1,0,0,3.535h3.535a1.768,1.768,0,0,0,0-3.535Z" transform="translate(-238.937 -247.467)" fill="#fff"/>
      </g>
    </g>
    <g id="Group_391" data-name="Group 391" transform="translate(86.538 58.332)">
      <g id="Group_390" data-name="Group 390" transform="translate(0)">
        <path id="Path_1423" data-name="Path 1423" d="M239.242,281.6h-7.071a1.768,1.768,0,0,0,0,3.535h7.071a1.768,1.768,0,0,0,0-3.535Z" transform="translate(-230.404 -281.6)" fill="#fff"/>
      </g>
    </g>
    <g id="Group_393" data-name="Group 393" transform="translate(79.467 83.079)">
      <g id="Group_392" data-name="Group 392">
        <path id="Path_1424" data-name="Path 1424" d="M198.038,401.067a1.767,1.767,0,0,0-1.768,1.768V404.6a1.767,1.767,0,0,0,1.767,1.768h0a1.767,1.767,0,0,0,1.768-1.767h0v-1.768A1.767,1.767,0,0,0,198.038,401.067Z" transform="translate(-196.27 -401.067)" fill="#fff"/>
      </g>
    </g>
    <g id="Group_395" data-name="Group 395" transform="translate(86.538 86.614)">
      <g id="Group_394" data-name="Group 394">
        <path id="Path_1425" data-name="Path 1425" d="M232.172,418.133A1.767,1.767,0,0,0,230.4,419.9v1.768a1.767,1.767,0,0,0,1.767,1.768h0a1.767,1.767,0,0,0,1.768-1.767h0V419.9A1.768,1.768,0,0,0,232.172,418.133Z" transform="translate(-230.404 -418.133)" fill="#fff"/>
      </g>
    </g>
    <g id="Group_397" data-name="Group 397" transform="translate(93.609 86.614)">
      <g id="Group_396" data-name="Group 396">
        <path id="Path_1426" data-name="Path 1426" d="M266.3,418.133a1.767,1.767,0,0,0-1.768,1.768v1.768a1.767,1.767,0,0,0,1.767,1.768h0a1.767,1.767,0,0,0,1.768-1.767h0V419.9A1.768,1.768,0,0,0,266.3,418.133Z" transform="translate(-264.537 -418.133)" fill="#fff"/>
      </g>
    </g>
    <g id="Group_399" data-name="Group 399" transform="translate(100.679 83.079)">
      <g id="Group_398" data-name="Group 398" transform="translate(0)">
        <path id="Path_1427" data-name="Path 1427" d="M300.438,401.067a1.767,1.767,0,0,0-1.768,1.768V404.6a1.767,1.767,0,0,0,1.767,1.768h0a1.767,1.767,0,0,0,1.768-1.767h0v-1.768A1.767,1.767,0,0,0,300.438,401.067Z" transform="translate(-298.67 -401.067)" fill="#fff"/>
      </g>
    </g>
  </g>
</svg>
