<svg id="logopedia" xmlns="http://www.w3.org/2000/svg" width="85.422" height="85.422" viewBox="0 0 85.422 85.422">
  <path id="Shape" d="M85.422,17.687C85.422,7.934,75.842,0,64.067,0c-14.117,0-24.6,11.293-20.444,22.779H22.779a14.253,14.253,0,0,0-14,11.726c-1.058-.448-1.733-.336-4.506-.336A4.271,4.271,0,0,0,0,38.44v29.9a8.551,8.551,0,0,0,7.119,8.414v4.4a4.271,4.271,0,0,0,4.271,4.271h5.695a4.271,4.271,0,0,0,4.271-4.271V76.88H64.067v4.271a4.271,4.271,0,0,0,4.271,4.271h5.695A4.271,4.271,0,0,0,78.3,81.151v-4.4a8.551,8.551,0,0,0,7.119-8.414V38.44a4.271,4.271,0,0,0-4.271-4.271c-2.634,0-3.444-.115-4.512.337a14.217,14.217,0,0,0-.569-2.2c5.641-3.188,9.352-8.549,9.352-14.617ZM64.067,2.847c10.205,0,18.508,6.657,18.508,14.839s-8.3,14.839-18.508,14.839c-3.793,0-4.646-.827-5.564-.333l-9.209,4.935,1.817-7.84a1.424,1.424,0,0,0-.467-1.405C39.467,18.4,47.959,2.847,64.067,2.847ZM41.287,65.49H12.813a1.424,1.424,0,0,1-1.424-1.424V61.219a4.271,4.271,0,0,1,4.271-4.271H37.016a4.271,4.271,0,0,1,4.271,4.271ZM18.508,81.151a1.424,1.424,0,0,1-1.424,1.424H11.39a1.424,1.424,0,0,1-1.424-1.424V76.88h8.542Zm56.948,0a1.424,1.424,0,0,1-1.424,1.424H68.338a1.424,1.424,0,0,1-1.424-1.424V76.88h8.542ZM78.3,37.016h2.847a1.424,1.424,0,0,1,1.424,1.424v29.9a5.7,5.7,0,0,1-5.695,5.695H8.542a5.7,5.7,0,0,1-5.695-5.695V38.44a1.424,1.424,0,0,1,1.424-1.424H7.119A1.424,1.424,0,0,1,8.542,38.44V64.067a4.271,4.271,0,0,0,4.271,4.271h59.8a4.271,4.271,0,0,0,4.271-4.271V38.44A1.424,1.424,0,0,1,78.3,37.016ZM44.135,65.49V61.219a4.271,4.271,0,0,1,4.271-4.271H69.762a4.271,4.271,0,0,1,4.271,4.271v2.847a1.424,1.424,0,0,1-1.424,1.424Zm29.9-9.929A7.045,7.045,0,0,0,69.762,54.1H48.406a7.119,7.119,0,0,0-5.695,2.847A7.119,7.119,0,0,0,37.016,54.1H15.661a7.044,7.044,0,0,0-4.271,1.461V37.016a11.4,11.4,0,0,1,11.39-11.39h22.21a17.977,17.977,0,0,0,3.154,3.844L45.818,39.543A1.424,1.424,0,0,0,47.2,41.287c.5,0-.394.4,12.2-6.345a25.118,25.118,0,0,0,14.085-1.405c.752,2.361.548,1.839.548,22.025Z" fill="#fff"/>
  <path id="Shape-2" data-name="Shape" d="M46.271,18.542A4.271,4.271,0,1,0,42,14.271,4.271,4.271,0,0,0,46.271,18.542Zm0-5.695a1.424,1.424,0,1,1-1.424,1.424A1.424,1.424,0,0,1,46.271,12.847Z" transform="translate(17.796 4.237)" fill="#fff"/>
  <path id="Shape-3" data-name="Shape" d="M38.271,18.542A4.271,4.271,0,1,0,34,14.271,4.271,4.271,0,0,0,38.271,18.542Zm0-5.695a1.424,1.424,0,1,1-1.424,1.424A1.424,1.424,0,0,1,38.271,12.847Z" transform="translate(14.406 4.237)" fill="#fff"/>
  <path id="Shape-4" data-name="Shape" d="M54.271,18.542A4.271,4.271,0,1,0,50,14.271,4.271,4.271,0,0,0,54.271,18.542Zm0-5.695a1.424,1.424,0,1,1-1.424,1.424A1.424,1.424,0,0,1,54.271,12.847Z" transform="translate(21.185 4.237)" fill="#fff"/>
</svg>
