<svg xmlns="http://www.w3.org/2000/svg" width="87.295" height="87.297" viewBox="0 0 87.295 87.297">
  <g id="management" transform="translate(-0.008 -0.001)">
    <path id="Path_1291" data-name="Path 1291" d="M79.385,71.335a7,7,0,0,0,2.285-5.158V63.362a7.04,7.04,0,0,0-13.938-1.408H63.107a4.2,4.2,0,0,0-7.93,0H50.552a7.062,7.062,0,0,0-5.49-5.49V53.306a5.625,5.625,0,0,0,4.224-5.432h1.408A1.407,1.407,0,0,0,52.1,46.466V42.242h2.816V39.426H52.1v-.015a9.678,9.678,0,0,1,3.5-7.259A18.295,18.295,0,0,0,42.9.019,18.535,18.535,0,0,0,25.354,17.973,18.255,18.255,0,0,0,31.585,32.05a10.269,10.269,0,0,1,3.607,7.376h-2.8v2.816h2.816v4.224a1.406,1.406,0,0,0,1.408,1.408h1.408a5.624,5.624,0,0,0,4.224,5.432v3.158a7.063,7.063,0,0,0-5.49,5.49H32.132a4.2,4.2,0,0,0-7.93,0H19.577A7.04,7.04,0,0,0,5.639,63.362v2.816a7,7,0,0,0,2.285,5.158A12.685,12.685,0,0,0,.008,83.074V85.89A1.406,1.406,0,0,0,1.416,87.3H23.943a1.407,1.407,0,0,0,1.408-1.408V83.074a12.686,12.686,0,0,0-7.917-11.738,7,7,0,0,0,2.285-5.158V64.77H24.2a4.2,4.2,0,0,0,7.93,0h4.483v1.408A7,7,0,0,0,38.9,71.335a12.685,12.685,0,0,0-7.916,11.738V85.89A1.406,1.406,0,0,0,32.391,87.3H54.919a1.407,1.407,0,0,0,1.408-1.408V83.074A12.686,12.686,0,0,0,48.41,71.335a7,7,0,0,0,2.285-5.158V64.77h4.482a4.2,4.2,0,0,0,7.93,0h4.483v1.408a7,7,0,0,0,2.285,5.158,12.685,12.685,0,0,0-7.916,11.738V85.89A1.406,1.406,0,0,0,63.367,87.3H85.894A1.407,1.407,0,0,0,87.3,85.89V83.074a12.686,12.686,0,0,0-7.917-11.738ZM22.535,83.073v1.408H19.719V81.666H16.9v2.816H8.455V81.666H5.639v2.816H2.823V83.073a9.856,9.856,0,1,1,19.712,0Zm-14.08-16.9V63.362a4.224,4.224,0,0,1,8.448,0v2.816a4.224,4.224,0,0,1-8.448,0ZM28.167,64.77a1.408,1.408,0,1,1,1.408-1.408A1.408,1.408,0,0,1,28.167,64.77Zm5.274-34.838a15.441,15.441,0,0,1-5.271-11.91A15.682,15.682,0,0,1,43.013,2.831,15.475,15.475,0,0,1,53.766,30.018a12.5,12.5,0,0,0-4.48,9.393v.015H38.008a13.077,13.077,0,0,0-4.568-9.494Zm15.846,12.31v2.816H38.023V42.242Zm-8.448,5.632h5.632a2.816,2.816,0,1,1-5.632,0Zm12.672,35.2v1.408H50.695V81.666H47.879v2.816H39.431V81.666H36.615v2.816H33.8V83.074a9.856,9.856,0,1,1,19.712,0Zm-14.08-16.9V63.362a4.224,4.224,0,1,1,8.448,0v2.816a4.224,4.224,0,0,1-8.448,0ZM59.143,64.77a1.408,1.408,0,1,1,1.408-1.408A1.408,1.408,0,0,1,59.143,64.77Zm11.264,1.408V63.362a4.224,4.224,0,1,1,8.448,0v2.816a4.224,4.224,0,0,1-8.448,0Zm14.08,18.3H81.67V81.666H78.854v2.816H70.406V81.666H67.59v2.816H64.775V83.074a9.856,9.856,0,0,1,19.712,0Zm0,0" fill="#fff"/>
    <path id="Path_1292" data-name="Path 1292" d="M232.008,192.012h5.632v2.816h-5.632Zm0,0" transform="translate(-191.169 -158.218)" fill="#fff"/>
    <path id="Path_1293" data-name="Path 1293" d="M200.456,64.765v2.958h2.816V64.765a6.98,6.98,0,0,0,2.468-1.031l2.168,2.168,1.99-1.991-2.168-2.168a7,7,0,0,0,1.031-2.468h2.958V56.46h-2.958a7,7,0,0,0-1.031-2.468l2.168-2.168-1.99-1.991L205.74,52a6.98,6.98,0,0,0-2.468-1.031V48.012h-2.816V50.97A6.984,6.984,0,0,0,197.987,52l-2.168-2.168-1.99,1.991L196,53.991a6.989,6.989,0,0,0-1.031,2.468h-2.958v2.816h2.958A6.989,6.989,0,0,0,196,61.744l-2.168,2.168,1.99,1.991,2.168-2.168A6.984,6.984,0,0,0,200.456,64.765Zm1.408-11.122a4.224,4.224,0,1,1-4.224,4.224A4.229,4.229,0,0,1,201.864,53.644Zm0,0" transform="translate(-158.209 -39.561)" fill="#fff"/>
  </g>
</svg>
