<svg xmlns="http://www.w3.org/2000/svg" width="72.001" height="90.001" viewBox="0 0 72.001 90.001">
  <g id="mathematics" transform="translate(-50.2 1)">
    <g id="Group_291" data-name="Group 291" transform="translate(50.2 -1)">
      <g id="Group_290" data-name="Group 290" transform="translate(0)">
        <path id="Path_1302" data-name="Path 1302" d="M114.7-1h-57a7.427,7.427,0,0,0-7.5,7.5v75A7.427,7.427,0,0,0,57.7,89h57a7.427,7.427,0,0,0,7.5-7.5V6.5A7.427,7.427,0,0,0,114.7-1Zm4.5,82.5a4.42,4.42,0,0,1-4.5,4.5h-57a4.42,4.42,0,0,1-4.5-4.5V6.5A4.42,4.42,0,0,1,57.7,2h57a4.42,4.42,0,0,1,4.5,4.5v75Z" transform="translate(-50.2 1)" fill="#fff"/>
        <path id="Path_1303" data-name="Path 1303" d="M156.434,41.667h-42a4.42,4.42,0,0,0-4.5,4.5v12a4.42,4.42,0,0,0,4.5,4.5h42a4.42,4.42,0,0,0,4.5-4.5v-12A4.42,4.42,0,0,0,156.434,41.667Zm1.5,16.5a1.417,1.417,0,0,1-1.5,1.5h-42a1.417,1.417,0,0,1-1.5-1.5v-12a1.417,1.417,0,0,1,1.5-1.5h42a1.417,1.417,0,0,1,1.5,1.5v12Z" transform="translate(-99.433 -34.167)" fill="#fff"/>
        <path id="Path_1304" data-name="Path 1304" d="M120.434,178.2h-6a4.42,4.42,0,0,0-4.5,4.5v6a4.42,4.42,0,0,0,4.5,4.5h6a4.42,4.42,0,0,0,4.5-4.5v-6A4.42,4.42,0,0,0,120.434,178.2Zm1.5,10.5a1.417,1.417,0,0,1-1.5,1.5h-6a1.417,1.417,0,0,1-1.5-1.5v-6a1.417,1.417,0,0,1,1.5-1.5h6a1.417,1.417,0,0,1,1.5,1.5Z" transform="translate(-99.434 -146.7)" fill="#fff"/>
        <path id="Path_1305" data-name="Path 1305" d="M222.834,178.2h-6a4.42,4.42,0,0,0-4.5,4.5v6a4.42,4.42,0,0,0,4.5,4.5h6a4.42,4.42,0,0,0,4.5-4.5v-6A4.42,4.42,0,0,0,222.834,178.2Zm1.5,10.5a1.417,1.417,0,0,1-1.5,1.5h-6a1.417,1.417,0,0,1-1.5-1.5v-6a1.417,1.417,0,0,1,1.5-1.5h6a1.417,1.417,0,0,1,1.5,1.5Z" transform="translate(-183.833 -146.7)" fill="#fff"/>
        <path id="Path_1306" data-name="Path 1306" d="M325.234,178.2h-6a4.42,4.42,0,0,0-4.5,4.5v6a4.42,4.42,0,0,0,4.5,4.5h6a4.42,4.42,0,0,0,4.5-4.5v-6A4.42,4.42,0,0,0,325.234,178.2Zm1.5,10.5a1.417,1.417,0,0,1-1.5,1.5h-6a1.417,1.417,0,0,1-1.5-1.5v-6a1.417,1.417,0,0,1,1.5-1.5h6a1.417,1.417,0,0,1,1.5,1.5Z" transform="translate(-268.233 -146.7)" fill="#fff"/>
        <path id="Path_1307" data-name="Path 1307" d="M120.434,280.6h-6a4.42,4.42,0,0,0-4.5,4.5v6a4.42,4.42,0,0,0,4.5,4.5h6a4.42,4.42,0,0,0,4.5-4.5v-6A4.42,4.42,0,0,0,120.434,280.6Zm1.5,10.5a1.417,1.417,0,0,1-1.5,1.5h-6a1.417,1.417,0,0,1-1.5-1.5v-6a1.417,1.417,0,0,1,1.5-1.5h6a1.417,1.417,0,0,1,1.5,1.5Z" transform="translate(-99.434 -231.099)" fill="#fff"/>
        <path id="Path_1308" data-name="Path 1308" d="M222.834,280.6h-6a4.42,4.42,0,0,0-4.5,4.5v6a4.42,4.42,0,0,0,4.5,4.5h6a4.42,4.42,0,0,0,4.5-4.5v-6A4.42,4.42,0,0,0,222.834,280.6Zm1.5,10.5a1.417,1.417,0,0,1-1.5,1.5h-6a1.417,1.417,0,0,1-1.5-1.5v-6a1.417,1.417,0,0,1,1.5-1.5h6a1.417,1.417,0,0,1,1.5,1.5Z" transform="translate(-183.833 -231.099)" fill="#fff"/>
        <path id="Path_1309" data-name="Path 1309" d="M120.434,383h-6a4.42,4.42,0,0,0-4.5,4.5v6a4.42,4.42,0,0,0,4.5,4.5h6a4.42,4.42,0,0,0,4.5-4.5v-6A4.42,4.42,0,0,0,120.434,383Zm1.5,10.5a1.417,1.417,0,0,1-1.5,1.5h-6a1.417,1.417,0,0,1-1.5-1.5v-6a1.417,1.417,0,0,1,1.5-1.5h6a1.417,1.417,0,0,1,1.5,1.5Z" transform="translate(-99.434 -315.499)" fill="#fff"/>
        <path id="Path_1310" data-name="Path 1310" d="M222.834,383h-6a4.42,4.42,0,0,0-4.5,4.5v6a4.42,4.42,0,0,0,4.5,4.5h6a4.42,4.42,0,0,0,4.5-4.5v-6A4.42,4.42,0,0,0,222.834,383Zm1.5,10.5a1.417,1.417,0,0,1-1.5,1.5h-6a1.417,1.417,0,0,1-1.5-1.5v-6a1.417,1.417,0,0,1,1.5-1.5h6a1.417,1.417,0,0,1,1.5,1.5Z" transform="translate(-183.833 -315.499)" fill="#fff"/>
        <path id="Path_1311" data-name="Path 1311" d="M325.234,280.6h-6a4.42,4.42,0,0,0-4.5,4.5v24a4.42,4.42,0,0,0,4.5,4.5h6a4.42,4.42,0,0,0,4.5-4.5v-24A4.42,4.42,0,0,0,325.234,280.6Zm1.5,28.5a1.417,1.417,0,0,1-1.5,1.5h-6a1.417,1.417,0,0,1-1.5-1.5v-24a1.417,1.417,0,0,1,1.5-1.5h6a1.417,1.417,0,0,1,1.5,1.5Z" transform="translate(-268.233 -231.099)" fill="#fff"/>
      </g>
    </g>
  </g>
</svg>
