<svg xmlns="http://www.w3.org/2000/svg" width="98.664" height="98.291" viewBox="0 0 98.664 98.291">
  <g id="agile" transform="translate(-1 -1)">
    <path id="Path_1321" data-name="Path 1321" d="M78.976,80.568H69.918A39.714,39.714,0,0,0,72.6,29.644h12.74A14.322,14.322,0,0,0,85.342,1H75.793A14.34,14.34,0,0,0,61.471,15.322v4.206A39.781,39.781,0,0,0,11.624,80.568H10.548V83.75H40.784a30.245,30.245,0,1,0-13.5-3.183H16.148A36.583,36.583,0,0,1,61.471,23.344v6.3H68.5A36.575,36.575,0,0,1,40.784,90.116H13.731V93.3H78.976v5.993l20.6-12.358-20.6-12.358ZM13.731,53.515A27.053,27.053,0,1,1,40.784,80.568,27.083,27.083,0,0,1,13.731,53.515ZM64.654,15.322A11.152,11.152,0,0,1,75.793,4.183h9.548a11.139,11.139,0,1,1,0,22.279H64.654ZM82.159,80.2l11.229,6.738L82.159,93.671V90.116H56.368A39.84,39.84,0,0,0,66.6,83.75H82.159Z" transform="translate(0 0)" fill="#fff"/>
    <path id="Path_1322" data-name="Path 1322" d="M3,51H6.183v3.183H3Z" transform="translate(1.183 29.568)" fill="#fff"/>
    <path id="Path_1323" data-name="Path 1323" d="M1,57H4.183v3.183H1Z" transform="translate(0 33.116)" fill="#fff"/>
    <path id="Path_1324" data-name="Path 1324" d="M5,57H8.183v3.183H5Z" transform="translate(2.365 33.116)" fill="#fff"/>
    <path id="Path_1325" data-name="Path 1325" d="M58.741,42.87a23.87,23.87,0,1,0-23.87,23.87A23.9,23.9,0,0,0,58.741,42.87Zm-35.123,9-4.441,4.441a20.574,20.574,0,0,1-4.914-11.851h6.286V41.281H14.264A20.57,20.57,0,0,1,19.178,29.43l4.441,4.441,2.25-2.25L21.428,27.18a20.574,20.574,0,0,1,11.851-4.914v6.283h3.183V22.264a20.57,20.57,0,0,1,11.851,4.914l-4.441,4.441,2.25,2.25,4.441-4.441a20.574,20.574,0,0,1,4.914,11.851H49.192v3.183h6.284a20.57,20.57,0,0,1-4.914,11.851l-4.441-4.441-2.25,2.25,4.441,4.441a20.574,20.574,0,0,1-11.851,4.914V57.192H33.279v6.284a20.57,20.57,0,0,1-11.851-4.914l4.441-4.441Z" transform="translate(5.914 10.644)" fill="#fff"/>
    <path id="Path_1326" data-name="Path 1326" d="M27.774,42.914a4.7,4.7,0,0,0,2.045-.479l3.2,3.2,2.25-2.25-3.2-3.2a4.7,4.7,0,0,0,.479-2.045,4.768,4.768,0,0,0-3.183-4.481V27H26.183v6.658a4.762,4.762,0,0,0,1.591,9.255Zm0-6.365a1.591,1.591,0,1,1-1.591,1.591A1.594,1.594,0,0,1,27.774,36.548Z" transform="translate(13.01 15.375)" fill="#fff"/>
    <path id="Path_1327" data-name="Path 1327" d="M46,5H61.914V8.183H46Z" transform="translate(26.611 2.365)" fill="#fff"/>
    <path id="Path_1328" data-name="Path 1328" d="M46,9H61.914v3.183H46Z" transform="translate(26.611 4.731)" fill="#fff"/>
    <path id="Path_1329" data-name="Path 1329" d="M54,13h3.183v3.183H54Z" transform="translate(31.342 7.096)" fill="#fff"/>
    <path id="Path_1330" data-name="Path 1330" d="M50,13h3.183v3.183H50Z" transform="translate(28.976 7.096)" fill="#fff"/>
    <path id="Path_1331" data-name="Path 1331" d="M46,13h3.183v3.183H46Z" transform="translate(26.611 7.096)" fill="#fff"/>
  </g>
</svg>
