<svg xmlns="http://www.w3.org/2000/svg" width="93.999" height="93.617" viewBox="0 0 93.999 93.617">
  <g id="music-director" transform="translate(0 -1.04)">
    <g id="Group_406" data-name="Group 406" transform="translate(41.561 70.102)">
      <g id="Group_405" data-name="Group 405">
        <path id="Path_1434" data-name="Path 1434" d="M229.1,377.519a1.59,1.59,0,0,0-2.221.34l-.2.267a1.589,1.589,0,0,0,2.559,1.885l.2-.271A1.59,1.59,0,0,0,229.1,377.519Z" transform="translate(-226.377 -377.21)" fill="#fff"/>
      </g>
    </g>
    <g id="Group_408" data-name="Group 408" transform="translate(37.144 70.37)">
      <g id="Group_407" data-name="Group 407">
        <path id="Path_1435" data-name="Path 1435" d="M209.876,393.828l-4.087-7.432,3.816-5.2a1.589,1.589,0,1,0-2.562-1.881l-4.417,6.015a1.589,1.589,0,0,0-.112,1.707l4.577,8.321h0a1.589,1.589,0,1,0,2.785-1.532Z" transform="translate(-202.318 -378.668)" fill="#fff"/>
      </g>
    </g>
    <g id="Group_410" data-name="Group 410" transform="translate(49.127 70.395)">
      <g id="Group_409" data-name="Group 409">
        <path id="Path_1436" data-name="Path 1436" d="M275.01,385.444l-4.4-5.991a1.589,1.589,0,0,0-2.562,1.882l3.8,5.172-4.059,7.382a1.59,1.59,0,1,0,2.785,1.533l4.549-8.271A1.589,1.589,0,0,0,275.01,385.444Z" transform="translate(-267.591 -378.804)" fill="#fff"/>
      </g>
    </g>
    <g id="Group_412" data-name="Group 412" transform="translate(34.084 51.876)">
      <g id="Group_411" data-name="Group 411">
        <path id="Path_1437" data-name="Path 1437" d="M210.632,278.121a1.589,1.589,0,0,0-1.641.1,25.327,25.327,0,0,0-2.607,2.05c-4.277,3.866-8.34,3.343-8.5,3.32a1.546,1.546,0,0,0-.29-.019c-1.69.043-4.738-1.5-7.962-4.033-.493-.387-1-.756-1.5-1.1a1.589,1.589,0,0,0-2.478,1.317v5.452a1.59,1.59,0,0,0,.6,1.24,1.553,1.553,0,0,0,.138.1l11.269,7.53.005,0,.03.02a1.589,1.589,0,0,0,1.773-.012l.016-.011.019-.012,11.242-7.512c.045-.029.089-.059.132-.092a1.589,1.589,0,0,0,.611-1.253v-5.682A1.589,1.589,0,0,0,210.632,278.121ZM208.3,284.36l-9.737,6.507-9.737-6.507v-1.445c2.371,1.723,5.859,3.836,8.7,3.836h.019c.954.106,5.822.393,10.754-3.934v1.544Z" transform="translate(-185.651 -277.939)" fill="#fff"/>
      </g>
    </g>
    <g id="Group_414" data-name="Group 414" transform="translate(41.757 65.127)">
      <g id="Group_413" data-name="Group 413">
        <path id="Path_1438" data-name="Path 1438" d="M234.256,351.438a1.589,1.589,0,0,0-2.849-.679l-3.653,4.976a1.589,1.589,0,1,0,2.562,1.881l3.634-4.949a1.587,1.587,0,0,0,.327-.966A1.626,1.626,0,0,0,234.256,351.438Z" transform="translate(-227.446 -350.11)" fill="#fff"/>
      </g>
    </g>
    <g id="Group_416" data-name="Group 416" transform="translate(22.845 1.04)">
      <g id="Group_415" data-name="Group 415" transform="translate(0 0)">
        <path id="Path_1439" data-name="Path 1439" d="M172.8,15.219c-.032-.249-.776-5.622-5.834-7.742a5.463,5.463,0,0,0-.468-3.336c-.805-1.586-2.394-2.619-4.723-3.072a1.583,1.583,0,0,0-.3-.029H140.142a15.726,15.726,0,0,0-15.708,15.709v8.37a9.589,9.589,0,0,0,2.093,5.987,7.735,7.735,0,0,1,1.617,4.488,1.589,1.589,0,0,0,3.176-.09V24.591a6.991,6.991,0,0,1,5.4-5.449h6.9a7.76,7.76,0,0,0,2.373-.368c1.312-.421,3.393-1.2,4.909-1.771a4.607,4.607,0,0,1,3.16-.04l7.387,2.593a6.756,6.756,0,0,1,4.434,5.113v13.1a1.588,1.588,0,0,0,1.471,1.584c.04,0,.08,0,.12,0A1.591,1.591,0,0,0,169.038,38a22.459,22.459,0,0,1,2.687-7.422,7.122,7.122,0,0,0,1.089-3.767V15.42A1.6,1.6,0,0,0,172.8,15.219Zm-3.166,11.593a3.94,3.94,0,0,1-.58,2.04V24.561a1.581,1.581,0,0,0-.009-.172,9.907,9.907,0,0,0-6.517-7.821l-.021-.008-7.4-2.6a7.789,7.789,0,0,0-5.342.068c-2.122.806-3.765,1.4-4.751,1.715a4.586,4.586,0,0,1-1.4.217h-7.028a1.617,1.617,0,0,0-.2.013,10.117,10.117,0,0,0-8.2,8.086,1.59,1.59,0,0,0-.038.346v3.271a6.458,6.458,0,0,1-.529-2.562v-8.37a12.544,12.544,0,0,1,12.53-12.53h21.171a3.4,3.4,0,0,1,2.346,1.349,3.081,3.081,0,0,1-.069,2.269,1.589,1.589,0,0,0,1.066,2.221,6.815,6.815,0,0,1,4.979,5.482V26.812Z" transform="translate(-124.434 -1.04)" fill="#fff"/>
      </g>
    </g>
    <g id="Group_418" data-name="Group 418" transform="translate(26.552 13.525)">
      <g id="Group_417" data-name="Group 417">
        <path id="Path_1440" data-name="Path 1440" d="M185.533,79.91a9.907,9.907,0,0,0-6.517-7.821l-.021-.008-7.4-2.6a7.794,7.794,0,0,0-5.342.068c-2.122.806-3.765,1.4-4.751,1.715a4.586,4.586,0,0,1-1.4.217h-7.028a1.615,1.615,0,0,0-.2.013,10.117,10.117,0,0,0-8.2,8.086,1.59,1.59,0,0,0-.038.346V93.592c0,.012,0,.023,0,.035.01.475.346,11.682,8.09,16.808l.04.028.1.07c.442.3.885.622,1.319.962,2.256,1.771,6.507,4.713,9.861,4.713h.019a8.8,8.8,0,0,0,.948.047,15.019,15.019,0,0,0,10.018-4.17,22.16,22.16,0,0,1,2.279-1.791l.119-.083c.039-.027.077-.055.117-.082,2.583-1.735,7.057-6.212,8-16.7,0-.047.006-.095.006-.142V80.082A1.685,1.685,0,0,0,185.533,79.91Zm-3.169,13.3c-.866,9.466-4.9,13.136-6.6,14.276-.06.041-.12.082-.179.124l-.088.062a25.324,25.324,0,0,0-2.607,2.05c-4.261,3.852-8.311,3.347-8.51,3.319a1.6,1.6,0,0,0-.279-.017c-1.69.043-4.738-1.5-7.962-4.033-.493-.387-1-.756-1.5-1.1l-.039-.028c-.038-.027-.076-.054-.121-.084-6.249-4.136-6.658-13.815-6.672-14.219V80.112a6.989,6.989,0,0,1,5.393-5.449h6.9a7.76,7.76,0,0,0,2.373-.368c1.312-.421,3.394-1.2,4.909-1.771a4.607,4.607,0,0,1,3.16-.04l7.387,2.593a6.756,6.756,0,0,1,4.434,5.113V93.215Z" transform="translate(-144.628 -69.046)" fill="#fff"/>
      </g>
    </g>
    <g id="Group_420" data-name="Group 420" transform="translate(41.603 65.127)">
      <g id="Group_419" data-name="Group 419">
        <path id="Path_1441" data-name="Path 1441" d="M233.424,350.992a1.589,1.589,0,0,0-2.7-.23l-3.807,5.185a1.589,1.589,0,0,0,2.56,1.884l3.807-5.166a1.645,1.645,0,0,0,.31-.962A1.593,1.593,0,0,0,233.424,350.992Z" transform="translate(-226.606 -350.113)" fill="#fff"/>
      </g>
    </g>
    <g id="Group_422" data-name="Group 422" transform="translate(45.422 91.103)">
      <g id="Group_421" data-name="Group 421">
        <path id="Path_1442" data-name="Path 1442" d="M250.507,492.093a1.589,1.589,0,0,0-2.221-.074l-.363.332a1.589,1.589,0,0,0-.315,1.947l.011.02a1.589,1.589,0,0,0,2.512.349l.352-.352A1.589,1.589,0,0,0,250.507,492.093Z" transform="translate(-247.406 -491.602)" fill="#fff"/>
      </g>
    </g>
    <g id="Group_424" data-name="Group 424" transform="translate(45.035 91.104)">
      <g id="Group_423" data-name="Group 423">
        <path id="Path_1443" data-name="Path 1443" d="M248.326,492.351l-.363-.332a1.589,1.589,0,0,0-2.2,2.3l.353.352a1.589,1.589,0,0,0,1.124.465,1.569,1.569,0,0,0,.225-.016,1.59,1.59,0,0,0,1.169-.809l.011-.02A1.59,1.59,0,0,0,248.326,492.351Z" transform="translate(-245.301 -491.603)" fill="#fff"/>
      </g>
    </g>
    <g id="Group_426" data-name="Group 426" transform="translate(45.393 91.447)">
      <g id="Group_425" data-name="Group 425">
        <path id="Path_1444" data-name="Path 1444" d="M249.946,493.9l0,0a1.59,1.59,0,0,0-2.169,0l0,0a1.59,1.59,0,0,0-.05,2.3l.017.017a1.589,1.589,0,0,0,2.244,0L250,496.2a1.59,1.59,0,0,0-.052-2.3Z" transform="translate(-247.252 -493.472)" fill="#fff"/>
      </g>
    </g>
    <g id="Group_428" data-name="Group 428" transform="translate(45.441 65.103)">
      <g id="Group_427" data-name="Group 427">
        <path id="Path_1445" data-name="Path 1445" d="M249.586,350.056a1.589,1.589,0,1,0,1.109,1.514v0A1.587,1.587,0,0,0,249.586,350.056Z" transform="translate(-247.512 -349.981)" fill="#fff"/>
      </g>
    </g>
    <g id="Group_430" data-name="Group 430" transform="translate(45.41 65.099)">
      <g id="Group_429" data-name="Group 429">
        <path id="Path_1446" data-name="Path 1446" d="M250.224,350.623l-.014-.018a1.589,1.589,0,0,0-2.867.945v.027a1.593,1.593,0,0,0,1.593,1.583,1.608,1.608,0,0,0,.887-.267,1.589,1.589,0,0,0,.4-2.27Z" transform="translate(-247.343 -349.961)" fill="#fff"/>
      </g>
    </g>
    <g id="Group_432" data-name="Group 432" transform="translate(45.41 57.558)">
      <g id="Group_431" data-name="Group 431">
        <path id="Path_1447" data-name="Path 1447" d="M267.839,312.1a1.588,1.588,0,0,0-.95-.933L260.8,308.98a1.558,1.558,0,0,0-.152-.046,1.588,1.588,0,0,0-1.268.22L248.085,316.7l-.009.006.887,1.318-.906-1.3a1.59,1.59,0,0,0-.4,2.267l8.266,11.258a1.589,1.589,0,0,0,1.281.649c.034,0,.069,0,.1,0a1.589,1.589,0,0,0,1.289-.82l9.153-16.642A1.588,1.588,0,0,0,267.839,312.1Zm-10.832,14.258-5.81-7.913,9.279-6.2,3.586,1.286Z" transform="translate(-247.344 -308.887)" fill="#fff"/>
      </g>
    </g>
    <g id="Group_434" data-name="Group 434" transform="translate(27.991 57.559)">
      <g id="Group_433" data-name="Group 433">
        <path id="Path_1448" data-name="Path 1448" d="M173.036,317.772a1.589,1.589,0,0,0-.68-1.046l-11.328-7.57a1.591,1.591,0,0,0-1.229-.23,1.571,1.571,0,0,0-.191.055l-6.094,2.184a1.589,1.589,0,0,0-.856,2.262l9.153,16.642a1.59,1.59,0,0,0,1.289.82c.035,0,.069,0,.1,0a1.59,1.59,0,0,0,1.281-.649l4.417-6.015.01-.014,3.839-5.229A1.59,1.59,0,0,0,173.036,317.772Zm-6.7,4.576-.011.015-2.933,3.994-7.055-12.828,3.586-1.286,9.279,6.2Z" transform="translate(-152.461 -308.889)" fill="#fff"/>
      </g>
    </g>
    <g id="Group_436" data-name="Group 436" transform="translate(45.433 59.743)">
      <g id="Group_435" data-name="Group 435">
        <path id="Path_1449" data-name="Path 1449" d="M295.953,348.945l-2.05-12.38a10.959,10.959,0,0,0-7.076-8.506l-19.834-7.176a1.589,1.589,0,0,0-1.963,2.2l4.141,8.3-4.063.063a1.589,1.589,0,0,0-1.383,2.326l1.667,3.182-17.056,15.6-.051.049-.352.352a1.589,1.589,0,0,0-.27,1.886l.012.023a1.59,1.59,0,0,0,1.394.827h41.156a5.808,5.808,0,0,0,5.73-6.757Zm-3.724,2.649a2.626,2.626,0,0,1-2.006.929H253.089l15.35-14.042a1.588,1.588,0,0,0,.335-1.91l-1.037-1.98,4.007-.062a1.589,1.589,0,0,0,1.4-2.3l-3.5-7.009,16.1,5.824a7.777,7.777,0,0,1,5.022,6.037l2.05,12.38h0A2.625,2.625,0,0,1,292.23,351.594Z" transform="translate(-247.466 -320.787)" fill="#fff"/>
      </g>
    </g>
    <g id="Group_438" data-name="Group 438" transform="translate(45.41 91.462)">
      <g id="Group_437" data-name="Group 437">
        <path id="Path_1450" data-name="Path 1450" d="M250.034,493.983l-.019-.017a1.589,1.589,0,0,0-2.194.058l-.017.017a1.589,1.589,0,0,0,1.127,2.71h.035a1.589,1.589,0,0,0,1.067-2.768Z" transform="translate(-247.343 -493.556)" fill="#fff"/>
      </g>
    </g>
    <g id="Group_440" data-name="Group 440" transform="translate(45.388 91.436)">
      <g id="Group_439" data-name="Group 439">
        <path id="Path_1451" data-name="Path 1451" d="M249.884,493.821a1.59,1.59,0,0,0-2.457.417l-.011.02a1.589,1.589,0,0,0,.251,1.869l.006.006a1.589,1.589,0,0,0,2.213.069l.017-.015a1.589,1.589,0,0,0,.351-.464A1.607,1.607,0,0,0,249.884,493.821Z" transform="translate(-247.22 -493.413)" fill="#fff"/>
      </g>
    </g>
    <g id="Group_442" data-name="Group 442" transform="translate(0 59.743)">
      <g id="Group_441" data-name="Group 441">
        <path id="Path_1452" data-name="Path 1452" d="M48.12,352.984l-.007-.007-.013-.013-.353-.352-.051-.049-17.056-15.6,1.667-3.182a1.589,1.589,0,0,0-1.383-2.327l-4.064-.063,4.141-8.3a1.589,1.589,0,0,0-1.963-2.2L9.2,328.057a10.959,10.959,0,0,0-7.077,8.506l-2.05,12.38a5.808,5.808,0,0,0,5.73,6.757H47a1.589,1.589,0,0,0,1.12-2.716Zm-42.311-.462a2.63,2.63,0,0,1-2.594-3.059l2.05-12.38a7.777,7.777,0,0,1,5.022-6.037l16.1-5.824L22.89,332.23a1.589,1.589,0,0,0,1.4,2.3l4.007.062-1.037,1.98a1.589,1.589,0,0,0,.335,1.91l15.35,14.042Z" transform="translate(0 -320.786)" fill="#fff"/>
      </g>
    </g>
    <g id="Group_444" data-name="Group 444" transform="translate(41.561 65.135)">
      <g id="Group_443" data-name="Group 443">
        <path id="Path_1453" data-name="Path 1453" d="M237.224,357.389a1.589,1.589,0,0,0-.261-1.326L233.1,350.8a1.59,1.59,0,0,0-2.611.087l-3.8,5.152a1.59,1.59,0,0,0-.026,1.853l1.617,2.322-1.722,10.857a1.59,1.59,0,0,0,.177,1.015l3.69,6.709a1.589,1.589,0,0,0,2.785,0l3.717-6.758a1.591,1.591,0,0,0,.2-.766h0a1.618,1.618,0,0,0-.02-.249l-1.715-10.806,1.6-2.3A1.608,1.608,0,0,0,237.224,357.389Zm-5.409,17.338-2.035-3.7,1.738-10.951a1.588,1.588,0,0,0-.265-1.157l-1.332-1.913,1.9-2.577,1.909,2.6-1.316,1.89a1.589,1.589,0,0,0-.265,1.157l1.73,10.9Z" transform="translate(-226.376 -350.155)" fill="#fff"/>
      </g>
    </g>
  </g>
</svg>
