<svg xmlns="http://www.w3.org/2000/svg" width="102" height="102.002" viewBox="0 0 102 102.002">
  <g id="music" transform="translate(-1 -0.999)">
    <path id="Path_1318" data-name="Path 1318" d="M98.065,79.968a1.644,1.644,0,0,0,1.645-1.645V73.388h1.645A1.644,1.644,0,0,0,103,71.743V52a1.644,1.644,0,0,0-1.645-1.645H99.71V45.42a1.644,1.644,0,0,0-1.645-1.645H95.705L77.6,13.6,82.47,10.63a1.647,1.647,0,0,0,.614-2.14l-3.29-6.581a1.647,1.647,0,0,0-2.338-.665L8.757,43.775H5.935A1.644,1.644,0,0,0,4.29,45.42v4.935H2.645A1.644,1.644,0,0,0,1,52V71.743a1.644,1.644,0,0,0,1.645,1.645H4.29v4.935a1.644,1.644,0,0,0,1.645,1.645H7.694L9.1,99.71H1V103H103V99.71H94.9l1.41-19.742Zm-1.645-3.29H86.548v-3.29h9.871ZM19.1,79.968a1.644,1.644,0,0,0,1.645-1.645V73.388H47.065V89.839h-3.29v3.29H60.226v-3.29h-3.29V73.388H83.258v4.935A1.644,1.644,0,0,0,84.9,79.968h1.759l1.41,19.742H15.928l1.41-19.742ZM4.29,63.517h3.29V70.1H4.29Zm6.581,0h3.29V70.1h-3.29ZM89.839,70.1V63.517h3.29V70.1Zm-3.29,0h-3.29V63.517h3.29Zm-6.581,0h-3.29V63.517h3.29Zm-6.581,0H70.1V63.517h3.29Zm-6.581,0h-3.29V63.517h3.29Zm-6.581,0h-3.29V63.517h3.29ZM50.355,89.839V73.388h3.29V89.839ZM53.645,70.1h-3.29V63.517h3.29Zm-6.581,0h-3.29V63.517h3.29Zm-6.581,0h-3.29V63.517h3.29Zm-6.581,0h-3.29V63.517H33.9Zm-6.581,0h-3.29V63.517h3.29Zm-6.581,0h-3.29V63.517h3.29Zm75.677,0V63.517h3.29V70.1ZM91.869,43.775H28.236L74.8,15.32ZM77.658,4.994l1.808,3.618L21.923,43.775H15.01ZM7.581,47.065H96.419v3.29H7.581ZM99.71,53.646v6.581H4.29V53.646ZM7.581,73.388h9.871v3.29H7.581Zm3.412,6.581h3.048L12.63,99.71H12.4ZM91.6,99.71h-.229l-1.41-19.742h3.048Z" transform="translate(0)" fill="#fff"/>
    <path id="Path_1319" data-name="Path 1319" d="M5.935,28.452a4.942,4.942,0,0,0,4.935-4.935V15.29h6.581V12H9.226a1.644,1.644,0,0,0-1.645,1.645v5.238a4.88,4.88,0,0,0-1.645-.3,4.935,4.935,0,0,0,0,9.871Zm0-6.581A1.645,1.645,0,1,1,4.29,23.516,1.646,1.646,0,0,1,5.935,21.871Z" transform="translate(0 7.097)" fill="#fff"/>
    <path id="Path_1320" data-name="Path 1320" d="M19.935,17.452a4.942,4.942,0,0,0,4.935-4.935V4.29h6.581V1H23.226a1.644,1.644,0,0,0-1.645,1.645V7.883a4.88,4.88,0,0,0-1.645-.3,4.935,4.935,0,0,0,0,9.871Zm0-6.581a1.645,1.645,0,1,1-1.645,1.645A1.646,1.646,0,0,1,19.935,10.871Z" transform="translate(9.032 0.001)" fill="#fff"/>
  </g>
</svg>
