<svg xmlns="http://www.w3.org/2000/svg" width="89.279" height="89.301" viewBox="0 0 89.279 89.301">
  <g id="neiro" transform="translate(-1.985 -1.985)">
    <path id="Path_1389" data-name="Path 1389" d="M32.488,8A1.488,1.488,0,0,0,31,9.488V73.455a1.488,1.488,0,1,0,2.975,0V9.488A1.488,1.488,0,0,0,32.488,8Z" transform="translate(14.148 2.933)" fill="#fff"/>
    <path id="Path_1390" data-name="Path 1390" d="M27.488,29A1.488,1.488,0,0,0,26,30.488v1.488a1.488,1.488,0,1,0,2.975,0V30.488A1.488,1.488,0,0,0,27.488,29Z" transform="translate(11.71 13.173)" fill="#fff"/>
    <path id="Path_1391" data-name="Path 1391" d="M35,19.488v1.488a1.488,1.488,0,0,0,2.975,0V19.488a1.488,1.488,0,0,0-2.975,0Z" transform="translate(16.098 7.809)" fill="#fff"/>
    <path id="Path_1392" data-name="Path 1392" d="M16.95,26A5.95,5.95,0,0,0,11,31.95a1.488,1.488,0,1,0,2.975,0,2.975,2.975,0,1,1,2.975,2.975,1.488,1.488,0,1,0,0,2.975,5.95,5.95,0,0,0,0-11.9Z" transform="translate(4.396 11.71)" fill="#fff"/>
    <path id="Path_1393" data-name="Path 1393" d="M47.95,40.9a1.488,1.488,0,1,0,0-2.975,2.975,2.975,0,0,1,0-5.95,1.488,1.488,0,1,0,0-2.975,5.95,5.95,0,0,0,0,11.9Z" transform="translate(19.512 13.173)" fill="#fff"/>
    <path id="Path_1394" data-name="Path 1394" d="M37.975,39H36.488a1.488,1.488,0,1,0,0,2.975h1.488a1.488,1.488,0,0,0,0-2.975Z" transform="translate(16.098 18.049)" fill="#fff"/>
    <path id="Path_1395" data-name="Path 1395" d="M42.776,29.725a1.488,1.488,0,0,0-1.651-2.475l-.488.326A10.389,10.389,0,0,0,36,36.24v1.174a1.488,1.488,0,0,0,2.975,0V36.24a7.42,7.42,0,0,1,3.313-6.188Z" transform="translate(16.586 12.197)" fill="#fff"/>
    <path id="Path_1396" data-name="Path 1396" d="M38.463,11.95a1.488,1.488,0,0,0,2.975,0A5.95,5.95,0,0,0,35.488,6a1.488,1.488,0,0,0,0,2.975A2.975,2.975,0,0,1,38.463,11.95Z" transform="translate(15.611 1.958)" fill="#fff"/>
    <path id="Path_1397" data-name="Path 1397" d="M22.463,45.975a1.488,1.488,0,1,0,0-2.975,4.463,4.463,0,1,0,0,8.926,1.488,1.488,0,1,0,0-2.975,1.488,1.488,0,1,1,0-2.975Z" transform="translate(7.809 19.999)" fill="#fff"/>
    <path id="Path_1398" data-name="Path 1398" d="M85.313,79.363a5.95,5.95,0,0,0-5.739,4.463h-13.6V77.442A10.4,10.4,0,0,0,73.3,68.95h.11a8.9,8.9,0,0,0,8.569-11.4A14.68,14.68,0,0,0,86.8,46.635a14.876,14.876,0,0,0-8.276-13.311A13.375,13.375,0,0,0,80.76,27.3h4.554A1.488,1.488,0,0,0,86.8,25.809V13.7a5.95,5.95,0,1,0-2.975,0V24.321H80.763A13.333,13.333,0,0,0,64.4,12.786c-.018-.207-.007-.411-.037-.617a11.954,11.954,0,0,0-10.5-10.1A11.8,11.8,0,0,0,46.635,3.6,11.8,11.8,0,0,0,39.4,2.073,11.917,11.917,0,0,0,28.869,12.452c-.013.11-.015.219-.025.329a13.254,13.254,0,0,0-3.035-.36V7.958A1.488,1.488,0,0,0,24.321,6.47H13.7a5.95,5.95,0,1,0,0,2.975h9.137v3.32a13.357,13.357,0,0,0-8.088,20.559A14.876,14.876,0,0,0,6.47,46.635,14.692,14.692,0,0,0,11.29,57.55a8.887,8.887,0,0,0-.357,2.474H7.958A1.488,1.488,0,0,0,6.47,61.512V79.574a5.95,5.95,0,1,0,2.975,0V63h2.008a8.926,8.926,0,0,0,8.4,5.95c.04,0,.073-.01.113-.01a10.4,10.4,0,0,0,13.3,8.49c0,.149-.027.3-.027.446a13.388,13.388,0,0,0,26.777,0c0-.149-.021-.3-.025-.446a10.37,10.37,0,0,0,3,.446v7.438A1.488,1.488,0,0,0,64.487,86.8H79.574a5.94,5.94,0,1,0,5.739-7.438ZM82.338,7.958a2.975,2.975,0,1,1,2.975,2.975A2.975,2.975,0,0,1,82.338,7.958ZM7.958,10.933a2.975,2.975,0,1,1,2.975-2.975A2.975,2.975,0,0,1,7.958,10.933Zm2.975,74.38a2.975,2.975,0,1,1-2.975-2.975A2.975,2.975,0,0,1,10.933,85.313Zm48.2-11.5a1.534,1.534,0,0,0-.149-.107,7.338,7.338,0,0,1-3.347-5.265,6.651,6.651,0,0,1-.074-.979,1.488,1.488,0,0,0-2.975,0,9.47,9.47,0,0,0,.1,1.4,10.264,10.264,0,0,0,4.141,6.961,10.194,10.194,0,0,1,.222,2.057,10.413,10.413,0,1,1-20.826,0,10.265,10.265,0,0,1,.219-2.044,10.391,10.391,0,0,0,4.244-8.369,1.488,1.488,0,0,0-2.975,0,7.439,7.439,0,1,1-14.876-.231,7.692,7.692,0,0,1,7.811-7.207h2.6a7.447,7.447,0,0,0,7.438-7.438V51.1a1.488,1.488,0,0,0-2.975,0v1.488a4.463,4.463,0,0,1-4.463,4.463h-2.6a10.751,10.751,0,0,0-10.668,8.914c-.043,0-.076.012-.119.012A5.931,5.931,0,0,1,14.735,63h2.148a1.488,1.488,0,0,0,0-2.975H13.908a5.95,5.95,0,0,1,5.95-5.95,1.488,1.488,0,1,0,0-2.975,8.912,8.912,0,0,0-7.187,3.654,11.752,11.752,0,0,1-3.227-8.116,11.914,11.914,0,0,1,8.17-11.292c.024-.009.048-.016.071-.027a11.871,11.871,0,0,1,11.77,2.611,1.487,1.487,0,1,0,2.028-2.177,14.753,14.753,0,0,0-13.857-3.5,10.4,10.4,0,0,1,5.207-16.405v9.967a1.488,1.488,0,0,0,2.975,0V15.4a10.224,10.224,0,0,1,3.161.5,11.94,11.94,0,0,0,7.28,9.06A4.487,4.487,0,0,1,39.2,29.034v2.725a1.488,1.488,0,1,0,2.975,0V29.034a7.438,7.438,0,0,0-4.812-6.843,8.924,8.924,0,1,1,8.424-15.6,1.488,1.488,0,0,0,1.7,0,8.926,8.926,0,1,1,8.926,15.385,1.489,1.489,0,0,0,1.279,2.688,11.868,11.868,0,0,0,6.621-8.777,10.217,10.217,0,0,1,3.149-.489,10.413,10.413,0,0,1,10.294,8.926H67.462a1.488,1.488,0,0,0,0,2.975h10.3a10.425,10.425,0,0,1-2.114,4.951,14.753,14.753,0,0,0-13.854,3.5,1.487,1.487,0,1,0,2.028,2.177,11.871,11.871,0,0,1,11.77-2.611c.024.01.048.018.073.027a11.916,11.916,0,0,1,8.165,11.292A11.752,11.752,0,0,1,80.6,54.752,8.908,8.908,0,0,0,73.412,51.1a1.488,1.488,0,0,0,0,2.975,5.95,5.95,0,0,1,0,11.9c-.042,0-.073-.01-.115-.012a10.758,10.758,0,0,0-10.671-8.914h-2.6a1.488,1.488,0,1,0,0,2.975h2.6a7.7,7.7,0,0,1,7.81,7.213q0,.018,0,.036v.048a7.408,7.408,0,0,1-4.463,6.956V68.95a1.488,1.488,0,1,0-2.975,0V74.9A7.389,7.389,0,0,1,59.131,73.813ZM85.313,88.288a2.975,2.975,0,1,1,2.975-2.975A2.975,2.975,0,0,1,85.313,88.288Z" transform="translate(0 0)" fill="#fff"/>
    <path id="Path_1399" data-name="Path 1399" d="M29.95,13.463a2.975,2.975,0,0,1-2.975-2.975,1.488,1.488,0,0,0-2.975,0,5.95,5.95,0,0,0,5.95,5.95,1.488,1.488,0,0,0,0-2.975Z" transform="translate(10.735 3.421)" fill="#fff"/>
    <path id="Path_1400" data-name="Path 1400" d="M50.488,29.975a2.975,2.975,0,0,1,2.975,2.975,1.488,1.488,0,1,0,2.975,0A5.95,5.95,0,0,0,50.488,27a1.488,1.488,0,1,0,0,2.975Z" transform="translate(22.925 12.197)" fill="#fff"/>
    <path id="Path_1401" data-name="Path 1401" d="M32.488,55A1.488,1.488,0,0,0,31,56.488v1.488a1.488,1.488,0,0,0,2.975,0V56.488A1.488,1.488,0,0,0,32.488,55Z" transform="translate(14.148 25.85)" fill="#fff"/>
  </g>
</svg>
