<svg xmlns="http://www.w3.org/2000/svg" width="105.994" height="105.994" viewBox="0 0 105.994 105.994">
  <g id="nvtp" transform="translate(0 0)">
    <path id="Path_1405" data-name="Path 1405" d="M102.416,53.307a47.333,47.333,0,0,0-.354-4.778A60.563,60.563,0,0,0,91.816,21.783a54.756,54.756,0,0,0-10.9-11.714A44.393,44.393,0,0,0,53,0a43.565,43.565,0,0,0-6.323.459,44.8,44.8,0,0,0-21.236,9.31q-1.745,1.373-3.415,2.931a57.213,57.213,0,0,0-9.389,11.43q-.706,1.133-1.364,2.3A60.983,60.983,0,0,0,4.7,43.827,53.787,53.787,0,0,0,3.574,53.3,5.3,5.3,0,0,0,0,58.3v1.767a5.3,5.3,0,0,0,5.3,5.3H7.15c.841,16.846,13.568,31.673,31.715,36.862v2a1.767,1.767,0,0,0,1.767,1.767H65.364a1.767,1.767,0,0,0,1.767-1.767v-2C85.278,97.036,98,82.209,98.845,65.363h1.849a5.3,5.3,0,0,0,5.3-5.3V58.3a5.29,5.29,0,0,0-3.579-4.989ZM86.461,33.617A8.377,8.377,0,0,1,84.8,30.049c.06-.512,1.4-2.284,5.052-4.8.177.27.354.53.53.811.228.366.452.731.673,1.1.341.58.669,1.168.991,1.767.192.354.388.706.574,1.06.354.68.684,1.371,1.009,2.065.13.277.272.553.4.834.443.985.862,1.981,1.247,2.989.041.1.072.206.111.309q.512,1.353.954,2.726c.1.313.176.627.28.94.214.706.421,1.423.606,2.137.095.369.176.74.268,1.109q.238,1,.436,2c.078.391.152.783.219,1.175.047.276.083.549.127.825a19.753,19.753,0,0,1-7.382-.972c-3.688-1.842-3.668-2.846-2.742-4.7,1.453-2.916-.288-5.63-1.687-7.809ZM56.306,3.678c.364.03.726.09,1.088.13.73.082,1.458.165,2.181.286.43.074.857.177,1.284.261.648.133,1.3.264,1.943.43.451.115.895.253,1.34.383.612.177,1.224.364,1.828.574.453.157.9.33,1.345.5.59.228,1.177.464,1.758.72.443.2.883.4,1.323.617q.858.417,1.7.873.647.353,1.286.722c.558.327,1.109.674,1.659,1.03.413.267.827.53,1.237.822.176.123.353.261.53.388-2.306,1.654-4.381,3.487-4.381,6.247,0,2.464-2.591,7.066-8.833,7.066-3.21,0-5.579-1.735-8.089-3.57-2.346-1.719-4.773-3.5-7.81-3.5a10.519,10.519,0,0,0-5.728,2.077c-2.514,1.564-4.5,2.8-9.263-.058a31.848,31.848,0,0,1-6.985-5.507c.33-.288.661-.577,1-.855.475-.392.951-.784,1.434-1.153.581-.442,1.173-.857,1.767-1.267.487-.336.975-.676,1.472-.991.613-.386,1.237-.742,1.864-1.095.5-.281.993-.571,1.5-.829.649-.332,1.308-.625,1.965-.92.5-.226,1-.465,1.51-.668.683-.274,1.379-.5,2.072-.738.5-.177,1-.354,1.5-.505.733-.216,1.477-.381,2.22-.555.48-.111.956-.248,1.441-.341C46.288,4.1,47.129,4,47.968,3.89c.41-.052.817-.133,1.237-.177,1.249-.115,2.515-.18,3.793-.18,1.108,0,2.212.051,3.309.145ZM23.151,16.561a35.031,35.031,0,0,0,7.737,6.151c6.614,3.97,10.126,1.785,12.947.028A7.447,7.447,0,0,1,47.7,21.2c1.881,0,3.663,1.3,5.724,2.812,2.724,2,5.809,4.254,10.175,4.254,8.068,0,12.366-6.155,12.366-10.6,0-1.309,1.717-2.554,3.747-3.982a51.108,51.108,0,0,1,8.126,8.668c-4.355,2.985-6.574,5.569-6.574,7.68a10.516,10.516,0,0,0,2.228,5.5c1.275,1.986,2.013,3.268,1.491,4.313-2.91,5.821,2.161,8.354,4.33,9.438a21.374,21.374,0,0,0,8.329,1.342c.354,0,.706-.012,1.06-.022.074.8.177,1.59.2,2.4H7.1a50.323,50.323,0,0,1,.9-7.528c3.193-1.236,5.9-1.33,6.312-.516,2.256,4.51,8.4,4.51,10.414,4.51,2.351,0,5.28-3.87,5.748-6.761a4.7,4.7,0,0,0-3.424-5.513c-2.584-.864-2.775-1.943-3.154-4.094a13.39,13.39,0,0,0-1.123-3.854c-.8-1.591-2.795-3.2-6.048-4.873a53.611,53.611,0,0,1,6.419-7.808ZM9.042,41q.388-1.4.853-2.786c.066-.192.123-.388.191-.581.364-1.049.763-2.087,1.189-3.119.1-.246.21-.49.315-.735q.577-1.347,1.222-2.665c.085-.176.163-.353.249-.518q.747-1.489,1.59-2.925c.06-.1.123-.205.177-.31,3.766,1.894,4.614,3.108,4.791,3.462a10.209,10.209,0,0,1,.806,2.889,7.373,7.373,0,0,0,5.517,6.83c1.06.353,1.074.848,1.084,1.143a6.417,6.417,0,0,1-2.48,4.248c-1.64,0-5.829-.1-7.066-2.56a4.977,4.977,0,0,0-4.848-2.489,14.408,14.408,0,0,0-3.71.555c.035-.147.078-.293.121-.44Zm1.605,24.366h1.767c.806,14.1,11.179,26.431,26.451,31.355v1.856c-16.122-4.99-27.382-18.236-28.218-33.211ZM67,93.013a1.756,1.756,0,0,0-1.637-1.152H40.631a1.757,1.757,0,0,0-1.643,1.152c-13.26-4.642-22.206-15.4-23.008-27.65H90.014c-.794,12.251-9.748,23.008-23.008,27.65Zm-3.4,9.448H42.4V95.395H63.6Zm3.533-3.887V96.719C82.4,91.794,92.775,79.462,93.579,65.363h1.767C94.511,80.338,83.251,93.584,67.13,98.574Zm35.331-38.511a1.767,1.767,0,0,1-1.767,1.767H5.3a1.767,1.767,0,0,1-1.767-1.767V58.3A1.767,1.767,0,0,1,5.3,56.53h95.395a1.767,1.767,0,0,1,1.767,1.767Zm0,0" transform="translate(0 0)" fill="#fff"/>
    <path id="Path_1406" data-name="Path 1406" d="M150.213,145.417c.926-.461,1.591.079,3.774,3.048a31.321,31.321,0,0,0,3.021,3.687c1.834,1.834,5.5,2.544,9.243,2.544,4.692,0,9.5-1.118,10.921-2.544.354-.353.862-.781,1.438-1.271,2.593-2.212,6.146-5.229,6.146-8.819a8.479,8.479,0,0,0-11.389-6.881c-1.613.809-6.083,1.134-18.213-1.9-.028-.007-.055-.013-.084-.017-.966-.2-9.539-1.834-13.5.15a3.476,3.476,0,0,0-1.943,3.051,6.559,6.559,0,0,0,.8,3.179c1.786,3.553,6.361,7.473,9.786,5.773Zm-7.066-8.833c2.164-1.084,7.993-.491,11.189.145,11.007,2.747,17.359,3.245,20.609,1.622a5.067,5.067,0,0,1,6.277,3.71c0,1.954-3.066,4.561-4.9,6.117-.662.564-1.237,1.06-1.63,1.447-1.523,1.248-12.472,2.736-15.193.019a28.2,28.2,0,0,1-2.657-3.28c-1.566-2.131-3.435-4.673-6.038-4.673a4.835,4.835,0,0,0-2.163.555c-.354.177-1.431-.122-2.774-1.305a7.152,7.152,0,0,1-2.722-4.357Zm0,0" transform="translate(-108.792 -103.196)" fill="#fff"/>
  </g>
</svg>
