<svg xmlns="http://www.w3.org/2000/svg" width="74.902" height="104.497" viewBox="0 0 74.902 104.497">
  <g id="oligofrenologika" transform="translate(-59.162)">
    <circle id="Ellipse_46" data-name="Ellipse 46" cx="2.94" cy="2.94" r="2.94" transform="translate(79.99 28.995)" fill="#fff"/>
    <circle id="Ellipse_47" data-name="Ellipse 47" cx="2.94" cy="2.94" r="2.94" transform="translate(107.356 28.995)" fill="#fff"/>
    <path id="Path_1338" data-name="Path 1338" d="M185.1,159.51a10.418,10.418,0,0,0,7.39-3.056,1.876,1.876,0,0,0-2.653-2.653,6.706,6.706,0,0,1-9.473,0,1.876,1.876,0,0,0-2.653,2.653A10.417,10.417,0,0,0,185.1,159.51Z" transform="translate(-88.483 -114.921)" fill="#fff"/>
    <path id="Path_1339" data-name="Path 1339" d="M118.778,48.2a29.205,29.205,0,1,0-44.329,0A18.948,18.948,0,0,0,59.162,66.766V104.5h3.752V66.766a15.179,15.179,0,0,1,7.966-13.345V104.5h3.752V85.247h8.731V55.227q1,.51,2.039.944l9.334,11.845V104.5h3.752V68.016l9.333-11.843q1.013-.422,1.987-.917V85.248h8.731V104.5h3.752V53.392a15.179,15.179,0,0,1,8.023,13.374V104.5h3.752V66.766A18.948,18.948,0,0,0,118.778,48.2Zm.846-29.871a16.509,16.509,0,0,1-28.164-11.7c0-.519.024-1.039.071-1.546l.005-.058c.025-.262.059-.525.1-.788a25.458,25.458,0,0,1,27.991,14.088ZM87.425,5.468a16.539,16.539,0,0,1-11.931,9.544A25.6,25.6,0,0,1,87.425,5.468ZM73.277,19.048a20.3,20.3,0,0,0,14.983-7.732,20.26,20.26,0,0,0,32.8,10.791,25.455,25.455,0,1,1-47.782-3.059ZM79.61,81.5H74.631V52a15.137,15.137,0,0,1,3.264-.4q.833.7,1.716,1.332V81.5Zm17-17.161L91.6,57.979a29.3,29.3,0,0,0,10.018,0ZM118.538,81.5h-4.979V52.978q.914-.653,1.773-1.374a15.146,15.146,0,0,1,3.206.382V81.5Z" transform="translate(0)" fill="#fff"/>
  </g>
</svg>
