<svg xmlns="http://www.w3.org/2000/svg" width="90.456" height="97.594" viewBox="0 0 90.456 97.594">
  <g id="physics" transform="translate(0.001)">
    <path id="Path_1366" data-name="Path 1366" d="M211.2,214a8.006,8.006,0,1,0,8.006,8.006A8.015,8.015,0,0,0,211.2,214Zm0,12.2a4.194,4.194,0,1,1,4.193-4.194A4.2,4.2,0,0,1,211.2,226.2Zm0,0" transform="translate(-164.467 -173.209)" fill="#fff"/>
    <path id="Path_1367" data-name="Path 1367" d="M447.307,186.593a1.907,1.907,0,0,0-2.528.937l-.055.12a1.906,1.906,0,1,0,3.453,1.614l.067-.144A1.905,1.905,0,0,0,447.307,186.593Zm0,0" transform="translate(-359.808 -150.885)" fill="#fff"/>
    <path id="Path_1368" data-name="Path 1368" d="M83.982,52.087Q82.738,50.441,81.3,48.8q1.612-1.839,2.985-3.69a1.906,1.906,0,0,0-3.063-2.27c-.778,1.051-1.625,2.1-2.529,3.15A89.563,89.563,0,0,0,67.8,36.624a90.859,90.859,0,0,0-2.66-14.091q1.807-.346,3.543-.563c8.607-1.069,14.81.51,17.018,4.334a7.715,7.715,0,0,1,.934,4.3,1.906,1.906,0,0,0,3.808.188A11.451,11.451,0,0,0,89,24.4c-3.055-5.292-10.438-7.5-20.789-6.211-1.368.171-2.77.4-4.2.684-.57-1.686-1.191-3.29-1.858-4.8A7.048,7.048,0,0,0,54.081,2.723,11.864,11.864,0,0,0,46.738,0c-6.11,0-11.712,5.291-15.773,14.9-.536,1.268-1.037,2.6-1.506,3.972-1.426-.283-2.826-.513-4.193-.683C14.916,16.9,7.533,19.107,4.478,24.4S3.2,37.187,9.494,45.508q1.246,1.65,2.691,3.294-1.761,2-3.223,4.005c-.028-.008-.054-.017-.081-.024a7.054,7.054,0,0,0-5.717,12.7A11.864,11.864,0,0,0,4.478,73.2C6.964,77.5,12.317,79.765,19.8,79.765a44.379,44.379,0,0,0,5.464-.358q2.049-.255,4.193-.683c.468,1.377.969,2.7,1.5,3.972,4.062,9.607,9.663,14.9,15.773,14.9S58.449,92.3,62.511,82.7q.805-1.905,1.507-3.978c1.745.35,3.444.614,5.083.789a7.052,7.052,0,0,0,13.87-1.315A11.869,11.869,0,0,0,89,73.2c3.055-5.292,1.273-12.788-5.016-21.109ZM76.108,48.8a81.579,81.579,0,0,1-7.858,7.04c.144-2.312.217-4.663.217-7.041s-.077-4.724-.224-7.043A81.785,81.785,0,0,1,76.108,48.8ZM55.7,64.314c-2.971,1.715-5.968,3.264-8.948,4.631-3-1.371-6.006-2.92-8.97-4.631s-5.818-3.541-8.495-5.44c-.307-3.269-.464-6.643-.464-10.077s.157-6.8.462-10.065c2.686-1.911,5.532-3.741,8.5-5.453s5.975-3.268,8.959-4.637c2.984,1.369,5.984,2.92,8.959,4.637s5.811,3.536,8.485,5.433c.311,3.281.474,6.661.474,10.084s-.158,6.809-.464,10.078c-2.675,1.9-5.518,3.721-8.495,5.439Zm7.892-.405a81.63,81.63,0,0,1-2.164,10.313,82.824,82.824,0,0,1-10.011-3.284q3.1-1.544,6.189-3.323t5.986-3.707Zm-21.5,7.034a81.9,81.9,0,0,1-10.031,3.289,81.767,81.767,0,0,1-2.167-10.324q2.895,1.92,5.986,3.707c2.053,1.185,4.129,2.3,6.211,3.328ZM25.225,55.835a81.679,81.679,0,0,1-7.85-7.031,82.891,82.891,0,0,1,7.849-7.028c-.143,2.306-.216,4.651-.216,7.021s.073,4.727.217,7.038Zm4.66-22.141a81.609,81.609,0,0,1,2.167-10.332,81.726,81.726,0,0,1,10.023,3.286q-3.111,1.546-6.2,3.331t-5.987,3.715Zm33.69-.017q-2.888-1.915-5.972-3.7t-6.2-3.331a81.783,81.783,0,0,1,10.013-3.283,82.842,82.842,0,0,1,2.162,10.312ZM60.468,9.033a3.24,3.24,0,1,1-3.24-3.24A3.244,3.244,0,0,1,60.468,9.033Zm-25.992,7.35c3.377-7.989,7.846-12.57,12.262-12.57a7.859,7.859,0,0,1,4.479,1.535,7.048,7.048,0,0,0,7.576,10.56q.791,1.815,1.484,3.817a89.5,89.5,0,0,0-13.54,4.744,89.492,89.492,0,0,0-13.543-4.745q.6-1.733,1.281-3.341ZM12.535,43.209C7.306,36.29,5.572,30.129,7.78,26.3s8.41-5.4,17.017-4.334q1.73.216,3.534.561a89.56,89.56,0,0,0-2.664,14.116A90.831,90.831,0,0,0,14.794,46q-1.2-1.393-2.259-2.788ZM3.925,58.756a3.245,3.245,0,0,1,3.125-2.4,3.277,3.277,0,0,1,.844.112,3.24,3.24,0,1,1-3.969,2.291ZM24.8,75.624C16.19,76.693,9.988,75.113,7.78,71.29a7.865,7.865,0,0,1-.911-4.645c.066,0,.133.007.2.007A7.056,7.056,0,0,0,12.228,54.8q1.175-1.59,2.562-3.192a89.4,89.4,0,0,0,10.878,9.354,89.388,89.388,0,0,0,2.662,14.1q-1.8.345-3.534.561ZM59,81.212c-3.377,7.989-7.846,12.57-12.262,12.57S37.854,89.2,34.476,81.212q-.679-1.606-1.281-3.341A89.361,89.361,0,0,0,46.752,73.12a90.816,90.816,0,0,0,13.533,4.742Q59.68,79.6,59,81.212Zm19.737-1.827a3.241,3.241,0,1,1,.324-2.459,3.245,3.245,0,0,1-.324,2.459Zm6.96-8.1A7.863,7.863,0,0,1,82.131,74.4a7.05,7.05,0,0,0-12.937,1.281q-1.967-.222-4.047-.623a89.5,89.5,0,0,0,2.66-14.094A89.2,89.2,0,0,0,78.69,51.607q1.2,1.387,2.251,2.779c5.23,6.919,6.963,13.08,4.756,16.9Zm0,0" transform="translate(0)" fill="#fff"/>
  </g>
</svg>
