<svg id="physical-education" xmlns="http://www.w3.org/2000/svg" width="84.68" height="84.68" viewBox="0 0 84.68 84.68">
  <g id="Group_289" data-name="Group 289">
    <path id="Path_1301" data-name="Path 1301" d="M83.314,0H1.366A1.29,1.29,0,0,0,0,1.366V50.535A1.29,1.29,0,0,0,1.366,51.9H24.311A23.078,23.078,0,0,0,34.828,60.1H21.853a1.29,1.29,0,0,0-1.366,1.366v5.463a1.29,1.29,0,0,0,1.366,1.366h4.371l2.458,15.3a1.33,1.33,0,0,0,1.366,1.093H54.632A1.471,1.471,0,0,0,56,83.587l2.458-15.3h4.371a1.29,1.29,0,0,0,1.366-1.366V61.461A1.29,1.29,0,0,0,62.827,60.1H49.852A23.078,23.078,0,0,0,60.368,51.9H83.314a1.29,1.29,0,0,0,1.366-1.366V1.366A1.29,1.29,0,0,0,83.314,0ZM23.355,40.974H40.974V47.8a20.348,20.348,0,0,0-9.287,3.141l-3,2.049A19.048,19.048,0,0,1,23.355,40.974Zm8.331-12.839a17.6,17.6,0,0,0,9.287,3.141v6.829H23.355a19.019,19.019,0,0,1,5.327-11.882Zm-.819-3.688a19.555,19.555,0,0,1,10.107-3.824v8.058a16.2,16.2,0,0,1-7.785-2.732Zm0,30.321,2.322-1.5a17.756,17.756,0,0,1,7.785-2.732v8.058A19.117,19.117,0,0,1,30.867,54.769ZM29.774,73.48l-.546-3.688L36.74,71.7Zm4.507-5.19H50.4L42.34,70.339Zm15.57,6.692L42.34,76.621l-7.512-1.639L42.34,73.07ZM30.184,76.895l5.463,1.093L30.594,79.08Zm23.355,5.053H31.14v-.273l11.2-2.322,11.2,2.322Zm.41-2.868L48.9,77.987l5.463-1.093Zm.956-5.736L47.94,71.7l7.512-1.912Zm6.556-10.517v2.732H23.219V62.827ZM43.706,58.593V50.535a16.2,16.2,0,0,1,7.785,2.732l2.322,1.5A19.555,19.555,0,0,1,43.706,58.593ZM56,52.993l-3-1.912a17.6,17.6,0,0,0-9.287-3.141V41.111H61.324A19.019,19.019,0,0,1,56,52.993ZM43.706,38.379V31.413a20.348,20.348,0,0,0,9.287-3.141l3-1.912a19.958,19.958,0,0,1,5.463,12.019Zm0-9.7V20.624a19.117,19.117,0,0,1,10.107,3.824l-2.322,1.5A17.756,17.756,0,0,1,43.706,28.682ZM66.924,49.169H62.007a23.287,23.287,0,0,0,2.185-9.561,21.853,21.853,0,0,0-43.706,0,23.42,23.42,0,0,0,2.185,9.7H17.755V13.658H66.924Zm15.024,0H69.656V12.292a1.29,1.29,0,0,0-1.366-1.366H16.39a1.29,1.29,0,0,0-1.366,1.366V49.169H2.732V2.732H81.948Z" fill="#fff"/>
  </g>
</svg>
