<svg xmlns="http://www.w3.org/2000/svg" width="103.525" height="115.057" viewBox="0 0 103.525 115.057">
  <g id="physical-therapy-instructor" transform="translate(-40 -16)">
    <path id="Path_1486" data-name="Path 1486" d="M128.205,60.783a13.437,13.437,0,0,0,13.4,12.731,1.917,1.917,0,0,0,1.917-1.917V39.006a13.433,13.433,0,0,0-13-13.409A21.166,21.166,0,0,0,112.851,16h-3.834A21.112,21.112,0,0,0,87.928,37.088v4.866A7.666,7.666,0,0,0,91.762,56.26h.383a19.02,19.02,0,0,0,9.2,12.763v8.487l-.028,0-5.934.55-.208.01a1.912,1.912,0,0,0-1.5-.723h-11.5a1.917,1.917,0,0,0-1.917,1.917v3.283q-.269.266-.522.551H76.425V81.182a1.917,1.917,0,0,0-1.917-1.917H61.088a1.917,1.917,0,0,0-1.86,1.452l-.6,2.382h-3.3V79.265a1.917,1.917,0,0,0-1.917-1.917h-11.5A1.917,1.917,0,0,0,40,79.265V98.437a1.917,1.917,0,0,0,1.917,1.917h11.5a1.917,1.917,0,0,0,1.917-1.917V94.6h4.07l1.681,4.2V122.4A8.627,8.627,0,0,0,77.9,125.133l8.564-12.451a16.43,16.43,0,0,0,3.223,7.522l.162,10.853L93.68,131l-.144-9.557h34.652v9.586h3.834V120.2a16.808,16.808,0,0,0,.288-20.117c-.122-.181-.251-.359-.395-.542l-.187-1.147-2.569-15.43,4.114.688a7.679,7.679,0,0,1,6.417,7.58v39.8h3.834v-39.8a11.505,11.505,0,0,0-9.615-11.362l-6.773-1.132L120.851,77.7l-.285-.053c-.015,0-.031-.011-.046-.014V69.022a19.067,19.067,0,0,0,7.686-8.239ZM51.5,96.519H43.834V81.182H51.5Zm3.834-5.751V86.934h2.337l-.363,1.452a1.917,1.917,0,0,0,.08,1.177l.482,1.205Zm63.265-9.8v9.8a7.669,7.669,0,1,1-15.337,0V80.829a3.838,3.838,0,0,0,1.917-3.308V70.71a19.1,19.1,0,0,0,11.5,0v6.926a3.825,3.825,0,0,0,1.917,3.328Zm11.5-28.539V44.757a3.834,3.834,0,1,1,0,7.669Zm9.586-13.42V69.488a9.6,9.6,0,0,1-7.669-9.394V56.017a7.666,7.666,0,0,0,1.917-14.063V37.088a21.041,21.041,0,0,0-1.323-7.333A9.6,9.6,0,0,1,139.691,39.006ZM91.762,37.088a17.274,17.274,0,0,1,17.254-17.254h3.834a17.319,17.319,0,0,1,14.858,8.484,1.636,1.636,0,0,0,.084.163,17.215,17.215,0,0,1,2.313,8.607v3.834h-.732l-7.139-14.277a1.917,1.917,0,0,0-2.912-.64c-.15.12-15.156,12.041-26.07,14.486q-.773.177-1.49.281Zm-3.834,11.5a3.839,3.839,0,0,1,3.834-3.834v7.669a3.839,3.839,0,0,1-3.834-3.834ZM95.6,52.425V43.848c9.195-2.594,19.966-10.2,24.248-13.408l6.426,12.852v9.133a15.337,15.337,0,0,1-30.674,0Zm-11.5,28.757h7.669V96.519H84.094ZM80.26,86.934v3.834H76.425V86.934ZM74.508,122.4a4.793,4.793,0,0,1-9.586,0V98.437a1.917,1.917,0,0,0-.137-.712l-3.6-9.01,1.4-5.615H72.591V98.437a1.873,1.873,0,0,0,.01.192L74.508,117.7Zm3.834-4.682v-.111a1.873,1.873,0,0,0-.01-.192L76.425,98.341v-.695L77.882,94.6H80.26v3.834a1.917,1.917,0,0,0,1.917,1.917h7.178A17.215,17.215,0,0,0,87.03,105.1L85.6,107.165Zm53.3-8.677a12.865,12.865,0,0,1-2.47,8.566H92.522a12.757,12.757,0,0,1-2.213-9.831l.028-.135c.058-.277.117-.562.183-.816.024-.079.045-.157.064-.236l.007-.031c.009-.027.017-.053.024-.08a13.417,13.417,0,0,1,2.616-4.893,1.914,1.914,0,0,0,.424-.929l.048-.3A1.917,1.917,0,0,0,95.6,98.435v-9.56l1.168-7.088,2.667-.245v9.226a11.5,11.5,0,1,0,23.006,0V81.849l2.725.447,2.783,16.717.268,1.649a1.917,1.917,0,0,0,.437.939,6.669,6.669,0,0,1,.493.641c.015.024.031.046.048.068A12.9,12.9,0,0,1,131.644,109.042Z" transform="translate(0 0)" fill="#fff"/>
    <path id="Path_1487" data-name="Path 1487" d="M293.751,130.876a2.876,2.876,0,1,0-2.876,2.876A2.876,2.876,0,0,0,293.751,130.876Z" transform="translate(-188.569 -85.16)" fill="#fff"/>
    <path id="Path_1488" data-name="Path 1488" d="M362.876,133.751A2.876,2.876,0,1,0,360,130.876,2.876,2.876,0,0,0,362.876,133.751Z" transform="translate(-243.315 -85.16)" fill="#fff"/>
    <path id="Path_1489" data-name="Path 1489" d="M312,174.58h3.569a17.93,17.93,0,0,0,8.9-2.178l-1.932-3.312a14.274,14.274,0,0,1-6.968,1.656H312Z" transform="translate(-206.818 -116.403)" fill="#fff"/>
  </g>
</svg>
