<svg xmlns="http://www.w3.org/2000/svg" width="99.081" height="99.057" viewBox="0 0 99.081 99.057">
  <g id="physical-education-instructor" transform="translate(0 -0.062)">
    <g id="Group_402" data-name="Group 402" transform="translate(0 0.062)">
      <g id="Group_401" data-name="Group 401" transform="translate(0 0)">
        <path id="Path_1429" data-name="Path 1429" d="M94.927,74.834A20.619,20.619,0,0,0,78.79,58.218L61.056,54.383h-.32V44.318a19.225,19.225,0,0,0,7.988-15.5V19.234a19.172,19.172,0,1,0-38.344,0V28.82a19,19,0,0,0,7.988,15.5V54.383h-.32L20.315,58.058A20.619,20.619,0,0,0,4.178,74.674L.024,97.2A1.752,1.752,0,0,0,1.3,99.119H97.483a1.509,1.509,0,0,0,1.6-1.6V97.2ZM49.553,3.257A15.912,15.912,0,0,1,65.21,16.039H33.9A15.912,15.912,0,0,1,49.553,3.257ZM64.89,19.234,60.1,24.027H39.008l-4.793-4.793ZM33.576,28.82V23.069l3.675,3.675a1.45,1.45,0,0,0,1.118.479H60.736a1.45,1.45,0,0,0,1.118-.479l3.675-3.675V28.82a15.977,15.977,0,0,1-31.954,0ZM57.541,46.235v10.7l-1.118,1.118a9.864,9.864,0,0,1-6.71,2.876h-.32a8.944,8.944,0,0,1-6.71-2.876L41.564,56.94v-10.7a19.034,19.034,0,0,0,15.977,0ZM35.173,58.378l2.716-.639,2.4,2.556a12.666,12.666,0,0,0,9.107,3.675h.32a12.938,12.938,0,0,0,9.107-3.675l2.556-2.556,2.716.639V63.49L55.624,74.674a7.877,7.877,0,0,0-11.184-.8l-.8.8L35.173,63.49V58.378ZM49.553,84.739a4.793,4.793,0,1,1,4.793-4.793v9.586h-3.2v-3.2A1.509,1.509,0,0,0,49.553,84.739ZM23.99,95.923H3.539l.639-3.2H23.99Zm47.931.16H27.185V75.153h-3.2V89.532H4.658L7.214,75.313a17.563,17.563,0,0,1,13.74-14.06l11.024-2.4V63.97a2.271,2.271,0,0,0,.32.959L41.884,77.71a9.43,9.43,0,0,0-.32,2.237,8.036,8.036,0,0,0,6.391,7.829V91.13a1.509,1.509,0,0,0,1.6,1.6h6.391a1.509,1.509,0,0,0,1.6-1.6V79.946a9.429,9.429,0,0,0-.32-2.237l9.586-12.781a2.271,2.271,0,0,0,.32-.959V59.017l11.024,2.4a17.563,17.563,0,0,1,13.74,14.06l2.556,14.219H75.116V75.313h-3.2Zm3.2-.16v-3.2H94.927l.639,3.2Z" transform="translate(0 -0.062)" fill="#fff"/>
      </g>
    </g>
    <g id="Group_404" data-name="Group 404" transform="translate(47.955 78.349)">
      <g id="Group_403" data-name="Group 403">
        <rect id="Rectangle_227" data-name="Rectangle 227" width="3.195" height="3.195" fill="#fff"/>
      </g>
    </g>
  </g>
</svg>
