<svg xmlns="http://www.w3.org/2000/svg" width="88.254" height="79.288" viewBox="0 0 88.254 79.288">
  <g id="pictorial-activity" transform="translate(0 -16.512)">
    <path id="Path_1296" data-name="Path 1296" d="M53.685,206.791a7.21,7.21,0,0,0-4.452-1.546,7.136,7.136,0,0,0-5.588,2.667,7.072,7.072,0,0,0,1.135,9.994,7.207,7.207,0,0,0,4.451,1.546,7.132,7.132,0,0,0,5.589-2.67,7.071,7.071,0,0,0-1.135-9.991Zm-1.4,7.949a3.923,3.923,0,0,1-5.48.61,3.814,3.814,0,0,1-.617-5.4,3.928,3.928,0,0,1,5.481-.607,3.813,3.813,0,0,1,.616,5.393Z" transform="translate(-30.654 -137.488)" fill="#fff"/>
    <path id="Path_1297" data-name="Path 1297" d="M171.1,111.365a7.145,7.145,0,0,0,6.744-4.772,7.012,7.012,0,0,0-.316-5.415,7.175,7.175,0,0,0-9.54-3.318,7.078,7.078,0,0,0-3.338,9.486A7.209,7.209,0,0,0,171.1,111.365ZM167.413,103a3.828,3.828,0,0,1,1.982-2.2,3.917,3.917,0,0,1,5.206,1.8,3.778,3.778,0,0,1,.171,2.917,3.835,3.835,0,0,1-1.981,2.206,3.891,3.891,0,0,1-1.687.383,3.932,3.932,0,0,1-3.521-2.187A3.775,3.775,0,0,1,167.413,103Z" transform="translate(-119.426 -58.748)" fill="#fff"/>
    <path id="Path_1298" data-name="Path 1298" d="M110.1,69.448a7.245,7.245,0,0,0,1.594.178,7.1,7.1,0,0,0,6.969-5.519,7.03,7.03,0,0,0-.911-5.344,7.1,7.1,0,0,0-4.474-3.162,7.241,7.241,0,0,0-1.6-.18,7.1,7.1,0,0,0-6.961,5.521,7.013,7.013,0,0,0,.906,5.344A7.093,7.093,0,0,0,110.1,69.448Zm-2.209-7.775a3.856,3.856,0,0,1,3.786-2.993,3.98,3.98,0,0,1,.879.1,3.867,3.867,0,0,1,2.437,1.72,3.788,3.788,0,0,1,.493,2.879,3.909,3.909,0,0,1-3.793,2.99,3.988,3.988,0,0,1-.877-.1,3.858,3.858,0,0,1-2.437-1.718A3.778,3.778,0,0,1,107.892,61.673Z" transform="translate(-76.151 -28.344)" fill="#fff"/>
    <path id="Path_1299" data-name="Path 1299" d="M46.216,88.085a7.078,7.078,0,0,0,1.133-9.994,7.193,7.193,0,0,0-10.04-1.123,7.072,7.072,0,0,0-1.132,9.995,7.183,7.183,0,0,0,10.04,1.122Zm-7.5-3.165a3.815,3.815,0,0,1,.612-5.4,3.935,3.935,0,0,1,5.483.608,3.821,3.821,0,0,1-.618,5.4,3.926,3.926,0,0,1-5.478-.611Z" transform="translate(-25.213 -42.917)" fill="#fff"/>
    <path id="Path_1300" data-name="Path 1300" d="M87.631,29.226a2.151,2.151,0,0,0-1.576-.623c-.929,0-3.4,0-18.393,12.759q-.452.384-.911.778a39.977,39.977,0,0,0-37.4-25.628h-.007a39.227,39.227,0,0,0-18.653,5.362C3.8,25.929,0,31.351,0,37.141c0,6.991,3.945,9.915,7.114,12.265,2.584,1.916,4.624,3.429,4.625,6.746S9.7,60.98,7.118,62.894C3.951,65.242.008,68.165.011,75.157c0,5.79,3.8,11.213,10.7,15.271A39.257,39.257,0,0,0,29.372,95.8h.011a39.865,39.865,0,0,0,28.25-11.6,39.191,39.191,0,0,0,11.7-27.6c2.529-2.878,4.98-5.739,7.217-8.435,3.827-4.612,6.77-8.418,8.747-11.311C87.917,33.02,89.064,30.67,87.631,29.226ZM55.339,81.887A36.625,36.625,0,0,1,29.383,92.542h-.01c-10.51,0-26.1-7.3-26.1-17.386,0-5.351,2.811-7.436,5.79-9.644,2.784-2.064,5.939-4.4,5.938-9.36s-3.158-7.3-5.942-9.362c-2.98-2.21-5.794-4.3-5.8-9.648,0-6.191,5.692-10.462,9.086-12.458a36.319,36.319,0,0,1,17-4.913h.006A36.717,36.717,0,0,1,64.117,44.42C57.05,50.59,49.4,57.7,43.7,63.421,34.235,64.646,32.946,70.954,32,75.588c-.8,3.946-1.324,5.853-4.369,6.1a1.629,1.629,0,0,0-.493,3.129,29.833,29.833,0,0,0,10.3,1.985h0a16.669,16.669,0,0,0,9.669-2.732c3.233-2.234,5.425-5.776,6.526-10.526,3.723-3.767,7.978-8.31,12.185-12.989A35.959,35.959,0,0,1,55.339,81.887Zm-4.978-8.655c-1.726,6.841-6.07,10.309-12.923,10.309h0a24.434,24.434,0,0,1-4.992-.554c1.738-1.772,2.28-4.439,2.75-6.749.9-4.4,1.742-8.566,8.668-9.555ZM72.858,47.5C66.4,55.2,58.583,63.837,52.148,70.407l-1-1-4.4-4.43c5.834-5.808,13.319-12.733,20.3-18.793h0c.814-.706,1.623-1.4,2.42-2.084C77.583,37.184,81.83,34.176,84,32.867,82.7,35.046,79.722,39.326,72.858,47.5Z" transform="translate(0)" fill="#fff"/>
  </g>
</svg>
