<svg xmlns="http://www.w3.org/2000/svg" width="88.682" height="88.684" viewBox="0 0 88.682 88.684">
  <g id="psychology" transform="translate(0.002 0.003)">
    <g id="_010---Idea" data-name="010---Idea" transform="translate(-0.002 -0.003)">
      <path id="Shape" d="M3.176,56.265a10.549,10.549,0,0,0,1.536.887c.638.327,1.709.873,1.784,1.256a2.567,2.567,0,0,1-.174,1.5c-.22.473-.451.879-.65,1.23-.541.956-1.447,2.558-.081,3.674.319.3.871.723,1.373,1.108a3.723,3.723,0,0,0-.48,2.133A2.128,2.128,0,0,0,7.359,69.5c.328.232.678.433,1.024.63.873.5,1.215.73,1.33,1.193A4.072,4.072,0,0,1,9.566,73.1c-.087.395-.171.791-.222,1.182a8.8,8.8,0,0,0,.486,3.982,5.537,5.537,0,0,0,5.228,4.028,5.942,5.942,0,0,0,1.212-.129,112.152,112.152,0,0,0,12.461-3.729c3.33,1.954,5.433,7.9,5.981,10.126a1.478,1.478,0,0,0,1.435,1.122l37.1-.1a1.478,1.478,0,0,0,1.407-1.921,11.4,11.4,0,0,0-1.5-2.808,13.8,13.8,0,0,1-.956-1.6,27.917,27.917,0,0,1-1.669-4.2A49.87,49.87,0,0,1,68.794,70.4a1.478,1.478,0,1,0-2.932.361,52.725,52.725,0,0,0,1.843,9.163,30.977,30.977,0,0,0,1.834,4.626,16.4,16.4,0,0,0,1.145,1.932l.1.148-33.519.1a23.544,23.544,0,0,0-5.2-9.438l1.33-.466c.99-.346,1.737-.606,2.119-.729,6.332-2,9.5-4.886,9.412-8.572a1.439,1.439,0,0,0-1.5-1.443,1.478,1.478,0,0,0-1.443,1.512c.035,1.521-1.21,3.739-7.354,5.683-.4.129-1.172.4-2.2.755-1.1.384-2.495.872-4.035,1.4h-.01A115,115,0,0,1,15.67,79.265a2.616,2.616,0,0,1-3.042-1.97,5.876,5.876,0,0,1-.347-2.637c.038-.31.109-.618.177-.927a6.475,6.475,0,0,0,.129-3.147,4.911,4.911,0,0,0-2.736-3.021l-.307-.176a5.54,5.54,0,0,1,.569-.913,1.478,1.478,0,0,0-.282-2.1c-.355-.26-1.191-.887-1.8-1.38.071-.129.148-.27.222-.4.232-.406.5-.879.755-1.426A5.541,5.541,0,0,0,9.4,57.857c-.355-1.8-2.081-2.687-3.342-3.331a8.4,8.4,0,0,1-1.215-.7,6.276,6.276,0,0,1-.887-.721c0-.223.239-.764,1.366-2.137a59.452,59.452,0,0,0,6.765-10.987,4.366,4.366,0,0,0,.572-2A5.173,5.173,0,0,0,10.5,34.28c-.6-.548-1.162-1.066-1.227-1.543A2.685,2.685,0,0,1,9.5,31.721c.241-.634.519-1.255.8-1.877a21.592,21.592,0,0,0,1.445-3.9l.148-.63A36.954,36.954,0,0,1,13.1,20.954a25.347,25.347,0,0,1,5.3-8.662C21.233,9.3,25.683,7.184,31.654,6A96.068,96.068,0,0,1,45.521,4a31.523,31.523,0,0,1,6.957.395,1.478,1.478,0,0,0,.505-2.912,34.326,34.326,0,0,0-7.616-.435A98.648,98.648,0,0,0,31.07,3.1c-6.664,1.33-11.508,3.667-14.814,7.161a28.318,28.318,0,0,0-5.928,9.67,40.089,40.089,0,0,0-1.309,4.719l-.148.624A19.284,19.284,0,0,1,7.607,28.64c-.3.674-.6,1.348-.868,2.046a4.95,4.95,0,0,0-.392,2.473,5.643,5.643,0,0,0,2.155,3.3c.723.664,1.2,1.131,1.2,1.537a2.454,2.454,0,0,1-.253.643A57.02,57.02,0,0,1,2.98,49.157C1.911,50.459.792,51.977,1.03,53.5A4.512,4.512,0,0,0,3.176,56.265Z" transform="translate(-0.998 -0.997)" fill="#fff"/>
      <path id="Shape-2" data-name="Shape" d="M13.11,24.479l.148-.658a32.935,32.935,0,0,1,.986-3.633A19.475,19.475,0,0,1,18.3,13.538,15.474,15.474,0,0,1,25.111,9.8a1.478,1.478,0,1,0-.86-2.827,18.3,18.3,0,0,0-8.1,4.539,22.436,22.436,0,0,0-4.675,7.66,35.228,35.228,0,0,0-1.1,4l-.148.64a1.478,1.478,0,0,0,1.1,1.774,1.449,1.449,0,0,0,.336.038A1.478,1.478,0,0,0,13.11,24.479Z" transform="translate(3.397 1.823)" fill="#fff"/>
      <circle id="Oval" cx="1.5" cy="1.5" r="1.5" transform="translate(12.34 29.34)" fill="#fff"/>
      <path id="Shape-3" data-name="Shape" d="M28,27.524A20.257,20.257,0,0,0,33,41.255a25.391,25.391,0,0,0,3.4,2.956c2.162,1.672,4.211,3.269,4.755,5.492a4.434,4.434,0,0,0-2.8,4.115v2.956A4.434,4.434,0,0,0,41.3,60.935v.272a5.912,5.912,0,0,0,11.824,0v-.272a4.434,4.434,0,0,0,2.956-4.162V53.817A4.434,4.434,0,0,0,53.275,49.7c.542-2.217,2.592-3.821,4.755-5.492a25.5,25.5,0,0,0,3.4-2.956,20.268,20.268,0,0,0,5-13.73A19.6,19.6,0,0,0,47.215,8,19.6,19.6,0,0,0,28,27.524Zm14.78,2.646H41.3a1.478,1.478,0,1,1,1.478-1.478Zm5.912,19.214H45.737V33.126h2.956Zm-1.478,14.78a2.956,2.956,0,0,1-2.956-2.956h5.912A2.956,2.956,0,0,1,47.215,64.163Zm5.912-7.39a1.478,1.478,0,0,1-1.478,1.478H42.781A1.478,1.478,0,0,1,41.3,56.773V53.817a1.478,1.478,0,0,1,1.478-1.478h8.868a1.478,1.478,0,0,1,1.478,1.478Zm10.346-29.2a17.282,17.282,0,0,1-4.231,11.7,23.1,23.1,0,0,1-3.011,2.6,20.692,20.692,0,0,0-4.582,4.373V33.126h1.478a4.434,4.434,0,1,0-4.434-4.434V30.17H45.737V28.692A4.434,4.434,0,1,0,41.3,33.126h1.478V46.244a20.667,20.667,0,0,0-4.574-4.372,23.142,23.142,0,0,1-3.012-2.6,17.273,17.273,0,0,1-4.237-11.7c.148-9.007,7.585-16.614,16.258-16.614S63.333,18.563,63.473,27.57Zm-11.824,2.6V28.692a1.478,1.478,0,1,1,1.478,1.478Z" transform="translate(11.907 2.351)" fill="#fff"/>
      <path id="Shape-4" data-name="Shape" d="M57.478,22.956h4.434a1.478,1.478,0,1,0,0-2.956H57.478a1.478,1.478,0,0,0,0,2.956Z" transform="translate(25.292 8.087)" fill="#fff"/>
      <path id="Shape-5" data-name="Shape" d="M52.791,12.663a1.478,1.478,0,0,0,1.046-.433l3.135-3.136A1.478,1.478,0,1,0,54.883,7l-3.136,3.135a1.478,1.478,0,0,0,1.045,2.524Z" transform="translate(23.051 1.659)" fill="#fff"/>
      <path id="Shape-6" data-name="Shape" d="M41.478,8.39a1.478,1.478,0,0,0,1.478-1.478V2.478a1.478,1.478,0,0,0-2.956,0V6.912A1.478,1.478,0,0,0,41.478,8.39Z" transform="translate(17.644 -0.995)" fill="#fff"/>
      <path id="Shape-7" data-name="Shape" d="M32.23,12.23a1.478,1.478,0,0,0,0-2.091L29.094,7A1.478,1.478,0,1,0,27,9.094l3.135,3.136a1.478,1.478,0,0,0,2.091,0Z" transform="translate(11.217 1.659)" fill="#fff"/>
      <path id="Shape-8" data-name="Shape" d="M22.478,20a1.478,1.478,0,0,0,0,2.956h4.434a1.478,1.478,0,0,0,0-2.956Z" transform="translate(8.562 8.087)" fill="#fff"/>
    </g>
  </g>
</svg>
