<svg id="russian" xmlns="http://www.w3.org/2000/svg" width="93.139" height="93.139" viewBox="0 0 93.139 93.139">
  <path id="Shape" d="M19.915,57.3a1.552,1.552,0,0,0,2.049-.776L33.28,31.046h5.588L50.185,56.52a1.552,1.552,0,1,0,2.825-1.273L41.694,29.758a3.1,3.1,0,0,0,.59-1.816c0-3.291,0-3.4-.171-4.1a6.07,6.07,0,0,0,1.723-4.176c0-2.949-4.378-8.646-6.209-10.866V6.209h1.552a1.552,1.552,0,0,0,0-3.1H37.626V1.552a1.552,1.552,0,1,0-3.1,0V3.1H32.97a1.552,1.552,0,1,0,0,3.1h1.552V8.755c-1.832,2.266-6.209,7.963-6.209,10.866A6.209,6.209,0,0,0,30.036,23.8c-.171.761-.171.869-.171,4.145a3.1,3.1,0,0,0,.59,1.816L19.138,55.247a1.552,1.552,0,0,0,.776,2.049ZM39.179,24.837v3.1H32.97v-3.1ZM36.074,11.8c2.422,3.1,4.657,6.659,4.657,7.87a3.1,3.1,0,0,1-.931,2.065,54.563,54.563,0,0,0-6.83,0,2.716,2.716,0,0,0-.621,0,3.1,3.1,0,0,1-.931-2.127c0-1.149,2.235-4.688,4.657-7.808Z" transform="translate(10.495 0)" fill="#fff"/>
  <path id="Shape-2" data-name="Shape" d="M91.586,81.2H89.708L82.272,49.965V41.4a8.677,8.677,0,0,0,1.552-4.905c0-4.16-5.7-9.9-7.762-11.86V22.209h1.552a1.552,1.552,0,0,0,0-3.1H76.063V17.552a1.552,1.552,0,1,0-3.1,0V19.1H71.406a1.552,1.552,0,1,0,0,3.1h1.552v2.422c-2.065,1.956-7.762,7.762-7.762,11.86A8.677,8.677,0,0,0,66.749,41.4v8.569L63.008,65.674h-.916V59.465a3.1,3.1,0,0,0-3.1-3.1H52.779V50.523a6.07,6.07,0,0,0,1.552-3.989c0-3.1-5.029-9.485-6.566-11.347a1.552,1.552,0,0,0-2.391,0c-1.552,1.863-6.566,8.181-6.566,11.347a6.209,6.209,0,0,0,1.552,4V56.36H34.151a3.1,3.1,0,0,0-3.1,3.1v6.209H30.13L26.389,49.965V41.4a8.677,8.677,0,0,0,1.552-4.905c0-4.16-5.7-9.9-7.762-11.86V22.209h1.552a1.552,1.552,0,0,0,0-3.1H20.18V17.552a1.552,1.552,0,1,0-3.1,0V19.1H15.523a1.552,1.552,0,1,0,0,3.1h1.552v2.422c-2.065,1.956-7.762,7.762-7.762,11.86A8.677,8.677,0,0,0,10.866,41.4v8.569L3.431,81.2H1.552a1.552,1.552,0,0,0,0,3.1H91.586a1.552,1.552,0,0,0,0-3.1ZM74.511,54.808a1.552,1.552,0,0,0-1.552,1.552v3.1H67.681L69.528,51.7h9.966l1.847,7.762H76.063v-3.1a1.552,1.552,0,0,0-1.552-1.552ZM79.168,48.6h-3.1V47.046a1.552,1.552,0,1,0-3.1,0V48.6h-3.1V42.389h9.314ZM74.511,27.456c2.856,2.81,6.209,6.939,6.209,9.034a5.511,5.511,0,0,1-.761,2.794H69.093a5.511,5.511,0,0,1-.792-2.794C68.3,34.395,71.655,30.266,74.511,27.456ZM46.569,38.664c2.422,3.1,4.657,6.659,4.657,7.87a3.1,3.1,0,0,1-.869,2.065H42.782a3.1,3.1,0,0,1-.869-2.065c0-1.211,2.235-4.75,4.657-7.87ZM43.465,51.7h6.209V56.36H43.465Zm-9.314,7.762H58.988v6.209H34.151ZM18.628,54.808a1.552,1.552,0,0,0-1.552,1.552v3.1H11.8L13.645,51.7h9.966l1.847,7.762H20.18v-3.1A1.552,1.552,0,0,0,18.628,54.808ZM23.285,48.6h-3.1V47.046a1.552,1.552,0,0,0-3.1,0V48.6h-3.1V42.389h9.314ZM18.628,27.456c2.856,2.81,6.209,6.939,6.209,9.034a5.511,5.511,0,0,1-.761,2.794H13.21a5.511,5.511,0,0,1-.792-2.794C12.418,34.395,15.771,30.266,18.628,27.456ZM11.052,62.569H26.2l.73,3.1h-8.3a3.1,3.1,0,0,0-3.1,3.1V81.2H6.628Zm7.575,6.209H40.36V81.2H35.7v-3.1a6.209,6.209,0,1,0-12.418,0v3.1H18.628ZM26.389,81.2v-3.1a3.1,3.1,0,0,1,6.209,0v3.1Zm17.075,0V68.779h6.209V81.2Zm17.075,0v-3.1a3.1,3.1,0,1,1,6.209,0v3.1Zm9.314,0v-3.1a6.209,6.209,0,1,0-12.418,0v3.1H52.779V68.779H74.511V81.2Zm7.762,0V68.779a3.1,3.1,0,0,0-3.1-3.1h-8.3l.73-3.1H82.086L86.51,81.2Z" transform="translate(0 8.837)" fill="#fff"/>
</svg>
