<svg xmlns="http://www.w3.org/2000/svg" width="90" height="103.333" viewBox="0 0 90 103.333">
  <g id="secretary" transform="translate(-5 -1)">
    <path id="Path_1430" data-name="Path 1430" d="M34.667,38.667A6.673,6.673,0,0,0,41.333,32H38a3.333,3.333,0,0,1-6.667,0H28A6.673,6.673,0,0,0,34.667,38.667Z" transform="translate(15.333 20.667)" fill="#fff"/>
    <path id="Path_1431" data-name="Path 1431" d="M81.3,79.483a39.242,39.242,0,0,0,4.882-3.972l1.317-1.317L86.04,73.032a20.442,20.442,0,0,1-7.707-16.037V29.333a28.333,28.333,0,1,0-56.667,0V56.995a20.436,20.436,0,0,1-7.708,16.037L12.5,74.2l1.317,1.317A39.24,39.24,0,0,0,18.7,79.483,26.373,26.373,0,0,0,5,102.667v1.667H95v-1.667A26.371,26.371,0,0,0,81.3,79.483ZM25,56.995V29.333a25,25,0,1,1,50,0V56.995a23.742,23.742,0,0,0,7.492,17.367,37.951,37.951,0,0,1-4.755,3.458l-16.3-6.667a4.986,4.986,0,0,1-3.107-4.63v-1.2a30.857,30.857,0,0,0,13.333-25.41V27.667H69.342a9.54,9.54,0,0,1-7.955-4.258l-.5-.742H39.108l-.5.742a9.54,9.54,0,0,1-7.955,4.258H28.333V39.918a30.86,30.86,0,0,0,13.333,25.41v1.2a4.98,4.98,0,0,1-3.107,4.627l-16.3,6.668a37.747,37.747,0,0,1-4.753-3.458A23.75,23.75,0,0,0,25,56.995ZM63.333,32.667H56.667A4.993,4.993,0,0,0,51.973,36H48.025a4.993,4.993,0,0,0-4.693-3.333H36.665a5.006,5.006,0,0,0-5,5v-6.7A12.865,12.865,0,0,0,40.852,26H59.145a12.865,12.865,0,0,0,9.187,4.962v6.7A5,5,0,0,0,63.333,32.667Zm1.667,5v1.667a3.337,3.337,0,0,1-3.333,3.333H58.333A3.337,3.337,0,0,1,55,39.333V37.667A1.668,1.668,0,0,1,56.667,36h6.667A1.668,1.668,0,0,1,65,37.667Zm-20,0v1.667a3.337,3.337,0,0,1-3.333,3.333H38.333A3.337,3.337,0,0,1,35,39.333V37.667A1.668,1.668,0,0,1,36.667,36h6.667A1.668,1.668,0,0,1,45,37.667ZM38.333,46h3.333a6.673,6.673,0,0,0,6.667-6.667h3.333A6.673,6.673,0,0,0,58.333,46h3.333a6.673,6.673,0,0,0,6.667-6.667v.585A27.547,27.547,0,0,1,50,65.9,27.545,27.545,0,0,1,31.667,39.918v-.585A6.673,6.673,0,0,0,38.333,46ZM44.94,67.327a30.966,30.966,0,0,0,4.532,1.92l.528.177.527-.175a31.15,31.15,0,0,0,4.532-1.92A8.274,8.274,0,0,0,60,74.15v.183c0,4.6-4.485,8.333-10,8.333s-10-3.738-10-8.333v-.185a8.272,8.272,0,0,0,4.942-6.822ZM40,82.023a14.562,14.562,0,0,0,20,0V101H40Zm-17.277-.79,13.943-5.7V101H25V91H21.667v10H8.392A23.065,23.065,0,0,1,22.723,81.233ZM78.333,101V91H75v10H63.333V75.528l13.943,5.7A23.068,23.068,0,0,1,91.608,101Z" transform="translate(0 0)" fill="#fff"/>
    <path id="Path_1432" data-name="Path 1432" d="M39.041,8.333V5a21.739,21.739,0,0,0-17.6,9.045l2.707,1.947a18.4,18.4,0,0,1,14.9-7.658Z" transform="translate(10.959 2.667)" fill="#fff"/>
    <path id="Path_1433" data-name="Path 1433" d="M23.73,13.972l-3.027-1.4A21.574,21.574,0,0,0,19.412,16.2l3.228.833A17.95,17.95,0,0,1,23.73,13.972Z" transform="translate(9.608 7.717)" fill="#fff"/>
  </g>
</svg>
