<svg xmlns="http://www.w3.org/2000/svg" width="86" height="99.231" viewBox="0 0 86 99.231">
  <g id="senior-educator" transform="translate(0 0)">
    <path id="Path_1471" data-name="Path 1471" d="M76.347,68.482a21.339,21.339,0,0,0-6.379-2.851l-2.977-.786a14.786,14.786,0,0,0,4.125-10.267V39.061a6.5,6.5,0,0,0,0-8.66V28.116a28.115,28.115,0,1,0-56.231,0V30.4a6.5,6.5,0,0,0,0,8.66V54.577A14.791,14.791,0,0,0,19.02,64.844l-2.977.786A21.5,21.5,0,0,0,0,86.414V97.577a1.654,1.654,0,0,0,1.654,1.654H84.347A1.654,1.654,0,0,0,86,97.577V86.414a21.4,21.4,0,0,0-9.653-17.932ZM63.139,63.829l-2.008-.53a14.724,14.724,0,0,0,1.715-7.068H59.539a10.988,10.988,0,0,1-1.745,6.187l-3.216-.847V56.406a23.2,23.2,0,0,0,11.028-15.06h.549a6.506,6.506,0,0,0,1.654-.235V54.577a11.467,11.467,0,0,1-4.669,9.252ZM23.154,26.605A41.347,41.347,0,0,0,52.236,16.153c1.454,3.412,4.753,9.235,10.611,10.177V36.385a19.846,19.846,0,1,1-39.692,0Zm46.308,8.126a3.308,3.308,0,0,1-3.308,3.308V31.423A3.308,3.308,0,0,1,69.462,34.731ZM34.731,62.846V57.986a22.793,22.793,0,0,0,16.539,0v4.861a1.642,1.642,0,0,0,1.089,1.535L43,73.739l-9.358-9.357a1.641,1.641,0,0,0,1.089-1.535ZM43,3.308A24.836,24.836,0,0,1,67.808,28.116v.235a6.506,6.506,0,0,0-1.654-.235V24.808A1.654,1.654,0,0,0,64.5,23.154c-6.913,0-9.958-10.275-9.988-10.379a1.654,1.654,0,0,0-2.759-.713A38.381,38.381,0,0,1,21.732,23.17a1.671,1.671,0,0,0-1.324.391,1.652,1.652,0,0,0-.562,1.247v3.308a6.506,6.506,0,0,0-1.654.235v-.235A24.836,24.836,0,0,1,43,3.308ZM16.539,34.731a3.308,3.308,0,0,1,3.308-3.308v6.615A3.308,3.308,0,0,1,16.539,34.731Zm1.654,19.846V41.111a6.506,6.506,0,0,0,1.654.235H20.4a23.2,23.2,0,0,0,11.028,15.06v5.165l-3.216.847a10.988,10.988,0,0,1-1.745-6.187H23.154A14.724,14.724,0,0,0,24.869,63.3l-2.008.53a11.467,11.467,0,0,1-4.669-9.252Zm64.5,41.346H72.628a11.465,11.465,0,0,0,.142-1.654,11.589,11.589,0,0,0-4.962-9.491v-3.74H64.5v4.647a1.653,1.653,0,0,0,.827,1.433,8.27,8.27,0,0,1,4.135,7.15,7.969,7.969,0,0,1-.188,1.654H16.727a7.97,7.97,0,0,1-.188-1.654,8.27,8.27,0,0,1,4.135-7.15,1.653,1.653,0,0,0,.827-1.433V81.039H18.193v3.74a11.589,11.589,0,0,0-4.962,9.491,11.467,11.467,0,0,0,.142,1.654H3.308v-9.51A18.18,18.18,0,0,1,16.88,68.829l13.084-3.451L41.831,77.247a1.655,1.655,0,0,0,2.339,0L56.037,65.378l13.094,3.451A18.192,18.192,0,0,1,82.693,86.414Zm0,0" fill="#fff"/>
    <path id="Path_1472" data-name="Path 1472" d="M188.962,155.577a4.962,4.962,0,0,0,4.962-4.962V144h-3.308v6.615a1.654,1.654,0,1,1-3.308,0V144H184v6.615A4.962,4.962,0,0,0,188.962,155.577Zm0,0" transform="translate(-145.961 -114.231)" fill="#fff"/>
    <path id="Path_1473" data-name="Path 1473" d="M248.481,138.827l.246.2a1.3,1.3,0,0,0,.3.149,1.048,1.048,0,0,0,.3.1,2.407,2.407,0,0,0,.331.033,1.654,1.654,0,0,0,1.174-2.828,1.671,1.671,0,0,0-1.505-.447,1.048,1.048,0,0,0-.3.1,1.3,1.3,0,0,0-.3.149,2.755,2.755,0,0,0-.246.2,1.536,1.536,0,0,0-.347.546,1.561,1.561,0,0,0,0,1.257A1.907,1.907,0,0,0,248.481,138.827Zm0,0" transform="translate(-196.732 -107.883)" fill="#fff"/>
    <path id="Path_1474" data-name="Path 1474" d="M153.653,139.387a1.637,1.637,0,0,0,1.521-2.282,1.709,1.709,0,0,0-.347-.546,1.731,1.731,0,0,0-2.348,0,1.907,1.907,0,0,0-.347.546,1.638,1.638,0,0,0,1.521,2.282Zm0,0" transform="translate(-120.576 -107.963)" fill="#fff"/>
    <path id="Path_1475" data-name="Path 1475" d="M170.221,216.806a13.048,13.048,0,0,0,9.846-3.879l-2.5-2.166a11.224,11.224,0,0,1-14.689,0l-2.5,2.166A13.048,13.048,0,0,0,170.221,216.806Zm0,0" transform="translate(-127.22 -167.191)" fill="#fff"/>
  </g>
</svg>
