<svg xmlns="http://www.w3.org/2000/svg" width="86.73" height="99.109" viewBox="0 0 86.73 99.109">
  <g id="social" transform="translate(-31.975)">
    <g id="Group_361" data-name="Group 361" transform="translate(31.975)">
      <g id="Group_360" data-name="Group 360">
        <path id="Path_1402" data-name="Path 1402" d="M118.158,51.733l-6.89-12.471c-.006-1.514-.041-6.08-.111-7.021,0-.023,0-.047-.007-.07l-.3-2.684c0-.023-.005-.045-.009-.068A31.88,31.88,0,0,0,97.611,7.5C90.806,2.673,81.934.079,71.955,0h-.312A39.656,39.656,0,0,0,56.712,76.4L53.238,92.746a1.935,1.935,0,0,0,1.639,2.321l30.358,4.025a1.933,1.933,0,0,0,2.123-1.416l4-14.862.952.087c1.787.161,4.044.355,5.622.489,1.362.116,8.176.695,8.534.695a5.252,5.252,0,0,0,3.834-1.6,5.011,5.011,0,0,0,1.4-3.668V58.755l3.3-.561a4.391,4.391,0,0,0,3.161-6.461Zm-3.377,2.352a.5.5,0,0,1-.388.284l-.032.005-4.922.838a1.936,1.936,0,0,0-1.611,1.908V78.85q0,.041,0,.081a1.158,1.158,0,0,1-.324.872,1.408,1.408,0,0,1-1,.409c-1.1-.069-14.938-1.233-16.214-1.394a1.936,1.936,0,0,0-2.243,1.4L84.061,95.031,57.46,91.5l2.987-14.061,13.368,2.61a1.936,1.936,0,1,0,.742-3.8L59.472,73.309A35.783,35.783,0,0,1,71.643,3.871h.282c19.285.15,32.725,10.14,35.084,26.076l.29,2.61c.039.588.069,2.926.085,4.8h-4.151a1.936,1.936,0,1,0,0,3.871h4.7l6.836,12.374A.5.5,0,0,1,114.781,54.086Z" transform="translate(-31.975)" fill="#fff"/>
      </g>
    </g>
    <g id="Group_363" data-name="Group 363" transform="translate(79.867 77.681)">
      <g id="Group_362" data-name="Group 362">
        <path id="Path_1403" data-name="Path 1403" d="M282.691,401.871a1.854,1.854,0,0,0-.294-.24,1.969,1.969,0,0,0-.333-.178,2.05,2.05,0,0,0-.362-.11,1.915,1.915,0,0,0-.757,0,1.954,1.954,0,0,0-.362.11,1.919,1.919,0,0,0-.335.178,1.879,1.879,0,0,0-.534.534,1.923,1.923,0,0,0-.178.335,1.954,1.954,0,0,0-.11.362,1.9,1.9,0,0,0-.039.377,1.923,1.923,0,0,0,.039.379,2,2,0,0,0,.11.362,1.978,1.978,0,0,0,.178.333,1.919,1.919,0,0,0,.534.536,1.915,1.915,0,0,0,.335.178,1.96,1.96,0,0,0,.362.11,1.9,1.9,0,0,0,.377.037,1.937,1.937,0,0,0,.379-.037,2.05,2.05,0,0,0,.362-.11,1.965,1.965,0,0,0,.333-.178,1.874,1.874,0,0,0,.294-.242,1.935,1.935,0,0,0,0-2.737Z" transform="translate(-279.387 -401.305)" fill="#fff"/>
      </g>
    </g>
    <g id="Group_365" data-name="Group 365" transform="translate(41.662 10.028)">
      <g id="Group_364" data-name="Group 364" transform="translate(0)">
        <path id="Path_1404" data-name="Path 1404" d="M139.98,69.906a5.171,5.171,0,0,0-1.753-3.638A5.07,5.07,0,0,0,134.914,65a40.9,40.9,0,0,0-.86-4.155,5.161,5.161,0,0,0-2.481-3.194,5.088,5.088,0,0,0-4.021-.408,39.561,39.561,0,0,0-7.266,3.089,45.1,45.1,0,0,0-5.584-6.976,5.1,5.1,0,0,0-3.68-1.553h0a5.1,5.1,0,0,0-3.68,1.552,45.093,45.093,0,0,0-5.585,6.975,39.574,39.574,0,0,0-7.266-3.089,5.089,5.089,0,0,0-4.021.408,5.161,5.161,0,0,0-2.481,3.194A40.835,40.835,0,0,0,87.128,65a5.072,5.072,0,0,0-3.313,1.266,5.172,5.172,0,0,0-1.753,3.638c-.228,4.951.23,14.219,5.856,20.656,4.841,5.539,12.232,7.586,17.58,8.329a1.912,1.912,0,0,0,.266.018h10.514a1.941,1.941,0,0,0,.266-.018c5.348-.743,12.739-2.79,17.58-8.329C139.75,84.124,140.208,74.857,139.98,69.906Zm-11.272-8.967a1.264,1.264,0,0,1,1.6.887c.316,1.207.57,2.42.759,3.623a37.184,37.184,0,0,0-6.275,1.612l-.115.041q-.388.14-.776.292l-.125.047a29.965,29.965,0,0,0-1.573-3.748A35.631,35.631,0,0,1,128.708,60.939Zm-36.975.887a1.264,1.264,0,0,1,1.6-.887,35.632,35.632,0,0,1,6.5,2.755,29.908,29.908,0,0,0-1.573,3.748l-.131-.049q-.382-.149-.763-.287l-.125-.045a37.157,37.157,0,0,0-6.27-1.61A36.995,36.995,0,0,1,91.733,61.826Zm-.9,26.188c-4.735-5.418-5.105-13.56-4.9-17.93a1.265,1.265,0,0,1,.434-.9,1.238,1.238,0,0,1,.82-.31c.037,0,.075,0,.112.005.415.037.861.084,1.327.141a33.673,33.673,0,0,1,8.671,2.207c0,.016,0,.032-.007.047q-.031.183-.06.368c0,.019-.006.038-.009.057s0,.027,0,.041c-.012.078-.023.156-.033.234,0,.008,0,.015,0,.022,0,.024-.006.049-.009.074-.006.044-.013.088-.019.132-.034.262-.062.526-.087.79,0,.046-.01.092-.014.138-.022.256-.038.514-.051.773,0,.051-.007.1-.009.152q-.02.454-.02.912h0c0,.239.005.477.013.714,0,.053,0,.105.006.158q.029.721.105,1.429.006.057.013.114.081.724.207,1.435l.014.078q.13.724.3,1.432l.011.045q.086.351.182.7l0,.011q.1.36.209.715l.006.018q.107.345.222.686l.008.025q.235.693.5,1.365l.015.038q.266.665.56,1.309l.023.051q.291.636.606,1.25l.033.065q.312.606.641,1.19l.043.076q.327.575.667,1.127l.055.089q.165.267.333.528l.005.008q.171.266.345.526l.066.1q.154.23.309.455l.039.057q.17.245.341.485l.077.107q.144.2.288.4l.066.09q.167.226.335.446l.084.11q.135.176.27.348l.087.111q.162.206.324.407l.091.112q.126.156.252.307l.1.123q.156.188.311.37l.094.11.236.274.111.127q.149.17.3.335l.02.023C101.212,94.37,94.849,92.609,90.833,88.014Zm25.075,1.126q-.177.245-.353.482l-.079.107q-.177.237-.354.465l-.083.107q-.179.23-.357.452l-.067.083q-.186.231-.369.453l-.034.041q-.188.226-.372.442l-.022.026q-.188.22-.371.428l-.045.051q-.179.2-.353.4l-.045.05c-.118.13-.234.258-.348.381l-.022.024c-.243.262-.476.507-.7.734h0q-.164.169-.318.324l-.016.016q-.151.152-.292.291l-.014.014c-.095.093-.186.183-.274.266l-.273-.266-.015-.015q-.141-.139-.292-.291l-.015-.015q-.155-.156-.319-.324h0c-.221-.227-.455-.474-.7-.737l-.018-.02q-.174-.187-.354-.387L109,92.678q-.178-.2-.36-.4l-.037-.042q-.188-.214-.379-.438l-.01-.012q-.195-.228-.393-.467l-.018-.021q-.189-.229-.381-.467l-.055-.068q-.184-.229-.369-.468l-.068-.088q-.184-.238-.369-.484l-.062-.084c-.126-.17-.253-.341-.379-.516l-.034-.047q-.178-.247-.354-.5l-.065-.093q-.176-.255-.35-.517l-.088-.133q-.169-.256-.335-.519l-.091-.145q-.166-.265-.329-.536l-.08-.134q-.151-.254-.3-.512l-.079-.139q-.147-.26-.289-.525l-.087-.162q-.146-.274-.286-.554l-.094-.189q-.137-.277-.27-.559c-.03-.064-.059-.128-.089-.192q-.132-.288-.259-.579c-.024-.056-.047-.112-.071-.168q-.109-.258-.213-.518c-.024-.062-.049-.123-.073-.184-.074-.191-.146-.384-.215-.578-.024-.067-.049-.135-.072-.2q-.1-.3-.2-.6-.034-.106-.067-.213-.094-.3-.18-.612c-.018-.065-.035-.131-.053-.2-.055-.206-.108-.413-.157-.621-.013-.056-.025-.111-.038-.167q-.067-.3-.125-.6c-.01-.054-.022-.107-.032-.161-.041-.222-.077-.446-.111-.67-.009-.061-.018-.122-.027-.183q-.047-.337-.082-.678c-.006-.057-.011-.114-.016-.171-.022-.235-.039-.471-.052-.708,0-.041,0-.082-.005-.123-.011-.255-.019-.511-.019-.769h0c0-.225.006-.449.015-.672,0-.074.007-.148.011-.222.008-.147.018-.293.029-.439.007-.091.013-.182.021-.274.011-.116.024-.231.037-.346.005-.047.01-.093.015-.14.011-.093.024-.186.036-.279s.026-.191.04-.286l.006-.039c.012-.076.024-.151.037-.227.019-.114.037-.228.058-.343v0c.009-.047.018-.094.027-.141.028-.146.056-.292.087-.438v0l.013-.056c.036-.165.073-.33.113-.5v-.007a25.773,25.773,0,0,1,2.713-6.618c.032-.055.06-.111.085-.168a40.179,40.179,0,0,1,5.93-7.707,1.267,1.267,0,0,1,1.816,0,40.178,40.178,0,0,1,5.927,7.7q.039.087.087.172a25.765,25.765,0,0,1,2.713,6.617v.007c.031.129.06.257.088.386h0l.038.166v0c.03.138.056.276.082.414.011.053.021.107.031.16v0c.019.105.036.211.054.316.014.083.028.165.041.248l.011.072c.012.081.023.161.034.242.014.1.027.2.039.3v0c0,.016,0,.032.005.048.017.146.034.292.047.438.008.087.014.173.021.26.012.15.022.3.03.452,0,.072.008.144.01.216.009.224.015.448.015.674h0c0,.256-.008.511-.019.765,0,.043,0,.086-.005.128-.012.235-.03.468-.051.7-.005.06-.011.12-.017.18q-.034.335-.08.668c-.009.066-.019.131-.029.2-.033.22-.068.438-.109.656-.011.06-.024.12-.036.181q-.055.283-.118.564c-.016.071-.032.143-.049.214-.046.194-.095.386-.146.578-.02.074-.039.147-.059.22-.055.2-.113.395-.173.591q-.037.119-.074.237-.093.289-.192.575c-.027.077-.055.154-.082.23q-.094.262-.194.521c-.032.084-.066.167-.1.25q-.094.235-.192.467c-.031.074-.063.149-.094.223q-.116.268-.238.531c-.034.074-.068.148-.1.222q-.126.268-.257.532l-.11.219c-.089.177-.18.352-.272.526l-.105.2q-.127.236-.258.468l-.118.207q-.132.23-.266.457l-.1.168q-.155.258-.313.509l-.109.173q-.159.251-.32.5l-.1.158q-.166.25-.334.494l-.084.121q-.161.232-.324.459Zm15.3-1.126c-4.016,4.6-10.38,6.357-15.062,7.023l.014-.016q.155-.174.313-.354l.087-.1.275-.319.059-.069q.165-.194.332-.4l.07-.085q.149-.179.3-.364l.052-.065q.174-.215.349-.438l.049-.062q.16-.2.32-.413l.046-.06q.181-.237.361-.481l.021-.029q.172-.233.344-.472l.038-.053q.366-.511.727-1.05l.028-.042q.364-.545.717-1.116l.021-.033q.357-.578.7-1.181l.011-.02q.345-.609.671-1.244l0-.009a28.584,28.584,0,0,0,2.358-6.218l0-.01q.176-.722.309-1.46l.009-.052q.127-.719.209-1.453l.011-.1q.076-.713.106-1.439,0-.076.006-.152c.008-.238.013-.476.013-.716v0h0q0-.458-.02-.91c0-.059-.008-.119-.011-.179-.013-.249-.028-.5-.049-.744,0-.056-.012-.112-.017-.167-.024-.254-.051-.507-.083-.759-.006-.047-.014-.095-.02-.142l-.009-.07c0-.008,0-.016,0-.024-.011-.08-.022-.16-.034-.24,0-.009,0-.019,0-.028v0c0-.019-.006-.038-.009-.057q-.028-.179-.058-.357c0-.019-.005-.038-.009-.057a33.666,33.666,0,0,1,8.671-2.207c.466-.057.912-.1,1.327-.141a1.238,1.238,0,0,1,.932.3,1.264,1.264,0,0,1,.434.9C136.314,74.454,135.944,82.6,131.208,88.014Z" transform="translate(-82.017 -51.805)" fill="#fff"/>
      </g>
    </g>
  </g>
</svg>
