<svg id="starters" xmlns="http://www.w3.org/2000/svg" width="81.535" height="81.535" viewBox="0 0 81.535 81.535">
  <g id="Group_369" data-name="Group 369" transform="translate(0 0)">
    <g id="Group_368" data-name="Group 368" transform="translate(0 0)">
      <path id="Path_1408" data-name="Path 1408" d="M80.177,0H1.359A1.359,1.359,0,0,0,0,1.358H0V28.537H2.718V2.718h76.1v29.9H31.255v2.718H80.176a1.359,1.359,0,0,0,1.359-1.358h0V1.359A1.359,1.359,0,0,0,80.177,0Z" transform="translate(0 0)" fill="#fff"/>
    </g>
  </g>
  <g id="Group_371" data-name="Group 371" transform="translate(45.145 6.626)">
    <g id="Group_370" data-name="Group 370" transform="translate(0 0)">
      <rect id="Rectangle_224" data-name="Rectangle 224" width="28" height="2" transform="translate(-0.377 0.141)" fill="#fff"/>
    </g>
  </g>
  <g id="Group_373" data-name="Group 373" transform="translate(48.646 15.38)">
    <g id="Group_372" data-name="Group 372" transform="translate(0 0)">
      <rect id="Rectangle_225" data-name="Rectangle 225" width="28" height="1" transform="translate(0.121 0.387)" fill="#fff"/>
    </g>
  </g>
  <g id="Group_375" data-name="Group 375" transform="translate(43.394 23.259)">
    <g id="Group_374" data-name="Group 374" transform="translate(0 0)">
      <rect id="Rectangle_226" data-name="Rectangle 226" width="27" height="3" transform="translate(0.374 -0.492)" fill="#fff"/>
    </g>
  </g>
  <g id="Group_377" data-name="Group 377" transform="translate(0 5.436)">
    <g id="Group_376" data-name="Group 376" transform="translate(0)">
      <path id="Path_1409" data-name="Path 1409" d="M43.377,38.281a4.385,4.385,0,0,0-5.733-2.365l-.114.049L26.511,41.681a6.72,6.72,0,0,0,.668-2.887,6.795,6.795,0,1,0-12.2,4.077h-.057A9.325,9.325,0,0,0,6.264,48.9l-3.628,12.5A4.353,4.353,0,1,0,10.809,64.4l1.421-4.523V79.546A6.774,6.774,0,0,0,3.412,89.8,6.26,6.26,0,0,0,0,95.353V106.74A1.359,1.359,0,0,0,1.358,108.1h13.59a1.359,1.359,0,0,0,1.359-1.358h0V95.353a6.246,6.246,0,0,0-2.425-4.919H24.168a6.245,6.245,0,0,0-2.425,4.919V106.74A1.359,1.359,0,0,0,23.1,108.1h13.59a1.359,1.359,0,0,0,1.359-1.358h0V95.353A6.26,6.26,0,0,0,34.638,89.8a6.789,6.789,0,0,0-6.1-11.509v-27.8l12.475-6.477A4.385,4.385,0,0,0,43.377,38.281ZM20.384,34.718a4.077,4.077,0,1,1-4.077,4.077A4.077,4.077,0,0,1,20.384,34.718ZM8.153,80.87a4.077,4.077,0,1,1-4.077,4.077A4.077,4.077,0,0,1,8.153,80.87Zm5.436,24.511H2.718V95.353a3.565,3.565,0,0,1,3.561-3.561h3.749a3.566,3.566,0,0,1,3.561,3.561ZM35.332,95.353v10.029H24.46V95.353a3.565,3.565,0,0,1,3.561-3.561h3.749A3.565,3.565,0,0,1,35.332,95.353ZM29.9,80.87a4.077,4.077,0,1,1-4.077,4.077A4.081,4.081,0,0,1,29.9,80.87ZM40.89,40.548a1.748,1.748,0,0,1-1.026,1.006L26.553,48.46a1.359,1.359,0,0,0-.733,1.206V79.546A6.7,6.7,0,0,0,23.7,87.716H21.743v-23.1H19.025v23.1h-4.68a6.732,6.732,0,0,0,.6-2.718h.005V51.025a1.359,1.359,0,0,0-2.655-.407L8.235,63.53a1.634,1.634,0,0,1-2.267.9,1.668,1.668,0,0,1-.759-2.158l3.627-12.5a6.565,6.565,0,0,1,6.089-4.183h9.622a1.353,1.353,0,0,0,.626-.153L38.68,38.426a1.673,1.673,0,0,1,2.139.792A1.653,1.653,0,0,1,40.89,40.548Z" transform="translate(0 -32)" fill="#fff"/>
    </g>
  </g>
  <g id="Group_379" data-name="Group 379" transform="translate(43.485 51.574)">
    <g id="Group_378" data-name="Group 378">
      <path id="Path_1410" data-name="Path 1410" d="M268.895,315.28a6.795,6.795,0,1,0-9.608-.125q.062.063.125.125A6.261,6.261,0,0,0,256,320.833V332.22a1.359,1.359,0,0,0,1.358,1.359h13.59a1.359,1.359,0,0,0,1.359-1.358h0V320.833A6.26,6.26,0,0,0,268.895,315.28Zm-4.741-8.929a4.077,4.077,0,1,1-4.077,4.077A4.077,4.077,0,0,1,264.154,306.351Zm5.436,24.511H258.718V320.833a3.565,3.565,0,0,1,3.561-3.56h3.749a3.565,3.565,0,0,1,3.561,3.56Z" transform="translate(-256 -303.618)" fill="#fff"/>
    </g>
  </g>
  <g id="Group_381" data-name="Group 381" transform="translate(65.228 51.574)">
    <g id="Group_380" data-name="Group 380">
      <path id="Path_1411" data-name="Path 1411" d="M396.895,315.28a6.795,6.795,0,1,0-9.608-.125q.062.063.125.125A6.261,6.261,0,0,0,384,320.833V332.22a1.359,1.359,0,0,0,1.358,1.359h13.59a1.359,1.359,0,0,0,1.359-1.358h0V320.833A6.26,6.26,0,0,0,396.895,315.28Zm-4.741-8.929a4.077,4.077,0,1,1-4.077,4.077A4.077,4.077,0,0,1,392.154,306.351Zm5.436,24.511H386.718V320.833a3.565,3.565,0,0,1,3.561-3.56h3.749a3.566,3.566,0,0,1,3.561,3.56Z" transform="translate(-384 -303.618)" fill="#fff"/>
    </g>
  </g>
</svg>
