<svg xmlns="http://www.w3.org/2000/svg" width="98.896" height="94.203" viewBox="0 0 98.896 94.203">
  <g id="surdopedagogika" transform="translate(0 -11.032)">
    <path id="Path_1340" data-name="Path 1340" d="M312.359,243.653a9.994,9.994,0,0,0-19.884,1.437v26.561a9.994,9.994,0,0,0,19.884,1.437,7.133,7.133,0,0,0,5.631-6.964V250.617A7.133,7.133,0,0,0,312.359,243.653Zm2.441,22.471a3.935,3.935,0,0,1-2.336,3.59v-13.99a1.6,1.6,0,0,0-3.19,0v15.927a6.8,6.8,0,0,1-13.608,0V245.09a6.8,6.8,0,1,1,13.608,0v4.254a1.6,1.6,0,1,0,3.19,0v-2.317a3.934,3.934,0,0,1,2.336,3.59Z" transform="translate(-230.272 -176.41)" fill="#fff"/>
    <path id="Path_1341" data-name="Path 1341" d="M68.076,235.1a10.009,10.009,0,0,0-9.89,8.557,7.133,7.133,0,0,0-5.631,6.963v15.508a7.133,7.133,0,0,0,5.631,6.964,9.994,9.994,0,0,0,19.884-1.437V245.09A10.006,10.006,0,0,0,68.076,235.1Zm6.8,36.555a6.8,6.8,0,0,1-13.608,0V255.724a1.6,1.6,0,0,0-3.19,0v13.99a3.935,3.935,0,0,1-2.336-3.59V250.617a3.935,3.935,0,0,1,2.336-3.59v2.317a1.6,1.6,0,1,0,3.19,0V245.09a6.8,6.8,0,1,1,13.608,0Z" transform="translate(-41.378 -176.41)" fill="#fff"/>
    <path id="Path_1342" data-name="Path 1342" d="M84.413,25.515A49.448,49.448,0,0,0,0,60.48a1.6,1.6,0,0,0,1.6,1.6H2.7a1.6,1.6,0,0,0,.519-3.1,46.258,46.258,0,0,1,78.943-31.2,45.935,45.935,0,0,1,13.525,31.2,1.6,1.6,0,0,0,.519,3.1h1.1a1.6,1.6,0,0,0,1.6-1.6A49.125,49.125,0,0,0,84.413,25.515Z" transform="translate(0)" fill="#fff"/>
    <path id="Path_1343" data-name="Path 1343" d="M69.267,36.2A44.128,44.128,0,0,0,26.335,90.392v11.387a1.6,1.6,0,0,0,3.19,0V90.206a1.6,1.6,0,0,0-.044-.371,40.9,40.9,0,1,1,79.571,0,1.6,1.6,0,0,0-.044.371v11.573a1.6,1.6,0,1,0,3.19,0V90.392A44.128,44.128,0,0,0,69.267,36.2Z" transform="translate(-19.819 -19.818)" fill="#fff"/>
  </g>
</svg>
