<svg xmlns="http://www.w3.org/2000/svg" width="72.322" height="100.349" viewBox="0 0 72.322 100.349">
  <g id="teacher-of-additional-education" transform="translate(-71.501 0)">
    <g id="Group_447" data-name="Group 447" transform="translate(71.501 0)">
      <path id="Path_1461" data-name="Path 1461" d="M143.725,93.407c-4.471-22.449-4.278-21.493-4.3-21.586a9.654,9.654,0,0,0-4.907-6.67,10.851,10.851,0,0,0-2.6-1.006l-10.984-3.815-3.661-2.511V54.973a19.369,19.369,0,0,0,9.384-14.583c4.473.207,7.591-4.068,5.715-7.811V20.6c0-8.666-4.713-11.68-6.153-12.4-7.045-8.411-20.2-10.568-30.175-5.45l-.019.01a24.723,24.723,0,0,0-4.758,3.168,1.47,1.47,0,1,0,1.923,2.224c9.768-8.2,24.265-6.094,30.967,2.17a1.413,1.413,0,0,0,.611.445c.19.076,4.663,1.959,4.663,9.833v9.277a6.327,6.327,0,0,0-2.663-.5V24.569a2.351,2.351,0,0,0-2.137-2.345,5.806,5.806,0,0,1-4.581-3.156,2.95,2.95,0,0,0-4.5-.813c-6.554,5.6-14.1,5.887-19.277,5.141a7.232,7.232,0,0,0-8.18,5.984,6.358,6.358,0,0,0-2.757.494C85.343,24.812,84.759,19.305,88.9,13a1.47,1.47,0,0,0-2.461-1.608C80.8,20.019,82.819,27.753,82.4,32.578c-1.874,3.742,1.239,8.019,5.715,7.811a19.334,19.334,0,0,0,5.132,11.17h0a19.966,19.966,0,0,0,4.805,3.733V57.82l-3.66,2.51C80.065,65.307,81.519,64.7,80.355,65.414A9.638,9.638,0,0,0,76,71.392c-.125.5.083-.449-4.4,22.014a8.068,8.068,0,0,0-.057,2.088c.332,3.085,2.52,4.854,6,4.854h40.391a1.47,1.47,0,0,0,0-2.94H87.882V83.941a1.47,1.47,0,0,0-2.94,0V97.409h-7.4c-2.3,0-3.387-.989-3.053-3.47C78.513,74.284,78.522,72.7,79.18,71.087a6.7,6.7,0,0,1,3.856-3.748,11.739,11.739,0,0,1,1.226-.38c.068-.02-.269.095,5.01-1.738l3.521,6.5a1.47,1.47,0,0,0,2.585-1.4l-3.292-6.077,2.251-.782L106.076,85.13a1.8,1.8,0,0,0,3.042.211c.137-.189-.646,1.216,11.85-21.886l2.251.782-11.9,22.012a4.158,4.158,0,0,1-7.31,0l-5.363-9.9a1.47,1.47,0,1,0-2.585,1.4l5.363,9.9a7.1,7.1,0,0,0,12.481-.005l12.127-22.433c5.267,1.829,4.958,1.724,5.027,1.744,1.036.316.921.255,1.226.38a7.937,7.937,0,0,1,1.775,1.017,6.548,6.548,0,0,1,2.372,3.585c.07.251,4.433,21.887,4.451,22.617.044,1.845-.753,2.852-3.1,2.852h-7.4V83.941a1.47,1.47,0,0,0-2.94,0V97.409H124.8a1.47,1.47,0,1,0,0,2.94H137.78c3.482,0,5.67-1.769,6-4.852A8.164,8.164,0,0,0,143.725,93.407Zm-16.954-61.09a2.866,2.866,0,0,1,3.212,2.567,2.866,2.866,0,0,1-3.212,2.567ZM88,37.452a2.866,2.866,0,0,1-3.212-2.567A2.866,2.866,0,0,1,88,32.318ZM95.854,26.3c5.778.834,14.217.5,21.607-5.816l.022.006a8.722,8.722,0,0,0,6.348,4.589V30.29l-1.677.99a3.819,3.819,0,0,0-3.14-1.649h-6.727a3.827,3.827,0,0,0-3.527,2.352h-2.749a3.827,3.827,0,0,0-3.527-2.352H95.757a3.818,3.818,0,0,0-3.14,1.649l-1.67-.986A4.289,4.289,0,0,1,95.854,26.3ZM119.9,33.452v2.927a2.315,2.315,0,0,1-2.313,2.312h-3.866a2.315,2.315,0,0,1-2.312-2.312V33.452h0a.894.894,0,0,1,.882-.882h6.727A.894.894,0,0,1,119.9,33.452Zm-16.53,0v2.927a2.315,2.315,0,0,1-2.312,2.312H97.188a2.315,2.315,0,0,1-2.312-2.312V33.452a.894.894,0,0,1,.882-.882h6.727A.894.894,0,0,1,103.366,33.452ZM94.9,49.008c-4.757-5.545-3.84-10.929-3.964-15.3l1,.588v2.088a5.258,5.258,0,0,0,5.252,5.252h3.866a5.258,5.258,0,0,0,5.252-5.252V34.922h2.16v1.458a5.258,5.258,0,0,0,5.252,5.252h3.866a5.258,5.258,0,0,0,5.252-5.252V34.291l1-.588v4.6a16.441,16.441,0,0,1-16.446,16.444h-.2a15.782,15.782,0,0,1-4.3-.621A16.483,16.483,0,0,1,94.9,49.008Zm12.758,16.445-6.672-7.424V56.6a19.408,19.408,0,0,0,11.45.415,19.19,19.19,0,0,0,1.894-.618v1.629Zm1.656,5.239-.65,1.337h-2.012l-.65-1.337,1.656-1.216Zm-5.529,4.045-.936-1.728.746-.547.557,1.147Zm-2.339-4.344L96.983,62.13l2.31-1.593,6.192,6.89Zm6.213,11.494L105.721,78.3l1.084-3.333h1.717L109.6,78.3Zm3.871-7.161-.363-1.118.557-1.147.738.542Zm2.343-4.334-4.036-2.964,6.192-6.89,2.31,1.593Z" transform="translate(-71.501 0)" fill="#fff"/>
    </g>
  </g>
</svg>
