<svg xmlns="http://www.w3.org/2000/svg" width="86" height="98.741" viewBox="0 0 86 98.741">
  <g id="teacher-of-english" transform="translate(-5 -1)">
    <path id="Path_1467" data-name="Path 1467" d="M75.27,74.718,58.932,68.034a4.758,4.758,0,0,1-2.969-4.423V62.468a29.479,29.479,0,0,0,10.764-13.69h.384a7.972,7.972,0,0,0,7.963-7.963V27.123A26.119,26.119,0,0,0,48.951,1H43.5A28.081,28.081,0,0,0,19.7,14.066l-4.141,6.507,1.666,1.107a8.3,8.3,0,0,1,3.7,6.918V40.815a7.972,7.972,0,0,0,7.963,7.963h.384a29.471,29.471,0,0,0,10.764,13.69v1.143a4.756,4.756,0,0,1-2.969,4.421L20.73,74.716A25.228,25.228,0,0,0,5,98.148v1.593H91V98.148a25.224,25.224,0,0,0-15.73-23.43ZM62.2,79.935l-6.474,4.856,4.29-12.873.906.371ZM35.079,72.289l.906-.371,4.29,12.873L33.8,79.935ZM40.44,85.283,44.2,96.556h-.317l-6.573-6.573ZM38.922,70.66c.234-.121.463-.25.682-.392l8.4,9.6,8.4-9.6c.218.142.448.269.682.392l-8.632,25.9h-.892ZM55.56,85.283l3.131,4.7-6.573,6.573H51.8Zm.4-54.024a6.35,6.35,0,0,0-5.485,3.185H45.522a6.35,6.35,0,0,0-5.485-3.185H30.481V23.327a35.116,35.116,0,0,1,12.89,3.02,38.348,38.348,0,0,0,15.657,3.321h6.49v1.593Zm6.37,3.185V37.63a3.188,3.188,0,0,1-3.185,3.185H55.963a3.185,3.185,0,0,1,0-6.37ZM43.222,37.63a3.188,3.188,0,0,1-3.185,3.185H36.852a3.188,3.188,0,0,1-3.185-3.185V34.444h6.37A3.188,3.188,0,0,1,43.222,37.63Zm24.548,7.9a29.579,29.579,0,0,0,.933-7.337V36.332a4.751,4.751,0,0,1-.933,9.194ZM19.892,19.7l2.494-3.919A24.911,24.911,0,0,1,43.5,4.185h5.448A22.939,22.939,0,0,1,71.889,27.123v7.361A7.886,7.886,0,0,0,68.7,33.013V26.481H59.029a35.149,35.149,0,0,1-14.364-3.048,38.467,38.467,0,0,0-15.776-3.322H27.3v12.9a7.907,7.907,0,0,0-3.185,1.472V28.6a11.48,11.48,0,0,0-4.219-8.9Zm4.219,21.119A4.771,4.771,0,0,1,27.3,36.33v1.857a29.591,29.591,0,0,0,.933,7.339A4.769,4.769,0,0,1,24.111,40.815Zm6.37-2.626V37.63A6.377,6.377,0,0,0,36.852,44h3.185a6.377,6.377,0,0,0,6.37-6.37h3.185A6.377,6.377,0,0,0,55.963,44h3.185a6.377,6.377,0,0,0,6.37-6.37v.559A26.322,26.322,0,0,1,48,63.02,26.322,26.322,0,0,1,30.481,38.189ZM47.5,66.213l.5.169.5-.167a29.765,29.765,0,0,0,4.33-1.835,7.915,7.915,0,0,0,1.28,3.658L48,75.025l-6.116-6.988a7.933,7.933,0,0,0,1.28-3.658A29.609,29.609,0,0,0,47.5,66.213ZM21.937,77.667l9.677-3.959-1.269,7.616,5.939,4.454-3.075,4.611,6.17,6.167H24.111V87H20.926v9.556H8.241A22.039,22.039,0,0,1,21.937,77.667ZM75.074,96.556V87H71.889v9.556H56.622l6.168-6.168-3.075-4.611,5.939-4.454-1.269-7.616,9.677,3.959a22.041,22.041,0,0,1,13.7,18.888H75.074Z" transform="translate(0 0)" fill="#fff"/>
    <path id="Path_1468" data-name="Path 1468" d="M40.741,32H37.556a3.185,3.185,0,0,1-6.37,0H28a6.37,6.37,0,1,0,12.741,0Z" transform="translate(13.63 18.37)" fill="#fff"/>
    <path id="Path_1469" data-name="Path 1469" d="M43.892,11.813a16.7,16.7,0,0,1,3.37,3.637L49.9,13.659A19.8,19.8,0,0,0,33.543,5H31V8.185h2.543A16.644,16.644,0,0,1,43.892,11.813Z" transform="translate(15.407 2.37)" fill="#fff"/>
    <path id="Path_1470" data-name="Path 1470" d="M43.108,16.748l3.114-.669a19.824,19.824,0,0,0-1.083-3.464L42.2,13.841A16.73,16.73,0,0,1,43.108,16.748Z" transform="translate(22.044 6.883)" fill="#fff"/>
  </g>
</svg>
