<svg xmlns="http://www.w3.org/2000/svg" width="79.554" height="91.793" viewBox="0 0 79.554 91.793">
  <g id="teacher-pre-school-training" transform="translate(-0.5 0)">
    <path id="Path_1462" data-name="Path 1462" d="M65.222,60.712,50.986,56.956V52.178a21.461,21.461,0,0,0,10.2-13.931H61.7A6.111,6.111,0,0,0,65.015,27l.947-18.97A7.661,7.661,0,0,0,58.329,0H15.8a1.53,1.53,0,0,0-1.53,1.53,21.277,21.277,0,0,0,2.2,9.429,4.52,4.52,0,0,0-3.12,5.105L15.218,27.24a6.1,6.1,0,0,0,3.641,11.007h.508a21.461,21.461,0,0,0,10.2,13.931v4.778L15.34,60.711A19.874,19.874,0,0,0,.5,79.937V90.263a1.53,1.53,0,0,0,1.53,1.53H78.524a1.53,1.53,0,0,0,1.53-1.53V79.937A19.871,19.871,0,0,0,65.222,60.712Zm-11.529.123,3.083,6.174L52.964,70.82a1.53,1.53,0,0,0,.232,2.355l3.649,2.432L52.907,88.733H50.986V60.124Zm-26.1,9.988-3.811-3.814,3.083-6.177,2.706-.707V88.734H27.646L23.708,75.61l3.649-2.432a1.53,1.53,0,0,0,.232-2.355Zm5.038-5.207a10.674,10.674,0,0,0,15.3,0V88.733h-15.3ZM61.7,35.188v-6.12a3.06,3.06,0,1,1,0,6.12ZM58.329,3.06a4.6,4.6,0,0,1,4.578,4.819L62,26.039c-.1,0-.2-.031-.306-.031V24.469a21.448,21.448,0,0,0-3.306-10,1.53,1.53,0,0,0-2.365-.248c-5.6,5.592-20.184,5.667-20.337,5.667a18.234,18.234,0,0,1-12.978-5.381A18.229,18.229,0,0,1,17.391,3.06ZM16.373,15.544a1.5,1.5,0,0,1,.337-1.224,1.529,1.529,0,0,1,1.17-.551h.255a21.7,21.7,0,0,0,2.254,2.753,21.343,21.343,0,0,0-1.53,7.956v1.53a6.03,6.03,0,0,0-.724.073Zm2.486,19.643a3.06,3.06,0,0,1,0-6.12Zm3.06-1.53V24.479a18.328,18.328,0,0,1,.938-5.8,21.24,21.24,0,0,0,12.831,4.27c.6,0,13.906-.064,21-5.283a16.182,16.182,0,0,1,1.952,6.822v9.17a18.359,18.359,0,1,1-36.717,0ZM40.277,55.076a21.247,21.247,0,0,0,7.649-1.437v4.5a7.649,7.649,0,1,1-15.3,0v-4.5A21.247,21.247,0,0,0,40.277,55.076ZM3.56,79.937A16.813,16.813,0,0,1,16.105,63.67l6.812-1.8-2.376,4.76a1.529,1.529,0,0,0,.288,1.764L24.1,71.668l-3.037,2.024A1.53,1.53,0,0,0,20.45,75.4l4,13.33H3.56Zm73.434,8.8H56.1l4-13.33a1.53,1.53,0,0,0-.612-1.712l-3.042-2.024,3.27-3.271A1.53,1.53,0,0,0,60,66.633l-2.376-4.76,6.82,1.8A16.811,16.811,0,0,1,76.994,79.937Zm0,0" fill="#fff"/>
    <path id="Path_1463" data-name="Path 1463" d="M189.09,154.709a4.59,4.59,0,0,0,4.59-4.59V144h-3.06v6.12a1.53,1.53,0,0,1-3.06,0V144H184.5v6.12A4.59,4.59,0,0,0,189.09,154.709Zm0,0" transform="translate(-148.813 -116.462)" fill="#fff"/>
    <path id="Path_1464" data-name="Path 1464" d="M245.09,139.06a1.53,1.53,0,0,1,1.53,1.53h3.06a4.59,4.59,0,0,0-9.179,0h3.06A1.53,1.53,0,0,1,245.09,139.06Zm0,0" transform="translate(-194.103 -109.992)" fill="#fff"/>
    <path id="Path_1465" data-name="Path 1465" d="M133.09,136a4.59,4.59,0,0,0-4.59,4.59h3.06a1.53,1.53,0,0,1,3.06,0h3.06A4.59,4.59,0,0,0,133.09,136Zm0,0" transform="translate(-103.522 -109.992)" fill="#fff"/>
    <path id="Path_1466" data-name="Path 1466" d="M179.09,212.765l-2.312-2a10.386,10.386,0,0,1-13.591,0l-2.312,2a13.353,13.353,0,0,0,18.215,0Zm0,0" transform="translate(-129.706 -170.456)" fill="#fff"/>
  </g>
</svg>
