<svg id="teacher-of-russian" xmlns="http://www.w3.org/2000/svg" width="94.438" height="94.438" viewBox="0 0 94.438 94.438">
  <g id="Group_446" data-name="Group 446">
    <g id="Group_445" data-name="Group 445">
      <path id="Path_1454" data-name="Path 1454" d="M43.956,416.265a1.557,1.557,0,0,0,.628-.132c5.021-2.186,13.5-3.324,25.21-3.384l1.136,2.276a1.574,1.574,0,0,0,2.816-1.407l-1.572-3.148a1.576,1.576,0,0,0-1.409-.87c-12.826,0-21.8,1.193-27.439,3.647a1.575,1.575,0,0,0,.63,3.019Z" transform="translate(-34.564 -334.048)" fill="#fff"/>
      <path id="Path_1455" data-name="Path 1455" d="M91.29,349.45H88.142v-7.87a1.577,1.577,0,0,0-.461-1.113l-9.456-9.455a4.652,4.652,0,0,0,.474-2.024,4.722,4.722,0,1,0-4.722,4.722A4.664,4.664,0,0,0,76,333.238l9,8.994v7.218H3.148A3.151,3.151,0,0,0,0,352.6v4.722a1.574,1.574,0,1,0,3.148,0V352.6H91.29v4.722a1.574,1.574,0,1,0,3.148,0V352.6A3.152,3.152,0,0,0,91.29,349.45ZM73.977,330.562a1.574,1.574,0,1,1,1.574-1.574A1.575,1.575,0,0,1,73.977,330.562Z" transform="translate(0 -264.455)" fill="#fff"/>
      <path id="Path_1456" data-name="Path 1456" d="M105.984,47.081c1.147,2.987,4.944,12.62,7.7,16.752l.249.376c2.021,3.064,5.4,8.194,16.8,8.194s14.78-5.13,16.8-8.194l.249-.376c2.754-4.132,6.549-13.764,7.7-16.752a4.731,4.731,0,0,0,3.584-4.583V36.2a4.731,4.731,0,0,0-3.148-4.453V23.61c0-6.214-3.272-17.693-15.376-18.8A3.578,3.578,0,0,0,140,3.025C138.449.524,134.1,0,130.732,0,102.724,0,102.4,26.49,102.4,26.758a1.572,1.572,0,0,0,1.571,1.572h0a1.575,1.575,0,0,0,1.574-1.571c0-.963.357-23.611,25.184-23.611,4.451,0,6.235.963,6.587,1.533.049.08.183.3-.126.911A1.574,1.574,0,0,0,138.6,7.87c13.955,0,14.164,15.1,14.166,15.74v9.444a1.573,1.573,0,0,0,1.574,1.574,1.575,1.575,0,0,1,1.574,1.574v6.3a1.575,1.575,0,0,1-1.574,1.574,1.577,1.577,0,0,0-1.475,1.021c-.046.124-4.694,12.477-7.7,16.993l-.258.39c-1.886,2.862-4.47,6.779-14.172,6.779s-12.286-3.918-14.172-6.779l-.258-.39c-3.011-4.516-7.659-16.868-7.706-16.993a1.573,1.573,0,0,0-1.473-1.021,1.576,1.576,0,0,1-1.574-1.574V36.2a1.565,1.565,0,0,1,.447-1.1,4.353,4.353,0,0,0,3.7,2.632l5.386,4.039a6.284,6.284,0,0,0,6.21,5.444h3.148a6.3,6.3,0,0,0,6.3-6.3,6.3,6.3,0,0,0,6.3,6.3h3.148a6.284,6.284,0,0,0,6.209-5.446l5.753-4.313a1.574,1.574,0,1,0-1.889-2.518l-4.012,3.009a4.711,4.711,0,0,0-4.487-3.324h-6.3a4.728,4.728,0,0,0-4.722,4.722,4.728,4.728,0,0,0-4.722-4.722h-6.3a4.714,4.714,0,0,0-4.487,3.324l-3-2.252A42.912,42.912,0,0,0,114.9,25.17c4.961-.088,19.314-.694,25.7-4.68,1.448,5.591,6.1,10.3,6.331,10.528a1.574,1.574,0,1,0,2.226-2.226c-.058-.058-5.835-5.9-5.835-11.479A1.574,1.574,0,0,0,140.4,16.5c-2.292,3.817-17.158,5.533-26.983,5.533a1.575,1.575,0,0,0-1.574,1.574,36.64,36.64,0,0,1-2.492,10.8,1.543,1.543,0,0,1-.656-1.354,1.575,1.575,0,0,0-1.574-1.574A4.728,4.728,0,0,0,102.4,36.2v6.3A4.731,4.731,0,0,0,105.984,47.081Zm27.9-7.731a1.575,1.575,0,0,1,1.574-1.574h6.3a1.575,1.575,0,0,1,1.574,1.574v1.574a3.151,3.151,0,0,1-3.148,3.148h-3.148a3.151,3.151,0,0,1-3.148-3.148V39.349Zm-15.74,0a1.576,1.576,0,0,1,1.574-1.574h6.3a1.576,1.576,0,0,1,1.574,1.574v1.574a3.151,3.151,0,0,1-3.148,3.148h-3.148a3.151,3.151,0,0,1-3.148-3.148Z" transform="translate(-83.512)" fill="#fff"/>
      <path id="Path_1457" data-name="Path 1457" d="M229.071,293.286a1.577,1.577,0,0,0-1.568-1.579,14.245,14.245,0,0,1-5.6-1.409,1.58,1.58,0,0,0-1.407,0,14.248,14.248,0,0,1-5.592,1.409,1.574,1.574,0,1,0,0,3.148,17.3,17.3,0,0,0,6.3-1.412,17.291,17.291,0,0,0,6.3,1.412A1.573,1.573,0,0,0,229.071,293.286Z" transform="translate(-173.984 -236.619)" fill="#fff"/>
      <path id="Path_1458" data-name="Path 1458" d="M301.808,409.937a1.58,1.58,0,0,0-1.4.859l-1.574,3.082a1.575,1.575,0,0,0,2.8,1.432l1.135-2.226c8.6.024,15.532.667,20.61,1.914a1.574,1.574,0,0,0,.751-3.057C318.624,410.587,311.148,409.882,301.808,409.937Z" transform="translate(-243.575 -334.321)" fill="#fff"/>
      <path id="Path_1459" data-name="Path 1459" d="M247.467,411.174v3.148a1.574,1.574,0,1,0,3.148,0v-3.148a1.574,1.574,0,0,0-3.148,0Z" transform="translate(-201.822 -334.049)" fill="#fff"/>
      <path id="Path_1460" data-name="Path 1460" d="M240.508,324.267a1.574,1.574,0,1,0,0,3.148h3.148a1.574,1.574,0,1,0,0-3.148Z" transform="translate(-194.863 -264.456)" fill="#fff"/>
    </g>
  </g>
</svg>
