<svg xmlns="http://www.w3.org/2000/svg" width="109.156" height="109.129" viewBox="0 0 109.156 109.129">
  <g id="teacher-montessori" transform="translate(0 -0.444)">
    <path id="Path_1480" data-name="Path 1480" d="M205.078,455.522a1.818,1.818,0,1,1-1.818-1.818A1.818,1.818,0,0,1,205.078,455.522Zm0,0" transform="translate(-157.804 -355.071)" fill="#fff"/>
    <path id="Path_1481" data-name="Path 1481" d="M106.707,64.2l-25.78-8.9a5.455,5.455,0,0,0-6.935,3.376l-.5,1.435a18.783,18.783,0,0,0-.957-2.287,26.11,26.11,0,0,1-1.838-14,5.422,5.422,0,0,0,.209-10.309c0-.569,0-1.1,0-1.24A32.321,32.321,0,0,0,38.183.447,32.321,32.321,0,0,0,5.454,32.267c0,.137,0,.669,0,1.237a5.2,5.2,0,0,0-2.016,1.26A5.343,5.343,0,0,0,1.818,38.63a5.444,5.444,0,0,0,3.849,5.186,26.119,26.119,0,0,1-1.839,14,17.128,17.128,0,0,0,2.278,19.49A23.58,23.58,0,0,0,0,93.178v10.909a5.461,5.461,0,0,0,5.455,5.455H70.911a5.46,5.46,0,0,0,5.455-5.455v-.355l13.191,4.555,3.436,1.186a1.818,1.818,0,0,0,1.186-3.437l-1.719-.593,1.187-3.436,1.719.593a1.816,1.816,0,0,0,.593.1c.025,0,.048-.01.073-.011.059-.007.118-.016.176-.028a1.834,1.834,0,0,0,1.47-1.187l11.277-32.652a3.637,3.637,0,0,0-2.25-4.626ZM70.79,67.937l-1.829,5.3-.008.021-.733,2.122a23.431,23.431,0,0,0-8.37-4.7,1.805,1.805,0,0,0-.992-1.011l-7.721-3.089a3.652,3.652,0,0,0-4.377,1.36l-1.3,1.957V63.233A27.936,27.936,0,0,0,66.327,44.085h.679a29.019,29.019,0,0,0,2.281,15.363,14.887,14.887,0,0,1,1.5,8.489ZM38.183,80.808l-3.636-5.455V63.859a29.27,29.27,0,0,0,7.273,0V75.353ZM58.007,33.245a9.062,9.062,0,0,0-17.442-1.3,5.105,5.105,0,0,0-4.763,0,9.062,9.062,0,0,0-17.442,1.3,28.745,28.745,0,0,0-5.368.871c.036-.243.061-.487.1-.727.118-.593.272-1.169.424-1.746.014-.052.026-.1.036-.157l.755-4.115C24.5,24.6,29.18,19.7,31.218,16.572c3.411,3.8,11.8,10.464,27.969,9.4a25.226,25.226,0,0,1,3.736,5.964c.135.491.252.981.349,1.45.041.244.08.489.118.738a28.692,28.692,0,0,0-5.384-.876Zm-3.459,1.749a5.455,5.455,0,1,1-5.455-5.455A5.455,5.455,0,0,1,54.548,34.994ZM27.274,29.538a5.455,5.455,0,1,1-5.455,5.455A5.455,5.455,0,0,1,27.274,29.538ZM12.863,39.729c-.065-.612-.1-1.177-.116-1.726a22.086,22.086,0,0,1,5.642-1.113A9.061,9.061,0,0,0,36.274,35.9a3.824,3.824,0,0,1,1.909-.909,3.821,3.821,0,0,1,1.909.907,9.061,9.061,0,0,0,17.885.989A22.11,22.11,0,0,1,63.6,38c-.019.556-.032,1.107-.1,1.715-.084.725-.2,1.449-.352,2.149A24.326,24.326,0,0,1,43.305,59.988a28.847,28.847,0,0,1-10.246,0,24.252,24.252,0,0,1-19.847-18.2q-.226-1.032-.349-2.058Zm23.071,44.26-4.787,5.984L20.816,72.264l5.763-2.305Zm13.853-14.03,5.763,2.305L45.22,89.972l-4.787-5.984ZM69.093,40.448H67.064c.014-.114.041-.222.055-.336a26.4,26.4,0,0,0,.157-2.774c0-.136-.008-.254-.01-.385,0-.033,0-.064,0-.1v-.045h1.831a1.779,1.779,0,0,1,1.3.557,1.746,1.746,0,0,1,.522,1.262,1.82,1.82,0,0,1-1.818,1.818ZM38.183,4.083A28.682,28.682,0,0,1,67.275,32.267v.909H66.92c-.029-.173-.052-.333-.083-.518-.118-.564-.252-1.129-.425-1.751a31.278,31.278,0,0,0-5.016-7.99,1.807,1.807,0,0,0-1.545-.645c-20.308,1.681-27.086-9.529-27.362-10a1.811,1.811,0,0,0-1.782-.9,1.831,1.831,0,0,0-1.539,1.28c-.1.323-2.611,7.964-16.876,11.481a1.819,1.819,0,0,0-1.353,1.437L9.987,30.76c-.167.63-.332,1.266-.481,2.027-.022.13-.041.258-.062.388H9.091v-.909A28.681,28.681,0,0,1,38.183,4.083ZM6.01,37.335a1.748,1.748,0,0,1,1.263-.524H9.1v.042c0,.034-.006.066,0,.1,0,.131-.009.25-.009.385a26.373,26.373,0,0,0,.157,2.8c.013.107.04.208.053.314H7.273A1.821,1.821,0,0,1,5.454,38.63a1.776,1.776,0,0,1,.556-1.295Zm1.07,22.109A29.015,29.015,0,0,0,9.361,44.085h.69A27.856,27.856,0,0,0,30.91,63.234V69.9L29.6,67.94a3.654,3.654,0,0,0-4.375-1.359L17.508,69.67a1.8,1.8,0,0,0-.966.967,23.591,23.591,0,0,0-7.769,4.156A13.449,13.449,0,0,1,7.081,59.444ZM3.636,104.087V93.178A19.937,19.937,0,0,1,17.672,74.093l11.667,20a1.82,1.82,0,0,0,1.439.9c.044,0,.089,0,.133,0a1.822,1.822,0,0,0,1.421-.682l4.034-5.043v16.635H5.454a1.821,1.821,0,0,1-1.818-1.818Zm69.094,0a1.821,1.821,0,0,1-1.818,1.818H40V89.27l4.034,5.043A1.823,1.823,0,0,0,45.456,95c.044,0,.089,0,.133-.005a1.819,1.819,0,0,0,1.439-.9L58.68,74.117a19.89,19.89,0,0,1,7.727,4.469c.179.166.346.355.523.531L62.12,93.044A5.452,5.452,0,0,0,65.5,99.98l7.234,2.5Zm16.3.17L66.682,96.542a1.818,1.818,0,0,1,1.188-3.436l22.342,7.715Zm5.812-5.687-25.78-8.9a5.433,5.433,0,0,0-1.824-.282l5.125-14.842c.01-.028.018-.055.028-.082l5.043-14.605a1.817,1.817,0,0,1,2.312-1.125l25.779,8.9Zm0,0" transform="translate(0 0)" fill="#fff"/>
    <path id="Path_1482" data-name="Path 1482" d="M334.575,312.249a1.819,1.819,0,0,0,3.438,1.187l7.122-20.623a1.818,1.818,0,0,0-3.437-1.187Zm0,0" transform="translate(-262.019 -227.144)" fill="#fff"/>
    <path id="Path_1483" data-name="Path 1483" d="M394.832,320.76l10.311,3.561a1.818,1.818,0,1,0,1.186-3.437l-10.311-3.561a1.818,1.818,0,0,0-1.186,3.437Zm0,0" transform="translate(-308.341 -248.156)" fill="#fff"/>
    <path id="Path_1484" data-name="Path 1484" d="M383.837,352.486l10.311,3.561a1.818,1.818,0,1,0,1.186-3.437l-10.311-3.561a1.818,1.818,0,1,0-1.186,3.437Zm0,0" transform="translate(-299.72 -273.006)" fill="#fff"/>
    <path id="Path_1485" data-name="Path 1485" d="M384.408,384.355,374.1,380.794a1.819,1.819,0,0,0-1.186,3.438l10.312,3.561a1.818,1.818,0,1,0,1.186-3.438Zm0,0" transform="translate(-291.169 -297.878)" fill="#fff"/>
  </g>
</svg>
