<svg xmlns="http://www.w3.org/2000/svg" width="92" height="92" viewBox="0 0 92 92">
  <g id="teacher-of-inclusive-education" transform="translate(-16 -16)">
    <path id="Path_1415" data-name="Path 1415" d="M218.3,136a2.3,2.3,0,1,0,2.3,2.3A2.3,2.3,0,0,0,218.3,136Z" transform="translate(-161.667 -97)" fill="#fff"/>
    <path id="Path_1416" data-name="Path 1416" d="M290.3,136a2.3,2.3,0,1,0,2.3,2.3A2.3,2.3,0,0,0,290.3,136Z" transform="translate(-219.867 -97)" fill="#fff"/>
    <path id="Path_1417" data-name="Path 1417" d="M244.6,177.533A1.535,1.535,0,0,1,243.067,176H240a4.6,4.6,0,1,0,9.2,0h-3.067A1.535,1.535,0,0,1,244.6,177.533Z" transform="translate(-181.067 -129.333)" fill="#fff"/>
    <path id="Path_1418" data-name="Path 1418" d="M107.458,71.564a1.535,1.535,0,0,0-1.243-.343L92.352,73.532a6.977,6.977,0,0,0-2.568.973l-1.057-2.668A10.213,10.213,0,0,0,86.967,68.9l.4-3.626a26.561,26.561,0,0,0,.162-2.782,25.025,25.025,0,0,0-2.04-9.88,22.147,22.147,0,0,1-1.749-9.794L84,37.51c.016-.334.032-.68.032-1.024a20.5,20.5,0,1,0-40.968,1.025l.26,5.29c.015.4.03.768.03,1.137a21.859,21.859,0,0,1-1.777,8.673A25.055,25.055,0,0,0,39.7,65.284l.4,3.576a10.409,10.409,0,0,0-1.214,1.756L36.79,65.383a4.516,4.516,0,1,0-8.232,3.7l.295.587H25.838a7.7,7.7,0,0,1-3.429-.809l-1.528-.764A3.373,3.373,0,0,0,16,71.11v4.327a4.575,4.575,0,0,0,2.543,4.114l2.5,1.248a10.788,10.788,0,0,0,4.8,1.133h.895v4.541l-1.1,14.319A6.694,6.694,0,0,0,32.306,108q.17,0,.338-.009c.1,0,.2.008.292.008a6.172,6.172,0,0,0,5.8-4.055l7-13.013A13.412,13.412,0,0,0,48.2,96.27V108h3.067V95.733a1.533,1.533,0,0,0-.355-.981,10.454,10.454,0,0,1,1.337-14.707l-1.963-2.356a13.515,13.515,0,0,0-1.9,1.945,1.577,1.577,0,0,0-.159.192l0,0-.027.048c-.007.011-.012.023-.019.034a13.427,13.427,0,0,0-1.993,3.727L39,96.979V78.35l2.179-5.426a7.349,7.349,0,0,1,1.614-2.475,7.76,7.76,0,0,1,5.5-2.317h5.131L62.187,84.2a1.533,1.533,0,0,0,2.692,0l3.254-5.965V98.8a1.533,1.533,0,0,0,1.233,1.5L75.8,101.59V108h3.067v-5.8l5.867,1.172c.038.007.216.025.267.025h2.9l.294.549A6.212,6.212,0,0,0,94.016,108a5.773,5.773,0,0,0,1.011-.084,6.214,6.214,0,0,0,4.8-4l4.078-.68h0a3.054,3.054,0,0,0,2.555-2.868l.307-.062A1.533,1.533,0,0,0,108,98.8V72.733A1.533,1.533,0,0,0,107.458,71.564ZM56.743,67.816a3.683,3.683,0,0,0,2.191-3.363V59.761a15.341,15.341,0,0,0,9.2,0v4.693a3.683,3.683,0,0,0,2.19,3.362L68.478,71.2h-9.89ZM63.533,57.4A12.28,12.28,0,0,1,51.266,45.133V38.269a22.4,22.4,0,0,0,6.636-7.6,39.718,39.718,0,0,0,17.9,8.1v6.359A12.28,12.28,0,0,1,63.533,57.4ZM84.255,70.476l.028.029a7.105,7.105,0,0,1,1.591,2.455l.659,1.663a6.974,6.974,0,0,0-2.752-1.093l-11.992-2,1.854-3.4h5.116A7.6,7.6,0,0,1,84.255,70.476Zm.9,8.39-6.977-1.4-6.977-1.4V74.543l12.077,2.012a3.884,3.884,0,0,1,2.946,2.311Zm7.7-2.31,12.077-2.013v1.533l-7.212,1.442-6.74,1.348h-1.07a3.884,3.884,0,0,1,2.945-2.31Zm-70.447,1.5-2.5-1.248a1.525,1.525,0,0,1-.848-1.372V71.11a.307.307,0,0,1,.444-.274l1.528.764a10.788,10.788,0,0,0,4.8,1.133h5.495A1.533,1.533,0,0,0,32.7,70.514l-1.4-2.808a1.449,1.449,0,0,1,.945-2.054h0a1.455,1.455,0,0,1,1.7.868l1.99,4.975v7.371H25.838A7.7,7.7,0,0,1,22.41,78.057Zm13.523,3.876V85H29.8V81.933ZM28.69,101.028l1-12.961h6.247v13.239a3.629,3.629,0,0,1-3.365,3.614,1.564,1.564,0,0,0-.173.009c-.03,0-.06,0-.09,0a3.627,3.627,0,0,1-3.616-3.905Zm19.535-21.2a1.531,1.531,0,0,1,.1-.118l-.093.121Zm-5.3-13.312-.176-1.576A21.984,21.984,0,0,1,44.4,53.819a24.907,24.907,0,0,0,2.026-9.882c0-.428-.016-.849-.033-1.271l-.261-5.306a17.43,17.43,0,1,1,34.839-.875c0,.27-.014.565-.029.875l-.26,5.3A25.226,25.226,0,0,0,82.67,53.816a21.976,21.976,0,0,1,1.793,8.675,23.492,23.492,0,0,1-.144,2.453l-.174,1.58a10.724,10.724,0,0,0-5.386-1.457H71.813a.622.622,0,0,1-.613-.613V58.4a15.338,15.338,0,0,0,7.667-13.27V37.467a1.533,1.533,0,0,0-1.317-1.518,36.661,36.661,0,0,1-18.3-8.134l-.871-.726a1.533,1.533,0,0,0-2.353.492l-.594,1.188a19.317,19.317,0,0,1-6.552,7.422,1.533,1.533,0,0,0-.683,1.276v7.667A15.338,15.338,0,0,0,55.866,58.4v6.05a.622.622,0,0,1-.613.613H48.292a10.8,10.8,0,0,0-5.369,1.449ZM63.533,80.264l-3.272-6H66.8ZM71.2,79.2l12.267,2.453V100L71.2,97.543Zm15.333,2.73H89.6v18.4H86.533ZM94.5,104.895a2.742,2.742,0,0,1-.485.038,3.141,3.141,0,0,1-2.7-1.545c.029,0,.058-.008.086-.013l.034,0h0l.011,0,3.152-.63a3.027,3.027,0,0,0,1.544,1.345,3.2,3.2,0,0,1-1.642.813Zm8.9-4.687h0l-6.133,1.022v-5.7a.462.462,0,0,1,.387-.456l5.208-.868a.5.5,0,0,1,.079-.007.463.463,0,0,1,.46.463v5.545Zm-1.043-9.026-5.208.868A3.518,3.518,0,0,0,94.2,95.531V99.69L92.666,100V81.657L104.933,79.2v12.55a3.519,3.519,0,0,0-2.576-.572Z" fill="#fff"/>
  </g>
</svg>
