<svg xmlns="http://www.w3.org/2000/svg" width="85.094" height="93" viewBox="0 0 85.094 93">
  <g id="tiflopedagogika" transform="translate(-1.361)">
    <g id="Group_328" data-name="Group 328" transform="translate(1.361)">
      <circle id="Ellipse_45" data-name="Ellipse 45" cx="4.034" cy="4.034" r="4.034" transform="translate(52.404 45.797)" fill="#fff"/>
      <path id="Path_1336" data-name="Path 1336" d="M29.588,23.949c-.087.108-2.311,2.7-7.446,2.7s-7.551-2.261-7.589-2.316a.994.994,0,0,0-1.41,1.4c.119.119,2.935,2.9,9.007,2.9,6.127,0,8.87-3.293,8.984-3.43a1,1,0,0,0-1.546-1.253Z" transform="translate(20.558 44.965)" fill="#fff"/>
      <path id="Path_1337" data-name="Path 1337" d="M86.334,49.976c-.7-6.5-3.415-7.865-5.551-7.865a4.987,4.987,0,0,0-1.032.116,58.632,58.632,0,0,0,.6-7.025C80.341,15.762,64.03,0,43.906,0S7.468,15.762,7.468,35.2a65.9,65.9,0,0,0-.038,6.943c-.134-.009-.259-.035-.392-.035-2.142,0-4.845,1.366-5.557,7.865-1.052,9.626,5.086,12.989,7.4,13.9C10.4,68.554,19.547,93,43.682,93h.233C68.2,92.84,77.4,68.534,78.931,63.875,81.242,62.971,87.389,59.617,86.334,49.976ZM37.207,24.824s2.372,2.436-1.1,4.179c3.1,1.863,7.3-4.179,7.3-4.179s.93,4.339-1.924,5.827c4.964,2.979,9.123-5.827,9.123-5.827A24.358,24.358,0,0,1,71.918,37.586h-55.7C23.834,27.309,37.207,24.824,37.207,24.824ZM66.62,49.834A8.82,8.82,0,1,1,57.8,41.013,8.827,8.827,0,0,1,66.62,49.834Zm-28.544,0a8.818,8.818,0,0,1-17.636,0h4.784a4.036,4.036,0,0,0,8.071,0h4.781ZM22.369,40.391a11.194,11.194,0,0,0-1.776,1.619V40.391Zm6.885.622a8.8,8.8,0,0,1,8.725,7.9h-4.8a4.025,4.025,0,0,0-7.844,0H20.588v-.573A8.814,8.814,0,0,1,29.255,41.013Zm10.187,3.13a11.721,11.721,0,0,0-3.3-3.749h3.3ZM77.391,61.268l-.854.2-.233.846c-.076.279-7.949,27.55-32.4,27.707h-.212c-24.269-.006-32.1-27.431-32.165-27.7l-.233-.852-.86-.2C10.139,61.2,3.443,59.486,4.44,50.3c.212-1.941.834-5.208,2.6-5.208A4.444,4.444,0,0,1,9.43,46.137l2.345,2.029.4,1.662h5.359v.006a11.7,11.7,0,0,0,21.609,6.234c.288.668.674,1.072,1.119,1.072.872,0,1.578-1.633,1.578-3.662a5.224,5.224,0,0,0-.9-3.27c.006-.131.041-.256.041-.4a11.63,11.63,0,0,0-.721-3.909v-5.79H51.236a11.72,11.72,0,0,0-5.153,9.693c0,.215.055.424.064.639a6.677,6.677,0,0,0-.424,2.424c0,2.023.706,3.668,1.584,3.668a.962.962,0,0,0,.666-.375,11.711,11.711,0,1,0,16.41-16.041h8.856A38.872,38.872,0,0,1,75.7,47.511l-.1,1.043,2.8-2.427a4.508,4.508,0,0,1,2.392-1.043c1.755,0,2.377,3.27,2.6,5.208C84.366,59.4,77.661,61.2,77.391,61.268Z" transform="translate(-1.361)" fill="#fff"/>
    </g>
  </g>
</svg>
