<svg id="upbringing" xmlns="http://www.w3.org/2000/svg" width="84.68" height="84.68" viewBox="0 0 84.68 84.68">
  <g id="Group_286" data-name="Group 286" transform="translate(14.113 14.113)">
    <g id="Group_285" data-name="Group 285">
      <path id="Path_1294" data-name="Path 1294" d="M149.155,80H115.283a1.411,1.411,0,0,0-1.411,1.411v12.7a1.411,1.411,0,0,0,1.857,1.338l1.774-.591a3.669,3.669,0,1,1,0,6.975l-1.774-.591a1.411,1.411,0,0,0-1.857,1.338v11.291H102.581a1.411,1.411,0,0,0-1.338,1.857l.591,1.774a3.669,3.669,0,1,1-6.975,0l.591-1.774a1.411,1.411,0,0,0-1.338-1.857h-12.7A1.411,1.411,0,0,0,80,115.283v33.872a1.411,1.411,0,0,0,1.411,1.411h67.744a1.411,1.411,0,0,0,1.411-1.411V81.411A1.411,1.411,0,0,0,149.155,80Zm-35.211,56.008a1.412,1.412,0,0,0-.072.445v11.291H82.823V116.695h9.333a6.492,6.492,0,1,0,12.383,0h9.333v11.291a1.411,1.411,0,0,0,1.857,1.338l1.774-.591a3.669,3.669,0,1,1,0,6.975l-1.774-.591A1.411,1.411,0,0,0,113.944,136.008Zm33.8,11.736H116.695v-9.333a6.492,6.492,0,1,0,0-12.383v-9.333h11.291a1.411,1.411,0,0,0,1.338-1.857l-.591-1.774a3.669,3.669,0,1,1,6.975,0l-.591,1.774a1.411,1.411,0,0,0,1.338,1.857h11.291v31.049Zm0-33.872h-9.333a6.492,6.492,0,1,0-12.383,0h-9.333v-9.333a6.505,6.505,0,1,0,0-12.383V82.823h31.049Z" transform="translate(-80 -80)" fill="#fff"/>
    </g>
  </g>
  <g id="Group_288" data-name="Group 288">
    <g id="Group_287" data-name="Group 287">
      <path id="Path_1295" data-name="Path 1295" d="M40.6,12.156a6.492,6.492,0,0,0-3.905,0V1.411A1.411,1.411,0,0,0,35.283,0H1.411A1.411,1.411,0,0,0,0,1.411V35.283a1.411,1.411,0,0,0,1.411,1.411H12.156a6.492,6.492,0,1,0,12.383,0H35.283a1.411,1.411,0,0,0,1.411-1.411V24.539A6.492,6.492,0,0,0,40.6,12.156Zm-.814,9.679a3.67,3.67,0,0,1-2.283,0l-1.774-.591a1.411,1.411,0,0,0-1.857,1.338V33.872H22.581a1.411,1.411,0,0,0-1.338,1.857l.591,1.774a3.669,3.669,0,1,1-6.975,0l.591-1.774a1.411,1.411,0,0,0-1.338-1.857H2.823V2.823H33.872V14.113a1.411,1.411,0,0,0,1.857,1.338L37.5,14.86a3.669,3.669,0,0,1,2.283,6.975Z" fill="#fff"/>
    </g>
  </g>
</svg>
