<svg xmlns="http://www.w3.org/2000/svg" width="30.932" height="28.242" viewBox="0 0 30.932 28.242">
  <path id="add-photo" d="M4.035,5.035V1h2.69V5.035h4.035v2.69H6.724v4.035H4.035V7.724H0V5.035ZM8.069,13.1V9.069H12.1V5.035h9.414l2.461,2.69h4.263a2.7,2.7,0,0,1,2.69,2.69V26.552a2.7,2.7,0,0,1-2.69,2.69H6.724a2.7,2.7,0,0,1-2.69-2.69V13.1Zm9.414,12.1a6.724,6.724,0,1,0-6.724-6.724A6.727,6.727,0,0,0,17.483,25.207Zm-4.3-6.724a4.3,4.3,0,1,0,4.3-4.3,4.3,4.3,0,0,0-4.3,4.3Z" transform="translate(0 -1)" fill="#fff"/>
</svg>
