<svg xmlns="http://www.w3.org/2000/svg" width="12.129" height="14.488" viewBox="0 0 12.129 14.488">
  <g id="cart" transform="translate(-39.092)">
    <g id="Group_1" data-name="Group 1" transform="translate(39.092)">
      <path id="Path_2" data-name="Path 2" d="M50.608,146.815l-8.755,0-.367-1.263a.569.569,0,0,0-.4-.388l-1.284-.347a.566.566,0,0,0-.694.4.566.566,0,0,0,.4.694l.977.264,1.984,7.157a.837.837,0,1,0,1.208.75q0-.016,0-.033h4.039c0,.011,0,.022,0,.033a.837.837,0,1,0,.938-.83c-1-.162-5.1-.36-5.1-.36l-.135-.527h5.112a.59.59,0,0,0,.565-.427l1.1-3.892h.406a.613.613,0,0,0,0-1.227ZM44.1,151.059h-.958c-.026,0-.065.006-.082-.056L43,150.817l-.751-2.646a.043.043,0,0,1,.041-.055h1.165a.043.043,0,0,1,.042.034l.635,2.844,0,.009a.043.043,0,0,1-.041.056Zm2.446-2.89-.518,2.856a.043.043,0,0,1-.042.034h-.723a.043.043,0,0,1-.042-.034l-.518-2.856a.043.043,0,0,1,.042-.052H46.5a.043.043,0,0,1,.042.052Zm2.449,0-.811,2.856a.043.043,0,0,1-.041.031h-.992a.043.043,0,0,1-.042-.052l.638-2.856a.043.043,0,0,1,.042-.034h1.165a.043.043,0,0,1,.034.017A.044.044,0,0,1,48.99,148.171Z" transform="translate(-39.092 -140.427)" fill="#fff"/>
      <path id="Path_3" data-name="Path 3" d="M203.553,5.607a.316.316,0,0,0,.543,0l1.5-2.253a.317.317,0,0,0-.015-.337.324.324,0,0,0-.278-.133h-.85V.629a.629.629,0,0,0-1.258,0V2.885h-.872a.316.316,0,0,0-.271.47Z" transform="translate(-197.095)" fill="#fff"/>
    </g>
  </g>
</svg>
