<svg xmlns="http://www.w3.org/2000/svg" width="17.786" height="21.228" viewBox="0 0 17.786 21.228">
  <path id="Контур_2583" data-name="Контур 2583" d="M131.6,0a4.793,4.793,0,0,0-4.789,4.777V15.493a3.494,3.494,0,0,0,6.988,0V6.133a2.2,2.2,0,1,0-4.4,0v8.1a.733.733,0,1,0,1.466,0v-8.1a.733.733,0,0,1,1.466,0v9.36a2.028,2.028,0,0,1-4.056,0V4.777a3.323,3.323,0,0,1,6.646,0v10.03a.733.733,0,1,0,1.466,0V4.777A4.793,4.793,0,0,0,131.6,0Z" transform="translate(127.611 -46.969) rotate(150)" fill="#bebebe"/>
</svg>
