<svg xmlns="http://www.w3.org/2000/svg" width="15.071" height="15.071" viewBox="0 0 15.071 15.071">
  <path id="Instagram" d="M10.581,15.071H4.49A4.5,4.5,0,0,1,0,10.581V4.489A4.5,4.5,0,0,1,4.49,0h6.092a4.5,4.5,0,0,1,4.49,4.489v6.092A4.5,4.5,0,0,1,10.581,15.071ZM4.49,1.516A2.977,2.977,0,0,0,1.516,4.489v6.092A2.977,2.977,0,0,0,4.49,13.554h6.092a2.977,2.977,0,0,0,2.973-2.973V4.489a2.977,2.977,0,0,0-2.973-2.974Zm3.046,9.917a3.9,3.9,0,1,1,3.9-3.9A3.9,3.9,0,0,1,7.535,11.433Zm0-6.279A2.382,2.382,0,1,0,9.917,7.535,2.384,2.384,0,0,0,7.535,5.154ZM11.44,4.6a.934.934,0,1,1,.934-.934A.935.935,0,0,1,11.44,4.6Z" fill="#fff"/>
</svg>
