<svg xmlns="http://www.w3.org/2000/svg" width="16.116" height="16.104" viewBox="0 0 16.116 16.104">
  <g id="link" transform="translate(0 -0.131)">
    <g id="Сгруппировать_823" data-name="Сгруппировать 823" transform="translate(0 0.131)">
      <path id="Контур_2619" data-name="Контур 2619" d="M147.463,140.515l-1.339-1.339a.674.674,0,1,0-.953.953l1.339,1.339a3.658,3.658,0,1,1-5.173,5.173L140,145.3a.674.674,0,0,0-.953.953l1.339,1.339a5.006,5.006,0,0,0,7.079-7.079Z" transform="translate(-132.81 -132.942)" fill="#bebebe"/>
      <path id="Контур_2620" data-name="Контур 2620" d="M7.573,2.53,8.912,3.869a.674.674,0,1,0,.953-.953L8.526,1.577a5.054,5.054,0,0,0-7.079,0,5.054,5.054,0,0,0,0,7.079L2.785,10a.692.692,0,0,0,.476.2.681.681,0,0,0,.476-1.157L2.4,7.7a3.7,3.7,0,0,1,0-5.173A3.7,3.7,0,0,1,7.573,2.53Z" transform="translate(0 -0.131)" fill="#bebebe"/>
    </g>
    <path id="Контур_2621" data-name="Контур 2621" d="M134.089,134.9a.681.681,0,0,0,.476-1.157l-3.449-3.449a.674.674,0,1,0-.953.953l3.449,3.449A.653.653,0,0,0,134.089,134.9Z" transform="translate(-124.315 -124.315)" fill="#bebebe"/>
  </g>
</svg>
