<svg id="notifications-bell-button" xmlns="http://www.w3.org/2000/svg" width="20.513" height="24.133" viewBox="0 0 20.513 24.133">
  <g id="notifications-none">
    <path id="Path_1" data-name="Path 1" d="M48.507,24.133A2.42,2.42,0,0,0,50.92,21.72H46.093A2.42,2.42,0,0,0,48.507,24.133Zm7.843-7.24V10.257a7.765,7.765,0,0,0-6.033-7.6V1.81a1.81,1.81,0,0,0-3.62,0v.845a7.765,7.765,0,0,0-6.033,7.6v6.637L38.25,19.307v1.207H58.763V19.307ZM53.937,18.1H43.077V10.257a5.43,5.43,0,0,1,10.86,0Z" transform="translate(-38.25 0)" fill="#202020"/>
  </g>
</svg>
