<svg xmlns="http://www.w3.org/2000/svg" width="80" height="73.749" viewBox="0 0 80 73.749">
  <g id="XMLID_996_" transform="translate(0 -20)">
    <g id="XMLID_41_" transform="translate(0 20)">
      <path id="XMLID_4218_" d="M310.3,128.865a1.563,1.563,0,0,0,2.21-2.21l-.021-.021a1.563,1.563,0,0,0-2.21,2.21Z" transform="translate(-261.413 -109.586)" fill="#fff"/>
      <path id="XMLID_4221_" d="M74.1,54.062l5.446-5.446a1.563,1.563,0,0,0-1.1-2.667H67.148a34.064,34.064,0,1,0-57.171,32.2A34.307,34.307,0,0,0,16.238,83.1l-4.707,8.316a1.563,1.563,0,0,0,1.36,2.332h8.047a1.563,1.563,0,0,0,1.36-.793l3.328-5.88a34.474,34.474,0,0,0,16.873,0l3.328,5.88a1.563,1.563,0,0,0,1.36.793h8.047a1.562,1.562,0,0,0,1.36-2.332L51.886,83.1a34.313,34.313,0,0,0,6.262-4.953,33.947,33.947,0,0,0,9-15.972H78.437a1.563,1.563,0,0,0,1.1-2.667ZM71.239,52.5h-10.9l3.426-3.426h10.9ZM20.026,90.624H15.57l3.4-6.008a33.6,33.6,0,0,0,3.591,1.527Zm32.528,0H48.1l-2.536-4.481a33.6,33.6,0,0,0,3.591-1.527Zm3.384-14.686a31.076,31.076,0,0,1-6.851,5.182c-.031.015-.062.029-.092.046s-.036.023-.054.035a30.533,30.533,0,0,1-5.991,2.509,1.548,1.548,0,0,0-.243.07,31.241,31.241,0,0,1-17.291,0,1.552,1.552,0,0,0-.243-.07A30.531,30.531,0,0,1,19.183,81.2c-.018-.011-.035-.024-.054-.035s-.061-.031-.092-.046a31.072,31.072,0,0,1-6.851-5.182A30.937,30.937,0,1,1,63.922,45.949h-.809a1.563,1.563,0,0,0-1.1.458l-4.147,4.147a24.073,24.073,0,0,0-2.724-8.115,1.563,1.563,0,1,0-2.736,1.51A20.749,20.749,0,0,1,54.926,52.5H48.036a14.067,14.067,0,1,0,0,3.125h6.883a20.917,20.917,0,1,1-10.743-19.9,1.563,1.563,0,0,0,1.51-2.736,24.235,24.235,0,0,0-14.839-2.772,24.063,24.063,0,1,0,27.02,27.362l4.141,4.141a1.563,1.563,0,0,0,1.1.458h.809A30.837,30.837,0,0,1,55.938,75.938ZM39.165,51.116a1.562,1.562,0,0,0-2.134-.572l-3.75,2.165a1.562,1.562,0,0,0,0,2.706l3.75,2.165a1.561,1.561,0,0,0,2.221-1.956h5.636A10.853,10.853,0,0,1,41.8,61.8h0a10.935,10.935,0,1,1,3.092-9.3H39.252A1.558,1.558,0,0,0,39.165,51.116ZM63.76,59.051l-3.426-3.426h10.9l3.426,3.426Z" transform="translate(0 -20)" fill="#fff"/>
    </g>
  </g>
</svg>
