<svg xmlns="http://www.w3.org/2000/svg" width="26.5" height="30.151" viewBox="0 0 26.5 30.151">
  <g id="support" transform="translate(-31)">
    <g id="Сгруппировать_678" data-name="Сгруппировать 678" transform="translate(34.533 12.367)">
      <g id="Сгруппировать_677" data-name="Сгруппировать 677" transform="translate(0)">
        <path id="Контур_2587" data-name="Контур 2587" d="M93.65,210A2.653,2.653,0,0,0,91,212.65v7.184a2.65,2.65,0,0,0,5.3,0V212.65A2.653,2.653,0,0,0,93.65,210Z" transform="translate(-91 -210)" fill="#fff"/>
      </g>
    </g>
    <g id="Сгруппировать_680" data-name="Сгруппировать 680" transform="translate(31 14.273)">
      <g id="Сгруппировать_679" data-name="Сгруппировать 679" transform="translate(0)">
        <path id="Контур_2588" data-name="Контур 2588" d="M32.767,243.11a4.383,4.383,0,0,1,.075-.744A2.645,2.645,0,0,0,31,244.877v3.651a2.645,2.645,0,0,0,1.842,2.511,4.383,4.383,0,0,1-.075-.744Z" transform="translate(-31 -242.366)" fill="#fff"/>
      </g>
    </g>
    <g id="Сгруппировать_682" data-name="Сгруппировать 682" transform="translate(41.6 12.367)">
      <g id="Сгруппировать_681" data-name="Сгруппировать 681" transform="translate(0)">
        <path id="Контур_2589" data-name="Контур 2589" d="M220.717,210a2.653,2.653,0,0,0-2.65,2.65v7.184a2.653,2.653,0,0,0,2.65,2.65,2.614,2.614,0,0,0,.759-.124,2.645,2.645,0,0,1-2.526,1.891h-2.813a2.65,2.65,0,1,0,0,1.767h2.813a4.422,4.422,0,0,0,4.417-4.417V212.65A2.653,2.653,0,0,0,220.717,210Z" transform="translate(-211 -210)" fill="#fff"/>
      </g>
    </g>
    <g id="Сгруппировать_684" data-name="Сгруппировать 684" transform="translate(55.658 14.273)">
      <g id="Сгруппировать_683" data-name="Сгруппировать 683">
        <path id="Контур_2590" data-name="Контур 2590" d="M449.722,242.366a4.384,4.384,0,0,1,.075.744v7.184a4.384,4.384,0,0,1-.075.744,2.645,2.645,0,0,0,1.842-2.511v-3.651A2.645,2.645,0,0,0,449.722,242.366Z" transform="translate(-449.722 -242.366)" fill="#fff"/>
      </g>
    </g>
    <g id="Сгруппировать_686" data-name="Сгруппировать 686" transform="translate(31)">
      <g id="Сгруппировать_685" data-name="Сгруппировать 685" transform="translate(0)">
        <path id="Контур_2591" data-name="Контур 2591" d="M44.25,0A13.265,13.265,0,0,0,31,13.25v.023a4.374,4.374,0,0,1,1.807-.821,11.47,11.47,0,0,1,22.886,0,4.375,4.375,0,0,1,1.807.821V13.25A13.265,13.265,0,0,0,44.25,0Z" transform="translate(-31)" fill="#fff"/>
      </g>
    </g>
  </g>
</svg>
