<svg xmlns="http://www.w3.org/2000/svg" width="15.957" height="9.308" viewBox="0 0 15.957 9.308">
  <path id="VK" d="M13.733,5.919A22.073,22.073,0,0,1,15.3,7.539a4.714,4.714,0,0,1,.56.832c.215.43.02.9-.354.929H13.178a1.768,1.768,0,0,1-1.48-.62c-.322-.338-.62-.7-.929-1.047a2.225,2.225,0,0,0-.418-.383.479.479,0,0,0-.774.194A2.582,2.582,0,0,0,9.331,8.56c-.025.564-.19.713-.74.738a5.8,5.8,0,0,1-3.326-.737A7.445,7.445,0,0,1,3.026,6.4,29.343,29.343,0,0,1,.081.989C-.105.562.031.333.487.325,1.246.31,2,.311,2.763.324a.671.671,0,0,1,.631.487A14.691,14.691,0,0,0,4.937,3.757a2.487,2.487,0,0,0,.583.66c.27.19.475.127.6-.182a2.1,2.1,0,0,0,.134-.618,9.484,9.484,0,0,0-.037-2.166A.892.892,0,0,0,5.472.625C5.25.582,5.283.5,5.39.366A.828.828,0,0,1,6.1,0H8.731c.414.084.505.276.562.7l0,3.008c0,.166.08.659.371.769.232.078.385-.113.525-.265a9.362,9.362,0,0,0,1.479-2.344c.178-.37.331-.755.479-1.139a.564.564,0,0,1,.594-.419l2.529,0a1.3,1.3,0,0,1,.223.014c.426.075.543.264.411.693a6.56,6.56,0,0,1-1.005,1.8c-.422.6-.873,1.182-1.291,1.787-.384.552-.354.831.124,1.311Z" fill="#fff"/>
</svg>
